<svg xmlns="http://www.w3.org/2000/svg" xmlns:xlink="http://www.w3.org/1999/xlink" viewBox="0 0 252.51 406"><defs><style>.cls-1,.cls-7{fill:#faebd6;}.cls-1,.cls-10,.cls-43{stroke:#72390d;}.cls-1,.cls-10,.cls-11,.cls-26,.cls-4,.cls-42,.cls-43{stroke-miterlimit:10;}.cls-1,.cls-10,.cls-26,.cls-4,.cls-42,.cls-43{stroke-width:0.5px;}.cls-2,.cls-29{fill:#030202;}.cls-3{fill:#e4e4e4;}.cls-23,.cls-4{fill:#586da8;}.cls-26,.cls-4{stroke:#080919;}.cls-10,.cls-11,.cls-26,.cls-5{fill:none;}.cls-6{fill:#0b0b0c;}.cls-8{clip-path:url(#clip-path);}.cls-43,.cls-9{fill:#c2714e;}.cls-11{stroke:#030202;}.cls-12{clip-path:url(#clip-path-2);}.cls-13{clip-path:url(#clip-path-3);}.cls-14{fill:#72390d;}.cls-15{clip-path:url(#clip-path-4);}.cls-16{clip-path:url(#clip-path-5);}.cls-17{fill:#9b9b9b;}.cls-18{fill:#626262;}.cls-19{clip-path:url(#clip-path-6);}.cls-20{fill:#b0b0b0;}.cls-21{opacity:0.8;}.cls-22{clip-path:url(#clip-path-7);}.cls-24{clip-path:url(#clip-path-8);}.cls-25{fill:#131b2b;}.cls-27{fill:#08080a;}.cls-28{clip-path:url(#clip-path-9);}.cls-29{opacity:0.9;}.cls-30{opacity:0.08;}.cls-31,.cls-42{fill:#fff;}.cls-32{fill:#010102;}.cls-33{fill:#414042;}.cls-34{fill:#120f0e;}.cls-35{fill:#14a5dc;}.cls-36{fill:#010002;}.cls-37{fill:#00d8f5;}.cls-38{fill:#404041;}.cls-39{clip-path:url(#clip-path-10);}.cls-40{clip-path:url(#clip-path-11);}.cls-41{fill:#171519;}.cls-42{stroke:#171519;}.cls-44{clip-path:url(#clip-path-12);}.cls-45{clip-path:url(#clip-path-13);}</style><clipPath id="clip-path"><path class="cls-1" d="M226,170.7a25.2,25.2,0,0,0-6.58,3.7c-2.66,2.27-3.56,2.87-3.85,4.78s-2.68,6.83-3.42,7.9-1.56,2.28,1.86,2.11c4.95-.24,5.3-5.12,6.8-7.37a8.49,8.49,0,0,1,3.94-3.07s-.28,8.54-1.29,11.29-3.26,7.25-1,7.7c1.84.36,3.35-1.13,4.87-6.46s2.52-6.55,2.52-6.55a23.64,23.64,0,0,1,.31,7.21c-.38,2.77-3.87,10.53-3.43,12.16s-.25,2.37,1.81,2.1,2.19-1.3,2.19-1.3,2.27,1.89,3.34-.36c.18-.38.59-1.08,1-1.87,1.75-3.2,3.88-11.82,4.14-12.89.33-1.34,1.37,3.71.71,5.7s-.29,9.32.62,9.4,2,.29,2.33-1.62.51-5.53.64-7.8.64-7.12-.56-9.05,1.9-13,1.9-13,1.6-8.06-4.5-8.14-12.38-1.33-12.79.57A43.39,43.39,0,0,1,226,170.7Z"/></clipPath><clipPath id="clip-path-2"><path class="cls-2" d="M145.35,70.23s-19.66,2-22.44,2.84-39.83,41.12-39.83,41.12-4.59,15.15-3,16.79,1.55,4.68,5.07,3.82a91.67,91.67,0,0,0,9.65-3,129.61,129.61,0,0,0,13.22-6l21-16.85Z"/></clipPath><clipPath id="clip-path-3"><path class="cls-7" d="M99.49,95.22s2-5.74,3.47-7.49,8.65-7.25,9.94-7.56,11.61,1.87,12.38,2.5S127,89.46,127,90.1a16.08,16.08,0,0,1-4.58,3.42c-.74.83-.66,1.64-1.48,2.61-.4,1.55-6.32,4-6.63,4-1.28.17-2.9,3.71-2.9,3.71s-5.28,2.25-8.39.15S99.49,95.22,99.49,95.22Z"/></clipPath><clipPath id="clip-path-4"><path class="cls-7" d="M128.38,91.11s-1.92-1.93-5.34,1.17-3.19,4.33-2.22,5.23,6.3-1.42,7.41-2.49S129.79,92.11,128.38,91.11Z"/></clipPath><clipPath id="clip-path-5"><path class="cls-5" d="M97.26,92.41c-1.24.44-15.6,21.71-15.6,21.71s-6.46,17.76-2,19.74,14.5,2.46,21.86-3.91c6-10.88,11-26.1,11-26.1S98,107.26,99,94.84C99.35,94.86,98.49,92,97.26,92.41Z"/></clipPath><clipPath id="clip-path-6"><path class="cls-3" d="M85.47,356.59s-3.37,10.35-10.71,14.94-3.47,1.94-3.47,1.94-8.11,2.82-8.47,5.82a72.4,72.4,0,0,0,0,9s3.18,4.59,8.3,4.77,13.23,1.59,16.41-2.12a82.76,82.76,0,0,1,7.76-7.59,3,3,0,0,1,2.12-2.82,1.58,1.58,0,0,1,2.12,1.59s9-2.83,10.41-4.41,1.59-11.47,1.59-11.47Z"/></clipPath><clipPath id="clip-path-7"><path id="zapato_I" data-name="zapato I" class="cls-3" d="M224.68,369.12v15.35s-1.58,1.77-2.82,3a4.35,4.35,0,0,0-1.24,2.82v8.65s3.36,5.3,9.71,5.47,11.65-.35,15.88-4.06,3.18-3.17,3.18-3.17l.12-9.53a1.59,1.59,0,0,1-1.89-.87c-.52-1.25,0-16.78,0-16.78S235.1,357.65,224.68,369.12Z"/></clipPath><clipPath id="clip-path-8"><path class="cls-4" d="M125.29,160.47S102.74,204.32,97.48,214c-6.08,11.22-12.93,36-15.45,42s-5.72,10.63-5.91,15.1,1.34,8.43,2.13,16.38,8,51.65,6.66,54.38-5.59,5.47-4.4,7,4.25,1.73,3.58,4.71-3.45,7.45-1.32,8.2,10,6.22,17.55,8.7,12,1.74,12.47,0,.45-13.67,1.85-15.16,4.9-3.23,3.46-6-5-7.2-5.06-10.92,3.72-26.33,3.17-33.28-.83-11.67-3-16.39-2-8.68-2-13.91c0-3.29-3.65-2.13-2.74-5.11s16.72-26.61,21.66-34.31,13-27.19,14.2-27.19c.11,0,1.67-.28,1.89.34,2.23,6.34,7.9,43.13,15.26,54.17,8.07,12.1,7.58,20.48,10.62,24.4s24.26,24.4,29.86,36.32,14.73,26.8,14.27,32.76-1.87,6.89,1.87,10.24,5.79,10.82,5.79,10.82,1.87-7.26,8.92-7.45,15.42,5.78,15.28,9.13c1.39-1.68,3.32-3.35,2.05-6.52s-2.85-2.05-1.47-4.65,2.76-6.52,2.73-9.13-10.27-8.44-11.54-11.42-9.37-34.9-10.84-40.11-15.45-20-18.48-22.23-5-9.13-6.47-11.17-7.08-2.24-8-6-9-62.39-10.72-78-.36-17.37-.36-17.37l-48.24-5.43Z"/></clipPath><clipPath id="clip-path-9"><path class="cls-5" d="M145.85,76.18s12.46,13,25.5-2.91l20.27.67-14.47,74.12-2.3,24.88a138.78,138.78,0,0,1-26.74,1.12c-13.19-.94-15.67-.41-20-3.83s-7.24-15.73-5.2-30.39,13-43.9,14.47-48.37c.8-2.51,1.92-7.11,4-10.59A18.15,18.15,0,0,1,145.85,76.18Z"/></clipPath><clipPath id="clip-path-10"><path id="Bazo_I" data-name="Bazo I" class="cls-6" d="M220.75,172.47s8.56-2.67,14.76-1.22c5.39,1.25,8.39,6.68,9.92,6.34,2.95-12.82-.56-38.46-2.18-45.94-.89-4.1-8.47-15.8-8.47-15.8S208,121,213.14,135.23c6.7,12.8,5.3,9.71,7.19,13.94S226.11,161.36,220.75,172.47Z"/></clipPath><clipPath id="clip-path-11"><path class="cls-5" d="M177.19,66.21c-1.33,0-3.25,4.39-6.29,8.91-1.51,4.4-7.5,89.18-9.22,115.88-.29,4.56-1.26,6.64-.46,7.22s2.92-.72,6.67-1.75c4.88-1.34,19.21-7.71,22.32-9.21,5.5-2.66,1.78-35,2.49-36.37s1.34-3.12.58-4.39,2.62-31.42,2.62-31.42-10.9-12.5-5-24.66S200.36,75,200.36,75L183,72.87s-1.51-1.21-3.25-2.55S178.53,66.22,177.19,66.21Z"/></clipPath><clipPath id="clip-path-12"><path class="cls-5" d="M159.84,55.06s0-1.61-3.35-2.37a15.06,15.06,0,0,0-5.43-.39l.32,1.57"/></clipPath><clipPath id="clip-path-13"><path class="cls-5" d="M173.2,50.56l-.71-1.68c-2.42.33-5.25,4-5.25,4"/></clipPath></defs><g id="Frame3"><g id="Frame_1" data-name="Frame 1"><path id="Zapato_I-2" data-name="Zapato I" d="M222.4,174.59s14,10.06,24.45,2.47C242.62,165.24,222.89,164.88,222.4,174.59Z"/><g id="Mano_I" data-name="Mano I"><path class="cls-7" d="M226,170.7a25.2,25.2,0,0,0-6.58,3.7c-2.66,2.27-3.56,2.87-3.85,4.78s-2.68,6.83-3.42,7.9-1.56,2.28,1.86,2.11c4.95-.24,5.3-5.12,6.8-7.37a8.49,8.49,0,0,1,3.94-3.07s-.28,8.54-1.29,11.29-3.26,7.25-1,7.7c1.84.36,3.35-1.13,4.87-6.46s2.52-6.55,2.52-6.55a23.64,23.64,0,0,1,.31,7.21c-.38,2.77-3.87,10.53-3.43,12.16s-.25,2.37,1.81,2.1,2.19-1.3,2.19-1.3,2.27,1.89,3.34-.36c.18-.38.59-1.08,1-1.87,1.75-3.2,3.88-11.82,4.14-12.89.33-1.34,1.37,3.71.71,5.7s-.29,9.32.62,9.4,2,.29,2.33-1.62.51-5.53.64-7.8.64-7.12-.56-9.05,1.9-13,1.9-13,1.6-8.06-4.5-8.14-12.38-1.33-12.79.57A43.39,43.39,0,0,1,226,170.7Z"/><g class="cls-8"><path class="cls-9" d="M213.36,189.81s3.4-1,5.3-7.05,1.88-9.23,1.88-9.23l4.16-2.95,2.52-6.19,4.28-.82s7.49.38,10.56,1.4a3.42,3.42,0,0,1,1,.47c.83.64,2.07,4,2.52,5.64.21.77.26,1.2,0,.84-.51-.76-1.34,9.38-2,8.84-.86-.72-2.2-4.83-6.44-6.51-3.77-1.5-5.64-2-7.36-1.08-2.27,1.25-2.86,5-3,6.31a44.18,44.18,0,0,1-3.35,14.14c-.6,1.42-1.34,3.08-.77,3.47,1.57,1.06,3.73-1.15,3.73-1.15l-2.32,2.69-4.24-.57,3-12.18.23-5-4.92,7Z"/><path class="cls-9" d="M229.45,185.32l1.89-3.39a38.49,38.49,0,0,1,1,7.78,24.73,24.73,0,0,1-2.47,9.18c-1.44,3.12-3.1,6.22-1.42,7.31s-4.16,3-4.79,2.05,2.34-7.28,2.34-7.28a15.61,15.61,0,0,1,.88-3.46C227.4,196.7,229.45,185.32,229.45,185.32Z"/><path class="cls-9" d="M235.86,184l-2.19,12s-4.09,8.91-3.07,9.57a1.75,1.75,0,0,0,2-.27s-1.25-.31.15-3.8S236.85,188.23,235.86,184Z"/><path class="cls-9" d="M239.22,193.65l0-5.47s2.3,2.94,2.27,4.91c-.05,3.13-1.58,11.57-.08,12.8-.15.93-1.71-.15-1.71-.15l-1.94-3.16Z"/><path class="cls-1" d="M230.69,204.9s2.81-9,3.23-11,1.94-9.88,1.94-9.88"/></g><path class="cls-10" d="M226,170.7a25.2,25.2,0,0,0-6.58,3.7c-2.66,2.27-3.56,2.87-3.85,4.78s-2.68,6.83-3.42,7.9-1.56,2.28,1.86,2.11c4.95-.24,5.3-5.12,6.8-7.37a8.49,8.49,0,0,1,3.94-3.07s-.28,8.54-1.29,11.29-3.26,7.25-1,7.7c1.84.36,3.35-1.13,4.87-6.46s2.52-6.55,2.52-6.55a23.64,23.64,0,0,1,.31,7.21c-.38,2.77-3.87,10.53-3.43,12.16s-.25,2.37,1.81,2.1,2.19-1.3,2.19-1.3,2.27,1.89,3.34-.36c.18-.38.59-1.08,1-1.87,1.75-3.2,3.88-11.82,4.14-12.89.33-1.34,1.37,3.71.71,5.7s-.29,9.32.62,9.4,2,.29,2.33-1.62.51-5.53.64-7.8.64-7.12-.56-9.05,1.9-13,1.9-13,1.6-8.06-4.5-8.14-12.38-1.33-12.79.57A43.39,43.39,0,0,1,226,170.7Z"/></g><g id="Antebrazo_D" data-name="Antebrazo D"><path class="cls-11" d="M144.27,72.1s-18.58.15-21.36,1-39.83,41.12-39.83,41.12-4.59,15.15-3,16.79,1.55,4.68,5.07,3.82a91.67,91.67,0,0,0,9.65-3,129.61,129.61,0,0,0,13.22-6l21-16.85Z"/><path class="cls-2" d="M145.35,70.23s-19.66,2-22.44,2.84-39.83,41.12-39.83,41.12-4.59,15.15-3,16.79,1.55,4.68,5.07,3.82a91.67,91.67,0,0,0,9.65-3,129.61,129.61,0,0,0,13.22-6l21-16.85Z"/><g class="cls-12"><polygon class="cls-6" points="99.14 125.77 107.94 117.48 129.43 74.59 142.18 70.84 125.05 67.97 88.56 105.41 87.08 127.11 99.14 125.77"/></g></g><g id="BazoComp_D" data-name="BazoComp D"><path id="Manga_D" data-name="Manga D" d="M97.67,93.09s14.4,1,14.84,10.76S93.83,106,97.67,93.09Z"/><path class="cls-7" d="M99.49,95.22s2-5.74,3.47-7.49,8.65-7.25,9.94-7.56,11.61,1.87,12.38,2.5S127,89.46,127,90.1a16.08,16.08,0,0,1-4.58,3.42c-.74.83-.66,1.64-1.48,2.61-.4,1.55-6.32,4-6.63,4-1.28.17-2.9,3.71-2.9,3.71s-5.28,2.25-8.39.15S99.49,95.22,99.49,95.22Z"/><g class="cls-13"><path class="cls-9" d="M103.19,104.43s2.9-2.4,2.78-4.88a15.58,15.58,0,0,1,.83-5.15s4.7,3.53,5.42,2.71S114,93,115,93s4.1-1.66,4-3.41c.46.09,3-1.85,2.61-3.6.45-.15,5.25,2.78,5.25,2.78l1.5,4.72-12.25,8.89-8.88,5.36Z"/></g><path class="cls-14" d="M111.22,96.88a29.06,29.06,0,0,0-4-1.79l0-.5a28,28,0,0,1,4.18,1.85Z"/><path class="cls-14" d="M112.38,99.07a3.78,3.78,0,0,1-2.07-.74,5.33,5.33,0,0,1-1.59-2,6.53,6.53,0,0,1-2.55,1.08l-.11-.48c1.19-.28,2.49-.84,2.47-1.21h0l.5,0h0a4.23,4.23,0,0,0,1.58,2.21,3.1,3.1,0,0,0,2.62.56c1.65-.38,2-3.4,2.18-4.68l0-.32c.07-.56-2.51-2.58-4.94-4.14l.27-.42c1.25.8,5.32,3.5,5.16,4.63l0,.3c-.17,1.4-.57,4.65-2.56,5.11A3.49,3.49,0,0,1,112.38,99.07Z"/><path class="cls-14" d="M115.55,98c-.3,0-.64,0-1-.09l.07-.49c1.92.27,2.45-.1,3-.45a4.29,4.29,0,0,1,.57-.33c.64-.3,1.58-5.53,1.32-6.53-.14-.53-3.2-2.54-6.08-4.16l.25-.44c1,.57,6,3.47,6.31,4.48s-.51,6.61-1.59,7.1a4,4,0,0,0-.49.29A3.21,3.21,0,0,1,115.55,98Z"/><path class="cls-14" d="M119,96.29l-.19-.46c3-1.19,3.09-2.9,3.09-2.92.27-2.06.56-5.35.25-6s-4-2.53-6.21-3.56l.21-.46c1,.46,6,2.8,6.46,3.82s-.14,5.74-.21,6.27C122.44,93,122.34,95,119,96.29Z"/><path class="cls-14" d="M106.09,105.14a6.09,6.09,0,0,1-3.24-1c-3.17-2.15-3.59-8.68-3.61-9v0l0,0c.08-.24,2-5.81,3.5-7.57s8.66-7.3,10.08-7.64c1.24-.3,11.72,1.83,12.6,2.55s1.8,7.12,1.78,7.62-2.46,2.39-4.67,3.62a3.6,3.6,0,0,0-.63,1.12,4.75,4.75,0,0,1-.79,1.41c-.56,1.74-6.56,4.1-6.82,4.13-.83.11-2.09,2.24-2.7,3.56l0,.09-.09,0A14.57,14.57,0,0,1,106.09,105.14Zm-6.34-9.89c0,.61.55,6.61,3.38,8.53s7.37.14,8.07-.13c.3-.65,1.75-3.59,3-3.76.41-.09,6.06-2.45,6.41-3.82l.06-.1a4.53,4.53,0,0,0,.74-1.31,3.93,3.93,0,0,1,.74-1.3l.06,0A17.89,17.89,0,0,0,126.73,90c0-.7-1-6.64-1.61-7.16S114.27,80.1,113,80.41s-8.38,5.74-9.81,7.48S100,94.69,99.75,95.25Z"/><path class="cls-7" d="M128.38,91.11s-1.92-1.93-5.34,1.17-3.19,4.33-2.22,5.23,6.3-1.42,7.41-2.49S129.79,92.11,128.38,91.11Z"/><g class="cls-15"><path class="cls-9" d="M127.82,95.35s-5.5,1.35-5.13,0,3.68-4.84,3.68-4.84a4.65,4.65,0,0,0-4.88,1.21C119.31,94,119.05,99,119.05,99l3.69.63Z"/></g><path class="cls-14" d="M121.47,98a1.25,1.25,0,0,1-.83-.26,2,2,0,0,1-.7-1.44c0-1,1-2.36,2.93-4.16,3.37-3,5.44-1.38,5.67-1.18a2.3,2.3,0,0,1,1,1.71,3.41,3.41,0,0,1-1.1,2.58C127.43,96.14,123.4,98,121.47,98Zm5.31-7.19a5.2,5.2,0,0,0-3.57,1.7c-1.85,1.68-2.75,2.92-2.76,3.79a1.4,1.4,0,0,0,.54,1.08c.77.72,5.94-1.4,7.07-2.49a2.89,2.89,0,0,0,.95-2.18,1.74,1.74,0,0,0-.78-1.35l0,0A2.18,2.18,0,0,0,126.78,90.76Z"/><g id="Brazo_D" data-name="Brazo D"><path class="cls-2" d="M97.26,92.41c-1.24.44-15.6,21.71-15.6,21.71s-6.46,17.76-2,19.74,14.5,2.46,21.86-3.91c6-10.88,11-26.1,11-26.1S98,107.26,99,94.84C99.35,94.86,98.49,92,97.26,92.41Z"/><g class="cls-16"><path class="cls-6" d="M78.47,135.53s4.2-11.41,9.15-16.91S94.53,105,97.3,104c1.91-.67,2-1.49,2-1.49s-1.52-1.52-1-4.87c.71-4.27-2-9.21-2-9.21L79.28,114.35l-3.57,16.87Z"/></g></g></g><g id="Chaqueta_D" data-name="Chaqueta D"><path class="cls-2" d="M132.81,95l-4.25,9.42s-18.07,81.86-15.81,83.63,2.79,1.59,6.85-.71S132.81,95,132.81,95Z"/><path class="cls-17" d="M148,60.33s-12.62,4.72-13.41,16.24c-.47,6.71-22.41,111.49-19.12,111.49s20.13-17.18,20.13-17.18l12.15-99.35Z"/><path class="cls-18" d="M135.61,170.88s-14.57,15.77-13.7,9.18,5.57-45.18,5.57-45.18S134,111.09,136,101s1.62-19.34,4.78-24.93a26,26,0,0,1,7.89-8.84Z"/></g><path class="cls-9" d="M165.13,69.88l-13.21,1.29-5.76-6a58.84,58.84,0,0,1,.55,8.27c-.07,1.25-2.59,8-2.59,8,7.7,5.38,14.23,2.87,18.43,1.6,5.46-1.66,8.89-9.41,8.89-9.41l-2.5-7.51Z"/><path class="cls-10" d="M151.77,84.22s-4.94-17.92-6.18-20.53"/><g id="zapato_D" data-name="zapato D"><path class="cls-3" d="M85.47,356.59s-3.37,10.35-10.71,14.94-3.47,1.94-3.47,1.94-8.11,2.82-8.47,5.82a72.4,72.4,0,0,0,0,9s3.18,4.59,8.3,4.77,13.23,1.59,16.41-2.12a82.76,82.76,0,0,1,7.76-7.59,3,3,0,0,1,2.12-2.82,1.58,1.58,0,0,1,2.12,1.59s9-2.83,10.41-4.41,1.59-11.47,1.59-11.47Z"/><g class="cls-19"><path class="cls-20" d="M62.67,375.59s.68,5.65,3.33,7.06a34.5,34.5,0,0,0,5.65,2.29s2.47,9.18,3.88,9.71-10.24.35-10.24.35l-6-6Z"/><path class="cls-20" d="M87.1,393.47V381.59l-1-1.59s14.19-10.76,15.6-18.53,16.41,3.88,16.41,3.88l-2.3,13.94-15.35,8.47Z"/><path class="cls-6" d="M69.82,371.12s-5.41,7.29-2.11,9.17,12.23,3.77,15.53,1.65,16.7-11.53,18.58-21.65S82,355.06,82,355.06,78.76,369,69.82,371.12Z"/><path class="cls-21" d="M112.94,382.12s-21.3,10.49-33.37,15.47c-4.77,2-16.9-6.8-16.9-7.53s11.59,4,21.15.53c4.94-1.81,10.21-6,14.12-8.47,8.81-5.52,12-5.12,10.24-9.18-6.74-.25-26.4-1-32.3,1.41-6.88,2.83-14.82,7.06-14.82,7.06l-1.24-5.12,12.06-9.64,12-13.24,28.71,10,4.92,5.29Z"/></g></g><path id="zapato_I-3" data-name="zapato I" class="cls-3" d="M224.68,369.12v15.35s-1.58,1.77-2.82,3a4.35,4.35,0,0,0-1.24,2.82v8.65s3.36,5.3,9.71,5.47,11.65-.35,15.88-4.06,3.18-3.17,3.18-3.17l.12-9.53a1.59,1.59,0,0,1-1.89-.87c-.52-1.25,0-16.78,0-16.78S235.1,357.65,224.68,369.12Z"/><g class="cls-22"><path class="cls-6" d="M223.45,367.18v18.64s-1.06,9.06,9.35,8.71,12.88-3.53,15.71-10.19c1.25-2.95-.89-18.4-.89-18.4s-6.35-3.08-12.55-3C229.49,363,224,366.17,223.45,367.18Z"/><path class="cls-21" d="M220.62,386.59c4.06,0,7.77.62,8.48-2.25a30.65,30.65,0,0,0,.7-6.22s-.59-3.88,5.27-4.24,13.44,7.94,13.44,7.94l2.29-10.76-9.53-9.35s-14.65-1.59-14.82-1.06S220.62,386.59,220.62,386.59Z"/><path class="cls-20" d="M220.62,388.53s.95,7.53,7.45,8.82a17.67,17.67,0,0,0,4.2.36l.53,8.29-12.18-1.56L217.8,397Z"/><path class="cls-20" d="M244.8,402.65l.18-8.12s3.59-1.59,4.53-8.47c3.94,4.41,2.35,12.7,2.35,12.7Z"/><path class="cls-21" d="M218.15,393.82s7.06,10.94,18.36,8.65,15-8.82,15-8.82l-2,7.23s-5.41,6.53-6.47,6.53S227.86,406,225.74,406s-6.88-6.22-6.88-6.22Z"/></g><g id="Piernas"><g id="Piernas-2" data-name="Piernas"><path class="cls-23" d="M125.29,160.47S102.74,204.32,97.48,214c-6.08,11.22-12.93,36-15.45,42s-5.72,10.63-5.91,15.1,1.34,8.43,2.13,16.38,8,51.65,6.66,54.38-5.59,5.47-4.4,7,4.25,1.73,3.58,4.71-3.45,7.45-1.32,8.2,10,6.22,17.55,8.7,12,1.74,12.47,0,.45-13.67,1.85-15.16,4.9-3.23,3.46-6-5-7.2-5.06-10.92,3.72-26.33,3.17-33.28-.83-11.67-3-16.39-2-8.68-2-13.91c0-3.29-3.65-2.13-2.74-5.11s16.72-26.61,21.66-34.31,13-27.19,14.2-27.19c.11,0,1.67-.28,1.89.34,2.23,6.34,7.9,43.13,15.26,54.17,8.07,12.1,7.58,20.48,10.62,24.4s24.26,24.4,29.86,36.32,14.73,26.8,14.27,32.76-1.87,6.89,1.87,10.24,5.79,10.82,5.79,10.82,1.87-7.26,8.92-7.45,15.42,5.78,15.28,9.13c1.39-1.68,3.32-3.35,2.05-6.52s-2.85-2.05-1.47-4.65,2.76-6.52,2.73-9.13-10.27-8.44-11.54-11.42-9.37-34.9-10.84-40.11-15.45-20-18.48-22.23-5-9.13-6.47-11.17-7.08-2.24-8-6-9-62.39-10.72-78-.36-17.37-.36-17.37l-48.24-5.43Z"/><g class="cls-24"><path class="cls-25" d="M131.9,239.37s5.47-28.38,4.92-35.09-11.24-14.9-16.47-13.41-13.63,15.1-17.54,23c-3.35,6.78-17.36,37.91-21.46,47.9-.7,1.71-7.29,7.83,2.43,10,3.74.83,8.11,1.43,9.16,3.75,1.69,3.73-8.12,9.93-8.56,13.66s18.63,46.69,16.11,53.15-17.72,3.25-19.91,5,6,1.72,10.3,3.46,9.25,2,9.27,3.49-2.87,17.38-2.87,17.38l-17.79-8.2-.91-19.37,3.68-7.7L74.9,282.28l-7-15.15s7.07-15,7.78-14.93,24.51-61.75,24.51-61.75l7.87-12.17,14.94-21s38.69,7.29,49.2,11.91c3.08,1.36,1,4.54-5,5.61-12.16,2.17-35.94,2.41-34.37,8.48,1.11,4.28,12.91,6.76,14.72,9,6.05,7.7,5,21.28,9.41,35.53.67,2.18,20.75,51.47,23.36,53.46s5,1.74,8.12.25c2.18-1,4.71-1,6.33,2,.73,1.34,1.59,14.71,2.78,19.37s3.89,9.6,5.41,13.06c3.09,7,13,20.5,17.76,22.92,4.51,2.3,1,7.69-.82,11.67s-6.9,12.93-6.9,12.93l4.3,5.22s10.64-15.25,15.19-16.74,7.88,3.41,7.88,3.41,6.57,9.59,4.22,9.84-10.59-4.72-15.39,1-7.4,13.94-7.4,13.94l-9.85-5.73-17.34-41.26L145.25,233.08Z"/><path class="cls-25" d="M242.22,350.51s-30.59-27.82-34-33.78c7.49,6.89,20.85,18.71,30,17S242.22,350.51,242.22,350.51Z"/><path class="cls-25" d="M115.84,341.19s-14.49-11.48-21.08-33.64c4,8.56,13.92,23.95,20.83,26.56A11.35,11.35,0,0,1,115.84,341.19Z"/><path class="cls-25" d="M111,266.24s-5.21,5.25-4.85,7.67,6,1.95,7.5,1.15c1.2-.65,1-4.87,1-4.87Z"/></g><path class="cls-26" d="M125.29,160.47S102.74,204.32,97.48,214c-6.08,11.22-12.93,36-15.45,42s-5.72,10.63-5.91,15.1,1.34,8.43,2.13,16.38,8,51.65,6.66,54.38-5.59,5.47-4.4,7,4.25,1.73,3.58,4.71-3.45,7.45-1.32,8.2,10,6.22,17.55,8.7,12,1.74,12.47,0,.45-13.67,1.85-15.16,4.9-3.23,3.46-6-5-7.2-5.06-10.92,3.72-26.33,3.17-33.28-.83-11.67-3-16.39-2-8.68-2-13.91c0-3.29-3.65-2.13-2.74-5.11s16.72-26.61,21.66-34.31,13-27.19,14.2-27.19c.11,0,1.67-.28,1.89.34,2.23,6.34,7.9,43.13,15.26,54.17,8.07,12.1,7.58,20.48,10.62,24.4s24.26,24.4,29.86,36.32,14.73,26.8,14.27,32.76-1.87,6.89,1.87,10.24,5.79,10.82,5.79,10.82,1.87-7.26,8.92-7.45,15.42,5.78,15.28,9.13c1.39-1.68,3.32-3.35,2.05-6.52s-2.85-2.05-1.47-4.65,2.76-6.52,2.73-9.13-10.27-8.44-11.54-11.42-9.37-34.9-10.84-40.11-15.45-20-18.48-22.23-5-9.13-6.47-11.17-7.08-2.24-8-6-9-62.39-10.72-78-.36-17.37-.36-17.37l-48.24-5.43Z"/></g></g><g id="Torzo"><path class="cls-27" d="M145.85,76.18s12.46,13,25.5-2.91l20.27.67-14.47,74.12-2.3,24.88a138.78,138.78,0,0,1-26.74,1.12c-13.19-.94-15.67-.41-20-3.83s-7.24-15.73-5.2-30.39,13-43.9,14.47-48.37c.8-2.51,1.92-7.11,4-10.59A18.15,18.15,0,0,1,145.85,76.18Z"/><g class="cls-28"><polygon class="cls-29" points="135.33 83.94 195.03 95.85 194.32 69.81 138.56 73.27 135.33 83.94"/><path class="cls-29" d="M180.91,152.65s.67,10.11-13.76,12.23c-17.92,2.63-43.77.16-46.47-6.94-1,11.91,10.82,19.35,13.17,20.35l41.41-1.17s5.65-5.41,6.36-5.41S180.91,152.65,180.91,152.65Z"/><g class="cls-30"><path class="cls-31" d="M158.76,98.32a6.66,6.66,0,0,0,3.18-.82,3.26,3.26,0,0,0,1.8-2.24,3.2,3.2,0,0,0-.31-1.66,3.14,3.14,0,0,0-.44-.75,1.68,1.68,0,0,0-.24-.29,1.14,1.14,0,0,1-.29-.29c-.19-.31.34-.09.43,0a3.25,3.25,0,0,1,.7.4,4.44,4.44,0,0,1,1.06,1.1,5.1,5.1,0,0,1-.43,5.86,7.91,7.91,0,0,1-2.12,2,7.62,7.62,0,0,1-1.48.75,5.24,5.24,0,0,1-1.62.37,2.25,2.25,0,0,1-2.15-1.88A2.11,2.11,0,0,1,158,98.49a1.84,1.84,0,0,1,.77-.17C159.77,98.3,158.57,98.32,158.76,98.32Z"/><path class="cls-32" d="M158.78,102.9a2.52,2.52,0,0,1-2.17-2.09,2.36,2.36,0,0,1,1.28-2.55,2.1,2.1,0,0,1,.84-.19h.14a6.35,6.35,0,0,0,2.95-.79,3.1,3.1,0,0,0,1.68-2.06,3,3,0,0,0-.28-1.53,3.77,3.77,0,0,0-.41-.7,1.44,1.44,0,0,0-.22-.25l-.08-.07a1.07,1.07,0,0,1-.25-.27.38.38,0,0,1,0-.39.31.31,0,0,1,.32-.15A2,2,0,0,1,163,92a3.54,3.54,0,0,1,.75.43,4.58,4.58,0,0,1,1.12,1.16,5.4,5.4,0,0,1-.43,6.16,7.94,7.94,0,0,1-2.18,2,7.5,7.5,0,0,1-1.52.77,5,5,0,0,1-1.69.38Zm0-4.33a1.64,1.64,0,0,0-.68.15,1.87,1.87,0,0,0-1,2,2,2,0,0,0,1.72,1.65H159a5,5,0,0,0,1.55-.35,9.22,9.22,0,0,0,1.43-.73,7.83,7.83,0,0,0,2.06-1.9,4.9,4.9,0,0,0,.43-5.57,4,4,0,0,0-1-1,3,3,0,0,0-.38-.24l.1.12a4.93,4.93,0,0,1,.47.8,3.47,3.47,0,0,1,.32,1.81,3.56,3.56,0,0,1-1.91,2.41,6.66,6.66,0,0,1-2.82.82l-.06,0h-.41Z"/><path class="cls-32" d="M159.53,100.44c.83,0,.24,0,0,0a6.23,6.23,0,0,0,3.29-1.27,4.55,4.55,0,0,0,1.82-2.8,4.1,4.1,0,0,0-.21-2.12A3.87,3.87,0,0,0,163,92.47c-.13-.09.88,0,1.71,1.25a5.12,5.12,0,0,1-.43,5.87,7.91,7.91,0,0,1-2.13,2,7.27,7.27,0,0,1-1.47.75C160.17,102.49,159.25,100.45,159.53,100.44Z"/><path class="cls-33" d="M159.57,100.44h0Z"/><path class="cls-31" d="M148.37,97.38a7.41,7.41,0,0,1-3.1-1.38,3.77,3.77,0,0,1-1.62-2.55,3,3,0,0,1,.42-1.6,3.65,3.65,0,0,1,.5-.67,1.55,1.55,0,0,1,.27-.24,1.33,1.33,0,0,0,.3-.23c.21-.27-.33-.16-.43-.13a3.13,3.13,0,0,0-.72.27,3.78,3.78,0,0,0-1.13.9c-1.39,1.63-1.1,4.07,0,5.9a9.42,9.42,0,0,0,2,2.33,9.3,9.3,0,0,0,1.41,1,5.44,5.44,0,0,0,1.58.65,2,2,0,0,0,2.28-1.47,2.32,2.32,0,0,0-1-2.48,2.13,2.13,0,0,0-.75-.31C147.37,97.18,148.55,97.41,148.37,97.38Z"/><path class="cls-32" d="M148,101.92h0a2,2,0,0,1-.24,0,5.61,5.61,0,0,1-1.65-.69,9.19,9.19,0,0,1-1.44-1,9.7,9.7,0,0,1-2-2.39c-1.06-1.82-1.46-4.43,0-6.2a4.1,4.1,0,0,1,1.2-1,3.25,3.25,0,0,1,.77-.28,1.3,1.3,0,0,1,.44,0,.35.35,0,0,1,.31.2.34.34,0,0,1-.07.38.93.93,0,0,1-.27.22l-.08.06a2,2,0,0,0-.24.21,3.12,3.12,0,0,0-.46.62,2.84,2.84,0,0,0-.4,1.47,3.71,3.71,0,0,0,1.52,2.35,7,7,0,0,0,2.88,1.31l.08,0h0a2.26,2.26,0,0,1,.84.34,2.59,2.59,0,0,1,1.07,2.76A2.2,2.2,0,0,1,148,101.92Zm-3.5-11a3.42,3.42,0,0,0-.4.17,3.58,3.58,0,0,0-1.06.85c-1.35,1.58-1,4,0,5.61a9.61,9.61,0,0,0,3.28,3.24,5.13,5.13,0,0,0,1.51.63l.19,0a1.77,1.77,0,0,0,1.83-1.34,2.09,2.09,0,0,0-.85-2.2,2.19,2.19,0,0,0-.66-.27h0l-.31-.06h-.09l-.05,0a7.41,7.41,0,0,1-2.75-1.33,4.16,4.16,0,0,1-1.72-2.74,3.61,3.61,0,0,1,1-2.45Z"/><path class="cls-32" d="M147.49,99.36c-.82-.19-.23-.06,0,0a7.34,7.34,0,0,1-3.18-1.86,5.15,5.15,0,0,1-1.59-3.1,4,4,0,0,1,.36-2.08,3.44,3.44,0,0,1,1.61-1.5c.13-.06-.88-.12-1.79.94-1.4,1.63-1.1,4.07,0,5.9a9.42,9.42,0,0,0,2,2.33,9.3,9.3,0,0,0,1.41,1C146.71,101.27,147.76,99.41,147.49,99.36Z"/><path class="cls-33" d="M147.45,99.35h0S147.51,99.36,147.45,99.35Z"/><path class="cls-31" d="M142.28,93.16a5.71,5.71,0,0,0,.26,2.83,8.54,8.54,0,0,0,1.57,2.62c.27.33.57.64.86,1a6.53,6.53,0,0,1-2.88-4.94A4.54,4.54,0,0,1,142.28,93.16Z"/><path class="cls-31" d="M165.11,95.22a5.33,5.33,0,0,1-2,5.16,5.53,5.53,0,0,1-1.15.72,7.67,7.67,0,0,0,3.1-4.4A5.24,5.24,0,0,0,165.11,95.22Z"/><path class="cls-34" d="M165.08,105.57A13.92,13.92,0,0,0,164,103a1.81,1.81,0,0,0-.13-.71,3.9,3.9,0,0,0-.5-.9l.37-.19s-.33-.71-.66-1.31a13.8,13.8,0,0,0-5-4.67,15.9,15.9,0,0,0-3.94-1.18H154a14.48,14.48,0,0,0-4,.26,11.61,11.61,0,0,0-5.52,3.46c-.4.51-.8,1.14-.8,1.14l.33.26a3.24,3.24,0,0,0-.6.78,1.71,1.71,0,0,0-.22.67,12,12,0,0,0-1.36,2.25c-.39.27-.76.65-.78,1,0,.6.4,5.85.94,6.32s1.57,1,1.83.86a.59.59,0,0,0,.18-.13.79.79,0,0,0,1,.1c.4.19.89,0,1.24-.55a7.72,7.72,0,0,0,0-3.07,19.89,19.89,0,0,0-.54-3.6l0-.15s.14-.78-.43-1.07a.81.81,0,0,0-1,.06v0s-.22-.26-.6,0c.07-.52.32-1.57.32-1.57a5.55,5.55,0,0,1,.33-.7,6.72,6.72,0,0,1,.43-.68,1.09,1.09,0,0,0,.66-.31l1.1-1,.72.14a12.88,12.88,0,0,1,3.64-2.44,7.83,7.83,0,0,1,3.18-.36A8.31,8.31,0,0,1,157,96.77a14.77,14.77,0,0,1,3.3,3.24l.73,0,1,1.23a1.3,1.3,0,0,0,.6.45c.09.19.25.52.35.78a7.33,7.33,0,0,1,.24.76s.12,1.09.12,1.62c-.33-.37-.59-.15-.59-.15v0a.82.82,0,0,0-.94-.28c-.6.16-.56,1-.56,1a1.31,1.31,0,0,1,0,.14,18.1,18.1,0,0,0-1,3.43,7.65,7.65,0,0,0-.39,3c.29.61.75.92,1.16.83a.9.9,0,0,1,1.15.3c.24.2,1.32-.09,1.91-.44s1.63-5.42,1.68-6A1.9,1.9,0,0,0,165.08,105.57ZM150.5,95.46a8.63,8.63,0,0,1,1.16-.21A8.92,8.92,0,0,0,150.5,95.46Zm1.24-.22h0Zm4.47.53a11.38,11.38,0,0,1,1.13.47A11.38,11.38,0,0,0,156.21,95.77Zm-.07,0,0,0Z"/><path class="cls-34" d="M159.74,97.8a11.86,11.86,0,0,0-5.7-2.6h-.16a10.92,10.92,0,0,0-5.94,1.27c-2.84,1.64-3.45,3.2-3.45,3.2a.92.92,0,0,0,.8-.3l1.1-1,.72.14a12.88,12.88,0,0,1,3.64-2.44,7.83,7.83,0,0,1,3.18-.36A8.31,8.31,0,0,1,157,96.77a14.77,14.77,0,0,1,3.3,3.24l.73,0,1,1.23a1.05,1.05,0,0,0,.76.48S162.35,100.07,159.74,97.8Z"/><path class="cls-31" d="M163.08,99.93a13.8,13.8,0,0,0-5-4.67,15.9,15.9,0,0,0-3.94-1.18H154a14.48,14.48,0,0,0-4,.26,11.61,11.61,0,0,0-5.52,3.46c-.4.51-.8,1.14-.8,1.14l.9.72A10.39,10.39,0,0,1,154,95.19a11.56,11.56,0,0,1,5.66,2.55,12.39,12.39,0,0,1,3.15,4l1-.51S163.41,100.53,163.08,99.93Z"/><path class="cls-34" d="M162.76,101.86h0a.16.16,0,0,1-.07-.07,12.29,12.29,0,0,0-3.12-4A11.46,11.46,0,0,0,154,95.3a10.29,10.29,0,0,0-9.36,4.41.1.1,0,0,1-.08.05.1.1,0,0,1-.09,0l-.9-.72a.12.12,0,0,1,0-.16s.41-.63.8-1.14a11.79,11.79,0,0,1,5.6-3.5A14.71,14.71,0,0,1,154,94h.16a15.58,15.58,0,0,1,4,1.19,13.65,13.65,0,0,1,5.1,4.72c.33.6.66,1.31.66,1.32a.11.11,0,0,1-.05.15l-1,.5A.07.07,0,0,1,162.76,101.86ZM154,95.07h0a11.74,11.74,0,0,1,5.72,2.59,13,13,0,0,1,3.13,3.93l.76-.4c-.1-.22-.35-.75-.6-1.2h0a13.42,13.42,0,0,0-5-4.62,15.39,15.39,0,0,0-3.91-1.17h-.15a14.45,14.45,0,0,0-4,.27,11.59,11.59,0,0,0-5.46,3.41c-.3.4-.61.86-.74,1l.71.57A11,11,0,0,1,148,96.32a10.64,10.64,0,0,1,6-1.25Z"/><path class="cls-34" d="M144.26,99.12a11.55,11.55,0,0,1,3.41-3,11.75,11.75,0,0,1,5.09-1.32l0-.33a10.42,10.42,0,0,0-5.3,1.41A11.55,11.55,0,0,0,144,99Z"/><path class="cls-34" d="M146.15,98.05l.93.16a11.49,11.49,0,0,1,2.19-1.77,7.17,7.17,0,0,1,2.08-.82,6.77,6.77,0,0,0-2.55.71,9.15,9.15,0,0,0-1.63,1.22l-.48.06Z"/><path class="cls-31" d="M143.55,102.61a4.91,4.91,0,0,0-1-.11c-.38,0-1.58.77-1.61,1.37s.4,5.85.94,6.32,1.57,1,1.83.86.22-.25.22-.25Z"/><path class="cls-32" d="M143.54,111.19a4.24,4.24,0,0,1-1.71-.91c-.26-.23-.5-1.3-.73-3.2-.17-1.48-.27-2.93-.25-3.22,0-.68,1.28-1.45,1.7-1.48a4.49,4.49,0,0,1,1,.12.12.12,0,0,1,.1.11l.4,8.18c0,.07,0,.22-.28.37A.48.48,0,0,1,143.54,111.19Zm-.56-8.56a2.74,2.74,0,0,0-.4,0c-.33,0-1.48.74-1.5,1.26,0,.29.09,1.76.25,3.19.31,2.56.57,3,.64,3,.57.49,1.52.94,1.7.84a.36.36,0,0,0,.17-.14h0l-.4-8.09C143.34,102.69,143.16,102.65,143,102.63Zm.86,8.2Zm0,0Zm0,0Z"/><path class="cls-35" d="M143.55,102.61a.6.6,0,0,0-.56.55,42.83,42.83,0,0,0,0,4.48,13,13,0,0,0,.51,3.29c.19.2.34-.06.34-.06Z"/><path class="cls-35" d="M141.64,107.83a5.41,5.41,0,0,0,.41,2.18,3.55,3.55,0,0,0,1.22.8,10.14,10.14,0,0,1-.33-1.78s-.11.81-.58.52S141.64,107.83,141.64,107.83Z"/><path class="cls-31" d="M144.15,102.59s-.22-.26-.6,0-.29,2.82-.23,4.44a14.7,14.7,0,0,0,.56,3.82.77.77,0,0,0,1,.14Z"/><path class="cls-32" d="M144.37,111.26h-.08a.76.76,0,0,1-.51-.32,14.56,14.56,0,0,1-.57-3.88c-.1-2.52-.1-4.25.27-4.53a.54.54,0,0,1,.76,0l0,.07L145,111a.12.12,0,0,1,0,.1A.84.84,0,0,1,144.37,111.26Zm-.45-8.66a.38.38,0,0,0-.29.11c-.07,0-.21.3-.24,1.63,0,.84,0,1.84.05,2.71a14.42,14.42,0,0,0,.54,3.76.48.48,0,0,0,.34.21.75.75,0,0,0,.48-.07l-.76-8.31A.4.4,0,0,0,143.92,102.6Z"/><path class="cls-36" d="M141.92,103.06a1.57,1.57,0,0,0-.73.74,1,1,0,0,1,.6-.2c.34,0-.15,2.58.35,2.8.88.39.74.22.74.22s-.07-2.28,0-2.83a3.23,3.23,0,0,1,.16-.9S142.37,103,141.92,103.06Z"/><path class="cls-35" d="M141.24,104.08s.47-.14.48.09a7.13,7.13,0,0,0,.26,2.65c.25.34,1.1.44,1.1.44a2.53,2.53,0,0,1-1.13-.14c-.38-.2-.5-1-.44-2S141.24,104.08,141.24,104.08Z"/><path class="cls-31" d="M142.74,103.06a.39.39,0,0,0-.28.33c0,.26.06,2.73.06,2.73l.21.07s-.13-2.35-.08-2.68A1.77,1.77,0,0,1,142.74,103.06Z"/><path class="cls-31" d="M141.73,102.9a12.4,12.4,0,0,1,1.37-2.26l.77.4s-.25,1-.32,1.57Z"/><path class="cls-32" d="M141.73,103l-.09,0a.15.15,0,0,1,0-.13,11.75,11.75,0,0,1,1.4-2.29.09.09,0,0,1,.12,0l.77.4a.13.13,0,0,1,.06.14s-.25,1-.31,1.55a.13.13,0,0,1-.09.1l-1.82.28Zm1.4-2.24a12.15,12.15,0,0,0-1.19,2l1.51-.24c.06-.45.22-1.16.28-1.41Z"/><path class="cls-32" d="M143.1,100.64a1.71,1.71,0,0,1,.22-.67,3.74,3.74,0,0,1,.7-.88l.69.44s-.33.48-.51.81a5.55,5.55,0,0,0-.33.7Z"/><path class="cls-35" d="M142.37,102a7.8,7.8,0,0,1,.77-1.21l.58.28a5.3,5.3,0,0,0-.22.71c-.07.34-.14.6-.14.6a4.65,4.65,0,0,1-.73.15s.61-.68.56-.91S142.7,101.71,142.37,102Z"/><path class="cls-31" d="M143.35,100.28a2.24,2.24,0,0,1,.71-1l.46.34a3.84,3.84,0,0,0-.73,1.25S143.84,100,143.35,100.28Z"/><path class="cls-31" d="M145.55,103.65s.14-.78-.43-1.07a.85.85,0,0,0-1.29.72c0,.38.22,6.41.61,7.22s1.18.72,1.7,0S145.55,103.65,145.55,103.65Z"/><path class="cls-32" d="M145.12,111.2a1,1,0,0,1-.79-.64c-.41-.85-.64-7-.62-7.27a1.13,1.13,0,0,1,.54-.86.93.93,0,0,1,.91,0,1.12,1.12,0,0,1,.51,1.18c.13.71,1.09,6.1.57,6.88a1.27,1.27,0,0,1-1.12.66Zm-.4-8.63a.68.68,0,0,0-.35.06,1,1,0,0,0-.43.69c0,.17,0,1.74.15,3.43a18.07,18.07,0,0,0,.45,3.72.8.8,0,0,0,.59.5h0a1.06,1.06,0,0,0,.91-.57c.41-.6-.3-5.06-.6-6.73v0s.11-.7-.37-.95A1.08,1.08,0,0,0,144.72,102.57Z"/><path class="cls-37" d="M144.38,109.27s.26,1,.55,1,.3-.48.3-.48.2.64.49.59.39-.43.39-.43a.94.94,0,0,1-.71.93C144.5,111.11,144.43,109.87,144.38,109.27Z"/><path class="cls-35" d="M144.42,109.66s-.31-3-.37-4.2a9.31,9.31,0,0,1,0-2.37c.15-.41.3-.48.52-.51a.4.4,0,0,1,.34.09s-.51-.15-.62.46a1.85,1.85,0,0,0,0,.8h.42l-.42.19.46.11-.45.06,0,.3.38.09-.41.06,0,.49.38-.06-.32.21.4.13-.37.06.38.21-.38,0,0,.79.26-.1-.22.29.38,0-.37.22.45.24-.41,0v.34l.35,0-.31.28,0,.53.31,0-.3.18v.2l.33,0-.32.33,0,.27.4-.14-.49.59S144.65,110.23,144.42,109.66Z"/><path class="cls-36" d="M145,102.86c-.32.12-.1,7.79.77,7.33S145.78,102.59,145,102.86Z"/><path class="cls-31" d="M163.32,104.88a5.2,5.2,0,0,1,1,.11c.37.11,1.46,1.12,1.42,1.72s-1.09,5.68-1.68,6-1.67.64-1.91.44-.19-.3-.19-.3Z"/><path class="cls-32" d="M162.31,113.34a.52.52,0,0,1-.24-.08c-.26-.22-.25-.37-.23-.43l1.37-8a.1.1,0,0,1,.11-.09,4.54,4.54,0,0,1,1,.11c.42.13,1.56,1.17,1.51,1.84,0,.3-.29,1.7-.64,3.13-.44,1.82-.81,2.82-1.09,3A3.74,3.74,0,0,1,162.31,113.34Zm-.24-.44s0,.08.14.18a3,3,0,0,0,1.78-.45c.08,0,.39-.39,1-2.85.33-1.36.61-2.79.63-3.09,0-.52-1-1.49-1.33-1.58a4.3,4.3,0,0,0-.86-.11l-1.35,7.89Zm0,0Zm0,0Zm0,0Z"/><path class="cls-35" d="M163.32,104.88a.68.68,0,0,1,.49.67,43.87,43.87,0,0,1-.57,4.41,12.15,12.15,0,0,1-.89,3.13c-.22.15-.33-.14-.33-.14Z"/><path class="cls-35" d="M164.72,110.3a6.48,6.48,0,0,1-.79,2.22,3.3,3.3,0,0,1-1.31.51,8.63,8.63,0,0,0,.54-1.68s0,.82.52.64S164.72,110.3,164.72,110.3Z"/><path class="cls-31" d="M162.73,104.73s.26-.22.59.15,0,2.84-.3,4.43a13.92,13.92,0,0,1-1,3.64.78.78,0,0,1-1.05-.1Z"/><path class="cls-32" d="M161.49,113.22a.89.89,0,0,1-.6-.3.1.1,0,0,1,0-.1l1.76-8.12a.07.07,0,0,1,0-.06c.11-.1.42-.19.75.17s.12,2.07-.27,4.52a13.55,13.55,0,0,1-1,3.7.67.67,0,0,1-.55.2Zm-.39-.4a.79.79,0,0,0,.46.18.47.47,0,0,0,.37-.12,14.41,14.41,0,0,0,1-3.6c.13-.85.28-1.83.37-2.66.13-1.32,0-1.6,0-1.66-.2-.22-.34-.19-.4-.16Z"/><path class="cls-36" d="M164.88,105.69a1.84,1.84,0,0,1,.63.9,1.08,1.08,0,0,0-.57-.33c-.34-.07-.15,2.57-.68,2.68-.92.18-.76,0-.76,0s.35-2.22.39-2.78a3.24,3.24,0,0,0-.06-.92S164.45,105.5,164.88,105.69Z"/><path class="cls-35" d="M165.43,106.86s-.45-.25-.48,0-.17,2.16-.58,2.56-1.13.18-1.13.18a2.47,2.47,0,0,0,1.12.12c.4-.11.62-.91.68-1.89S165.43,106.86,165.43,106.86Z"/><path class="cls-31" d="M164.07,105.51a.44.44,0,0,1,.24.39c0,.26-.39,2.68-.39,2.68l-.21,0s.41-2.29.4-2.63A2.54,2.54,0,0,0,164.07,105.51Z"/><path class="cls-31" d="M165.08,105.58A13.85,13.85,0,0,0,164,103l-.8.22s.12,1.09.12,1.62Z"/><path class="cls-32" d="M165.07,105.69h0l-1.76-.7a.15.15,0,0,1-.08-.11c0-.52-.12-1.6-.12-1.61a.13.13,0,0,1,.08-.12l.8-.23a.14.14,0,0,1,.12,0,13.93,13.93,0,0,1,1.11,2.59.13.13,0,0,1,0,.12A.09.09,0,0,1,165.07,105.69Zm-1.63-.88,1.45.57a14,14,0,0,0-.93-2.21l-.64.18C163.35,103.61,163.43,104.35,163.44,104.81Z"/><path class="cls-32" d="M164,103a1.81,1.81,0,0,0-.13-.71,4.41,4.41,0,0,0-.59-1l-.74.28s.28.55.42.92a7.33,7.33,0,0,1,.24.76Z"/><path class="cls-35" d="M164.56,104.59a10,10,0,0,0-.62-1.38l-.6.16a5.64,5.64,0,0,1,.13.75c0,.34.07.62.07.62a4.68,4.68,0,0,0,.69.31s-.51-.81-.44-1S164.26,104.19,164.56,104.59Z"/><path class="cls-31" d="M163.79,102.63a2.53,2.53,0,0,0-.57-1.18l-.5.24a4.36,4.36,0,0,1,.58,1.4S163.35,102.24,163.79,102.63Z"/><path class="cls-31" d="M161.22,105.45s0-.8.56-1a1,1,0,0,1,1.19,1c0,.38-1,6.27-1.46,7s-1.26.44-1.68-.44S161.22,105.45,161.22,105.45Z"/><path class="cls-32" d="M160.76,113h0a1.43,1.43,0,0,1-1-.9c-.42-.89,1.16-6,1.38-6.66,0-.14,0-.88.64-1.05a1,1,0,0,1,.9.16,1.3,1.3,0,0,1,.43,1c0,.31-1,6.29-1.48,7A.89.89,0,0,1,160.76,113Zm1.41-8.42a.88.88,0,0,0-.35,0c-.52.13-.48.83-.48.84a.06.06,0,0,1,0,0c-.5,1.58-1.72,5.82-1.39,6.51a1.19,1.19,0,0,0,.83.76h0a.68.68,0,0,0,.64-.35,17.36,17.36,0,0,0,.89-3.57c.31-1.64.54-3.18.55-3.35a1,1,0,0,0-.34-.77A.66.66,0,0,0,162.17,104.57Z"/><path class="cls-37" d="M161.71,111.26s-.37.93-.66.82-.24-.54-.24-.54-.26.59-.55.47-.33-.52-.33-.52a1.08,1.08,0,0,0,.59,1.09C161.38,113,161.6,111.84,161.71,111.26Z"/><path class="cls-35" d="M161.63,111.63s.66-2.92.86-4.06a8.6,8.6,0,0,0,.28-2.34c-.09-.43-.23-.53-.45-.61a.42.42,0,0,0-.35,0,.57.57,0,0,1,.57.6,1.91,1.91,0,0,1-.06.8l-.42-.09.39.29H162l.44.16-.08.29H162l.4.16-.1.47-.37-.14.29.27-.41,0,.37.15-.4.11.37.11-.15.77-.25-.16.19.34-.38,0,.34.29-.48.14.41.07,0,.33-.35-.06.28.35-.09.52-.31,0,.28.25,0,.19-.33,0,.28.4-.07.26-.38-.23.41.69S161.33,112.15,161.63,111.63Z"/><path class="cls-36" d="M161.83,104.79c.31.19-.83,7.7-1.62,7.06S161.12,104.35,161.83,104.79Z"/><path class="cls-34" d="M163.06,101.28a13.74,13.74,0,0,0-3-3.77,13,13,0,0,0-4.86-2.46l0-.33a11.55,11.55,0,0,1,5.06,2.59,13.62,13.62,0,0,1,3,3.88Z"/><path class="cls-34" d="M161.32,99.79l-.94-.05a13.44,13.44,0,0,0-1.95-2.24,7.93,7.93,0,0,0-2-1.29,7.62,7.62,0,0,1,2.43,1.28,11.15,11.15,0,0,1,1.47,1.57l.46.17Z"/><path class="cls-32" d="M145.41,105.76c-.23,1.38-1.79,2.16-2.39,2.51a3.67,3.67,0,0,0,1,.27s-1,3.81-3.06,5.11a2.73,2.73,0,0,0,1.71.12c-.65,2.5.69,4.67-.64,7.08a3.19,3.19,0,0,0,2.21-1.54,7.17,7.17,0,0,1-.08,4.62,4.61,4.61,0,0,0,2.55-1.69c0,1.15,1.69,3.45,1.53,5.08a3.68,3.68,0,0,0,1.4-1.58c.82,2.08,1.77,2.5,2,5.41,1.56-1.46,3-2.29,4-5.67a11.61,11.61,0,0,0,1.09,1.34,5.7,5.7,0,0,0,1.57-3.55,3.26,3.26,0,0,1,.94,2,7.25,7.25,0,0,0,2.12-4.86,2.31,2.31,0,0,0,1.82,1.08c-1.09-1.68,1-4,.35-6.82a2.15,2.15,0,0,0,1.43-.38,9.23,9.23,0,0,1-3.37-4.53c1.16.11,1.13,0,1.1,0a12.48,12.48,0,0,1-1.62-2c-.27-.51-7.79-5.4-7.79-5.4Z"/><path class="cls-31" d="M144.15,111.16a3.55,3.55,0,0,0,.34,1.75,7.23,7.23,0,0,0-1.1,2.59A12.49,12.49,0,0,1,144.15,111.16Z"/><path class="cls-31" d="M162,112.78a3.36,3.36,0,0,1-.47,1.67,8.07,8.07,0,0,1,.9,2.77A10,10,0,0,0,162,112.78Z"/><path class="cls-31" d="M145.09,116.5c0,.45-.07.9-.08,1.36a10.72,10.72,0,0,0,.15,1.69,16.36,16.36,0,0,1,.24,1.71,2.89,2.89,0,0,1-.26,1.34,4,4,0,0,0,.08-1.33c-.06-.57-.21-1.13-.3-1.7A7.06,7.06,0,0,1,145.09,116.5Z"/><path class="cls-31" d="M147.52,119.33a12.29,12.29,0,0,0,.06,1.48,9.31,9.31,0,0,0,.41,1.81,14,14,0,0,1,.82,3.24c-.15-.48-.3-1-.48-1.42s-.48-1.2-.67-1.82A6.25,6.25,0,0,1,147.52,119.33Z"/><path class="cls-31" d="M150.22,120.07c-.06.48-.14.94-.17,1.42a7.44,7.44,0,0,0,.17,1.88,32.26,32.26,0,0,0,1.26,3.53,4.79,4.79,0,0,1,.3,1.72,7.48,7.48,0,0,0-.51-1.44c-.29-.59-.6-1.17-.87-1.77a7.1,7.1,0,0,1-.66-3.7A5.74,5.74,0,0,1,150.22,120.07Z"/><path class="cls-31" d="M160.65,117.71a7.08,7.08,0,0,1,0,3.14,5.84,5.84,0,0,1-1.18,2.77,9,9,0,0,0,1-2.89,12.84,12.84,0,0,0,.22-1.65C160.69,118.62,160.67,118.17,160.65,117.71Z"/><path class="cls-31" d="M157.85,119.8a6.49,6.49,0,0,1-.06,2.91,7.32,7.32,0,0,1-1.13,2.62,26.2,26.2,0,0,0,.81-2.65A15.46,15.46,0,0,0,157.85,119.8Z"/><path class="cls-31" d="M155.24,120.53a7.31,7.31,0,0,1,.2,3.38A10.16,10.16,0,0,1,154,127.4a15.1,15.1,0,0,1-.93,1.33c.38-1,.89-2,1.29-3a11.39,11.39,0,0,0,.89-3.52C155.27,121.67,155.24,121.1,155.24,120.53Z"/><path class="cls-33" d="M147.56,99.21h0Z"/><path class="cls-31" d="M160.5,102.51a14.44,14.44,0,0,0-1.81-3.75c-.21-.29-.19-.52.25-.78a.63.63,0,0,1,.86.16,12.07,12.07,0,0,1,1.85,3.69.66.66,0,0,1-.39.79C160.86,102.8,160.59,102.77,160.5,102.51Z"/><path class="cls-32" d="M160.77,103a.54.54,0,0,1-.49-.41,14.59,14.59,0,0,0-1.78-3.67.73.73,0,0,1-.17-.57.92.92,0,0,1,.48-.57.89.89,0,0,1,.55-.12A.86.86,0,0,1,160,98a12.42,12.42,0,0,1,1.89,3.78.88.88,0,0,1-.51,1.07A1.13,1.13,0,0,1,160.77,103Zm-1.43-4.85a.49.49,0,0,0-.28.07c-.23.14-.26.22-.26.24a.27.27,0,0,0,.07.17,15,15,0,0,1,1.86,3.83s0,0,.06,0a1,1,0,0,0,.37-.1.43.43,0,0,0,.27-.5,11.84,11.84,0,0,0-1.81-3.6A.39.39,0,0,0,159.34,98.13Z"/><path class="cls-31" d="M146.32,101.26a13.26,13.26,0,0,1,2.08-3.4c.23-.25.23-.47-.19-.81a.63.63,0,0,0-.87,0,10.58,10.58,0,0,0-2.11,3.33.73.73,0,0,0,.33.86C145.94,101.49,146.22,101.51,146.32,101.26Z"/><path class="cls-32" d="M146,101.68h0a1.2,1.2,0,0,1-.58-.24,1,1,0,0,1-.43-1.16,10.57,10.57,0,0,1,2.16-3.41.78.78,0,0,1,.65-.24,1,1,0,0,1,.53.23,1,1,0,0,1,.44.65.66.66,0,0,1-.21.53,12.93,12.93,0,0,0-2,3.33A.47.47,0,0,1,146,101.68Zm1.78-4.56a.38.38,0,0,0-.29.11,10.5,10.5,0,0,0-2.06,3.25.47.47,0,0,0,.23.55.82.82,0,0,0,.35.16h0c.05,0,.06,0,.07,0a13.12,13.12,0,0,1,2.13-3.46.29.29,0,0,0,.09-.16s0-.11-.25-.29A.5.5,0,0,0,147.8,97.12Z"/><path class="cls-31" d="M153.3,104.94a32.24,32.24,0,0,1,7.89,1.69l0-.44c.21-5.61-4.1-10.92-7.55-11.23s-8.12,4.19-8.33,9.8c0,.15,0,.29,0,.44A31,31,0,0,1,153.3,104.94Z"/><path class="cls-32" d="M145.32,105.45a.27.27,0,0,1-.14-.07.25.25,0,0,1-.09-.19c0-.15,0-.3,0-.45.21-5.7,5-10.35,8.58-10s8,5.81,7.77,11.51c0,.15,0,.29,0,.44a.24.24,0,0,1-.1.18.26.26,0,0,1-.21,0,32.85,32.85,0,0,0-15.74-1.43Zm8.34-10.24c-3.39-.31-7.88,4.14-8.09,9.57v.13a31.39,31.39,0,0,1,7.74-.22A32.53,32.53,0,0,1,161,106.3a.57.57,0,0,0,0-.13C161.18,100.74,157.06,95.52,153.66,95.21Z"/><path class="cls-32" d="M152.35,95.31c-2.17-.47-6.83,4.5-7,9.45,0,.15,0,.29,0,.44,1-.18,5,.06,5.28-1.42-.42-.31-1.61-.68-1.93-1.56a4.36,4.36,0,0,1-.08-2C148.91,98.24,150.78,95.81,152.35,95.31Z"/><path class="cls-32" d="M155,95.55c2.18-.08,6.44,5.7,6.26,10.65l0,.44c-1-.37-5-.85-5.14-2.36.44-.24,1.65-.39,2-1.21a4.18,4.18,0,0,0,.23-2C158.2,99.08,156.53,96.33,155,95.55Z"/><polygon class="cls-31" points="154.72 108.91 153.12 110.64 151.59 108.62 151.94 105.81 154.59 106.05 154.72 108.91"/><path d="M153.11,111l-1.77-2.33.39-3.14,3.09.27L155,109Zm-1.27-2.46,1.29,1.7,1.35-1.46-.11-2.52-2.23-.2Z"/><path class="cls-31" d="M161.17,105.31a26.49,26.49,0,0,0-6.22-1.69l-.24-8.76c0-.42-.49-.72-1-.76s-1,.23-1.06.57l-.89,8.66a25.46,25.46,0,0,0-6.25.54s-.65,0-.61,1.31c0,1,.58,1.16.58,1.16a25,25,0,0,1,7.81-.46,26.08,26.08,0,0,1,7.73,1.87s.53,0,.63-1.14S161.17,105.31,161.17,105.31Z"/><path class="cls-32" d="M145.48,106.6h0s-.76-.17-.79-1.42.65-1.52.79-1.55a25.25,25.25,0,0,1,6.1-.54l.87-8.45a1.16,1.16,0,0,1,1.3-.78c.59.05,1.23.42,1.24,1l.23,8.54a26.86,26.86,0,0,1,6.07,1.68s.74.36.63,1.56c-.12,1.36-.8,1.36-.88,1.35h-.07a26,26,0,0,0-7.66-1.85,24.52,24.52,0,0,0-7.74.46Zm7.81-1a26.32,26.32,0,0,1,7.74,1.85c.08,0,.31-.18.38-.92s-.28-1-.33-1a26.85,26.85,0,0,0-6.15-1.67l-.21,0-.25-9c0-.24-.36-.47-.78-.51s-.78.2-.81.38l-.91,8.87h-.21a25.54,25.54,0,0,0-6.21.53h0s-.42.07-.4,1.06c0,.67.27.86.35.91A25,25,0,0,1,153.29,105.64Z"/><path class="cls-31" d="M151.35,108.69a3,3,0,0,0-.52.09,2.79,2.79,0,0,0-.9.4,2.71,2.71,0,0,0-.82.92,3,3,0,0,1,.4-1.49,2.46,2.46,0,0,1,.3-.4l-.05,0h0a2.26,2.26,0,0,0-1.61.37,3.94,3.94,0,0,1-.14-.93,3.47,3.47,0,0,0-1.41,1.06,5.53,5.53,0,0,1-.08-2.3h0a6,6,0,0,0,0,4,4.52,4.52,0,0,1,1-1.67,7.38,7.38,0,0,0,.31,1.28,2.3,2.3,0,0,1,.82-.92,5.57,5.57,0,0,0,0,2.79,4,4,0,0,1,2.5-2.39,4.16,4.16,0,0,0-.29.87,2.53,2.53,0,0,1,1.45-.34Z"/><path class="cls-31" d="M159.74,109.87a3.94,3.94,0,0,0-1.27-1.3,4.08,4.08,0,0,1-.2.9,2.48,2.48,0,0,0-1.58-.65h-.05a3.35,3.35,0,0,1,.27.45,3.27,3.27,0,0,1,.28,1.55,2.88,2.88,0,0,0-.75-1.06,3.3,3.3,0,0,0-.86-.57,6.4,6.4,0,0,0-.62-.2h0l-1,1.13a2.73,2.73,0,0,1,1.4.59,4.77,4.77,0,0,0-.23-.91,4.62,4.62,0,0,1,2.31,2.82,5.63,5.63,0,0,0,.26-2.76,2.71,2.71,0,0,1,.74,1.06,6.41,6.41,0,0,0,.4-1.21,5,5,0,0,1,.85,1.83,5.88,5.88,0,0,0,.36-3.68A5.12,5.12,0,0,1,159.74,109.87Z"/><path class="cls-31" d="M159.74,109.87a3.94,3.94,0,0,0-1.27-1.3,4.08,4.08,0,0,1-.2.9,2.54,2.54,0,0,0-1.63-.64,3.35,3.35,0,0,1,.27.45,3.27,3.27,0,0,1,.28,1.55,2.88,2.88,0,0,0-.75-1.06,3.3,3.3,0,0,0-.86-.57,6.4,6.4,0,0,0-.62-.2h0l-1,1.13a2.73,2.73,0,0,1,1.4.59,4.77,4.77,0,0,0-.23-.91,4.62,4.62,0,0,1,2.31,2.82,5.63,5.63,0,0,0,.26-2.76,2.71,2.71,0,0,1,.74,1.06,6.41,6.41,0,0,0,.4-1.21,5,5,0,0,1,.85,1.83,5.88,5.88,0,0,0,.36-3.68A5.12,5.12,0,0,1,159.74,109.87Z"/><path class="cls-38" d="M145.61,105.05a2.54,2.54,0,0,1,.22-1.25l-.33.07s-.65,0-.61,1.31c0,1,.58,1.16.58,1.16l.46-.09A1.82,1.82,0,0,1,145.61,105.05Z"/><path class="cls-38" d="M161.17,105.31l-.4-.16a2.24,2.24,0,0,1,.16,1.18,2,2,0,0,1-.37,1.24l.45.18s.53,0,.63-1.14S161.17,105.31,161.17,105.31Z"/><polygon class="cls-32" points="153.22 106.94 153.11 106.01 153.42 106.04 153.22 106.94"/><polygon class="cls-32" points="153.66 106.97 153.54 106.05 153.86 106.08 153.66 106.97"/><polygon class="cls-32" points="154.07 107.01 153.96 106.08 154.27 106.11 154.07 107.01"/><polygon class="cls-32" points="152.84 106.9 153.02 106 152.71 105.97 152.84 106.9"/><polygon class="cls-32" points="152.43 106.86 152.61 105.96 152.29 105.93 152.43 106.86"/><polygon class="cls-32" points="153.37 108.3 153.13 110.46 153.05 108.27 153.37 108.3"/><polygon class="cls-32" points="151.8 103.09 152.95 103.65 151.7 103.57 151.8 103.09"/><polygon class="cls-32" points="154.95 103.86 153.7 103.71 154.89 103.37 154.95 103.86"/><path class="cls-32" d="M147.16,105.92c-.53-.27-.87-1.1-.09-2.34-.61.09-1,.16-1.57.29,0,0-.65,0-.61,1.31,0,1,.58,1.16.58,1.16.56-.12,1.14-.23,1.72-.31C147.19,106,147.19,105.94,147.16,105.92Z"/><polygon class="cls-32" points="151.77 102.96 150.52 102.66 151.74 102.33 151.77 102.96"/><polygon class="cls-32" points="151.87 102.25 150.64 101.98 151.82 101.62 151.87 102.25"/><polygon class="cls-32" points="151.96 101.54 150.76 101.3 151.9 100.92 151.96 101.54"/><polygon class="cls-32" points="152.06 100.83 150.88 100.62 151.98 100.21 152.06 100.83"/><polygon class="cls-32" points="152.16 100.13 151.01 99.94 152.06 99.5 152.16 100.13"/><polygon class="cls-32" points="152.25 99.42 151.13 99.26 152.14 98.79 152.25 99.42"/><polygon class="cls-32" points="152.35 98.71 151.25 98.58 152.22 98.09 152.35 98.71"/><polygon class="cls-32" points="152.44 98 151.37 97.89 152.3 97.38 152.44 98"/><polygon class="cls-32" points="152.54 97.29 151.49 97.22 152.38 96.67 152.54 97.29"/><polygon class="cls-32" points="152.64 96.58 151.61 96.53 152.46 95.97 152.64 96.58"/><polygon class="cls-32" points="152.74 95.87 151.73 95.85 152.54 95.27 152.74 95.87"/><polygon class="cls-32" points="155.08 102.63 156.27 103.18 155 103.25 155.08 102.63"/><polygon class="cls-32" points="155.06 101.92 156.2 102.48 154.96 102.53 155.06 101.92"/><polygon class="cls-32" points="155.03 101.2 156.13 101.78 154.92 101.81 155.03 101.2"/><polygon class="cls-32" points="155 100.48 156.06 101.08 154.88 101.09 155 100.48"/><polygon class="cls-32" points="154.97 99.76 155.99 100.39 154.83 100.37 154.97 99.76"/><polygon class="cls-32" points="154.94 99.05 155.92 99.69 154.79 99.65 154.94 99.05"/><polygon class="cls-32" points="154.92 98.33 155.85 98.99 154.75 98.92 154.92 98.33"/><polygon class="cls-32" points="154.89 97.61 155.78 98.29 154.71 98.2 154.89 97.61"/><polygon class="cls-32" points="154.87 96.9 155.71 97.6 154.66 97.48 154.87 96.9"/><polygon class="cls-32" points="154.84 96.19 155.64 96.9 154.62 96.76 154.84 96.19"/><polygon class="cls-32" points="154.82 95.47 155.57 96.2 154.57 96.03 154.82 95.47"/><path class="cls-32" d="M145.7,99.46a5.73,5.73,0,0,0-.47.92.73.73,0,0,0,.33.86c.38.25.66.27.76,0a9.22,9.22,0,0,1,.51-1.07A1.11,1.11,0,0,1,145.7,99.46Z"/><path class="cls-32" d="M159.37,107c.55-.18.94-.94.26-2.31a14.8,14.8,0,0,1,1.54.57s.64.15.51,1.4c-.1,1-.66,1.06-.66,1.06-.55-.23-1.11-.44-1.69-.63C159.33,107.08,159.34,107,159.37,107Z"/><path class="cls-32" d="M161.3,100.87a6.5,6.5,0,0,1,.4,1,.66.66,0,0,1-.39.79c-.4.19-.68.15-.76-.11a9.41,9.41,0,0,0-.43-1.16C160.71,101.47,161.18,101.27,161.3,100.87Z"/><path class="cls-31" d="M150.15,96.32a15.2,15.2,0,0,0-1.92,2.16,14.27,14.27,0,0,0-1.55,2.85c-.19.48-.35,1-.51,1.45A10.07,10.07,0,0,1,149,97.27,7.6,7.6,0,0,1,150.15,96.32Z"/><path class="cls-31" d="M160.61,104.17a20.34,20.34,0,0,0-.82-2.76,17.19,17.19,0,0,0-1.53-3c-.27-.42-.57-.81-.87-1.2a10.81,10.81,0,0,1,3,5.43A12.26,12.26,0,0,1,160.61,104.17Z"/><path class="cls-31" d="M145.46,104.11a5.28,5.28,0,0,0,.07,1.85c-.29-.16-.37-.62-.37-.93A1.34,1.34,0,0,1,145.46,104.11Z"/><path class="cls-31" d="M161.17,105.56a1.4,1.4,0,0,1,.23,1c0,.31-.13.75-.44.86A5.91,5.91,0,0,0,161.17,105.56Z"/><path class="cls-31" d="M151,107.29a.32.32,0,0,0,.21-.57c-.42-.37-1.17-.14-1.78-.24a6.43,6.43,0,0,1-.89-.22,1.45,1.45,0,0,0,.71.69A3.26,3.26,0,0,0,151,107.29Z"/><path class="cls-31" d="M155.43,107.69c-.47-.15-.27-.53-.16-.6.44-.3,1.16.07,1.78.08a6.69,6.69,0,0,0,.9-.06,1.27,1.27,0,0,1-.76.56A3.19,3.19,0,0,1,155.43,107.69Z"/><path class="cls-31" d="M161,117.35c.41.74.54,1.52.91,2.29-.16-.91-.07-1.82-.29-2.72a8.76,8.76,0,0,0-1.11-2.52,7.14,7.14,0,0,0,.49-4c-.34,2.26-1.14,3.35-1.84,3.63a5.07,5.07,0,0,1-.24-1.71,3.9,3.9,0,0,0-.41,2.38c0,1.34.67,1.83.52,4.08a19.4,19.4,0,0,1-1.45-3.53,5.39,5.39,0,0,0-2.21-3.48c-1-.63-1.77-.59-1.9.18-.15,1,.94.73,1.84,1.34a3.46,3.46,0,0,1,1.38,3.12c-.53-1.75-1.51-2.55-2.38-2.69a2.63,2.63,0,0,1,.68,2.08,2.22,2.22,0,0,0-2-1.63,2,2,0,0,0-2.06,1.27,2.41,2.41,0,0,1,.82-2c-.87,0-1.9.6-2.56,2.25a3.11,3.11,0,0,1,1.61-2.86c.93-.44,2,0,1.92-1-.06-.78-.79-.95-1.86-.51a4.64,4.64,0,0,0-2.47,3.06,17,17,0,0,1-1.7,3.24c0-2.26.68-2.63.82-4a4,4,0,0,0-.23-2.44,4.16,4.16,0,0,1-.37,1.65c-.67-.39-1.58-1.64-1.75-4a7,7,0,0,0,.39,4.08,7.54,7.54,0,0,0-1.29,2.3c-.28.86-.27,1.79-.49,2.67.42-.7.61-1.46,1.07-2.13a6.12,6.12,0,0,1,1.37-1.41,9.75,9.75,0,0,0-.3,6.35c.71-1.26,1.62-3,2.53-3.59a15.33,15.33,0,0,0,.34,5.52c.67-4.23,2.85-5.89,2.85-5.89a9.76,9.76,0,0,0-.86,3.45c-.33,4.26,1,4.41,1.65,7.65a11.49,11.49,0,0,0,2.21-5.82,10,10,0,0,0-.49-5.06s2,1.92,2.39,6.37a14.48,14.48,0,0,0,.75-5.42c.87.71,1.64,2.64,2.25,4a9.76,9.76,0,0,0,.18-6.36A7.1,7.1,0,0,1,161,117.35ZM150,117c-.17.33-.36.66-.53,1s-.26.53-.42.77a3.34,3.34,0,0,1,.4-1.92c.16-.31.35-.6.52-.9s.26-.55.39-.83A2.56,2.56,0,0,1,150,117Zm3.25,4.2c-.1.73-.17,1.48-.22,2.22s-.05,1.33-.15,2a8.28,8.28,0,0,1-.89-3.71,17.56,17.56,0,0,1,.21-2.29c.11-.72.19-1.44.27-2.17a19,19,0,0,1,.24-2,8.88,8.88,0,0,1,.75,3.72A20.71,20.71,0,0,1,153.28,121.19Zm3.32-1.76a8.76,8.76,0,0,1-.35-.84c-.16-.36-.31-.72-.46-1.08a2.72,2.72,0,0,1-.22-2c.11.3.2.61.33.9s.31.65.45,1A3.47,3.47,0,0,1,156.6,119.43Z"/><ellipse class="cls-32" cx="153.46" cy="101.37" rx="0.32" ry="0.42" transform="translate(28.17 236.01) rotate(-80.51)"/><path class="cls-32" d="M153.77,104.3c0,.14-.18.24-.39.22s-.38-.15-.37-.29.17-.24.39-.22S153.77,104.16,153.77,104.3Z"/><path class="cls-32" d="M153.56,107.43c0,.12-.15.2-.32.18s-.32-.12-.31-.24.15-.2.32-.18S153.57,107.31,153.56,107.43Z"/><path class="cls-32" d="M150.73,104.27c0,.1-.13.17-.28.15s-.26-.1-.26-.19.13-.16.28-.15S150.73,104.18,150.73,104.27Z"/><ellipse class="cls-32" cx="148.13" cy="104.37" rx="0.15" ry="0.24" transform="translate(26.19 238.4) rotate(-82.87)"/><path class="cls-32" d="M155.94,104.75c0,.09.12.18.26.19s.27,0,.28-.15-.12-.18-.26-.19S156,104.65,155.94,104.75Z"/><ellipse class="cls-32" cx="158.52" cy="105.3" rx="0.15" ry="0.24" transform="translate(34.36 249.53) rotate(-82.87)"/><ellipse class="cls-32" cx="153.55" cy="99.07" rx="0.26" ry="0.34" transform="translate(31.28 234.87) rotate(-80.83)"/><ellipse class="cls-32" cx="153.63" cy="96.89" rx="0.18" ry="0.25" transform="translate(33.96 233.53) rotate(-81.03)"/><path class="cls-33" d="M153.88,95.09c0,.08-.09.13-.19.12s-.18-.08-.17-.15.08-.13.18-.12S153.88,95,153.88,95.09Z"/><path class="cls-31" d="M153.69,95.28c-.19,0-.27-.21-.28-.2a.21.21,0,0,0,0,.13.33.33,0,0,0,.32.3.29.29,0,0,0,.34-.24.29.29,0,0,0,0-.14S153.88,95.29,153.69,95.28Z"/><path class="cls-32" d="M154.07,101.29a.76.76,0,0,1,.15.9.81.81,0,0,1-.82.45.91.91,0,0,1-.73-.57.73.73,0,0,1,.19-.87.76.76,0,0,0,.59,1h0C153.9,102.18,154.14,101.72,154.07,101.29Z"/><path class="cls-32" d="M153.92,104.24a.69.69,0,0,1-.59,1.15c-.54-.06-1-.84-.49-1.23a.68.68,0,0,0,.55.91A.62.62,0,0,0,153.92,104.24Z"/><path class="cls-32" d="M150.86,104.24a.49.49,0,0,1,.11.58.52.52,0,0,1-.55.32c-.41,0-.79-.69-.36-1a.5.5,0,0,0,.41.64A.46.46,0,0,0,150.86,104.24Z"/><path class="cls-32" d="M148.45,104.57a.45.45,0,0,1,0,.5.5.5,0,0,1-.62.11c-.34-.17-.47-.86,0-.93a.45.45,0,0,0,.11.62A.38.38,0,0,0,148.45,104.57Z"/><path class="cls-32" d="M155.81,104.68a.51.51,0,0,0,.35.65c.31,0,.5-.26.46-.56.39.35,0,.92-.43.89a.6.6,0,0,1-.53-.41A.49.49,0,0,1,155.81,104.68Z"/><path class="cls-32" d="M158.18,105.45c0,.26.28.51.54.4a.44.44,0,0,0,.15-.6c.45.15.28.81-.08.93a.53.53,0,0,1-.6-.23A.44.44,0,0,1,158.18,105.45Z"/><path class="cls-32" d="M153.75,107.35c.47.44,0,1.16-.56,1.1s-.92-.81-.46-1.18a.63.63,0,0,0,.52.85A.58.58,0,0,0,153.75,107.35Z"/><path class="cls-32" d="M154,99.06a.63.63,0,0,1,.14.73.67.67,0,0,1-.68.38.73.73,0,0,1-.59-.43.59.59,0,0,1,.15-.75.6.6,0,0,0,.48.77h0C153.9,99.79,154.1,99.41,154,99.06Z"/><path class="cls-32" d="M154,96.86a.45.45,0,0,1,.13.48.5.5,0,0,1-.52.34c-.37,0-.73-.64-.33-.88a.45.45,0,0,0,.33.55C153.87,97.38,154,97.11,154,96.86Z"/><path class="cls-32" d="M154,95.13a.37.37,0,0,1,.11.44.42.42,0,0,1-.43.25c-.31,0-.62-.56-.26-.74,0,.22.13.46.35.41A.33.33,0,0,0,154,95.13Z"/><path class="cls-32" d="M163.37,101.43l.37-.19s-.33-.71-.66-1.31a13.8,13.8,0,0,0-5-4.67,15.9,15.9,0,0,0-3.94-1.18H154a14.48,14.48,0,0,0-4,.26,11.61,11.61,0,0,0-5.52,3.46c-.4.51-.8,1.14-.8,1.14l.33.26c-.16.16.59.63.71.47a1.09,1.09,0,0,0,.66-.31l1.1-1,.72.14a12.88,12.88,0,0,1,3.64-2.44,7.83,7.83,0,0,1,3.18-.36A8.31,8.31,0,0,1,157,96.77a14.77,14.77,0,0,1,3.3,3.24l.73,0,1,1.23a1.3,1.3,0,0,0,.6.45C162.7,101.91,163.11,101.61,163.37,101.43Zm-12.87-6a8.63,8.63,0,0,1,1.16-.21A8.92,8.92,0,0,0,150.5,95.46Zm1.24-.22h0Zm4.47.53a11.38,11.38,0,0,1,1.13.47A11.38,11.38,0,0,0,156.21,95.77Zm-.07,0,0,0Z"/><path class="cls-31" d="M163.08,99.93a13.8,13.8,0,0,0-5-4.67,15.9,15.9,0,0,0-3.94-1.18H154a14.48,14.48,0,0,0-4,.26,11.61,11.61,0,0,0-5.52,3.46c-.4.51-.8,1.14-.8,1.14l.9.72A10.39,10.39,0,0,1,154,95.19a11.56,11.56,0,0,1,5.66,2.55,12.39,12.39,0,0,1,3.15,4l1-.51S163.41,100.53,163.08,99.93Z"/><path class="cls-32" d="M162.76,101.86h0a.16.16,0,0,1-.07-.07,12.29,12.29,0,0,0-3.12-4A11.46,11.46,0,0,0,154,95.3a10.29,10.29,0,0,0-9.36,4.41.1.1,0,0,1-.08.05.1.1,0,0,1-.09,0l-.9-.72a.12.12,0,0,1,0-.16s.41-.63.8-1.14a11.79,11.79,0,0,1,5.6-3.5A14.71,14.71,0,0,1,154,94h.16a15.58,15.58,0,0,1,4,1.19,13.65,13.65,0,0,1,5.1,4.72c.33.6.66,1.31.66,1.32a.11.11,0,0,1-.05.15l-1,.5A.07.07,0,0,1,162.76,101.86ZM154,95.07h0a11.74,11.74,0,0,1,5.72,2.59,13,13,0,0,1,3.13,3.93l.76-.4c-.1-.22-.35-.75-.6-1.2h0a13.42,13.42,0,0,0-5-4.62,15.39,15.39,0,0,0-3.91-1.17h-.15a14.45,14.45,0,0,0-4,.27,11.59,11.59,0,0,0-5.46,3.41c-.3.4-.61.86-.74,1l.71.57A11,11,0,0,1,148,96.32a10.64,10.64,0,0,1,6-1.25Z"/><path class="cls-35" d="M144.26,99.12a11.55,11.55,0,0,1,3.41-3,11.75,11.75,0,0,1,5.09-1.32l0-.33a10.42,10.42,0,0,0-5.3,1.41A11.55,11.55,0,0,0,144,99Z"/><path class="cls-35" d="M146.15,98.05l.93.16a11.49,11.49,0,0,1,2.19-1.77,7.17,7.17,0,0,1,2.08-.82,6.77,6.77,0,0,0-2.55.71,9.15,9.15,0,0,0-1.63,1.22l-.48.06Z"/><path class="cls-35" d="M163.06,101.28a13.74,13.74,0,0,0-3-3.77,13,13,0,0,0-4.86-2.46l0-.33a11.55,11.55,0,0,1,5.06,2.59,13.62,13.62,0,0,1,3,3.88Z"/><path class="cls-35" d="M161.32,99.79l-.94-.05a13.44,13.44,0,0,0-1.95-2.24,7.93,7.93,0,0,0-2-1.29,7.62,7.62,0,0,1,2.43,1.28,11.15,11.15,0,0,1,1.47,1.57l.46.17Z"/></g><path class="cls-29" d="M126.09,115.47l1.41-4.71s14-4,22.29-2.35,29.71,7.77,29.71,7.77C174.56,115.47,140.21,103.94,126.09,115.47Z"/></g></g><g id="BrazoI"><path id="Bazo_I-2" data-name="Bazo I" class="cls-6" d="M220.75,172.47s8.56-2.67,14.76-1.22c5.39,1.25,8.39,6.68,9.92,6.34,2.95-12.82-.56-38.46-2.18-45.94-.89-4.1-8.47-15.8-8.47-15.8S208,121,213.14,135.23c6.7,12.8,5.3,9.71,7.19,13.94S226.11,161.36,220.75,172.47Z"/><g class="cls-39"><path class="cls-2" d="M210.22,133.86l4.91-1.9s10.61,21,10.54,24.84-1.15,12.47-.53,12.6,16.2-1.59,18.87,9.11c-6.3-1-26.06-4-26.06-4L217.76,159Z"/></g></g><path class="cls-6" d="M211.4,132.74l-.2,2.1h.85l0,0C211.45,134.4,211.4,132.74,211.4,132.74Z"/><path class="cls-6" d="M225.82,104.8,208.93,88.38l-2.34.18,1.2-5.41c-.19-.58-1-.16-1.66-.24l-1.83.49,1.25-1.94c.18-.48.42-.95.16-1.44l-3.19-.77-1.39-4.4c-2.22.25-6.37,1.82-14.8,11.84-9.87,11.72,2.37,22,2.37,22l1.8,1.91,23.81,22,2.42,1.54,20.65-14.41C237.24,119.27,227.92,107.36,225.82,104.8Z"/><path class="cls-2" d="M214.31,132.6l2.46-4.38-3,2.46L196,108l1.4-3.46-4.11,1.67,1.22-3.58-6.35-5.15,2.38,13.11,20.9,22.18s0,1.66.62,2.07l0,0c.6.38,2.46-.05,2.46-.05l-.08.26,2.3-.9,2.91-4.44Z"/><path class="cls-2" d="M206.13,82.91a.7.7,0,0,1-.57-.33,1.2,1.2,0,0,1,0-1.12l-3,3.19Z"/><path class="cls-2" d="M208.29,88.75l17.53,16c-5.3-6.46-15.34-16.21-16.32-16.6-1.36-.54-1.84-2.92-1.68-4.56a1.41,1.41,0,0,0,0-.49L204.3,90.1Z"/><path class="cls-2" d="M205.71,80a1.42,1.42,0,0,0-.35-.41,12.42,12.42,0,0,0-2.71-1.19l-1.39-3.54a2.81,2.81,0,0,0-.38.1l.81,4.83Z"/><path class="cls-5" d="M240.93,134.33l0,0c.14.44.27.89.4,1.36A7.76,7.76,0,0,0,240.93,134.33Z"/><path class="cls-5" d="M244.88,177.29c.88.42,1.36.71,1.36.71s-.37-.36-1-.92A1.62,1.62,0,0,1,244.88,177.29Z"/><g id="Chaqueta_I" data-name="Chaqueta I"><path class="cls-17" d="M170.47,193.68l-5.3,1.79s-2.65,4.77-5.69-.36,3-106.52,3.45-111.19,6.21-8.7,7.6-13.34a6.25,6.25,0,0,0-.37-4.47l-5.61-5.22L171.7,57s8.31,3.7,8.45,6.66c.3,6,4.39,4.37,4.23,8.13-.1,2.58-6.3,1.55-6.51,5.47C176,113.13,170.47,193.68,170.47,193.68Z"/><path class="cls-18" d="M183.41,74.11s.94-.86-1.3-3.12c-.69-.68-1.87-1.41-2.19-2-.75-1.39-.67-3.37-2.07-4.5-2-1.62-5.09,5.23-5.09,5.23s-2,2.28-3.48,7.61a75.83,75.83,0,0,0-1.7,12.12c-1.4,27.08-6.67,100.83-6.67,100.83s-1.17,9.81.84,5.11,16.21-85,16.21-85Z"/><path class="cls-6" d="M177.19,66.21c-1.33,0-3.25,4.39-6.29,8.91-1.51,4.4-7.5,89.18-9.22,115.88-.29,4.56-1.26,6.64-.46,7.22s2.92-.72,6.67-1.75c4.88-1.34,19.21-7.71,22.32-9.21,5.5-2.66,1.78-35,2.49-36.37s1.34-3.12.58-4.39,2.62-31.42,2.62-31.42-10.9-12.5-5-24.66,10.27-15.57,10.27-15.57l-18.14-2s-1.51-1.21-3.25-2.55S178.53,66.22,177.19,66.21Z"/><polygon class="cls-2" points="179.74 70.31 185.36 79.2 165.17 138.27 186.96 79.3 179.74 70.31"/><g class="cls-40"><polygon class="cls-2" points="193.82 153.72 181.3 155.06 190.35 152.06 173.47 143.98 191.53 150.33 178.2 137.22 190.86 145.77 189.8 100.37 206.36 119.15 195.3 148.81 193.82 153.72"/><path class="cls-2" d="M193.23,152.09c-.4-2.3-.78-2.84-1.39-.64-.81,2.92-1,29.36-2.28,31-2.84,3.58-30.08,16.89-30.08,16.89l18.25-5.69,10.59-4.26s5.29-3.86,5.65-8C194.76,172.26,193.5,153.59,193.23,152.09Z"/></g><path class="cls-18" d="M168.91,74.09s3.5-6.67,2.79-9a13,13,0,0,0-2.79-4.45L166.77,65s1,2.08,1.78,4S168.91,74.09,168.91,74.09Z"/></g><g id="Cabeza"><path class="cls-7" d="M154.46,26.53A32.18,32.18,0,0,0,149,27a16.48,16.48,0,0,0-6.1,30.22c1.71,3.14,4.84,8.19,8.06,9.73,4.79,2.3,6.66,5.29,10.15,5.34s10.38-11.11,11.31-13.92c.6-1.85,1.26-14.77,1.26-14.77A16.51,16.51,0,0,0,159.44,27,33.42,33.42,0,0,0,154.46,26.53Z"/><path class="cls-14" d="M161.06,72.5c-2.16,0-3.69-1.12-5.62-2.5a30,30,0,0,0-4.63-2.86c-3.3-1.58-6.51-6.78-8.15-9.78a16.74,16.74,0,0,1,6.25-30.65,32.8,32.8,0,0,1,5.56-.43,33.77,33.77,0,0,1,4.66.4l.34.05a16.77,16.77,0,0,1,14.41,16.83c0,.54-.67,13-1.28,14.85C171.72,61.1,164.77,72.55,161.06,72.5Zm-6.6-45.72a31.8,31.8,0,0,0-5.47.43A16.23,16.23,0,0,0,143,57l.06,0,0,.05c1.6,2.94,4.76,8.09,8,9.63a29.64,29.64,0,0,1,4.71,2.9c1.86,1.33,3.33,2.38,5.33,2.41,3.21,0,10.11-10.82,11.07-13.75.58-1.79,1.24-14.57,1.25-14.7a16.26,16.26,0,0,0-14-16.32l-.35-.05A31.08,31.08,0,0,0,154.46,26.78Z"/><path class="cls-31" d="M159.84,55.06s0-1.61-3.35-2.37a15.06,15.06,0,0,0-5.43-.39l.32,1.57"/><path class="cls-41" d="M159.59,55.07s-.1-1.44-3.15-2.13a16.46,16.46,0,0,0-5.08-.43l.27,1.31-.49.1-.37-1.82.25-.05a15.54,15.54,0,0,1,5.53.4c3.48.79,3.54,2.53,3.54,2.61Z"/><path class="cls-9" d="M170.44,46.59s-3.12,3.91-3.56,5.83a49.66,49.66,0,0,0-.34,7.48l-1.11-8.82Z"/><path class="cls-42" d="M167.24,52.85s2.83-3.64,5.25-4l.54,1.37"/><path class="cls-2" d="M160,50.72s-6.46-3.28-10-2c0,0-.33.59.52.61C152.63,48.59,160,50.72,160,50.72Z"/><path class="cls-2" d="M173.61,44.76c-2.65-.33-7.19,5.5-7.19,5.5s4-3.42,4.78-3.89,2.28-1.23,2.28-1.23Z"/><path class="cls-9" d="M145,49.21s2.81,12.19,9.92,14c-.48,1.29-8-.11-8-.11s-4.3-8.4-3.08-10.94S145,49.21,145,49.21Z"/><path class="cls-43" d="M168.21,63l1.28.74s2.51-3.76,2.81-5.18.49-2.95.49-2.95"/><path class="cls-2" d="M139.84,31.72a26.78,26.78,0,0,1,4,7.29c1.15,3.71.65,7.55,2.41,7.41,0,0-3.16,9,1.78,12.87.64.25,1,2.45,1.92,2.67.67.15,1.37.3,2.06.43,2.27.43,4.37.71,4.37.71a22.56,22.56,0,0,0,3.4-.88c2.19-.71,7.22-2.82,8.49-.68l1.26,2.15A31,31,0,0,1,167,69.37c-.36.64-.76,1.39-1.14,2.1-.16.3-.48.91-.78,1.45s-.47.83-.56,1a4.21,4.21,0,0,0-.46.95c-.13.36.26.75.26.86,0,.33-1.6.44-2.34.45a14.48,14.48,0,0,1-4.23-.84c-4.18-1.37-9.65-4.44-12-9.19-4.15-8.22-3-18-4.92-18.89-1.34-.61-3.09,4.9-3.09,4.9A15,15,0,0,1,135,40.43,14.39,14.39,0,0,1,139.84,31.72Z"/><path class="cls-9" d="M141.92,48.13s-3.34-3.34-4.43-1c-.5,1.08-.38,3.27.46,5.26,1,2.37,3.88,4.53,4.89,4.11"/><path class="cls-14" d="M142.52,56.83c-1.41,0-3.92-2.19-4.8-4.31-.83-2-1-4.26-.46-5.46a1.54,1.54,0,0,1,1.15-1c1.53-.26,3.6,1.78,3.69,1.87l-.36.35c-.54-.54-2.19-1.92-3.24-1.73a1.09,1.09,0,0,0-.79.69,7.29,7.29,0,0,0,.47,5.06c1,2.29,3.73,4.32,4.57,4l.19.46A1.16,1.16,0,0,1,142.52,56.83Z"/><path class="cls-7" d="M164.71,48.77s2.84,12.42,2.41,12.69-4.63-.74-4.63-.74a1,1,0,0,1,.25-1.22"/><path class="cls-14" d="M166.76,61.75a27.11,27.11,0,0,1-4.33-.79l-.11,0,0-.1a1.26,1.26,0,0,1,.32-1.53l.31.4a.72.72,0,0,0-.22.81,24.89,24.89,0,0,0,4.23.75c.05-1-1.45-8.08-2.45-12.44l.49-.11c2.89,12.6,2.47,12.86,2.3,13A1.15,1.15,0,0,1,166.76,61.75Z"/><g class="cls-44"><circle class="cls-41" cx="157.66" cy="53.79" r="2.09"/></g><g class="cls-45"><ellipse class="cls-41" cx="171.39" cy="50.18" rx="1.71" ry="1.47" transform="translate(118.73 220.83) rotate(-89.17)"/></g></g></g></g></svg>