<svg id="Capa_1" data-name="Capa 1" xmlns="http://www.w3.org/2000/svg" viewBox="0 0 100 100"><defs><style>.cls-1{fill:#41b782;}.cls-2{fill:#35495e;}</style></defs><path class="cls-1" d="M95,12c-.63-.19-.6.42-.76.7q-5.61,9.6-11.18,19.24L50.71,87.74l-.4.68c-.21.38-.41.38-.62,0l-.4-.68q-21.72-37.48-43.46-75c-.19-.35-.3-.79-.73-1L5,11.88S5,12,5,12v-.68l18,0L49.33,56.77c.62,1.07.72,1.07,1.34,0L77,11.34l18,0Z"/><path class="cls-2" d="M23,11.34c5.29,0,10.57,0,15.86,0a1.42,1.42,0,0,1,1.36.93q4.41,7.64,8.85,15.26c.18.33.38.65.57,1s.48.41.72,0,.39-.64.57-1c2.93-5,5.88-10.1,8.78-15.17a1.75,1.75,0,0,1,1.77-1c5.17.05,10.34,0,15.52.05L50.67,56.77c-.62,1.07-.72,1.07-1.34,0Z"/></svg>