<svg id="Capa_1" data-name="Capa 1" xmlns="http://www.w3.org/2000/svg" viewBox="0 0 100 100"><defs><style>.cls-1{fill:#5f9af2;}.cls-2{fill:#f5f5f5;}.cls-3{fill:#5897f5;}</style></defs><path class="cls-1" d="M49.82,5.12A43,43,0,0,1,70.61,10a42,42,0,0,1,5.69,3.51,1.14,1.14,0,0,0,1.48,0,6.05,6.05,0,0,1,7.41.39,6.31,6.31,0,0,1,1.9,7.21,5.18,5.18,0,0,1-.69,1.24.9.9,0,0,0,0,1.22A43.67,43.67,0,0,1,92.6,35.4a45.74,45.74,0,0,1,2.31,11.76,44.84,44.84,0,0,1-2.39,17.51,43.34,43.34,0,0,1-8.74,14.88A44.27,44.27,0,0,1,57.36,94.24a43.62,43.62,0,0,1-30.88-6A44.43,44.43,0,0,1,9.64,69.79a44.93,44.93,0,0,1,.42-40.53A44.43,44.43,0,0,1,28.29,10.58a43.71,43.71,0,0,1,14.94-5.1A36.67,36.67,0,0,1,49.82,5.12Zm0,88.21c.91,0,1.81-.06,2.71-.11a40.81,40.81,0,0,0,8.28-1.31,43.83,43.83,0,0,0,18-9.58A42.76,42.76,0,0,0,89.9,67.07a42.09,42.09,0,0,0,3.47-18.44,44.73,44.73,0,0,0-.9-7.83,42.86,42.86,0,0,0-7-15.87c-.61-.87-.69-.9-1.61-.45a6.46,6.46,0,0,1-3.6.58,6.34,6.34,0,0,1-5-8.7c.58-1.23.59-1.25-.58-2A43,43,0,0,0,45.09,6.85a41.11,41.11,0,0,0-15.72,4.93,43.26,43.26,0,0,0-18.1,18.5A42.22,42.22,0,0,0,6.62,51.45,42.34,42.34,0,0,0,8.74,63.53,42.86,42.86,0,0,0,22.46,83.42,43.28,43.28,0,0,0,49.83,93.33Z"/><path class="cls-2" d="M49.83,93.33a43.28,43.28,0,0,1-27.37-9.91A42.86,42.86,0,0,1,8.74,63.53,42.34,42.34,0,0,1,6.62,51.45a42.22,42.22,0,0,1,4.65-21.17,43.26,43.26,0,0,1,18.1-18.5A41.11,41.11,0,0,1,45.09,6.85a43,43,0,0,1,29.65,7.46c1.17.8,1.16.82.58,2a6.34,6.34,0,0,0,5,8.7,6.46,6.46,0,0,0,3.6-.58c.92-.45,1-.42,1.61.45a42.86,42.86,0,0,1,7,15.87,44.73,44.73,0,0,1,.9,7.83A42.09,42.09,0,0,1,89.9,67.07,42.76,42.76,0,0,1,78.81,82.33a43.83,43.83,0,0,1-18,9.58,40.81,40.81,0,0,1-8.28,1.31C51.64,93.27,50.74,93.37,49.83,93.33ZM50,31.61A18.32,18.32,0,1,0,68.37,49.73,18.28,18.28,0,0,0,50,31.61Z"/><path class="cls-3" d="M50,31.61A18.32,18.32,0,1,1,31.65,49.86,18.23,18.23,0,0,1,50,31.61Z"/></svg>