<?xml version="1.0" encoding="utf-8"?>
<!-- Generator: Adobe Illustrator 26.0.3, SVG Export Plug-In . SVG Version: 6.00 Build 0)  -->
<svg version="1.1" id="Capa_1" xmlns="http://www.w3.org/2000/svg" xmlns:xlink="http://www.w3.org/1999/xlink" x="0px" y="0px"
	 viewBox="0 0 16 12" style="enable-background:new 0 0 16 12;" xml:space="preserve">
<style type="text/css">
	.st0{fill:#0C0C0C;}
	.st1{fill:#F90404;}
	.st2{fill:#AD0707;}
	.st3{fill:#FCD509;}
	.st4{fill:#0707F6;}
	.st5{fill:#F12424;}
	.st6{fill:#CA0808;}
	.st7{fill:#ADADAD;}
	.st8{fill:#FDFDFD;}
</style>
<g id="g9877">
	<path id="path8949" class="st0" d="M1,0v1H0v10h1v1h14v-1h1V1h-1V0H1z"/>
	<path id="path8951" class="st5" d="M1,1h14v10H1V1z"/>
	<path id="path8953" class="st6" d="M1,9h14v2H1V9z"/>
	<path id="path8955" class="st4" d="M1,1h7v5H1V1z"/>
	<path id="path8957" class="st7" d="M1,8h14v1H1V8z"/>
	<path id="path8959" class="st8" d="M8,2v1h7V2H8z M8,4v1h7V4H8z M1,6v1h14V6H1z"/>
	<path id="path8965" class="st8" d="M2,2v1h1V2H2z M4,2v1h1V2H4z M6,2v1h1V2H6z M2,4v1h1V4H2z M4,4v1h1V4H4z M6,4v1h1V4H6z"/>
	<path id="path8968" class="st7" d="M1,1v1h1V1H1z M3,1v1h1V1H3z M5,1v1h1V1H5z M7,1v1h1V1H7z M1,3v1h1V3H1z M3,3v1h1V3H3z M5,3v1h1
		V3H5z M7,3v1h1V3H7z"/>
</g>
</svg>
