<svg id="Capa_1" data-name="Capa 1" xmlns="http://www.w3.org/2000/svg" viewBox="0 0 100 100"><defs><style>.cls-1{fill:#f8dd1c;}.cls-2{fill:#3b3732;}</style></defs><path class="cls-1" d="M95,49.93C94.93,74.86,74.6,95.18,49.91,95A45,45,0,1,1,95,49.93ZM70.49,38.1c.45-1.81.83-3.55,1.35-5.24.26-.87-.07-1.21-.79-1.46-4.68-1.66-9.4-2-14,0a10.63,10.63,0,0,0-3,18.13,20.59,20.59,0,0,0,5.45,3.37,19.11,19.11,0,0,1,4.52,2.53,5.13,5.13,0,0,1,1.75,2.45c1,3.17-1.06,6-4.73,6.29a15.64,15.64,0,0,1-8.62-1.54c-1.06-.54-1.37-.28-1.55.78a21.37,21.37,0,0,1-.86,3.72c-.43,1.2.07,1.63,1.09,2a22.26,22.26,0,0,0,13.82.77A11.34,11.34,0,0,0,73,55.06c-1.11-3.5-3.76-5.6-6.86-7.24-1.84-1-3.77-1.81-5.56-2.86-2.32-1.36-3.17-3.08-2.72-5s2.1-3.2,4.69-3.47A14.94,14.94,0,0,1,70.49,38.1Zm-26.1,7.95c0-5,0-9.18,0-13.31,0-2.37.22-2-2.07-2-1.32,0-2.66.09-4,0s-1.51.33-1.5,1.51c0,7.8,0,15.61,0,23.41a21.77,21.77,0,0,1-.32,4.11c-.58,3-2.25,4.29-5.3,4.46-1.31.07-2.92-1.18-3.76,0-.71,1-.5,2.64-.69,4a6.51,6.51,0,0,1-.07.76c-.19.75.24,1,.86,1.12a17.94,17.94,0,0,0,10.24-.5c4.4-1.74,6-5.47,6.37-9.81C44.67,54.92,44.27,50,44.39,46.05Z"/><path class="cls-2" d="M70.49,38.1a14.94,14.94,0,0,0-8-1.6c-2.59.27-4.23,1.48-4.69,3.47s.4,3.63,2.72,5c1.79,1,3.72,1.89,5.56,2.86,3.1,1.64,5.75,3.74,6.86,7.24a11.34,11.34,0,0,1-8.13,14.79A22.26,22.26,0,0,1,51,69.08c-1-.37-1.52-.8-1.09-2a21.37,21.37,0,0,0,.86-3.72c.18-1.06.49-1.32,1.55-.78A15.64,15.64,0,0,0,61,64.12c3.67-.33,5.75-3.12,4.73-6.29a5.13,5.13,0,0,0-1.75-2.45,19.11,19.11,0,0,0-4.52-2.53A20.59,20.59,0,0,1,54,49.48a10.63,10.63,0,0,1,3-18.13c4.65-1.92,9.37-1.61,14,0,.72.25,1,.59.79,1.46C71.32,34.55,70.94,36.29,70.49,38.1Z"/><path class="cls-2" d="M44.39,46.05c-.12,4,.28,8.87-.18,13.75-.4,4.34-2,8.07-6.37,9.81a17.94,17.94,0,0,1-10.24.5C27,70,26.55,69.74,26.74,69a6.51,6.51,0,0,0,.07-.76c.19-1.37,0-3,.69-4,.84-1.19,2.45.06,3.76,0,3.05-.17,4.72-1.45,5.3-4.46a21.77,21.77,0,0,0,.32-4.11c0-7.8,0-15.61,0-23.41,0-1.18.26-1.62,1.5-1.51s2.65,0,4,0c2.29,0,2.06-.37,2.07,2C44.4,36.87,44.39,41,44.39,46.05Z"/></svg>