<?xml version="1.0" encoding="utf-8"?>
<!-- Generator: Adobe Illustrator 26.2.1, SVG Export Plug-In . SVG Version: 6.00 Build 0)  -->
<svg version="1.1" id="Capa_1" xmlns="http://www.w3.org/2000/svg" xmlns:xlink="http://www.w3.org/1999/xlink" x="0px" y="0px"
	 viewBox="0 0 100 100" style="enable-background:new 0 0 100 100;" xml:space="preserve">
<g id="Page-1">
	<g id="Black-Next.js" transform="translate(-247.000000, -138.000000)">
		<g id="next-black" transform="translate(247.000000, 138.000000)">
			<g id="EXT-_x2B_-Type-something">
				<path id="EXT" d="M26.5,37.2h16.8v1.3H28v10h14.3v1.3H28v11h15.4v1.3h-17V37.2z M44.8,37.2h1.8l7.9,11l8.1-11l11-13.9L55.5,49.3
					l9.3,12.8h-1.9l-8.5-11.7L46,62.2h-1.8l9.4-12.8L44.8,37.2z M65.5,38.5v-1.3h19.1v1.3h-8.8v23.6h-1.5V38.5H65.5z"/>
				<polygon id="Type-something" points="5.5,37.2 7.4,37.2 33.9,76.7 23,62.2 7.1,39.1 7,62.2 5.5,62.2 				"/>
			</g>
			<path id="_x2E_JS" d="M84.4,60.4c0.3,0,0.6-0.2,0.6-0.6c0-0.3-0.2-0.6-0.6-0.6c-0.3,0-0.6,0.2-0.6,0.6
				C83.9,60.2,84.1,60.4,84.4,60.4z M85.9,59c0,0.9,0.7,1.5,1.6,1.5c1,0,1.7-0.6,1.7-1.7V55h-0.8v3.8c0,0.6-0.3,0.9-0.8,0.9
				c-0.5,0-0.8-0.3-0.8-0.7H85.9z M90.4,58.9c0.1,1,0.9,1.6,2.1,1.6c1.3,0,2.1-0.6,2.1-1.7c0-0.8-0.5-1.3-1.6-1.5l-0.6-0.1
				c-0.7-0.2-1-0.4-1-0.8c0-0.5,0.4-0.8,1.1-0.8c0.6,0,1.1,0.3,1.1,0.8h0.8c0-0.9-0.8-1.5-1.9-1.5c-1.2,0-2,0.6-2,1.6
				c0,0.8,0.4,1.3,1.4,1.5l0.7,0.2c0.7,0.2,1,0.4,1,0.8c0,0.5-0.5,0.8-1.2,0.8c-0.7,0-1.2-0.3-1.3-0.8H90.4z"/>
		</g>
	</g>
</g>
</svg>
