<svg id="Capa_1" data-name="Capa 1" xmlns="http://www.w3.org/2000/svg" viewBox="0 0 100 100"><defs><style>.cls-1{fill:#2062ae;}.cls-2{fill:#f6f8f9;}.cls-3{fill:#347dc5;}</style></defs><path class="cls-1" d="M50.1,5c12.55,0,25.1,0,37.65,0,1.43,0,1.71.37,1.58,1.75C88.26,17.89,87.27,29,86.25,40.19L82.86,77.13c-.25,2.68-.53,5.36-.72,8.05a1.45,1.45,0,0,1-1.29,1.53q-15,4-30,8.18A3.34,3.34,0,0,1,49,94.83c-9.87-2.71-19.74-5.43-29.63-8.08A1.65,1.65,0,0,1,17.88,85c-.74-8.53-1.55-17-2.33-25.56Q14,42.74,12.49,26c-.6-6.6-1.17-13.2-1.83-19.78C10.5,4.67,11.48,5,12.28,5ZM50,53V66.83a37.45,37.45,0,0,0-4.75-1.08c-3.31-.53-4.94-2.54-4.77-6,.05-.91-.39-1.32-1.4-1.29-2.63.07-5.27.07-7.9,0-1.07,0-1.43.23-1.3,1.37.41,3.72.78,7.45,1,11.18a1.88,1.88,0,0,0,1.65,2C38.39,74.71,44.19,76.5,50,78.25c0,2.23,0,4.46,0,6.69,0,1.2-.56,2.82.31,3.5s2.15-.43,3.26-.75c6.95-2,13.88-4.12,20.82-6.16a1.9,1.9,0,0,0,1.69-2c.1-2.55.46-5.1.72-7.65.44-4.22.91-8.44,1.33-12.67.4-4,.73-8.12,1.11-12.18q.66-6.78,1.36-13.55c.31-3,.68-6,1-9,.4-4.06.75-8.12,1.15-12.18.12-1.2-.31-1.63-1.56-1.62q-14.77.06-29.54,0c-1.36,0-1.69.46-1.66,1.73.08,3.16,0,6.33,0,9.49-7.38,0-14.76.06-22.14,0-1.09,0-1.56.18-1.4,1.42q.55,4.18.87,8.38c.08,1.18.45,1.55,1.66,1.52,4.34-.08,8.67,0,13,0h7.23a2.28,2.28,0,0,1-1.07.71q-9.33,3.6-18.65,7.18c-.83.32-1.41.58-1.26,1.7.36,2.84.65,5.7.82,8.56.07,1.31.54,1.6,1.79,1.59C37.24,52.88,43.62,52.93,50,53Z"/><path class="cls-2" d="M50,78.25C44.19,76.5,38.39,74.71,32.55,73a1.88,1.88,0,0,1-1.65-2c-.24-3.73-.61-7.46-1-11.18-.13-1.14.23-1.4,1.3-1.37,2.63.07,5.27.07,7.9,0,1,0,1.45.38,1.4,1.29-.17,3.43,1.69,4.78,4.82,5.68s3.13.9,4.7,1.37c2.5-.75,5-1.56,7.52-2.22a1.83,1.83,0,0,0,1.55-1.94q.32-4.28.74-8.54c.08-.85,0-1.28-1.06-1.25l-27.89,0c-1.25,0-1.72-.28-1.79-1.59-.17-2.86-.46-5.72-.82-8.56-.15-1.12.43-1.38,1.26-1.7q9.33-3.57,18.65-7.18a2.28,2.28,0,0,0,1.07-.71H42c-4.33,0-8.66,0-13,0-1.21,0-1.58-.34-1.66-1.52q-.32-4.2-.87-8.38c-.16-1.24.31-1.42,1.4-1.42H72.16c.78,0,1.52-.13,1.36,1.13-.35,2.91-.65,5.83-.85,8.75a2,2,0,0,1-1.53,2c-6.37,2.34-12.71,4.74-19.07,7.13-.38.14-.84.19-1,.72H70.27c.84,0,1.54-.17,1.4,1.23Q70.27,56.91,69.12,71c-.11,1.33-.64,1.73-1.79,2.07C61.54,74.76,55.78,76.52,50,78.25Z"/><path class="cls-3" d="M50,78.25c5.77-1.73,11.53-3.49,17.32-5.17,1.15-.34,1.68-.74,1.79-2.07q1.16-14.1,2.55-28.17c.14-1.4-.56-1.23-1.4-1.23H51c.21-.53.67-.58,1-.72,6.36-2.39,12.7-4.79,19.07-7.13a2,2,0,0,0,1.53-2c.2-2.92.5-5.84.85-8.75.16-1.26-.58-1.13-1.36-1.13-6.74,0-21.51,0-22.15-.05,0-3.16.06-6.33,0-9.49,0-1.27.3-1.74,1.66-1.73q14.76.07,29.54,0c1.25,0,1.68.42,1.56,1.62-.4,4.06-.75,8.12-1.15,12.18-.29,3-.66,6-1,9Q79.94,40.24,79.27,47c-.38,4.06-.71,8.13-1.11,12.18-.42,4.23-.89,8.45-1.33,12.67-.26,2.55-.62,5.1-.72,7.65a1.9,1.9,0,0,1-1.69,2c-6.94,2-13.87,4.15-20.82,6.16-1.11.32-2.48,1.37-3.26.75s-.28-2.3-.31-3.5C50,82.71,50,80.48,50,78.25Z"/><path class="cls-3" d="M50,53c2.91,0,5.83,0,8.74-.07,1,0,1.14.4,1.06,1.25q-.42,4.26-.74,8.54a1.83,1.83,0,0,1-1.55,1.94c-2.53.66-5,1.47-7.52,2.22Q50,59.89,50,53Z"/></svg>