<svg id="Capa_1" data-name="Capa 1" xmlns="http://www.w3.org/2000/svg" viewBox="0 0 100 100"><defs><style>.cls-1{fill:#07b5d4;}</style></defs><path class="cls-1" d="M95,32.3A25.31,25.31,0,0,1,90.33,42a18.86,18.86,0,0,1-7.67,6.17A25.22,25.22,0,0,1,75.11,50a26.43,26.43,0,0,1-15.45-3.26,22.81,22.81,0,0,1-5.32-4.06A56,56,0,0,0,48.15,37a15.54,15.54,0,0,0-6.15-3,12.59,12.59,0,0,0-9.59,2,17.37,17.37,0,0,0-4.91,4.8,1.88,1.88,0,0,1,0-.43,21.46,21.46,0,0,1,7.83-12.92,20.68,20.68,0,0,1,9.19-3.94A29.4,29.4,0,0,1,57.85,24a24.4,24.4,0,0,1,9.76,5.62c1.77,1.61,3.38,3.38,5,5.1a14,14,0,0,0,10.22,4.36,13.06,13.06,0,0,0,8.69-3.33,25.86,25.86,0,0,0,3.35-3.51Z"/><path class="cls-1" d="M5,67.68a21.88,21.88,0,0,1,1.34-4.57c3.05-7.31,8.56-11.53,16.33-12.8A28.15,28.15,0,0,1,36.8,51.39a25.89,25.89,0,0,1,9.72,6.45c1.38,1.38,2.71,2.79,4.08,4.18a13.57,13.57,0,0,0,18.64.58,23.22,23.22,0,0,0,2.94-3.09c.1-.12.16-.28.36-.36a4.78,4.78,0,0,1-.3,1.33,25.06,25.06,0,0,1-7.69,12,18.7,18.7,0,0,1-8.3,3.89,26.63,26.63,0,0,1-18.94-2.66,22.65,22.65,0,0,1-5.37-4.07A58,58,0,0,0,26.1,64.2a16.39,16.39,0,0,0-6.25-3.27,12.31,12.31,0,0,0-9.07,1.47,16.84,16.84,0,0,0-5.37,4.81C5.3,67.36,5.23,67.56,5,67.68Z"/><path class="cls-1" d="M94.91,32.23s0-.12.09-.09a.6.6,0,0,1,0,.16Z"/></svg>