<svg id="Capa_1" data-name="Capa 1" xmlns="http://www.w3.org/2000/svg" viewBox="0 0 100 100"><defs><style>.cls-1{fill:#b52f32;}.cls-2{fill:#fdfcfc;}.cls-3{fill:#f7f7f8;}</style></defs><path class="cls-1" d="M50,5A45,45,0,1,1,5,50.06,45,45,0,0,1,50,5ZM23.58,32.09l.75,6.35c1,8.72,2,17.44,3,26.17a2.18,2.18,0,0,0,1.27,1.87q10,5.49,20,11.07a2,2,0,0,0,2.22,0Q60.84,71.91,70.91,66.4a2.48,2.48,0,0,0,1.46-2.15c.17-1.81.42-3.6.65-5.4q1.65-13.16,3.32-26.31c.12-.93.13-1.56-1.07-2-8.2-2.73-16.38-5.55-24.56-8.36a2.61,2.61,0,0,0-1.85-.07q-12.12,4.38-24.28,8.66C23.75,31.1,23.41,31.49,23.58,32.09Z"/><path class="cls-2" d="M23.58,32.09c-.17-.6.17-1,1-1.28q12.15-4.27,24.28-8.66a2.61,2.61,0,0,1,1.85.07c8.18,2.81,16.36,5.63,24.56,8.36,1.2.4,1.19,1,1.07,2Q74.68,45.7,73,58.85c-.23,1.8-.48,3.59-.65,5.4a2.48,2.48,0,0,1-1.46,2.15Q60.83,71.89,50.79,77.52a2,2,0,0,1-2.22,0Q38.64,72,28.62,66.48a2.18,2.18,0,0,1-1.27-1.87c-1-8.73-2-17.45-3-26.17Zm7.76,32.36c2,0,3.8,0,5.59,0a1.47,1.47,0,0,0,1.64-1.17c.85-2.3,1.83-4.55,2.67-6.86A1.56,1.56,0,0,1,43,55.25c3.22.06,6.44,0,9.66,0,1.75,0,3.84-.54,5.17.22s1.88,3,2.32,4.76c.92,3.64,3.07,4.88,6.67,4.46,1.36-.15,1.77-.18,1.1-1.61Q59,44.26,50.21,25.36c-.17-.36-.18-.94-.85-1C43.38,37.69,37.39,51,31.34,64.45Z"/><path class="cls-1" d="M31.34,64.45c6.05-13.46,12-26.76,18-40.07.67,0,.68.62.85,1Q59.08,44.23,67.94,63.1c.67,1.43.26,1.46-1.1,1.61-3.6.42-5.75-.82-6.67-4.46-.44-1.71-.91-3.94-2.32-4.76s-3.42-.21-5.17-.22c-3.22,0-6.44,0-9.66,0a1.56,1.56,0,0,0-1.78,1.19c-.84,2.31-1.82,4.56-2.67,6.86a1.47,1.47,0,0,1-1.64,1.17C35.14,64.4,33.34,64.45,31.34,64.45ZM49.63,37c-1.79,4.25-3.38,8.06-5,11.86-.3.72-.3,1.07.62,1.06q4.74,0,9.47,0c.9,0,1-.29.62-1C53.48,45.06,51.66,41.23,49.63,37Z"/><path class="cls-3" d="M49.63,37c2,4.25,3.85,8.08,5.7,11.9.36.74.28,1-.62,1q-4.73,0-9.47,0c-.92,0-.92-.34-.62-1.06C46.25,45,47.84,41.23,49.63,37Z"/></svg>