<svg xmlns="http://www.w3.org/2000/svg" xmlns:xlink="http://www.w3.org/1999/xlink" viewBox="0 0 252.51 406"><defs><style>.cls-1,.cls-7{fill:#faebd6;}.cls-1,.cls-10,.cls-43{stroke:#72390d;}.cls-1,.cls-10,.cls-11,.cls-26,.cls-4,.cls-42,.cls-43{stroke-miterlimit:10;}.cls-1,.cls-10,.cls-26,.cls-4,.cls-42,.cls-43{stroke-width:0.5px;}.cls-2,.cls-29{fill:#030202;}.cls-3{fill:#e4e4e4;}.cls-23,.cls-4{fill:#586da8;}.cls-26,.cls-4{stroke:#080919;}.cls-10,.cls-11,.cls-26,.cls-5{fill:none;}.cls-6{fill:#0b0b0c;}.cls-8{clip-path:url(#clip-path);}.cls-43,.cls-9{fill:#c2714e;}.cls-11{stroke:#030202;}.cls-12{clip-path:url(#clip-path-2);}.cls-13{clip-path:url(#clip-path-3);}.cls-14{fill:#72390d;}.cls-15{clip-path:url(#clip-path-4);}.cls-16{clip-path:url(#clip-path-5);}.cls-17{fill:#9b9b9b;}.cls-18{fill:#626262;}.cls-19{clip-path:url(#clip-path-6);}.cls-20{fill:#b0b0b0;}.cls-21{opacity:0.8;}.cls-22{clip-path:url(#clip-path-7);}.cls-24{clip-path:url(#clip-path-8);}.cls-25{fill:#131b2b;}.cls-27{fill:#08080a;}.cls-28{clip-path:url(#clip-path-9);}.cls-29{opacity:0.9;}.cls-30{opacity:0.08;}.cls-31,.cls-42{fill:#fff;}.cls-32{fill:#010102;}.cls-33{fill:#414042;}.cls-34{fill:#120f0e;}.cls-35{fill:#14a5dc;}.cls-36{fill:#010002;}.cls-37{fill:#00d8f5;}.cls-38{fill:#404041;}.cls-39{clip-path:url(#clip-path-10);}.cls-40{clip-path:url(#clip-path-11);}.cls-41{fill:#171519;}.cls-42{stroke:#171519;}.cls-44{clip-path:url(#clip-path-12);}.cls-45{clip-path:url(#clip-path-13);}</style><clipPath id="clip-path"><path class="cls-1" d="M228.11,173.23a24.32,24.32,0,0,0-5.68,4.86c-2.13,2.72-2.89,3.48-2.78,5.4s-1.19,7.18-1.69,8.37-1.05,2.53,2.27,1.72c4.81-1.17,4.12-6,5.12-8.5a8.19,8.19,0,0,1,3.22-3.74s1.52,8.41,1.11,11.29-1.67,7.71.62,7.72c1.88,0,3-1.73,3.42-7.23s1.09-6.88,1.09-6.88a23.68,23.68,0,0,1,1.82,7c.22,2.78-1.58,11-.81,12.53s.26,2.37,2.22,1.72,1.88-1.69,1.88-1.69,2.63,1.43,3.2-1c.1-.41.36-1.17.62-2,1-3.46,1.33-12.29,1.36-13.38,0-1.37,2.11,3.37,1.89,5.44s1.68,9.17,2.59,9.07,2-.09,1.94-2-.66-5.51-1-7.76-.87-7.08-2.45-8.74-.87-13.12-.87-13.12-.13-8.19-6.14-7.13-12.42,1-12.43,3A42.59,42.59,0,0,1,228.11,173.23Z"/></clipPath><clipPath id="clip-path-2"><path class="cls-2" d="M133.19,76.8s-19.09,1.23-21.67,2-30,46.3-30,46.3-1,17.64,1,19.68,2.64,5.62,5.94,4.81,12.91-2.52,19.44-13.09c.73-1.19,21.27-22.81,18.16-19Z"/></clipPath><clipPath id="clip-path-3"><path class="cls-7" d="M86.53,120.74s1.68-5.14,3-6.68,7.78-6.34,9-6.58,10.82,2,11.56,2.58,1.83,6.18,1.83,6.75a13.52,13.52,0,0,1-4.13,3c-.66.73-.55,1.47-1.28,2.32-.31,1.39-5.72,3.42-6,3.45-1.18.12-2.56,3.28-2.56,3.28s-4.82,1.9-7.78-.08S86.53,120.74,86.53,120.74Z"/></clipPath><clipPath id="clip-path-4"><path class="cls-7" d="M113.17,117.76s-1.85-1.79-4.91.92-2.8,3.83-1.88,4.67,5.8-1.12,6.79-2.06A2.21,2.21,0,0,0,113.17,117.76Z"/></clipPath><clipPath id="clip-path-5"><path class="cls-5" d="M85,122.53c-.76.61-3.11,17-3.11,17s2.28,12.06,6.47,11.88,12.09-2.91,15.13-8.73a65.15,65.15,0,0,0-2.17-16.18s-9.74,4.27-14-3.13C87.63,123.31,85.8,121.92,85,122.53Z"/></clipPath><clipPath id="clip-path-6"><path class="cls-3" d="M65.47,354.69s1.93,10.91-3.89,16.52-2.79,2.41-2.79,2.41-6.89,3.87-6.61,7A85.82,85.82,0,0,0,54,390s3.84,4.38,8.58,4,11.5.17,13.67-4a72.64,72.64,0,0,1,5.6-8.76s-2.42-2.24-.58-3,2.26,1.4,2.26,1.4,7.7-4,8.68-5.78-.86-12.06-.86-12.06Z"/></clipPath><clipPath id="clip-path-7"><path id="zapato_I" data-name="zapato I" class="cls-3" d="M208.56,370.42,211,381.93s1.23,5.42.19,6.64a3.63,3.63,0,0,0-.73,2.79l1.62,8.55a10.15,10.15,0,0,0,8.92,5.41c6.54.18,13.91-2.35,17.55-6s2.65-3.14,2.65-3.14l-1.67-9.43a1.91,1.91,0,0,1-2.09-.85c-.77-1.24-7.29-14.71-7.29-14.71S217.07,359.08,208.56,370.42Z"/></clipPath><clipPath id="clip-path-8"><path class="cls-4" d="M120.77,160.47S98.23,204.32,93,214c-6.08,11.22-15.93,36-18.45,42s-5.72,10.63-5.91,15.1,1.34,8.43,2.13,16.38-2.81,48.6-4.19,51.33-4.79,4.83-4.59,10.12c.08,1.91,2.86,2.18,2.18,5.16s-3,6-.88,6.72,7-2.13,14.59.36,13.82,3.89,15.17,2.7c3.39-3-.28-7.33,1.12-8.82s5-2.8,3.59-5.53a29,29,0,0,1-3.11-11.37,103.16,103.16,0,0,1,3.63-20c1.46-4.55,7.15-23.1,6.54-27.79a120,120,0,0,1-1.12-15.53c0-3.29-3.64-2.13-2.74-5.11s16.77-23.57,21.71-31.27S136.24,213,137.48,213c.11,0,1.67-.27,1.89.34,2.22,6.35,8.21,38.36,15.56,49.4,8.08,12.1,9.58,21.48,12.62,25.4s15.27,23.55,20.87,35.47S201,350.1,200.54,356.06s-1.58,8.47,2.17,11.82c1.47,1.32.55,6.93,1.76,8.94a7.23,7.23,0,0,0,4.9,3.47s1.84-9.29,8.9-9.48c9.72-.25,12.88.38,12.74,3.66,1.4-1.68,2.82-6.21,1.24-9.23-2.19-4.2,2.57-5.73,2.29-9.62-.18-2.6-6.32-4.7-7.59-7.68s-6.47-39.49-7.94-44.7-12-15.12-15-17.36-3-8.13-4.4-10.17-5.16-4.24-6.08-8-11-62.39-12.73-78-.36-17.37-.36-17.37l-48.24-5.43Z"/></clipPath><clipPath id="clip-path-9"><path class="cls-5" d="M140.46,80.36s12.81,13.57,27-1.64l19.42,2.69-15.35,72.05-3.11,24.67a155.91,155.91,0,0,1-28.29-.2c-13.91-1.58-16.55-1.18-21.06-4.79s-7.21-16-4.65-30.52,15-43.06,16.62-47.44c.92-2.46,2.22-7,4.54-10.35C137.43,82.2,140.28,79.26,140.46,80.36Z"/></clipPath><clipPath id="clip-path-10"><path id="Bazo_I" data-name="Bazo I" class="cls-6" d="M218.82,174.65s9.79-3.22,16.77-2.83c9.29.53,11.73,4.34,13.41,4.19,3.54-11.18-19.64-48.15-19.64-48.15s-28.88,3.53-23.63,16.68c7,12,5.56,9.16,7.52,13.09A51,51,0,0,1,218.82,174.65Z"/></clipPath><clipPath id="clip-path-11"><path class="cls-5" d="M172.19,72.74c-1.33,0-3.25,4.38-6.29,8.88-1.51,4.38-7.5,88.82-9.22,115.41-.29,4.54-1.26,6.61-.46,7.19s2.92-.71,6.67-1.74c4.88-1.34,19.21-7.68,22.32-9.17,5.5-2.65-2.22-36.86-1.51-38.22s1.34-3.11.58-4.37,6.62-29.3,6.62-29.3-10.9-12.45-5-24.56,6.5-14.39,6.5-14.39L178,79.38s-1.51-1.21-3.25-2.55S173.53,72.75,172.19,72.74Z"/></clipPath><clipPath id="clip-path-12"><path class="cls-5" d="M153,62.3s0-1.61-3.35-2.36a15.23,15.23,0,0,0-5.43-.4l.32,1.57"/></clipPath><clipPath id="clip-path-13"><path class="cls-5" d="M166.34,57.8l-.72-1.68c-2.41.34-5.25,4-5.25,4"/></clipPath></defs><g id="Frame6"><g id="Frame_1" data-name="Frame 1"><path id="Zapato_I-2" data-name="Zapato I" d="M218.82,174.65s15.28,12.18,25.67,4.48C240.13,167.36,219.21,164.94,218.82,174.65Z"/><g id="Mano_I" data-name="Mano I"><path class="cls-7" d="M228.11,173.23a24.32,24.32,0,0,0-5.68,4.86c-2.13,2.72-2.89,3.48-2.78,5.4s-1.19,7.18-1.69,8.37-1.05,2.53,2.27,1.72c4.81-1.17,4.12-6,5.12-8.5a8.19,8.19,0,0,1,3.22-3.74s1.52,8.41,1.11,11.29-1.67,7.71.62,7.72c1.88,0,3-1.73,3.42-7.23s1.09-6.88,1.09-6.88a23.68,23.68,0,0,1,1.82,7c.22,2.78-1.58,11-.81,12.53s.26,2.37,2.22,1.72,1.88-1.69,1.88-1.69,2.63,1.43,3.2-1c.1-.41.36-1.17.62-2,1-3.46,1.33-12.29,1.36-13.38,0-1.37,2.11,3.37,1.89,5.44s1.68,9.17,2.59,9.07,2-.09,1.94-2-.66-5.51-1-7.76-.87-7.08-2.45-8.74-.87-13.12-.87-13.12-.13-8.19-6.14-7.13-12.42,1-12.43,3A42.59,42.59,0,0,1,228.11,173.23Z"/><g class="cls-8"><path class="cls-9" d="M219.74,194.3s3.13-1.6,3.71-7.89-.09-9.39-.09-9.39l3.46-3.66,1.17-6.53,4-1.6s7.43-1,10.66-.62a3.82,3.82,0,0,1,1.09.27c.95.47,2.86,3.49,3.66,5.05.37.71.5,1.11.2.81-.65-.65.66,9.42-.08,9-1-.54-3.17-4.31-7.68-5.16-4-.76-6-.93-7.46.32-2,1.65-1.74,5.47-1.59,6.74a43.65,43.65,0,0,1-.31,14.46c-.29,1.5-.66,3.26,0,3.53,1.76.75,3.42-1.82,3.42-1.82l-1.72,3.07-4.28.23.43-12.48-.83-4.92-3.36,7.74Z"/><path class="cls-9" d="M234.59,186.88l1.13-3.67a38.94,38.94,0,0,1,2.67,7.42,24.52,24.52,0,0,1-.49,9.44c-.75,3.32-1.73,6.66.14,7.42s-3.45,3.67-4.27,2.9.77-7.56.77-7.56a15.72,15.72,0,0,1,.13-3.54C235,198.4,234.59,186.88,234.59,186.88Z"/><path class="cls-9" d="M240.61,184.43,241,196.6s-2.14,9.5-1,10a1.73,1.73,0,0,0,1.94-.65s-1.29-.07-.65-3.75S242.46,188.34,240.61,184.43Z"/><path class="cls-9" d="M245.92,193.2l-1.17-5.35s2.88,2.45,3.26,4.37c.61,3.08.89,11.63,2.62,12.55.05.93-1.71.17-1.71.17l-2.56-2.73Z"/><path class="cls-1" d="M239.92,205.8s.86-9.35.86-11.34-.17-10-.17-10"/></g><path class="cls-10" d="M228.11,173.23a24.32,24.32,0,0,0-5.68,4.86c-2.13,2.72-2.89,3.48-2.78,5.4s-1.19,7.18-1.69,8.37-1.05,2.53,2.27,1.72c4.81-1.17,4.12-6,5.12-8.5a8.19,8.19,0,0,1,3.22-3.74s1.52,8.41,1.11,11.29-1.67,7.71.62,7.72c1.88,0,3-1.73,3.42-7.23s1.09-6.88,1.09-6.88a23.68,23.68,0,0,1,1.82,7c.22,2.78-1.58,11-.81,12.53s.26,2.37,2.22,1.72,1.88-1.69,1.88-1.69,2.63,1.43,3.2-1c.1-.41.36-1.17.62-2,1-3.46,1.33-12.29,1.36-13.38,0-1.37,2.11,3.37,1.89,5.44s1.68,9.17,2.59,9.07,2-.09,1.94-2-.66-5.51-1-7.76-.87-7.08-2.45-8.74-.87-13.12-.87-13.12-.13-8.19-6.14-7.13-12.42,1-12.43,3A42.59,42.59,0,0,1,228.11,173.23Z"/></g><g id="Antebrazo_D" data-name="Antebrazo D"><path class="cls-11" d="M132.55,78.94s-18.45-.91-21-.09-30,46.3-30,46.3-1,17.64,1,19.68,2.64,5.62,5.94,4.81,4.75-.74,9.17-2.4,11.47-12,11.47-12L125.6,117Z"/><path class="cls-2" d="M133.19,76.8s-19.09,1.23-21.67,2-30,46.3-30,46.3-1,17.64,1,19.68,2.64,5.62,5.94,4.81,12.91-2.52,19.44-13.09c.73-1.19,21.27-22.81,18.16-19Z"/><g class="cls-12"><polygon class="cls-6" points="100.26 139.77 107.06 130.48 118.36 81.03 130.18 77.33 112.46 72.95 84.95 115.09 88.57 140.65 100.26 139.77"/></g></g><path class="cls-7" d="M86.53,120.74s1.68-5.14,3-6.68,7.78-6.34,9-6.58,10.82,2,11.56,2.58,1.83,6.18,1.83,6.75a13.52,13.52,0,0,1-4.13,3c-.66.73-.55,1.47-1.28,2.32-.31,1.39-5.72,3.42-6,3.45-1.18.12-2.56,3.28-2.56,3.28s-4.82,1.9-7.78-.08S86.53,120.74,86.53,120.74Z"/><g class="cls-13"><path class="cls-9" d="M90.28,129.16s2.61-2.1,2.41-4.34a13.27,13.27,0,0,1,.59-4.63s4.48,3.31,5.12,2.58,1.52-3.67,2.41-3.61,3.74-1.4,3.59-3c.43.09,2.68-1.6,2.29-3.2.41-.11,5,2.66,5,2.66l1.56,4.3-11,7.72-8,4.62Z"/></g><path class="cls-14" d="M97.46,122.54a28.09,28.09,0,0,0-3.74-1.72v-.45a28.82,28.82,0,0,1,3.94,1.78Z"/><path class="cls-14" d="M98.62,124.55a3.76,3.76,0,0,1-2-.72A5.32,5.32,0,0,1,95.13,122a5.55,5.55,0,0,1-2.33.92l-.12-.44c1.1-.22,2.28-.7,2.25-1h0l.46,0h0a4.3,4.3,0,0,0,1.55,2,3,3,0,0,0,2.45.57c1.51-.3,1.75-3,1.85-4.17l0-.29c.06-.5-2.41-2.39-4.72-3.86l.24-.37c1.19.75,5,3.29,5,4.31l0,.27c-.11,1.26-.37,4.19-2.19,4.56A3.85,3.85,0,0,1,98.62,124.55Z"/><path class="cls-14" d="M101.52,123.69q-.42,0-1-.12l0-.44c1.78.29,2.26,0,2.73-.33a3.07,3.07,0,0,1,.51-.28c.59-.25,1.27-5,1-5.87-.15-.49-3.06-2.37-5.78-3.92l.22-.38c.95.54,5.72,3.28,6,4.2s-.24,6-1.23,6.38a3.14,3.14,0,0,0-.44.25A2.88,2.88,0,0,1,101.52,123.69Z"/><path class="cls-14" d="M104.69,122.21l-.19-.42c2.71-1,2.77-2.55,2.77-2.57.17-1.85.33-4.81,0-5.43s-3.77-2.4-5.89-3.39l.18-.4c.94.44,5.66,2.68,6.12,3.61s.08,5.18,0,5.66C107.73,119.33,107.7,121.1,104.69,122.21Z"/><path class="cls-14" d="M93,129.87a6,6,0,0,1-3-.93c-3-2-3.63-7.94-3.66-8.19v-.09c.07-.21,1.7-5.19,3-6.75s7.77-6.38,9.08-6.65c1.14-.23,10.92,1.95,11.77,2.63s1.91,6.48,1.91,6.94-2.19,2.09-4.21,3.14a3.16,3.16,0,0,0-.54,1,3.81,3.81,0,0,1-.68,1.25c-.46,1.56-5.93,3.54-6.18,3.56-.76.08-1.86,2-2.38,3.15l0,.08L98,129A12.86,12.86,0,0,1,93,129.87Zm-6.23-9.09c.06.54.74,6,3.44,7.79s6.83.32,7.47.09c.26-.58,1.5-3.2,2.7-3.32.38-.07,5.53-2.06,5.81-3.29l0-.09a3.69,3.69,0,0,0,.64-1.17,3.17,3.17,0,0,1,.64-1.15l.06,0a15.35,15.35,0,0,0,4-2.84c0-.64-1.13-6-1.74-6.52s-10.15-2.78-11.36-2.53-7.56,5-8.83,6.51S86.94,120.28,86.77,120.78Z"/><path class="cls-7" d="M113.17,117.76s-1.85-1.79-4.91.92-2.8,3.83-1.88,4.67,5.8-1.12,6.79-2.06A2.21,2.21,0,0,0,113.17,117.76Z"/><g class="cls-15"><path class="cls-9" d="M112.8,121.58s-5,1.08-4.76-.14,3.25-4.28,3.25-4.28a4.26,4.26,0,0,0-4.48,1c-2,2-2,6.56-2,6.56l3.44.67Z"/></g><path class="cls-14" d="M107,123.77a1.23,1.23,0,0,1-.78-.26,1.87,1.87,0,0,1-.7-1.32c0-.93.79-2.1,2.57-3.68,3-2.67,5-1.11,5.21-.92a2.2,2.2,0,0,1,1,1.57,2.85,2.85,0,0,1-.93,2.3C112.47,122.28,108.8,123.88,107,123.77Zm4.66-6.36a4.61,4.61,0,0,0-3.25,1.44c-1.65,1.47-2.45,2.57-2.42,3.36a1.37,1.37,0,0,0,.54,1c.73.67,5.45-1.12,6.46-2.07a2.45,2.45,0,0,0,.81-1.95,1.71,1.71,0,0,0-.77-1.24l0,0A2.27,2.27,0,0,0,111.67,117.41Z"/><g id="Brazo_D" data-name="Brazo D"><path class="cls-2" d="M85,122.53c-.76.61-3.11,17-3.11,17s2.28,12.06,6.47,11.88,12.09-2.91,15.13-8.73a78.44,78.44,0,0,0-2.17-17.18s-9.74,5.27-14-2.13C87.63,123.31,85.8,121.92,85,122.53Z"/><g class="cls-16"><path class="cls-6" d="M88.18,152.74s-1.42-7.77.13-12.38-.27-9.85,1.46-11.24c1.19-1,.92-1.44.92-1.44a4.37,4.37,0,0,1-2.71-2.5c-1.18-2.65-5.25-4.67-5.25-4.67L80.19,140.4l4.13,10.69Z"/></g></g><g id="Chaqueta_D" data-name="Chaqueta D"><path class="cls-2" d="M125.6,100.89l-4.32,9.5s-18.67,82.6-16.43,84.38,2.78,1.6,6.86-.72S125.6,100.89,125.6,100.89Z"/><path class="cls-17" d="M141.05,65.9s-12.65,4.76-13.53,16.38c-.51,6.77-23.23,112.49-19.94,112.49s20.26-17.33,20.26-17.33L140.73,77.2Z"/><path class="cls-18" d="M127.84,177.44s-14.68,15.9-13.77,9.25S120,141.12,120,141.12s6.67-24,8.78-34.2,1.76-19.51,5-25.15a26.31,26.31,0,0,1,7.95-8.92Z"/></g><path class="cls-9" d="M158.89,76.79l-13.21,1.3-5.76-6a57.76,57.76,0,0,1,.54,8.26c-.06,1.26-2.58,8-2.58,8,7.69,5.38,14.23,2.87,18.43,1.6,5.46-1.65,8.89-9.41,8.89-9.41l-2.9-8.71Z"/><path class="cls-10" d="M141.67,85.71s-.84-12.41-2.08-15"/><g id="zapato_D" data-name="zapato D"><path class="cls-3" d="M65.47,354.69s1.93,10.91-3.89,16.52-2.79,2.41-2.79,2.41-6.89,3.87-6.61,7A85.82,85.82,0,0,0,54,390s3.84,4.38,8.58,4,11.5.17,13.67-4a72.64,72.64,0,0,1,5.6-8.76s-2.42-2.24-.58-3,2.26,1.4,2.26,1.4,7.7-4,8.68-5.78-.86-12.06-.86-12.06Z"/><g class="cls-19"><path class="cls-20" d="M51.29,376.82s1.77,5.77,4.49,6.92a31.79,31.79,0,0,0,5.65,1.71s4.12,9.22,5.52,9.6-9.33,1.56-9.33,1.56l-7.7-5.44Z"/><path class="cls-20" d="M76.36,392.55,74,380.25l-1.28-1.52s8.9-12.67,8.63-20.87S97.17,360,97.17,360l.71,14.7-12.4,10.56Z"/><path class="cls-6" d="M57,371.36s-3.5,8.18-.1,9.74,11,2.54,13.62,0,11.06-13.75,10.75-24.44S62,353.51,62,353.51,64.75,368.12,57,371.36Z"/><path class="cls-21" d="M95.85,377.91c-16.11,12.33-16,12.38-27.53,19.93-4,2.59-14-5.28-14.11-6S64.7,394.7,72.77,390c4.17-2.45,6.21-7.29,9.3-10.28,7-6.75,10-6.7,7.56-10.7-6.25.53-21.51,1.83-26.45,5C57.43,377.72,50,383.11,50,383.11L47.85,378,55,366.69l8.35-15.1,28.39,7,5.58,4.9Z"/></g></g><path id="zapato_I-3" data-name="zapato I" class="cls-3" d="M208.56,370.42,211,381.93s1.23,5.42.19,6.64a3.63,3.63,0,0,0-.73,2.79l1.62,8.55a10.15,10.15,0,0,0,8.92,5.41c6.54.18,13.91-2.35,17.55-6s2.65-3.14,2.65-3.14l-1.67-9.43a1.91,1.91,0,0,1-2.09-.85c-.77-1.24-7.29-14.71-7.29-14.71S217.07,359.08,208.56,370.42Z"/><g class="cls-22"><path class="cls-6" d="M206.93,368.5l5.55,18.43s.62,9,11.21,8.62,12.53-5.49,14.17-12.08c.73-2.91-5.38-16.19-5.38-16.19s-7.09-3-13.42-3C213.36,364.38,207.34,367.51,206.93,368.5Z"/><path class="cls-21" d="M209.73,387.7c4.16,0,8.07.61,8.25-2.23s-2.49-6.15-2.49-6.15-1.33-3.84,4.6-4.19S235.34,381,235.34,381l.33-8.65-10.49-9.25s-16.32-1.57-16.4-1S209.73,387.7,209.73,387.7Z"/><path class="cls-20" d="M210.1,389.62s2.37,7.44,9.28,8.72a18.73,18.73,0,0,0,4.36.35l.06,8.2L211,405.35,208.8,398Z"/><path class="cls-20" d="M237.5,401.58l-1.34-8s3.37-1.57,3.05-8.38c4.86,4.37,4.79,12.57,4.79,12.57Z"/><path class="cls-21" d="M208.56,394.85s9.28,10.82,20.42,8.55,13.7-10.72,13.7-10.72l-.69,9.15s-6.36,6.46-7.45,6.46-15.8-1.4-18-1.4-6.17-6.14-6.17-6.14Z"/></g><g id="Piernas"><g id="Piernas-2" data-name="Piernas"><path class="cls-23" d="M120.77,160.47S98.23,204.32,93,214c-6.08,11.22-15.93,36-18.45,42s-5.72,10.63-5.91,15.1,1.34,8.43,2.13,16.38-2.81,48.6-4.19,51.33-4.79,4.83-4.59,10.12c.08,1.91,2.86,2.18,2.18,5.16s-3,6-.88,6.72,7-2.13,14.59.36,13.82,3.89,15.17,2.7c3.39-3-.28-7.33,1.12-8.82s5-2.8,3.59-5.53a29,29,0,0,1-3.11-11.37,103.16,103.16,0,0,1,3.63-20c1.46-4.55,7.15-23.1,6.54-27.79a120,120,0,0,1-1.12-15.53c0-3.29-3.64-2.13-2.74-5.11s16.77-23.57,21.71-31.27S136.24,213,137.48,213c.11,0,1.67-.27,1.89.34,2.22,6.35,8.21,38.36,15.56,49.4,8.08,12.1,9.58,21.48,12.62,25.4s15.27,23.55,20.87,35.47S201,350.1,200.54,356.06s-1.58,8.47,2.17,11.82c1.47,1.32.55,6.93,1.76,8.94a7.23,7.23,0,0,0,4.9,3.47s1.84-9.29,8.9-9.48c9.72-.25,12.88.38,12.74,3.66,1.4-1.68,2.82-6.21,1.24-9.23-2.19-4.2,2.57-5.73,2.29-9.62-.18-2.6-6.32-4.7-7.59-7.68s-6.47-39.49-7.94-44.7-12-15.12-15-17.36-3-8.13-4.4-10.17-5.16-4.24-6.08-8-11-62.39-12.73-78-.36-17.37-.36-17.37l-48.24-5.43Z"/><g class="cls-24"><path class="cls-25" d="M121.13,241.53s6.9-26.19,6.35-32.9-13-13.06-18.19-11.57-7.09,8.91-11,16.86C95,220.7,82.52,249.75,78.42,259.75c-.65,1.59-7.69,12.09-.77,15.27a8.88,8.88,0,0,0,1.74.57c1.43.32,9.26,2.3,8.39,5.29-1.42,4.85-13.12,9.8-13.15,15.27a144.51,144.51,0,0,0,2.9,23.73c1.79,8.19,3.83,16.77,2.71,19.65-1.21,3.1-4.21,5-9.13,4.67-5.34-.33-9.37-1-10.51-.14-2.19,1.72,4.51,1.5,8.77,3.23s14.94,5.58,15.52,6.95c1.21,2.79-3.17,11.64-3.17,11.64L60.1,361.16l-1-22.05,3.68-7.7,4.64-49.13-7-15.15s10.08-15,10.78-14.93,24.51-61.75,24.51-61.75l7.87-12.17,15-21s38.68,7.29,49.19,11.91c3.09,1.36.9,9-5.1,10.08-12.16,2.17-40.47-2.5-38.9,3.56,1.11,4.28,12.4,6.79,14.2,9.09,6.06,7.7,6,21,9.62,35.47,2.38,9.53,23.8,47.89,25.5,51.83,1.53,3.52,5,5.43,8.17,3.94,2.18-1,7.41-3.65,10,0,.88,1.24-4.6,14.74-3.42,19.41s12.71,33.31,16.59,36.94c3.65,3.41,2.9,11.24,1.06,15.21a107.3,107.3,0,0,1-6.47,10.83l.47,2.67s5.51-1,7.06-3.3c3-4.41,8.75-10.69,14.59-8.59,4.78,1.73,8,10.33,6.7,10.47-1,.11-5.66.15-8.82,1.18-3.95,1.29-5.85,2.7-4.94,2.94,2.81.75,9.18-.59,8.54.77-1.87,4-15.28,9.47-15.28,9.47l-9.85-5.73-13.34-41.26-38.7-86.75-5-26.26-2.73-5.3-.18,7.21Z"/><path class="cls-25" d="M229,348.71s-11.82-8.49-19.47-18.71c-4.41-5.89-9.17-11.82-10.42-14,7.49,6.89,15.83,14.35,24.64,18.77C232,338.94,229,348.71,229,348.71Z"/><path class="cls-25" d="M95.18,342.71S88.59,331.93,82,309.76c4,8.57,8.74,19.4,15.65,22C99.1,335.12,95.18,342.71,95.18,342.71Z"/><path class="cls-25" d="M102.54,266.24s-4.36,7.41-2.48,9.7c1.09,1.33,4.18-1.87,5.29-2.47s1.75-3.28,1.75-3.28Z"/></g><path class="cls-26" d="M120.77,160.47S98.23,204.32,93,214c-6.08,11.22-15.93,36-18.45,42s-5.72,10.63-5.91,15.1,1.34,8.43,2.13,16.38-2.81,48.6-4.19,51.33-4.79,4.83-4.59,10.12c.08,1.91,2.86,2.18,2.18,5.16s-3,6-.88,6.72,7-2.13,14.59.36,13.82,3.89,15.17,2.7c3.39-3-.28-7.33,1.12-8.82s5-2.8,3.59-5.53a29,29,0,0,1-3.11-11.37,103.16,103.16,0,0,1,3.63-20c1.46-4.55,7.15-23.1,6.54-27.79a120,120,0,0,1-1.12-15.53c0-3.29-3.64-2.13-2.74-5.11s16.77-23.57,21.71-31.27S136.24,213,137.48,213c.11,0,1.67-.27,1.89.34,2.22,6.35,8.21,38.36,15.56,49.4,8.08,12.1,9.58,21.48,12.62,25.4s15.27,23.55,20.87,35.47S201,350.1,200.54,356.06s-1.58,8.47,2.17,11.82c1.47,1.32.55,6.93,1.76,8.94a7.23,7.23,0,0,0,4.9,3.47s1.84-9.29,8.9-9.48c9.72-.25,12.88.38,12.74,3.66,1.4-1.68,2.82-6.21,1.24-9.23-2.19-4.2,2.57-5.73,2.29-9.62-.18-2.6-6.32-4.7-7.59-7.68s-6.47-39.49-7.94-44.7-12-15.12-15-17.36-3-8.13-4.4-10.17-5.16-4.24-6.08-8-11-62.39-12.73-78-.36-17.37-.36-17.37l-48.24-5.43Z"/></g></g><g id="Torzo"><path class="cls-27" d="M140.46,80.36s12.81,13.57,27-1.64l19.42,2.69-15.35,72.05-3.11,24.67a155.91,155.91,0,0,1-28.29-.2c-13.91-1.58-16.55-1.18-21.06-4.79s-7.21-16-4.65-30.52,15-43.06,16.62-47.44c.92-2.46,2.22-7,4.54-10.35A18.26,18.26,0,0,1,140.46,80.36Z"/><g class="cls-28"><polygon class="cls-29" points="129.13 87.58 191.89 102.36 189.88 77.43 132.84 77.12 129.13 87.58"/><path class="cls-29" d="M175.41,158.22s.43,10.1-14.88,11.51c-19,1.74-46.26-2-48.92-9.19-1.41,11.81,10.91,19.79,13.36,20.91l43.8.85s6.11-5.11,6.86-5.07S175.41,158.22,175.41,158.22Z"/><g class="cls-30"><path class="cls-31" d="M153.08,103a7.68,7.68,0,0,0,3.42-.65,3.43,3.43,0,0,0,2.05-2.13,3,3,0,0,0-.19-1.66,4.37,4.37,0,0,0-.41-.77,3.36,3.36,0,0,0-.24-.29,1.64,1.64,0,0,1-.29-.3c-.17-.31.37-.08.47,0a3.45,3.45,0,0,1,.71.43,4.32,4.32,0,0,1,1,1.14,4.85,4.85,0,0,1-.88,5.77,8.5,8.5,0,0,1-2.38,1.83,8.06,8.06,0,0,1-1.61.67,5.65,5.65,0,0,1-1.73.29,2.25,2.25,0,0,1-2.14-2,2.12,2.12,0,0,1,1.37-2.21,2.08,2.08,0,0,1,.82-.13C154.15,103,152.89,103,153.08,103Z"/><path class="cls-32" d="M152.77,107.51a2.51,2.51,0,0,1-2.13-2.17,2.36,2.36,0,0,1,1.53-2.46,2.33,2.33,0,0,1,.9-.15h.15a7.16,7.16,0,0,0,3.17-.63,3.3,3.3,0,0,0,1.92-2,2.71,2.71,0,0,0-.19-1.52,2.86,2.86,0,0,0-.38-.71,2.13,2.13,0,0,0-.21-.26l-.08-.08a1,1,0,0,1-.25-.28.34.34,0,0,1,0-.38.33.33,0,0,1,.35-.13,1.7,1.7,0,0,1,.45.15,4.59,4.59,0,0,1,.76.45,4.68,4.68,0,0,1,1.09,1.21c1.29,2.07.47,4.54-.9,6.07a8.92,8.92,0,0,1-2.45,1.88,9.08,9.08,0,0,1-1.65.69,5.63,5.63,0,0,1-1.81.29Zm.31-4.29a1.79,1.79,0,0,0-.72.12,1.87,1.87,0,0,0-1.22,2,2,2,0,0,0,1.69,1.72h.2a5.52,5.52,0,0,0,1.65-.27,8.49,8.49,0,0,0,1.56-.65,8.32,8.32,0,0,0,2.32-1.78c1.26-1.4,2-3.64.85-5.49a3.94,3.94,0,0,0-1-1.07l-.39-.26.09.13a3.53,3.53,0,0,1,.44.81,3.26,3.26,0,0,1,.21,1.81,3.8,3.8,0,0,1-2.19,2.29,7.78,7.78,0,0,1-3,.68h-.49Z"/><path class="cls-32" d="M153.74,105.12c.88,0,.25,0,0,0a7,7,0,0,0,3.57-1.09,4.63,4.63,0,0,0,2.11-2.68,3.78,3.78,0,0,0-.06-2.11A3.72,3.72,0,0,0,158,97.4c-.13-.09.93.08,1.71,1.32a4.86,4.86,0,0,1-.88,5.78,8.5,8.5,0,0,1-2.38,1.83,9.43,9.43,0,0,1-1.61.67C154.26,107.17,153.45,105.11,153.74,105.12Z"/><path class="cls-33" d="M153.78,105.11h0S153.72,105.11,153.78,105.11Z"/><path class="cls-31" d="M142.2,101.55A7.8,7.8,0,0,1,139,100a3.57,3.57,0,0,1-1.52-2.6,2.89,2.89,0,0,1,.57-1.56,3.37,3.37,0,0,1,.56-.63A3,3,0,0,1,139,95a2,2,0,0,0,.35-.21c.23-.26-.34-.17-.45-.15a3,3,0,0,0-.78.23,3.81,3.81,0,0,0-1.26.84c-1.58,1.54-1.45,4-.45,5.83a9.91,9.91,0,0,0,3.31,3.46,6.2,6.2,0,0,0,1.62.73,2.13,2.13,0,0,0,1.68-3.85,2.14,2.14,0,0,0-.77-.34C141.16,101.3,142.4,101.59,142.2,101.55Z"/><path class="cls-32" d="M141.49,106h0l-.25,0a6,6,0,0,1-1.69-.75,10.09,10.09,0,0,1-1.45-1.1,9.24,9.24,0,0,1-2-2.46c-1-1.84-1.22-4.45.5-6.12a4.37,4.37,0,0,1,1.33-.89,3.75,3.75,0,0,1,.83-.25,1.85,1.85,0,0,1,.47,0,.33.33,0,0,1,.31.21.33.33,0,0,1-.1.37.86.86,0,0,1-.3.21l-.09,0-.27.2a3,3,0,0,0-.53.59,2.65,2.65,0,0,0-.52,1.43,3.45,3.45,0,0,0,1.42,2.4,7.56,7.56,0,0,0,2.94,1.44l.08,0h0a2.23,2.23,0,0,1,.85.38,2.43,2.43,0,0,1,.93,2.78A2.37,2.37,0,0,1,141.49,106ZM138.6,95a3.66,3.66,0,0,0-.43.15,4,4,0,0,0-1.18.79c-1.54,1.5-1.31,3.87-.41,5.55a9,9,0,0,0,1.85,2.32,10.12,10.12,0,0,0,1.37,1,5.51,5.51,0,0,0,1.55.7l.19,0a1.91,1.91,0,0,0,2-1.23,1.94,1.94,0,0,0-.74-2.21,1.8,1.8,0,0,0-.68-.3h0l-.32-.07h-.08l-.06,0a7.92,7.92,0,0,1-2.8-1.44,4,4,0,0,1-1.61-2.8,3.1,3.1,0,0,1,.61-1.69,3.58,3.58,0,0,1,.61-.68Z"/><path class="cls-32" d="M141.13,103.46c-.85-.23-.24-.07,0,0a7.46,7.46,0,0,1-3.22-2,4.84,4.84,0,0,1-1.45-3.15,3.85,3.85,0,0,1,.53-2,3.58,3.58,0,0,1,1.81-1.4c.14-.06-.92-.17-2,.84-1.59,1.53-1.45,4-.45,5.83a9.91,9.91,0,0,0,3.31,3.46C140.17,105.31,141.42,103.53,141.13,103.46Z"/><path class="cls-33" d="M141.1,103.45h0Z"/><path class="cls-31" d="M136.1,97.08a5.26,5.26,0,0,0,.06,2.81,8.05,8.05,0,0,0,1.46,2.66c.27.34.56.67.85,1a6.21,6.21,0,0,1-2.68-5A4.18,4.18,0,0,1,136.1,97.08Z"/><path class="cls-31" d="M160,100.22a5.28,5.28,0,0,1-2.49,5,6.31,6.31,0,0,1-1.26.66c1.55-1.07,3.06-2.32,3.58-4.21A5.12,5.12,0,0,0,160,100.22Z"/><path class="cls-34" d="M159.21,110.45a13.06,13.06,0,0,0-1-2.55,1.62,1.62,0,0,0-.09-.71,3.35,3.35,0,0,0-.45-.91l.39-.17s-.28-.72-.59-1.32a13.42,13.42,0,0,0-5-4.87,16.74,16.74,0,0,0-4.07-1.35l-.08,0h-.07a16.65,16.65,0,0,0-4.27.07,12.93,12.93,0,0,0-6.08,3.15c-.45.49-.92,1.09-.92,1.09l.32.27a3.57,3.57,0,0,0-.68.74,1.56,1.56,0,0,0-.28.65,12.48,12.48,0,0,0-1.6,2.16c-.44.25-.85.6-.89.93-.08.59,0,5.81.52,6.3s1.58,1.07,1.87.94a.57.57,0,0,0,.2-.13.87.87,0,0,0,1,.15,1.11,1.11,0,0,0,1.34-.48,7.29,7.29,0,0,0,.2-3,18,18,0,0,0-.3-3.58c0-.1,0-.15,0-.15a1,1,0,0,0-.38-1.08.89.89,0,0,0-1,0v0s-.22-.28-.63,0c.11-.52.44-1.54.44-1.54a6.56,6.56,0,0,1,.4-.68c.15-.21.38-.49.51-.65a1.2,1.2,0,0,0,.71-.28l1.24-.93.75.18a14,14,0,0,1,4-2.24,9,9,0,0,1,3.37-.21,9.1,9.1,0,0,1,3.18,1.22,14.72,14.72,0,0,1,3.24,3.36l.77.07.93,1.26a1.21,1.21,0,0,0,.6.48c.08.19.22.53.3.78a5.57,5.57,0,0,1,.2.77s0,1.08,0,1.61c-.32-.38-.61-.18-.61-.18v0a.89.89,0,0,0-1-.32c-.65.13-.66.92-.66.92l-.06.13a17.9,17.9,0,0,0-1.26,3.35,7.35,7.35,0,0,0-.63,3c.26.61.72.94,1.16.87a.87.87,0,0,0,1,.17.54.54,0,0,0,.15.18c.25.21,1.4,0,2.05-.33s2.11-5.29,2.2-5.88A1.75,1.75,0,0,0,159.21,110.45Zm-14.62-10.7a11.6,11.6,0,0,1,1.24-.15A11.6,11.6,0,0,0,144.59,99.75Zm1.32-.16h0Zm4.68.75c.36.14.75.31,1.15.51C151.34,100.65,151,100.48,150.59,100.34Zm-.08,0h0Z"/><path class="cls-34" d="M154.16,102.52a12.55,12.55,0,0,0-5.82-2.85h-.17a12.31,12.31,0,0,0-6.35,1c-3.11,1.49-3.87,3-3.87,3a1,1,0,0,0,.86-.26l1.24-.93.75.18a14,14,0,0,1,4-2.24,9,9,0,0,1,3.37-.21,9.1,9.1,0,0,1,3.18,1.22,14.72,14.72,0,0,1,3.24,3.36l.77.07.93,1.26a1,1,0,0,0,.76.51S156.74,104.89,154.16,102.52Z"/><path class="cls-31" d="M157.52,104.79a13.42,13.42,0,0,0-5-4.87,16.74,16.74,0,0,0-4.07-1.35l-.08,0h-.07a16.65,16.65,0,0,0-4.27.07,12.93,12.93,0,0,0-6.08,3.15c-.45.49-.92,1.09-.92,1.09l.89.75a11.26,11.26,0,0,1,4-3,12,12,0,0,1,6.29-.93,12.26,12.26,0,0,1,5.78,2.8,11.75,11.75,0,0,1,3,4.11l1.05-.45S157.83,105.39,157.52,104.79Z"/><path class="cls-34" d="M157,106.68h0a.14.14,0,0,1-.07-.08,11.89,11.89,0,0,0-8.7-6.82,11.76,11.76,0,0,0-6.22.91,11.18,11.18,0,0,0-4,3,.14.14,0,0,1-.08,0,.15.15,0,0,1-.1,0l-.89-.76a.1.1,0,0,1,0-.15s.48-.61.93-1.1A13.1,13.1,0,0,1,144,98.49a16.32,16.32,0,0,1,4.3-.06h.16a16.62,16.62,0,0,1,4.11,1.37,13.53,13.53,0,0,1,5,4.92c.31.6.6,1.33.6,1.33a.1.1,0,0,1-.06.14l-1.06.46Zm-8.77-7.14h0a12.43,12.43,0,0,1,5.85,2.83,12.22,12.22,0,0,1,3,4l.84-.36c-.09-.22-.32-.75-.55-1.22h0a13.17,13.17,0,0,0-4.91-4.8,16.7,16.7,0,0,0-4-1.35h-.15a16.51,16.51,0,0,0-4.23.06,12.62,12.62,0,0,0-6,3.12c-.35.37-.71.81-.86,1l.71.59a11.71,11.71,0,0,1,4-3,12,12,0,0,1,6.37-.94Z"/><path class="cls-34" d="M137.75,103.07a12.4,12.4,0,0,1,3.81-2.83A13.11,13.11,0,0,1,147,99.18l0-.33a11.88,11.88,0,0,0-5.69,1.14,12.4,12.4,0,0,0-3.89,2.93Z"/><path class="cls-34" d="M139.81,102.1l1,.2a13.12,13.12,0,0,1,2.44-1.64,8,8,0,0,1,2.26-.71,7.75,7.75,0,0,0-2.74.58,10.29,10.29,0,0,0-1.81,1.12l-.51,0Z"/><path class="cls-31" d="M136.75,106.49a4.69,4.69,0,0,0-1-.16c-.4,0-1.72.68-1.79,1.27s0,5.81.52,6.3,1.58,1.07,1.87.94.25-.24.25-.24Z"/><path class="cls-32" d="M136.11,115a4.38,4.38,0,0,1-1.74-1c-.26-.24-.43-1.31-.53-3.19a32.09,32.09,0,0,1,0-3.21c.08-.66,1.45-1.36,1.9-1.37a5.27,5.27,0,0,1,1.07.17.12.12,0,0,1,.09.11l-.18,8.11c0,.06,0,.21-.32.35A.45.45,0,0,1,136.11,115Zm0-8.48a3.13,3.13,0,0,0-.42,0c-.35,0-1.61.66-1.67,1.18a29.44,29.44,0,0,0,0,3.17c.13,2.54.37,3,.45,3a3.5,3.5,0,0,0,1.72.92.47.47,0,0,0,.19-.13v0l.17-8Zm.31,8.15Zm0,0Zm0,0Z"/><path class="cls-35" d="M136.75,106.49a.62.62,0,0,0-.63.51,39,39,0,0,0-.29,4.43,12.41,12.41,0,0,0,.29,3.28c.19.21.37,0,.37,0Z"/><path class="cls-35" d="M134.35,111.55a5.11,5.11,0,0,0,.27,2.18,3.74,3.74,0,0,0,1.23.85,10.08,10.08,0,0,1-.22-1.78s-.17.79-.65.48S134.35,111.55,134.35,111.55Z"/><path class="cls-31" d="M137.38,106.5s-.22-.28-.63,0-.52,2.76-.57,4.37a13.36,13.36,0,0,0,.31,3.81.85.85,0,0,0,1.09.18Z"/><path class="cls-32" d="M137,115.07h-.07a.77.77,0,0,1-.52-.34,13.39,13.39,0,0,1-.32-3.87c.08-2.49.21-4.2.62-4.46a.58.58,0,0,1,.8,0,.14.14,0,0,1,0,.07l.2,8.35a.11.11,0,0,1,0,.09A.91.91,0,0,1,137,115.07Zm.17-8.58a.46.46,0,0,0-.32.09c-.07,0-.24.29-.37,1.61-.08.82-.12,1.82-.15,2.68a14.09,14.09,0,0,0,.29,3.75.56.56,0,0,0,.36.22.75.75,0,0,0,.5,0l-.19-8.25A.27.27,0,0,0,137.14,106.49Z"/><path class="cls-36" d="M135,106.85a1.64,1.64,0,0,0-.82.7,1.1,1.1,0,0,1,.65-.17c.36,0-.35,2.54.16,2.78.91.43.77.25.77.25s.09-2.25.16-2.8a3.15,3.15,0,0,1,.24-.88S135.48,106.77,135,106.85Z"/><path class="cls-35" d="M134.2,107.83s.51-.12.5.1-.26,2.14.08,2.64,1.13.48,1.13.48a2.82,2.82,0,0,1-1.18-.18c-.38-.22-.45-1.06-.32-2S134.2,107.83,134.2,107.83Z"/><path class="cls-31" d="M135.86,106.89a.4.4,0,0,0-.32.31c0,.26-.14,2.71-.14,2.71l.22.07s0-2.33.11-2.65A1.87,1.87,0,0,1,135.86,106.89Z"/><path class="cls-31" d="M134.81,106.68a12.54,12.54,0,0,1,1.61-2.17l.77.44s-.33,1-.44,1.54Z"/><path class="cls-32" d="M134.8,106.8a.15.15,0,0,1-.09-.06.09.09,0,0,1,0-.12,11.52,11.52,0,0,1,1.64-2.2.12.12,0,0,1,.13,0l.77.44a.12.12,0,0,1,.06.14s-.34,1-.44,1.52a.11.11,0,0,1-.11.09l-1.93.2Zm1.63-2.15a12.89,12.89,0,0,0-1.39,1.89l1.61-.16c.1-.44.32-1.13.4-1.38Z"/><path class="cls-32" d="M136.42,104.51a1.56,1.56,0,0,1,.28-.65,3.6,3.6,0,0,1,.8-.83l.69.47s-.38.45-.6.77a6.56,6.56,0,0,0-.4.68Z"/><path class="cls-35" d="M135.54,105.86a8.75,8.75,0,0,1,.91-1.16l.58.31a5.93,5.93,0,0,0-.28.69c-.1.33-.19.59-.19.59a4.73,4.73,0,0,1-.78.11s.69-.64.66-.87S135.92,105.56,135.54,105.86Z"/><path class="cls-31" d="M136.71,104.17a2.29,2.29,0,0,1,.82-1l.46.37a3.87,3.87,0,0,0-.87,1.2S137.24,103.92,136.71,104.17Z"/><path class="cls-31" d="M138.78,107.61a1,1,0,0,0-.38-1.08.92.92,0,0,0-1.41.65c-.06.37-.24,6.35.11,7.16s1.2.78,1.8,0S138.78,107.61,138.78,107.61Z"/><path class="cls-32" d="M137.77,115.05a1,1,0,0,1-.78-.67c-.37-.86-.17-6.92-.12-7.22a1.16,1.16,0,0,1,.63-.82,1.06,1.06,0,0,1,1,.09,1.07,1.07,0,0,1,.45,1.19c.08.71.69,6.09.09,6.83a1.4,1.4,0,0,1-1.23.6Zm.21-8.55a.66.66,0,0,0-.37,0,.92.92,0,0,0-.5.65c0,.17-.09,1.73-.1,3.4a16.43,16.43,0,0,0,.21,3.7.79.79,0,0,0,.58.52h0a1.14,1.14,0,0,0,1-.51c.47-.58.06-5-.14-6.69v0s.17-.68-.32-1A1.12,1.12,0,0,0,138,106.5Z"/><path class="cls-37" d="M137.13,113.1s.2,1,.52,1,.35-.46.35-.46.15.65.47.61.44-.41.44-.41a1,1,0,0,1-.81.89C137.13,114.93,137.14,113.7,137.13,113.1Z"/><path class="cls-35" d="M137.14,113.49s-.1-3-.07-4.17a8.07,8.07,0,0,1,.17-2.34c.18-.4.34-.46.59-.48a.42.42,0,0,1,.35.11.54.54,0,0,0-.7.42,1.58,1.58,0,0,0-.09.79l.44,0-.46.17.48.13-.48,0,0,.3.4.11-.44,0v.49l.4,0-.35.19.41.15-.4,0,.39.22h-.4v.78l.29-.08-.26.27.4.07-.41.19.46.27-.44,0,0,.33.36,0-.35.26v.53l.31.06-.32.16v.21l.34.05-.36.31,0,.27.44-.13-.57.57S137.35,114.07,137.14,113.49Z"/><path class="cls-36" d="M138.29,106.8c-.35.1-.67,7.7.27,7.29S139.1,106.57,138.29,106.8Z"/><path class="cls-31" d="M157.41,109.69a4.76,4.76,0,0,1,1,.16c.38.12,1.46,1.17,1.37,1.76s-1.56,5.56-2.2,5.88-1.8.54-2.05.33-.17-.31-.17-.31Z"/><path class="cls-32" d="M155.73,118a.47.47,0,0,1-.25-.09c-.25-.23-.24-.38-.21-.44l2-7.81a.14.14,0,0,1,.12-.09,5.18,5.18,0,0,1,1.07.17c.43.14,1.55,1.23,1.45,1.89a28,28,0,0,1-.9,3.06c-.6,1.78-1.06,2.75-1.36,2.9A4.4,4.4,0,0,1,155.73,118Zm-.23-.44s0,.07.15.18a3.31,3.31,0,0,0,1.9-.36c.08,0,.44-.37,1.25-2.77a31,31,0,0,0,.89-3c.08-.51-.95-1.52-1.28-1.63a4.31,4.31,0,0,0-.9-.15l-2,7.74Zm0,0Zm0,0Zm0,0Z"/><path class="cls-35" d="M157.41,109.69a.66.66,0,0,1,.47.68,38.91,38.91,0,0,1-.93,4.33,11.55,11.55,0,0,1-1.17,3.06c-.23.13-.33-.16-.33-.16Z"/><path class="cls-35" d="M158.49,115.11s-.51,1.81-1,2.16a3.58,3.58,0,0,1-1.41.44,9.44,9.44,0,0,0,.69-1.64s-.05.82.5.67S158.49,115.11,158.49,115.11Z"/><path class="cls-31" d="M156.8,109.51s.29-.2.61.18-.25,2.8-.64,4.36a13.09,13.09,0,0,1-1.32,3.55.84.84,0,0,1-1.09-.15Z"/><path class="cls-32" d="M154.87,117.85a1,1,0,0,1-.61-.33.12.12,0,0,1,0-.1l2.45-8s0,0,0-.06a.59.59,0,0,1,.78.21c.31.37,0,2-.62,4.46a13.25,13.25,0,0,1-1.35,3.61.8.8,0,0,1-.59.17Zm-.38-.42a.88.88,0,0,0,.47.2.53.53,0,0,0,.4-.11,13.4,13.4,0,0,0,1.29-3.5c.21-.83.44-1.8.59-2.61.23-1.3.13-1.59.08-1.65-.19-.23-.35-.2-.41-.18Z"/><path class="cls-36" d="M159,110.56a1.72,1.72,0,0,1,.59.92,1.12,1.12,0,0,0-.57-.36c-.35-.08-.35,2.55-.91,2.62-1,.14-.8,0-.8,0s.52-2.18.6-2.73a3.17,3.17,0,0,0,0-.92S158.55,110.35,159,110.56Z"/><path class="cls-35" d="M159.49,111.75s-.46-.27-.51,0-.33,2.12-.79,2.5-1.21.12-1.21.12a2.91,2.91,0,0,0,1.18.18c.43-.1.71-.88.85-1.84S159.49,111.75,159.49,111.75Z"/><path class="cls-31" d="M158.15,110.35a.42.42,0,0,1,.23.39c0,.26-.6,2.63-.6,2.63h-.23s.6-2.24.61-2.58A1.74,1.74,0,0,0,158.15,110.35Z"/><path class="cls-31" d="M159.21,110.46a12.76,12.76,0,0,0-1-2.56l-.86.18s0,1.08,0,1.61Z"/><path class="cls-32" d="M159.2,110.58h0l-1.81-.78a.12.12,0,0,1-.07-.11c0-.52,0-1.59,0-1.6a.11.11,0,0,1,.09-.11l.86-.19a.13.13,0,0,1,.13,0,12.39,12.39,0,0,1,1,2.61.1.1,0,0,1,0,.11A.14.14,0,0,1,159.2,110.58Zm-1.66-1,1.49.64a12.26,12.26,0,0,0-.82-2.23l-.68.14C157.54,108.43,157.56,109.16,157.54,109.62Z"/><path class="cls-32" d="M158.26,107.9a1.62,1.62,0,0,0-.09-.71,3.75,3.75,0,0,0-.54-1l-.8.24s.25.55.37.92a5.57,5.57,0,0,1,.2.77Z"/><path class="cls-35" d="M158.73,109.46a8.29,8.29,0,0,0-.55-1.39l-.64.12a4.51,4.51,0,0,1,.08.75c0,.34,0,.61,0,.61a4.49,4.49,0,0,0,.71.35s-.48-.83-.39-1S158.46,109.05,158.73,109.46Z"/><path class="cls-31" d="M158.08,107.48a2.44,2.44,0,0,0-.53-1.19l-.54.21a4.11,4.11,0,0,1,.51,1.42S157.63,107.08,158.08,107.48Z"/><path class="cls-31" d="M155.16,110.15s0-.79.66-.92a.94.94,0,0,1,1.17,1c0,.37-1.49,6.15-2.05,6.83s-1.35.38-1.73-.51S155.16,110.15,155.16,110.15Z"/><path class="cls-32" d="M154.12,117.58h0a1.44,1.44,0,0,1-1-.94c-.38-.9,1.67-5.87,1.94-6.52a1,1,0,0,1,1.69-.8,1.24,1.24,0,0,1,.39,1c0,.3-1.49,6.17-2.08,6.88A1,1,0,0,1,154.12,117.58Zm2.1-8.25a.93.93,0,0,0-.37,0c-.55.11-.57.81-.57.81s0,0,0,0c-.64,1.54-2.24,5.68-1.94,6.37a1.18,1.18,0,0,0,.82.79h0a.75.75,0,0,0,.7-.32,16.31,16.31,0,0,0,1.19-3.48c.45-1.61.81-3.11.83-3.29a1,1,0,0,0-.3-.78A.66.66,0,0,0,156.22,109.33Z"/><path class="cls-37" d="M155.25,115.91s-.46.9-.75.78-.22-.54-.22-.54-.32.57-.61.44-.32-.53-.32-.53a1,1,0,0,0,.54,1.1C154.77,117.66,155.09,116.48,155.25,115.91Z"/><path class="cls-35" d="M155.14,116.28s.91-2.85,1.2-4a8.12,8.12,0,0,0,.47-2.3c-.07-.44-.21-.54-.43-.63a.45.45,0,0,0-.37,0,.55.55,0,0,1,.55.61,1.74,1.74,0,0,1-.12.79l-.43-.1.39.3-.5,0,.46.18-.11.28-.4,0,.41.17-.15.47-.37-.16.28.28-.43,0,.37.16-.43.09.39.13-.21.75-.25-.17.17.34-.4,0,.34.31-.52.11.43.1-.06.32-.36-.08.27.36-.14.51-.32,0,.28.25-.06.2-.34-.06.26.4-.09.26-.39-.25.39.71S154.78,116.77,155.14,116.28Z"/><path class="cls-36" d="M155.85,109.52c.31.2-1.44,7.58-2.23,6.9S155.14,109.05,155.85,109.52Z"/><path class="cls-34" d="M157.4,106.11a13.28,13.28,0,0,0-2.9-3.87,13.66,13.66,0,0,0-4.94-2.67l.05-.33a12.2,12.2,0,0,1,5.14,2.82,13,13,0,0,1,2.93,4Z"/><path class="cls-34" d="M155.68,104.56l-1-.1a13,13,0,0,0-1.89-2.31,8.17,8.17,0,0,0-2-1.37,8,8,0,0,1,2.46,1.39,10.16,10.16,0,0,1,1.44,1.62l.47.19Z"/><path class="cls-32" d="M138.47,109.69c-.34,1.35-2,2-2.69,2.37a4.37,4.37,0,0,0,1.05.31s-1.29,3.72-3.6,4.9a2.85,2.85,0,0,0,1.79.2c-.86,2.44.39,4.65-1.19,7a3.46,3.46,0,0,0,2.44-1.41,6.64,6.64,0,0,1-.42,4.56,5.05,5.05,0,0,0,2.81-1.55c-.13,1.14,1.53,3.49,1.24,5.1a4,4,0,0,0,1.6-1.49c.71,2.09,1.68,2.55,1.68,5.44,1.76-1.36,3.34-2.12,4.58-5.42a10.58,10.58,0,0,0,1.05,1.38,5.7,5.7,0,0,0,1.92-3.43,3.06,3.06,0,0,1,.84,2,7.18,7.18,0,0,0,2.59-4.7,2.44,2.44,0,0,0,1.84,1.16c-1-1.71,1.31-3.94.87-6.73a2.35,2.35,0,0,0,1.53-.31,8.84,8.84,0,0,1-3.22-4.64c1.22.17,1.19.07,1.16.06a12.25,12.25,0,0,1-1.56-2.09c-.25-.52-7.81-5.72-7.81-5.72Z"/><path class="cls-31" d="M136.75,115a3.28,3.28,0,0,0,.24,1.74,7.18,7.18,0,0,0-1.36,2.51A11.79,11.79,0,0,1,136.75,115Z"/><path class="cls-31" d="M155.49,117.43a3.31,3.31,0,0,1-.62,1.63,7.71,7.71,0,0,1,.75,2.79A9.33,9.33,0,0,0,155.49,117.43Z"/><path class="cls-31" d="M137.35,120.29c-.07.45-.14.89-.18,1.34a9.32,9.32,0,0,0,0,1.67,12.3,12.3,0,0,1,.13,1.71,2.87,2.87,0,0,1-.37,1.31,3.89,3.89,0,0,0,.19-1.31c0-.57-.14-1.13-.2-1.69A6.64,6.64,0,0,1,137.35,120.29Z"/><path class="cls-31" d="M139.7,123.2a14.43,14.43,0,0,0,0,1.47,9.37,9.37,0,0,0,.3,1.81,13.46,13.46,0,0,1,.63,3.24c-.13-.48-.25-1-.41-1.43s-.42-1.21-.57-1.83A5.92,5.92,0,0,1,139.7,123.2Z"/><path class="cls-31" d="M142.5,124.07c-.1.47-.22.92-.28,1.4a6.82,6.82,0,0,0,0,1.86,29.61,29.61,0,0,0,1.08,3.55,4.51,4.51,0,0,1,.19,1.71,6.65,6.65,0,0,0-.44-1.44c-.25-.6-.55-1.19-.78-1.8a6.51,6.51,0,0,1-.43-3.69A5.45,5.45,0,0,1,142.5,124.07Z"/><path class="cls-31" d="M153.66,122.24a6.56,6.56,0,0,1-.21,3.11A5.76,5.76,0,0,1,152,128a9,9,0,0,0,1.22-2.8,13.39,13.39,0,0,0,.35-1.62C153.64,123.14,153.64,122.69,153.66,122.24Z"/><path class="cls-31" d="M150.56,124.17a6.13,6.13,0,0,1-.28,2.88,7.18,7.18,0,0,1-1.38,2.53,24.83,24.83,0,0,0,1-2.58A15.21,15.21,0,0,0,150.56,124.17Z"/><path class="cls-31" d="M147.76,124.76a6.82,6.82,0,0,1,0,3.36,10,10,0,0,1-1.79,3.37c-.34.44-.69.87-1.07,1.28.47-1,1.07-1.9,1.57-2.87a11,11,0,0,0,1.2-3.44C147.7,125.9,147.72,125.33,147.76,124.76Z"/><path class="cls-33" d="M141.22,103.32h0Z"/><path class="cls-31" d="M154.62,107.2a14.13,14.13,0,0,0-1.64-3.79c-.2-.3-.17-.52.32-.76a.71.71,0,0,1,.9.2,11.31,11.31,0,0,1,1.68,3.74.67.67,0,0,1-.47.76C155,107.51,154.69,107.47,154.62,107.2Z"/><path class="cls-32" d="M154.87,107.68a.54.54,0,0,1-.49-.42,13.85,13.85,0,0,0-1.61-3.72.68.68,0,0,1-.14-.57.94.94,0,0,1,.55-.54,1.1,1.1,0,0,1,.59-.1.93.93,0,0,1,.63.38,11.49,11.49,0,0,1,1.72,3.83.9.9,0,0,1-.62,1A1.28,1.28,0,0,1,154.87,107.68Zm-1.16-4.86a.65.65,0,0,0-.3.05c-.25.13-.29.21-.3.23a.42.42,0,0,0,.07.18,13.7,13.7,0,0,1,1.68,3.87s0,0,.06,0a1.06,1.06,0,0,0,.39-.08.44.44,0,0,0,.33-.48A11.32,11.32,0,0,0,154,103,.41.41,0,0,0,153.71,102.82Z"/><path class="cls-31" d="M139.76,105.28a13.1,13.1,0,0,1,2.45-3.25c.26-.24.27-.46-.14-.82a.7.7,0,0,0-.92,0,10.83,10.83,0,0,0-2.47,3.19.68.68,0,0,0,.28.86C139.35,105.5,139.64,105.53,139.76,105.28Z"/><path class="cls-32" d="M139.41,105.69h0a1.32,1.32,0,0,1-.59-.27.92.92,0,0,1-.37-1.17A11,11,0,0,1,141,101a.91.91,0,0,1,.7-.2,1.06,1.06,0,0,1,.55.25,1,1,0,0,1,.41.66.67.67,0,0,1-.26.52,13.22,13.22,0,0,0-2.4,3.19A.53.53,0,0,1,139.41,105.69Zm2.21-4.42a.37.37,0,0,0-.31.09,10.75,10.75,0,0,0-2.41,3.11.44.44,0,0,0,.21.55.9.9,0,0,0,.36.18h0c.05,0,.05,0,.07,0a13.34,13.34,0,0,1,2.5-3.32c.06-.07.1-.12.1-.16s0-.11-.23-.29A.58.58,0,0,0,141.62,101.27Z"/><path class="cls-31" d="M146.85,109.26a34.79,34.79,0,0,1,8.19,2.06l.06-.44c.63-5.53-3.51-11-7.13-11.47s-8.87,3.75-9.5,9.29c0,.14,0,.29,0,.43A34.7,34.7,0,0,1,146.85,109.26Z"/><path class="cls-32" d="M138.4,109.37a.25.25,0,0,1-.14-.06.32.32,0,0,1-.08-.2c0-.15,0-.3,0-.45.65-5.62,6-10,9.78-9.49s8,6.13,7.35,11.75l-.06.44a.26.26,0,0,1-.12.17.24.24,0,0,1-.22,0,36.41,36.41,0,0,0-16.48-2.17Zm9.54-9.71c-3.55-.47-8.61,3.71-9.22,9.07,0,0,0,.08,0,.12a35.65,35.65,0,0,1,8.16.16,36.18,36.18,0,0,1,8,2s0-.08,0-.12C155.46,105.49,151.5,100.12,147.94,99.66Z"/><path class="cls-32" d="M146.55,99.69c-2.25-.56-7.52,4.13-8.08,9,0,.14,0,.29,0,.43,1.12-.13,5.28.3,5.67-1.15-.42-.33-1.64-.75-1.92-1.64a4.15,4.15,0,0,1,.06-2C142.71,102.43,144.86,100.11,146.55,99.69Z"/><path class="cls-32" d="M149.33,100.06c2.31,0,6.38,6,5.82,10.83l-.06.43c-1.05-.41-5.18-1.07-5.24-2.58.48-.21,1.76-.31,2.23-1.09a4,4,0,0,0,.38-1.93A7.67,7.67,0,0,0,149.33,100.06Z"/><polygon class="cls-31" points="148.06 113.25 146.24 114.89 144.78 112.82 145.35 110.06 148.13 110.42 148.06 113.25"/><path d="M146.2,115.26l-1.69-2.39.64-3.09,3.23.43-.08,3.15ZM145,112.77l1.24,1.74,1.53-1.38.06-2.49-2.32-.31Z"/><path class="cls-31" d="M155.11,110a29.08,29.08,0,0,0-6.42-2l.38-8.67c0-.41-.47-.73-1-.8s-1.08.18-1.16.51l-1.57,8.52a28.87,28.87,0,0,0-6.64.23s-.68,0-.73,1.27c-.05,1,.53,1.18.53,1.18a28,28,0,0,1,8.26-.08,28.65,28.65,0,0,1,8,2.22s.55.06.75-1.1S155.11,110,155.11,110Z"/><path class="cls-32" d="M138.49,110.52h-.05s-.78-.2-.72-1.44.8-1.48.95-1.49a28.66,28.66,0,0,1,6.46-.25l1.53-8.3a1.29,1.29,0,0,1,1.43-.72c.62.09,1.26.49,1.23,1.07l-.37,8.45a29.42,29.42,0,0,1,6.26,2s.75.39.55,1.58c-.23,1.34-.94,1.3-1,1.29h0l0,0a28.69,28.69,0,0,0-7.94-2.2,28,28,0,0,0-8.19.08Zm8.3-.57a28.84,28.84,0,0,1,8,2.21c.09,0,.35-.16.47-.9s-.22-1-.27-1a29.09,29.09,0,0,0-6.35-2l-.22,0,.39-8.89c0-.23-.34-.48-.78-.54a.86.86,0,0,0-.89.34l-1.61,8.72-.22,0a28,28,0,0,0-6.57.23h0s-.45.05-.5,1c0,.66.22.86.31.91A28.59,28.59,0,0,1,146.79,110Z"/><path class="cls-31" d="M144.52,112.88a3.31,3.31,0,0,0-.55.05,3.13,3.13,0,0,0-1,.36,2.67,2.67,0,0,0-.93.87,2.94,2.94,0,0,1,.52-1.46,4.26,4.26,0,0,1,.35-.38l-.05,0h0a2.53,2.53,0,0,0-1.73.29,3.79,3.79,0,0,1-.07-.93,4,4,0,0,0-1.57,1,5.14,5.14,0,0,1,.09-2.28h0a5.63,5.63,0,0,0-.29,3.93,4.44,4.44,0,0,1,1.16-1.6,6.54,6.54,0,0,0,.22,1.28,2.52,2.52,0,0,1,.93-.88,5.27,5.27,0,0,0-.15,2.76,4.27,4.27,0,0,1,2.82-2.23,4.19,4.19,0,0,0-.38.84,2.87,2.87,0,0,1,1.56-.26Z"/><path class="cls-31" d="M153.27,114.45A3.73,3.73,0,0,0,152,113.1a3.83,3.83,0,0,1-.28.88,2.62,2.62,0,0,0-1.61-.72h-.06a3,3,0,0,1,.26.46,3.14,3.14,0,0,1,.18,1.55,3,3,0,0,0-.71-1.09,3.43,3.43,0,0,0-.87-.59,4.44,4.44,0,0,0-.64-.24h0l-1.18,1.07a3,3,0,0,1,1.43.65,4,4,0,0,0-.17-.91,4.5,4.5,0,0,1,2.23,2.9,5.27,5.27,0,0,0,.47-2.72,2.56,2.56,0,0,1,.71,1.09,7,7,0,0,0,.5-1.18,4.73,4.73,0,0,1,.77,1.85,5.6,5.6,0,0,0,.65-3.62A5.12,5.12,0,0,1,153.27,114.45Z"/><path class="cls-31" d="M153.27,114.45A3.73,3.73,0,0,0,152,113.1a3.83,3.83,0,0,1-.28.88,2.8,2.8,0,0,0-1.67-.72,3,3,0,0,1,.26.46,3.14,3.14,0,0,1,.18,1.55,3,3,0,0,0-.71-1.09,3.43,3.43,0,0,0-.87-.59,4.44,4.44,0,0,0-.64-.24h0l-1.18,1.07a3,3,0,0,1,1.43.65,4,4,0,0,0-.17-.91,4.5,4.5,0,0,1,2.23,2.9,5.27,5.27,0,0,0,.47-2.72,2.56,2.56,0,0,1,.71,1.09,7,7,0,0,0,.5-1.18,4.73,4.73,0,0,1,.77,1.85,5.6,5.6,0,0,0,.65-3.62A5.12,5.12,0,0,1,153.27,114.45Z"/><path class="cls-38" d="M138.74,109a2.35,2.35,0,0,1,.33-1.22l-.37,0s-.68,0-.73,1.27c-.05,1,.53,1.18.53,1.18l.48-.07A1.79,1.79,0,0,1,138.74,109Z"/><path class="cls-38" d="M155.11,110l-.4-.17a2.1,2.1,0,0,1,.08,1.17,2,2,0,0,1-.49,1.21l.47.2s.55.06.75-1.1S155.11,110,155.11,110Z"/><polygon class="cls-32" points="146.62 111.23 146.57 110.31 146.9 110.35 146.62 111.23"/><polygon class="cls-32" points="147.08 111.29 147.02 110.36 147.35 110.41 147.08 111.29"/><polygon class="cls-32" points="147.51 111.34 147.46 110.42 147.79 110.47 147.51 111.34"/><polygon class="cls-32" points="146.22 111.17 146.48 110.29 146.15 110.25 146.22 111.17"/><polygon class="cls-32" points="145.79 111.12 146.05 110.24 145.72 110.19 145.79 111.12"/><polygon class="cls-32" points="146.67 112.58 146.26 114.71 146.34 112.54 146.67 112.58"/><polygon class="cls-32" points="145.41 107.36 146.58 107.96 145.26 107.83 145.41 107.36"/><polygon class="cls-32" points="148.67 108.28 147.36 108.07 148.63 107.78 148.67 108.28"/><path class="cls-32" d="M140.31,109.93c-.55-.29-.84-1.13.08-2.31-.66,0-1.06.1-1.69.2,0,0-.68,0-.73,1.27-.05,1,.53,1.18.53,1.18.6-.1,1.21-.18,1.83-.23C140.34,110,140.34,110,140.31,109.93Z"/><polygon class="cls-32" points="145.38 107.23 144.09 106.87 145.39 106.6 145.38 107.23"/><polygon class="cls-32" points="145.54 106.53 144.26 106.2 145.53 105.91 145.54 106.53"/><polygon class="cls-32" points="145.69 105.84 144.44 105.54 145.67 105.21 145.69 105.84"/><polygon class="cls-32" points="145.84 105.14 144.62 104.87 145.81 104.52 145.84 105.14"/><polygon class="cls-32" points="145.99 104.44 144.8 104.2 145.94 103.82 145.99 104.44"/><polygon class="cls-32" points="146.15 103.75 144.97 103.54 146.08 103.13 146.15 103.75"/><polygon class="cls-32" points="146.3 103.05 145.15 102.87 146.22 102.43 146.3 103.05"/><polygon class="cls-32" points="146.46 102.36 145.33 102.2 146.35 101.74 146.46 102.36"/><polygon class="cls-32" points="146.61 101.66 145.51 101.53 146.49 101.05 146.61 101.66"/><polygon class="cls-32" points="146.76 100.96 145.69 100.87 146.62 100.35 146.76 100.96"/><polygon class="cls-32" points="146.92 100.26 145.86 100.2 146.75 99.66 146.92 100.26"/><polygon class="cls-32" points="148.9 107.06 150.1 107.66 148.76 107.67 148.9 107.06"/><polygon class="cls-32" points="148.92 106.35 150.08 106.97 148.77 106.96 148.92 106.35"/><polygon class="cls-32" points="148.94 105.64 150.06 106.28 148.78 106.24 148.94 105.64"/><polygon class="cls-32" points="148.97 104.93 150.04 105.58 148.79 105.53 148.97 104.93"/><polygon class="cls-32" points="148.99 104.22 150.01 104.89 148.8 104.81 148.99 104.22"/><polygon class="cls-32" points="149.01 103.51 149.99 104.2 148.81 104.1 149.01 103.51"/><polygon class="cls-32" points="149.04 102.8 149.97 103.5 148.81 103.38 149.04 102.8"/><polygon class="cls-32" points="149.06 102.1 149.95 102.81 148.82 102.67 149.06 102.1"/><polygon class="cls-32" points="149.09 101.39 149.93 102.12 148.83 101.95 149.09 101.39"/><polygon class="cls-32" points="149.11 100.68 149.9 101.42 148.84 101.23 149.11 100.68"/><polygon class="cls-32" points="149.14 99.97 149.88 100.73 148.84 100.52 149.14 99.97"/><path class="cls-32" d="M139.24,103.48a5.84,5.84,0,0,0-.56.88.68.68,0,0,0,.28.86c.39.28.68.31.8.06a9.37,9.37,0,0,1,.62-1C139.76,104.19,139.31,103.89,139.24,103.48Z"/><path class="cls-32" d="M153.09,111.62c.59-.15,1.07-.89.44-2.27.63.22,1,.38,1.59.63,0,0,.66.19.43,1.42-.18,1-.78,1-.78,1-.56-.25-1.14-.48-1.73-.7C153.05,111.67,153.06,111.62,153.09,111.62Z"/><path class="cls-32" d="M155.58,105.63a7.08,7.08,0,0,1,.35,1,.66.66,0,0,1-.48.76c-.43.17-.72.12-.79-.14a8.48,8.48,0,0,0-.36-1.17C154.91,106.19,155.42,106,155.58,105.63Z"/><path class="cls-31" d="M144.16,100.58a15.7,15.7,0,0,0-2.18,2,14,14,0,0,0-1.84,2.74c-.24.47-.44.94-.65,1.41a10.19,10.19,0,0,1,3.37-5.32A9,9,0,0,1,144.16,100.58Z"/><path class="cls-31" d="M154.61,108.85a18.51,18.51,0,0,0-.67-2.76,15.39,15.39,0,0,0-1.39-3c-.26-.42-.55-.82-.83-1.23a10.15,10.15,0,0,1,2.77,5.52A9,9,0,0,1,154.61,108.85Z"/><path class="cls-31" d="M138.65,108.06a4.83,4.83,0,0,0-.06,1.83c-.3-.17-.35-.63-.33-.93A1.31,1.31,0,0,1,138.65,108.06Z"/><path class="cls-31" d="M155.1,110.25a1.34,1.34,0,0,1,.17,1c-.05.3-.2.72-.53.82A5.61,5.61,0,0,0,155.1,110.25Z"/><path class="cls-31" d="M144.26,111.47c.51,0,.36-.46.26-.55-.41-.39-1.21-.2-1.85-.33a5.7,5.7,0,0,1-.92-.26,1.47,1.47,0,0,0,.69.73A3.71,3.71,0,0,0,144.26,111.47Z"/><path class="cls-31" d="M148.89,112.08c-.48-.17-.24-.54-.13-.6.49-.27,1.23.12,1.88.16a7.53,7.53,0,0,0,1,0,1.42,1.42,0,0,1-.84.52A3.67,3.67,0,0,1,148.89,112.08Z"/><path class="cls-31" d="M154,121.9c.37.76.46,1.53.79,2.3-.1-.9,0-1.8-.11-2.7a8.29,8.29,0,0,0-1-2.54,6.71,6.71,0,0,0,.81-3.93c-.52,2.22-1.45,3.26-2.2,3.5a4.42,4.42,0,0,1-.13-1.7,3.61,3.61,0,0,0-.6,2.33c-.06,1.33.57,1.84.25,4.06a17.71,17.71,0,0,1-1.27-3.56,5.12,5.12,0,0,0-2.09-3.55c-1-.67-1.81-.67-2,.08-.24,1,.93.77,1.83,1.42a3.26,3.26,0,0,1,1.24,3.15c-.44-1.76-1.41-2.59-2.32-2.77a2.4,2.4,0,0,1,.56,2.09,2.22,2.22,0,0,0-1.94-1.71,2.16,2.16,0,0,0-2.27,1.16,2.38,2.38,0,0,1,1-1.89c-.92-.06-2.06.5-2.87,2.1a3.15,3.15,0,0,1,1.9-2.75c1-.39,2.12.09,2.1-.89,0-.79-.76-1-1.93-.61A4.89,4.89,0,0,0,141,118.4a17.59,17.59,0,0,1-2,3.12c.18-2.23.91-2.57,1.15-3.87a3.6,3.6,0,0,0-.07-2.42,4.2,4.2,0,0,1-.5,1.61c-.68-.42-1.55-1.7-1.56-4a6.56,6.56,0,0,0,.11,4.06,7.74,7.74,0,0,0-1.53,2.21c-.36.83-.41,1.75-.71,2.6.49-.66.76-1.4,1.29-2a6.27,6.27,0,0,1,1.54-1.32,9.17,9.17,0,0,0-.78,6.26c.84-1.21,1.93-2.92,2.93-3.43a14,14,0,0,0,0,5.48c1-4.15,3.43-5.69,3.43-5.69a9.43,9.43,0,0,0-1.16,3.37c-.66,4.2.75,4.41,1.18,7.64a11.23,11.23,0,0,0,2.75-5.64,9.33,9.33,0,0,0-.14-5s2,2,2,6.41a14.08,14.08,0,0,0,1.19-5.33c.86.75,1.53,2.69,2.07,4.09a9.16,9.16,0,0,0,.66-6.28A7.29,7.29,0,0,1,154,121.9ZM142.52,121c-.2.32-.42.64-.63,1s-.31.51-.49.73a3.11,3.11,0,0,1,.55-1.87c.19-.3.42-.58.62-.87s.31-.53.47-.8A2.44,2.44,0,0,1,142.52,121Zm3.12,4.31c-.16.72-.28,1.45-.39,2.19s-.15,1.31-.3,1.94a7.4,7.4,0,0,1-.67-3.7,15.33,15.33,0,0,1,.39-2.25c.16-.71.3-1.42.43-2.14a18.24,18.24,0,0,1,.41-2,8,8,0,0,1,.51,3.71A18.06,18.06,0,0,1,145.64,125.32Zm3.63-1.58a8.53,8.53,0,0,1-.32-.84c-.13-.37-.27-.73-.4-1.1a2.49,2.49,0,0,1-.08-1.93,9.37,9.37,0,0,0,.28.9c.13.34.28.66.4,1A3.24,3.24,0,0,1,149.27,123.74Z"/><ellipse class="cls-32" cx="147.28" cy="105.74" rx="0.32" ry="0.44" transform="translate(20.7 235.54) rotate(-81.4)"/><path class="cls-32" d="M147.39,108.65c0,.14-.21.22-.43.2s-.39-.17-.37-.31.21-.23.43-.2S147.4,108.51,147.39,108.65Z"/><path class="cls-32" d="M146.94,111.73c0,.12-.17.19-.35.17s-.33-.14-.31-.25.17-.2.35-.17S147,111.62,146.94,111.73Z"/><path class="cls-32" d="M144.19,108.48c0,.09-.15.15-.3.13s-.27-.11-.26-.21.14-.15.3-.13S144.2,108.38,144.19,108.48Z"/><ellipse class="cls-32" cx="141.44" cy="108.44" rx="0.15" ry="0.25" transform="translate(14.3 233.34) rotate(-81.97)"/><path class="cls-32" d="M149.65,109.2c0,.09.1.18.26.2s.29,0,.3-.13-.11-.19-.26-.21S149.66,109.1,149.65,109.2Z"/><ellipse class="cls-32" cx="152.32" cy="109.87" rx="0.15" ry="0.25" transform="translate(22.24 245.34) rotate(-81.97)"/><ellipse class="cls-32" cx="147.54" cy="103.47" rx="0.25" ry="0.36" transform="translate(23.33 234.03) rotate(-81.47)"/><ellipse class="cls-32" cx="147.78" cy="101.32" rx="0.18" ry="0.26" transform="translate(25.77 232.54) rotate(-81.52)"/><path class="cls-33" d="M148.18,99.55c0,.08-.1.12-.21.11s-.18-.08-.17-.16.1-.12.2-.11S148.19,99.48,148.18,99.55Z"/><path class="cls-31" d="M148,99.73a.45.45,0,0,1-.29-.21.17.17,0,0,0-.05.12.31.31,0,0,0,.31.31.29.29,0,0,0,.37-.22.23.23,0,0,0,0-.14A.43.43,0,0,1,148,99.73Z"/><path class="cls-32" d="M147.92,105.68a.7.7,0,0,1,.1.9.87.87,0,0,1-.9.41.92.92,0,0,1-.73-.6.71.71,0,0,1,.27-.85.73.73,0,0,0,.55,1h0A.7.7,0,0,0,147.92,105.68Z"/><path class="cls-32" d="M147.55,108.6c.47.49-.12,1.2-.7,1.11s-1-.88-.43-1.24a.65.65,0,0,0,.51.92A.63.63,0,0,0,147.55,108.6Z"/><path class="cls-32" d="M144.33,108.45a.47.47,0,0,1,.08.58.6.6,0,0,1-.61.29c-.43-.07-.78-.72-.31-1a.48.48,0,0,0,.39.65A.46.46,0,0,0,144.33,108.45Z"/><path class="cls-32" d="M141.77,108.66a.42.42,0,0,1-.08.49.57.57,0,0,1-.67.08c-.34-.19-.43-.88.07-.92a.43.43,0,0,0,.06.62A.42.42,0,0,0,141.77,108.66Z"/><path class="cls-32" d="M149.52,109.13a.45.45,0,1,0,.84.12c.39.37-.09.91-.52.87a.64.64,0,0,1-.53-.44A.47.47,0,0,1,149.52,109.13Z"/><path class="cls-32" d="M152,110a.43.43,0,0,0,.54.42.41.41,0,0,0,.2-.58c.47.17.24.81-.14.91a.58.58,0,0,1-.63-.25A.45.45,0,0,1,152,110Z"/><path class="cls-32" d="M147.15,111.66c.46.46-.13,1.15-.68,1.06s-.91-.84-.39-1.18a.61.61,0,0,0,.48.86A.59.59,0,0,0,147.15,111.66Z"/><path class="cls-32" d="M148.06,103.48a.58.58,0,0,1,.09.73.75.75,0,0,1-1.33-.11.58.58,0,0,1,.21-.74.59.59,0,0,0,.45.79h0A.56.56,0,0,0,148.06,103.48Z"/><path class="cls-32" d="M148.17,101.3a.45.45,0,0,1,.1.49.54.54,0,0,1-.57.31c-.39-.06-.72-.67-.28-.88a.43.43,0,0,0,.3.55C148,101.82,148.18,101.55,148.17,101.3Z"/><path class="cls-32" d="M148.29,99.59a.35.35,0,0,1,.09.44.48.48,0,0,1-.47.24c-.33,0-.62-.59-.23-.75,0,.21.1.46.35.42A.34.34,0,0,0,148.29,99.59Z"/><path class="cls-32" d="M157.72,106.28l.39-.17s-.28-.72-.59-1.32a13.42,13.42,0,0,0-5-4.87,16.74,16.74,0,0,0-4.07-1.35l-.08,0h-.07a16.65,16.65,0,0,0-4.27.07,12.93,12.93,0,0,0-6.08,3.15c-.45.49-.92,1.09-.92,1.09l.32.27c-.17.15.59.66.72.5a1.2,1.2,0,0,0,.71-.28l1.24-.93.75.18a14,14,0,0,1,4-2.24,9,9,0,0,1,3.37-.21,9.1,9.1,0,0,1,3.18,1.22,14.72,14.72,0,0,1,3.24,3.36l.77.07.93,1.26a1.21,1.21,0,0,0,.6.48C157,106.72,157.43,106.45,157.72,106.28Zm-13.13-6.53a11.6,11.6,0,0,1,1.24-.15A11.6,11.6,0,0,0,144.59,99.75Zm1.32-.16h0Zm4.68.75c.36.14.75.31,1.15.51C151.34,100.65,151,100.48,150.59,100.34Zm-.08,0h0Z"/><path class="cls-31" d="M157.52,104.79a13.42,13.42,0,0,0-5-4.87,16.74,16.74,0,0,0-4.07-1.35l-.08,0h-.07a16.65,16.65,0,0,0-4.27.07,12.93,12.93,0,0,0-6.08,3.15c-.45.49-.92,1.09-.92,1.09l.89.75a11.26,11.26,0,0,1,4-3,12,12,0,0,1,6.29-.93,12.26,12.26,0,0,1,5.78,2.8,11.75,11.75,0,0,1,3,4.11l1.05-.45S157.83,105.39,157.52,104.79Z"/><path class="cls-32" d="M157,106.68h0a.14.14,0,0,1-.07-.08,11.89,11.89,0,0,0-8.7-6.82,11.76,11.76,0,0,0-6.22.91,11.18,11.18,0,0,0-4,3,.14.14,0,0,1-.08,0,.15.15,0,0,1-.1,0l-.89-.76a.1.1,0,0,1,0-.15s.48-.61.93-1.1A13.1,13.1,0,0,1,144,98.49a16.32,16.32,0,0,1,4.3-.06h.16a16.62,16.62,0,0,1,4.11,1.37,13.53,13.53,0,0,1,5,4.92c.31.6.6,1.33.6,1.33a.1.1,0,0,1-.06.14l-1.06.46Zm-8.77-7.14h0a12.43,12.43,0,0,1,5.85,2.83,12.22,12.22,0,0,1,3,4l.84-.36c-.09-.22-.32-.75-.55-1.22h0a13.17,13.17,0,0,0-4.91-4.8,16.7,16.7,0,0,0-4-1.35h-.15a16.51,16.51,0,0,0-4.23.06,12.62,12.62,0,0,0-6,3.12c-.35.37-.71.81-.86,1l.71.59a11.71,11.71,0,0,1,4-3,12,12,0,0,1,6.37-.94Z"/><path class="cls-35" d="M137.75,103.07a12.4,12.4,0,0,1,3.81-2.83A13.11,13.11,0,0,1,147,99.18l0-.33a11.88,11.88,0,0,0-5.69,1.14,12.4,12.4,0,0,0-3.89,2.93Z"/><path class="cls-35" d="M139.81,102.1l1,.2a13.12,13.12,0,0,1,2.44-1.64,8,8,0,0,1,2.26-.71,7.75,7.75,0,0,0-2.74.58,10.29,10.29,0,0,0-1.81,1.12l-.51,0Z"/><path class="cls-35" d="M157.4,106.11a13.28,13.28,0,0,0-2.9-3.87,13.66,13.66,0,0,0-4.94-2.67l.05-.33a12.2,12.2,0,0,1,5.14,2.82,13,13,0,0,1,2.93,4Z"/><path class="cls-35" d="M155.68,104.56l-1-.1a13,13,0,0,0-1.89-2.31,8.17,8.17,0,0,0-2-1.37,8,8,0,0,1,2.46,1.39,10.16,10.16,0,0,1,1.44,1.62l.47.19Z"/></g><path class="cls-29" d="M118.5,118.52l1.62-4.62s14.9-3.29,23.62-1.25,31.18,9.19,31.18,9.19C169.72,120.89,133.73,107.73,118.5,118.52Z"/></g></g><g id="BrazoI"><path id="Bazo_I-2" data-name="Bazo I" class="cls-6" d="M218.82,174.65s9.79-3.22,16.77-2.83c9.29.53,11.73,4.34,13.41,4.19,3.54-11.18-19.64-48.15-19.64-48.15s-28.88,3.53-23.63,16.68c7,12,5.56,9.16,7.52,13.09A51,51,0,0,1,218.82,174.65Z"/><g class="cls-39"><path class="cls-2" d="M202.57,143.05l5.41-1.24s11.09,19.73,10.93,23.12-1.57,11-.89,11.2,17.75.05,20.41,9.84C231.57,184.51,210,180,210,180l.18-13.9Z"/></g></g><path class="cls-6" d="M204.31,140.23l-.29,2.1h.81C204.29,141.89,204.31,140.23,204.31,140.23Z"/><path class="cls-6" d="M219.83,112.89l-17.22-16-2.35.08,1.41-5.35c-.17-.59-1-.21-1.64-.31l-1.85.41,1.33-1.88c.19-.47.45-.94.21-1.44l-3.15-.89L193.36,83c-2.23.17-3.44.53-12.27,10.2-10.33,11.32,1.49,22,1.49,22l1.72,2,22.92,23,2.35,1.64,20.75-12.29C230.2,129.08,221.83,115.54,219.83,112.89Z"/><path class="cls-2" d="M207.22,140.2l1.62-5.26-2.13,3.33-16.84-23.41,1.54-2.39-4.18.5,1.37-3.54L182.45,104l1.85,13.19,20,23s0,1.66.52,2.1h0c.58.41,2.46.06,2.46.06l-.09.25,2.33-.81,1.1-3.3Z"/><path class="cls-2" d="M200,91.27a.71.71,0,0,1-.56-.36,1.18,1.18,0,0,1,0-1.11l-3.16,3.07Z"/><path class="cls-2" d="M202,97.19l17.88,15.7c-5-6.67-15.68-15.77-16.64-16.2-1.35-.6-1.73-3-1.51-4.63a1.06,1.06,0,0,0,0-.48l-1.76,5.8Z"/><path class="cls-2" d="M199.72,88.36a1.45,1.45,0,0,0-.33-.41,12.22,12.22,0,0,0-2.66-1.3l-3.25-3.6-.38.08L195.72,88Z"/><path class="cls-5" d="M237.93,140.33l0,0c.14.44.27.89.4,1.36A7.76,7.76,0,0,0,237.93,140.33Z"/><path class="cls-5" d="M244.88,177.29c.88.42,1.36.71,1.36.71s-.37-.36-1-.92A1.62,1.62,0,0,1,244.88,177.29Z"/><g id="Chaqueta_I" data-name="Chaqueta I"><path class="cls-17" d="M165.47,199.7l-5.3,1.78s-2.65,4.76-5.69-.35,3-106.09,3.45-110.75,6.21-8.66,7.6-13.28a6.23,6.23,0,0,0-.37-4.46l-5.61-5.19,7.15-3.89s8.31,3.68,8.45,6.62c.3,6,4.39,4.36,4.23,8.1-.1,2.57-6.3,1.54-6.51,5.45C171,119.47,165.47,199.7,165.47,199.7Z"/><path class="cls-18" d="M178.41,80.62s.94-.86-1.3-3.11c-.69-.68-1.87-1.41-2.19-2-.75-1.39-.67-3.36-2.07-4.48-2-1.62-5.09,5.21-5.09,5.21s-2,2.26-3.48,7.57a75.26,75.26,0,0,0-1.7,12.08c-1.4,27-6.67,100.41-6.67,100.41s-1.17,9.77.84,5.09S173,116.74,173,116.74Z"/><path class="cls-6" d="M172.19,72.74c-1.33,0-3.25,4.38-6.29,8.88-1.51,4.38-7.5,88.82-9.22,115.41-.29,4.54-1.26,6.61-.46,7.19s2.92-.71,6.67-1.74c4.88-1.34,19.21-7.68,22.32-9.17,5.5-2.65-2.22-36.86-1.51-38.22s1.34-3.11.58-4.37,6.62-29.3,6.62-29.3-10.9-12.45-5-24.56S193.36,83,193.36,83L178,79.38s-1.51-1.21-3.25-2.55S173.53,72.75,172.19,72.74Z"/><polygon class="cls-2" points="174.74 76.83 180.36 85.68 160.17 144.51 181.96 85.78 174.74 76.83"/><g class="cls-40"><polygon class="cls-2" points="184.82 157.91 174.3 161.24 181.35 156.26 168.47 150.2 182.53 154.53 173.2 143.47 181.86 149.99 184.8 106.77 201.36 125.47 186.3 153.02 184.82 157.91"/><path class="cls-2" d="M184.23,156.28c-.4-2.28-.78-2.82-1.39-.63-.81,2.91,3,31.23,1.72,32.87-2.84,3.57-30.08,16.82-30.08,16.82l18.25-5.66,10.59-4.24s5.29-3.84,5.65-8C189.76,178.37,184.5,157.78,184.23,156.28Z"/></g><path class="cls-18" d="M163.91,80.59s3.5-6.64,2.79-9a12.91,12.91,0,0,0-2.79-4.43l-2.14,4.34s1,2.07,1.78,3.93S163.91,80.59,163.91,80.59Z"/></g><g id="Cabeza"><path class="cls-7" d="M147.6,33.78a32.35,32.35,0,0,0-5.51.42A16.49,16.49,0,0,0,136,64.42c1.71,3.14,4.85,8.19,8.07,9.73,4.78,2.3,6.65,5.29,10.14,5.34s10.39-11.11,11.31-13.92c.6-1.84,1.26-14.77,1.26-14.77a16.5,16.5,0,0,0-14.19-16.58A32.36,32.36,0,0,0,147.6,33.78Z"/><path class="cls-14" d="M154.19,79.74c-2.16,0-3.68-1.12-5.61-2.5a30.15,30.15,0,0,0-4.64-2.86c-3.3-1.58-6.51-6.78-8.15-9.78A16.74,16.74,0,0,1,142.05,34a31.47,31.47,0,0,1,10.21,0l.35,0A16.75,16.75,0,0,1,167,50.81c0,.53-.67,13-1.27,14.84C164.85,68.34,157.91,79.79,154.19,79.74ZM147.59,34a30.84,30.84,0,0,0-5.46.42,16.23,16.23,0,0,0-6,29.76l0,0,0,.06c1.6,2.93,4.76,8.09,8,9.62a30.87,30.87,0,0,1,4.71,2.9c1.86,1.33,3.33,2.38,5.33,2.41,3.21.05,10.1-10.82,11.06-13.75.59-1.79,1.25-14.57,1.25-14.7a16.26,16.26,0,0,0-14-16.32l-.35,0A30.29,30.29,0,0,0,147.59,34Z"/><path class="cls-31" d="M153,62.3s0-1.61-3.35-2.36a15.23,15.23,0,0,0-5.43-.4l.32,1.57"/><path class="cls-41" d="M152.73,62.31s-.1-1.43-3.16-2.13a15.94,15.94,0,0,0-5.07-.42l.26,1.3-.49.1-.37-1.82.26-.05a15.48,15.48,0,0,1,5.52.4c3.48.79,3.55,2.53,3.55,2.61Z"/><path class="cls-9" d="M163.58,53.83s-3.13,3.91-3.57,5.83a50.73,50.73,0,0,0-.33,7.48l-1.11-8.82Z"/><path class="cls-42" d="M160.37,60.09s2.84-3.63,5.25-4l.55,1.38"/><path class="cls-2" d="M153.18,58s-6.46-3.28-10-2c0,0-.33.59.52.6C145.77,55.83,153.18,58,153.18,58Z"/><path class="cls-2" d="M166.75,52c-2.66-.33-7.2,5.5-7.2,5.5s4-3.41,4.78-3.88,2.28-1.24,2.28-1.24Z"/><path class="cls-9" d="M138.1,56.45s2.81,12.19,9.92,14.06c-.49,1.29-8-.12-8-.12s-4.3-8.4-3.09-10.93S138.1,56.45,138.1,56.45Z"/><path class="cls-43" d="M161.34,70.19l1.29.74s2.5-3.76,2.8-5.18.49-3,.49-3"/><path class="cls-2" d="M133,39a26.78,26.78,0,0,1,4,7.29c1.15,3.72.65,7.56,2.41,7.41,0,0-3.16,9,1.79,12.87.63.25,1,2.45,1.91,2.67.67.15,1.38.3,2.07.43,2.27.43,4.37.71,4.37.71a22.32,22.32,0,0,0,3.39-.88c2.19-.71,7.22-2.82,8.49-.67l1.27,2.14a31,31,0,0,1-2.45,5.68c-.37.65-.77,1.39-1.15,2.11-.15.29-.48.91-.78,1.44s-.47.83-.55,1a3.74,3.74,0,0,0-.46,1c-.13.35.26.74.26.85,0,.33-1.6.44-2.34.45a14.43,14.43,0,0,1-4.23-.84c-4.19-1.37-9.66-4.43-12.06-9.19-4.14-8.22-3-18-4.92-18.89-1.34-.61-3.08,4.9-3.08,4.9a15,15,0,0,1-2.76-11.68A14.35,14.35,0,0,1,133,39Z"/><path class="cls-9" d="M135.05,55.38s-3.33-3.34-4.43-1c-.5,1.09-.37,3.27.46,5.27,1,2.36,3.88,4.52,4.9,4.1"/><path class="cls-14" d="M135.66,64.07c-1.41,0-3.92-2.19-4.81-4.31-.82-2-1-4.26-.46-5.46a1.58,1.58,0,0,1,1.16-1c1.52-.26,3.59,1.78,3.68,1.87l-.35.35c-.55-.54-2.19-1.91-3.25-1.73a1.06,1.06,0,0,0-.78.69,7.33,7.33,0,0,0,.46,5.06c1,2.3,3.73,4.32,4.57,4l.19.46A.91.91,0,0,1,135.66,64.07Z"/><path class="cls-7" d="M157.84,56s2.85,12.42,2.41,12.7-4.62-.75-4.62-.75a1,1,0,0,1,.25-1.22"/><path class="cls-14" d="M159.89,69a25.75,25.75,0,0,1-4.32-.79l-.12,0,0-.1a1.26,1.26,0,0,1,.33-1.53l.3.4a.7.7,0,0,0-.21.81,23.74,23.74,0,0,0,4.23.75c0-1-1.46-8.08-2.45-12.44l.48-.11c2.89,12.6,2.48,12.86,2.3,13A1.15,1.15,0,0,1,159.89,69Z"/><g class="cls-44"><circle class="cls-41" cx="150.79" cy="61.03" r="2.09"/></g><g class="cls-45"><ellipse class="cls-41" cx="164.53" cy="57.43" rx="1.71" ry="1.47" transform="translate(104.72 221.1) rotate(-89.17)"/></g></g></g></g></svg>