<?xml version="1.0" encoding="utf-8"?>
<!-- Generator: Adobe Illustrator 26.1.0, SVG Export Plug-In . SVG Version: 6.00 Build 0)  -->
<svg version="1.1" id="Capa_1" xmlns="http://www.w3.org/2000/svg" xmlns:xlink="http://www.w3.org/1999/xlink" x="0px" y="0px"
	 viewBox="0 0 100 100" style="enable-background:new 0 0 100 100;" xml:space="preserve">
<style type="text/css">
	.st0{fill:#674D99;}
</style>
<g>
	<path class="st0" d="M73.1,31.4h-0.5c-3.5-0.7-6.1-1.9-6.2-6.2c-0.1-2.3-1.5-4.6-2.6-6.7C57.8,7.7,48.2,6.3,38.5,12.8
		c-5,3.3-7.4,8.8-8.7,14.4c-2.3,9.8-1,20,3.6,28.9c0.5,1.4,1.9,2.4,3.4,2.5c3,0.3,5.3,2.8,5.4,5.8c0.2,3.5-2.5,6.5-6,6.7
		c-2.6,0.1-5-1.3-6.1-3.6c-0.7-1.5-0.8-3.2-0.3-4.7c0.4-1,0.2-2.1-0.4-3C24.2,50,21.9,39.6,24,28.4c1.6-8.6,5.3-16,12.7-21
		C40.1,5.1,44,3.7,48,3.3c4.8-0.3,9.5,1.2,13.2,4.2C69.2,13.3,72.1,21.8,73.1,31.4z"/>
	<path class="st0" d="M28.7,83.1c9.3-0.1,17-4.2,24-9.8c3.5-2.9,6.5-6.3,8.7-10.3c0.6-0.8,0.6-1.9,0-2.7c-1.9-2.9-1.1-6.8,1.9-8.7
		c0.2-0.1,0.3-0.2,0.5-0.3c3.1-1.7,7-0.5,8.7,2.7c0.1,0.1,0.1,0.3,0.2,0.4c1.4,3.1,0.1,6.9-3.1,8.3c-0.2,0.1-0.4,0.2-0.6,0.3
		c-1,0.4-1.8,1.1-2.2,2.1c-8,14.5-20.5,22.2-36.8,23.7c-5.1,0.4-10.2-0.7-14.6-3.3c-7.8-4.4-11.7-14-9.7-22.8
		c1.5-7,5.4-13.2,11.1-17.6c1.8-1.5,1.6-1.4,2.4,0.6c1,2.5,0.6,4.2-1.6,6.2c-4.5,4.1-7.4,9.3-7.2,15.8c0.3,7.6,6,14,13.6,15.1
		C25.4,82.9,27,83.1,28.7,83.1z"/>
	<path class="st0" d="M56,85.3c1.6-1.3,3.1-2.5,4.6-3.8c0.7-0.6,1.3,0,1.8,0.2c5,1.8,10.1,2.6,15.3,1.1c8.5-2.3,13.6-11,11.3-19.6
		c-0.1-0.5-0.3-1-0.5-1.5c-3.1-9-9.7-14.7-18-18.7c-6-2.9-12.5-4.4-19.2-4.2c-0.9-0.1-1.8,0.4-2.3,1.2c-2,2.9-6,3.6-8.9,1.6
		c-2.9-2-3.6-6-1.6-8.9c2-2.9,6-3.6,8.9-1.6c0.4,0.3,0.9,0.7,1.2,1.1c0.6,0.8,1.6,1.2,2.6,1.1c8.6,0,16.9,1.8,24.4,6.1
		c7.8,4.5,14.1,10.4,17.5,19c1.9,4.6,2.3,9.6,1.2,14.5c-1.8,7-6.7,11.2-13.1,13.9C72.7,90.2,64.4,89,56,85.3z"/>
</g>
</svg>
