<svg id="Capa_1" data-name="Capa 1" xmlns="http://www.w3.org/2000/svg" viewBox="0 0 100 100"><defs><style>.cls-1{fill:#357ab4;}.cls-2{fill:#fec91e;}.cls-3{fill:#f7f8f8;}</style></defs><path class="cls-1" d="M32.63,27.15c4.59,0,9.19,0,13.79,0,1.23,0,1.69-.27,1.69-1.61,0-4.72.08-4.72-4.68-4.72s-9.58,0-14.38,0c-1.31,0-1.72-.39-1.63-1.66.11-1.44,0-2.89.07-4.34A7.89,7.89,0,0,1,33,7.1,35.68,35.68,0,0,1,43.45,5.16a63.75,63.75,0,0,1,15.11.7c5,.87,10.59,4.68,10.32,12.14-.21,5.9,0,11.82,0,17.73,0,6.73-4.38,11.11-11.06,11.13-6.44,0-12.87,0-19.31,0-8,0-13.64,5.7-13.67,13.65,0,2.5,0,5,0,7.49,0,.73-.08,1.27-1,1.25-2.43-.06-4.88.12-7.28-.14-4.83-.52-7.57-3.67-9-8A39.68,39.68,0,0,1,6.34,39c1.93-8.31,6.35-11.88,14.86-11.88ZM36.47,9.69A3.74,3.74,0,0,0,32.7,13.4a3.91,3.91,0,0,0,3.73,3.83,3.77,3.77,0,0,0,3.73-3.78A3.65,3.65,0,0,0,36.47,9.69Z"/><path class="cls-2" d="M68.11,72.39c-4.92,0-9.85,0-14.78,0-1.28,0-1.68.35-1.69,1.65,0,4.73-.09,4.73,4.52,4.73,4.79,0,9.59.05,14.38,0,1.4,0,1.86.25,1.93,1.79.28,5.91-1.54,9.56-8.21,12.1a33.89,33.89,0,0,1-26.08-.43c-4.79-2-7.45-5.45-7.21-11,.25-5.9,0-11.82.06-17.73,0-6.34,4.43-10.74,10.8-10.78s12.74,0,19.11,0c8.35,0,13.94-5.59,14-13.94,0-2.36,0-4.73,0-7.09,0-1,.3-1.4,1.34-1.36,2.1.06,4.2,0,6.31,0,3.86,0,6.9,1.63,8.43,5.09,4.76,10.74,5.25,21.55-.32,32.22-1.75,3.36-4.64,4.83-8.4,4.8C77.57,72.36,72.84,72.39,68.11,72.39ZM61.52,82.66a3.76,3.76,0,0,0,.12,7.52,3.76,3.76,0,0,0-.12-7.52Z"/><path class="cls-3" d="M36.47,9.69a3.65,3.65,0,0,1,3.69,3.76,3.77,3.77,0,0,1-3.73,3.78A3.91,3.91,0,0,1,32.7,13.4,3.74,3.74,0,0,1,36.47,9.69Z"/><path class="cls-3" d="M61.52,82.66a3.76,3.76,0,1,1-3.67,3.81A3.76,3.76,0,0,1,61.52,82.66Z"/></svg>