<svg id="Capa_1" data-name="Capa 1" xmlns="http://www.w3.org/2000/svg" viewBox="0 0 100 100"><defs><style>.cls-1{fill:#05d8fe;}.cls-2{fill:#f5f8f9;}</style></defs><path class="cls-1" d="M77.54,24.21a33,33,0,0,1-1,8.91c-.39,1.51,0,2.07,1.47,2.5a33.25,33.25,0,0,1,13,6.83c2.75,2.48,4.76,5.38,3.76,9.38a11.56,11.56,0,0,1-3.8,5.69C87.15,61,82.6,63,77.82,64.54c-1.25.4-1.44.83-1.17,2.09,1.15,5.36,1.7,10.76.14,16.14-1.76,6.13-6.15,8.51-12.24,6.7-5-1.5-9.19-4.48-13-8-1.13-1.06-1.7-1-2.84,0-4.55,4.1-9.48,7.59-15.78,8.44a8.07,8.07,0,0,1-8.78-4.68c-1.77-3.59-2-7.45-1.7-11.36a34.31,34.31,0,0,1,1.14-7.2c.37-1.27-.13-1.62-1.2-2-5-1.54-9.7-3.69-13.54-7.35-5.23-5-5.19-10.15.13-15,3.77-3.45,8.37-5.4,13.18-6.88,1.31-.4,1.75-.79,1.4-2.31-1.14-5-1.75-10.1-.56-15.23,1.54-6.62,5.92-9.25,12.44-7.34,5.1,1.48,9.34,4.46,13.17,8,1.14,1.07,1.79,1,2.86,0A34.76,34.76,0,0,1,63.74,10.8a13.51,13.51,0,0,1,4.78-.86c3.64.09,6.08,2,7.49,5.28A20.94,20.94,0,0,1,77.54,24.21ZM50.06,64.27v0c2.37,0,4.74,0,7.11,0A1.89,1.89,0,0,0,59,63.18q3.75-5.82,6.92-12a2.41,2.41,0,0,0,0-2.46Q62.68,42.66,59,36.9a2.34,2.34,0,0,0-2.11-1.21q-6.86-.24-13.69,0a2.19,2.19,0,0,0-2,1.08,128.78,128.78,0,0,0-7,12.16,2.08,2.08,0,0,0,0,2.09,124.64,124.64,0,0,0,7.14,12.31,1.76,1.76,0,0,0,1.67.94C45.31,64.24,47.68,64.27,50.06,64.27ZM24.5,38.79c-4.59,1.42-8.95,3.09-12.59,6.19C8,48.31,8,51.4,11.76,54.83c3.46,3.12,7.64,4.9,12,6.34,1.09.36,1.39-.14,1.68-1.07A81.54,81.54,0,0,1,28.94,51a1.89,1.89,0,0,0,.14-1.76,82.7,82.7,0,0,1-3.73-9.59C25.2,39.23,25.14,38.66,24.5,38.79Zm1.82,37.82a21.67,21.67,0,0,0,.46,4.53c1.1,4.46,3.25,5.79,7.68,4.58,4.83-1.32,8.66-4.31,12.33-7.55.83-.73.24-1.18-.21-1.68a80.87,80.87,0,0,1-6-7.44,2.72,2.72,0,0,0-2.12-1.22c-3.22-.41-6.44-.84-9.62-1.42-1.05-.19-1.28.13-1.47,1A38.86,38.86,0,0,0,26.32,76.61Zm47.52-1.2a36.43,36.43,0,0,0-.91-8c-.18-.88-.43-1.46-1.59-1.18a61,61,0,0,1-9.61,1.5,2.31,2.31,0,0,0-1.91,1,78.32,78.32,0,0,1-6.24,8c-.42.47-.67.84-.07,1.39,3.71,3.41,7.62,6.53,12.6,7.84,3.65,1,5.71-.25,6.91-3.84A19.58,19.58,0,0,0,73.84,75.41Zm-47.5-51.3a39.69,39.69,0,0,0,1.07,8.54c.22,1,.56,1.36,1.62,1.1a65.08,65.08,0,0,1,9.61-1.49,2,2,0,0,0,1.6-.83,77.59,77.59,0,0,1,6.47-8c.47-.51.54-.91,0-1.4-3.94-3.53-8.07-6.75-13.38-7.95-3.26-.74-5.07.39-6.18,3.57A19.18,19.18,0,0,0,26.34,24.11ZM73.72,25A22.48,22.48,0,0,0,73,18.15c-1.1-3.83-3.22-5-7.08-3.95C61,15.58,57.14,18.65,53.47,22c-.69.62-.37,1,.09,1.53a84.07,84.07,0,0,1,6.21,7.76,2.14,2.14,0,0,0,1.71,1,62.5,62.5,0,0,1,9.62,1.5c1,.24,1.41-.09,1.62-1.14A51.34,51.34,0,0,0,73.72,25ZM91.1,50.45c0-2.08-1-3.79-3.13-5.55A35,35,0,0,0,76.13,39c-.94-.3-1.17,0-1.42.8a85.9,85.9,0,0,1-3.6,9.25A1.69,1.69,0,0,0,71,50.64a79.3,79.3,0,0,1,3.9,9.73c.19.62.43,1,1.2.7,4.64-1.57,9.14-3.41,12.73-6.9C90,53,91.05,51.75,91.1,50.45ZM68.52,54.66C66.8,57.57,65.2,60.28,63.58,63c-.37.62-.1.79.46.7,2.26-.4,4.51-.83,6.77-1.23.6-.11.66-.37.47-.91A47.85,47.85,0,0,0,68.52,54.66Zm-36.91.07a56.21,56.21,0,0,0-2.55,6.62c-.29.86,0,1.25.85,1.38,2.25.33,4.5.72,7,1.12ZM36.7,36.46a43.58,43.58,0,0,0-7.33,1.13c-.52.11-.5.42-.37.83a46.42,46.42,0,0,0,2.63,6.86Zm31.86,9c.94-2.55,1.73-4.64,2.48-6.74.17-.46.33-1-.45-1.15a49,49,0,0,0-7.24-1.16ZM44.82,68.4c1.76,2.08,3.19,3.8,4.65,5.49.25.3.58.85,1.05.36a43.86,43.86,0,0,0,4.73-5.85ZM55.28,31.58l-4.72-5.64c-.22-.26-.51-.45-.79-.15A53.48,53.48,0,0,0,45,31.58Z"/><path class="cls-2" d="M50.06,64.27c-2.38,0-4.75,0-7.12,0a1.76,1.76,0,0,1-1.67-.94A124.64,124.64,0,0,1,34.13,51a2.08,2.08,0,0,1,0-2.09,128.78,128.78,0,0,1,7-12.16,2.19,2.19,0,0,1,2-1.08q6.84-.26,13.69,0A2.34,2.34,0,0,1,59,36.9q3.7,5.76,6.87,11.82a2.41,2.41,0,0,1,0,2.46q-3.18,6.16-6.92,12a1.89,1.89,0,0,1-1.78,1.09c-2.37,0-4.74,0-7.11,0Zm-.15-6.36A7.93,7.93,0,0,0,58,50.11a8,8,0,0,0-7.89-8.26,8.17,8.17,0,0,0-8.18,8A8,8,0,0,0,49.91,57.91Z"/><path class="cls-2" d="M24.5,38.79c.64-.13.7.44.85.9a82.7,82.7,0,0,0,3.73,9.59A1.89,1.89,0,0,1,28.94,51a81.54,81.54,0,0,0-3.51,9.06c-.29.93-.59,1.43-1.68,1.07-4.35-1.44-8.53-3.22-12-6.34C8,51.4,8,48.31,11.91,45,15.55,41.88,19.91,40.21,24.5,38.79Z"/><path class="cls-2" d="M26.32,76.61a38.86,38.86,0,0,1,1.06-9.2c.19-.87.42-1.19,1.47-1,3.18.58,6.4,1,9.62,1.42a2.72,2.72,0,0,1,2.12,1.22,80.87,80.87,0,0,0,6,7.44c.45.5,1,1,.21,1.68-3.67,3.24-7.5,6.23-12.33,7.55-4.43,1.21-6.58-.12-7.68-4.58A21.67,21.67,0,0,1,26.32,76.61Z"/><path class="cls-2" d="M73.84,75.41A19.58,19.58,0,0,1,73,82.05c-1.2,3.59-3.26,4.8-6.91,3.84-5-1.31-8.89-4.43-12.6-7.84-.6-.55-.35-.92.07-1.39a78.32,78.32,0,0,0,6.24-8,2.31,2.31,0,0,1,1.91-1,61,61,0,0,0,9.61-1.5c1.16-.28,1.41.3,1.59,1.18A36.43,36.43,0,0,1,73.84,75.41Z"/><path class="cls-2" d="M26.34,24.11a19.18,19.18,0,0,1,.8-6.47c1.11-3.18,2.92-4.31,6.18-3.57,5.31,1.2,9.44,4.42,13.38,8,.55.49.48.89,0,1.4a77.59,77.59,0,0,0-6.47,8,2,2,0,0,1-1.6.83A65.08,65.08,0,0,0,29,33.75c-1.06.26-1.4-.1-1.62-1.1A39.69,39.69,0,0,1,26.34,24.11Z"/><path class="cls-2" d="M73.72,25a51.34,51.34,0,0,1-1,7.61c-.21,1-.59,1.38-1.62,1.14a62.5,62.5,0,0,0-9.62-1.5,2.14,2.14,0,0,1-1.71-1,84.07,84.07,0,0,0-6.21-7.76c-.46-.5-.78-.91-.09-1.53,3.67-3.36,7.52-6.43,12.42-7.81,3.86-1.08,6,.12,7.08,3.95A22.48,22.48,0,0,1,73.72,25Z"/><path class="cls-2" d="M91.1,50.45c0,1.3-1.06,2.58-2.24,3.72-3.59,3.49-8.09,5.33-12.73,6.9-.77.26-1-.08-1.2-.7A79.3,79.3,0,0,0,71,50.64a1.69,1.69,0,0,1,.08-1.58,85.9,85.9,0,0,0,3.6-9.25c.25-.77.48-1.1,1.42-.8A35,35,0,0,1,88,44.9C90.14,46.66,91.14,48.37,91.1,50.45Z"/><path class="cls-2" d="M68.52,54.66a47.85,47.85,0,0,1,2.76,6.87c.19.54.13.8-.47.91-2.26.4-4.51.83-6.77,1.23-.56.09-.83-.08-.46-.7C65.2,60.28,66.8,57.57,68.52,54.66Z"/><path class="cls-2" d="M31.61,54.73l5.29,9.12c-2.49-.4-4.74-.79-7-1.12-.9-.13-1.14-.52-.85-1.38A56.21,56.21,0,0,1,31.61,54.73Z"/><path class="cls-2" d="M36.7,36.46l-5.07,8.82A46.42,46.42,0,0,1,29,38.42c-.13-.41-.15-.72.37-.83A43.58,43.58,0,0,1,36.7,36.46Z"/><path class="cls-2" d="M68.56,45.48l-5.21-9a49,49,0,0,1,7.24,1.16c.78.15.62.69.45,1.15C70.29,40.84,69.5,42.93,68.56,45.48Z"/><path class="cls-2" d="M44.82,68.4H55.25a43.86,43.86,0,0,1-4.73,5.85c-.47.49-.8-.06-1.05-.36C48,72.2,46.58,70.48,44.82,68.4Z"/><path class="cls-2" d="M55.28,31.58H45a53.48,53.48,0,0,1,4.8-5.79c.28-.3.57-.11.79.15Z"/><path class="cls-1" d="M49.91,57.91a8,8,0,0,1-7.95-8,8.17,8.17,0,0,1,8.18-8A8,8,0,0,1,58,50.11,7.93,7.93,0,0,1,49.91,57.91Z"/></svg>