<svg id="Capa_1" data-name="Capa 1" xmlns="http://www.w3.org/2000/svg" viewBox="0 0 100 100"><defs><style>.cls-1{fill:#674d99;}</style></defs><path class="cls-1" d="M73.09,35.43h-.48c-3.47-.67-6.12-1.86-6.25-6.22-.07-2.33-1.46-4.58-2.63-6.72-5.92-10.82-15.51-12.15-25.25-5.67-5,3.34-7.38,8.75-8.66,14.42a42.19,42.19,0,0,0,3.63,28.9,3.79,3.79,0,0,0,3.4,2.51,6,6,0,0,1,5.39,5.85A6.39,6.39,0,0,1,30.1,71.61a5.9,5.9,0,0,1-.28-4.72,3.23,3.23,0,0,0-.39-3C24.16,54,21.84,43.61,24,32.46c1.64-8.58,5.27-16,12.72-21A23.54,23.54,0,0,1,48,7.29,19.36,19.36,0,0,1,61.2,11.45C69.19,17.34,72.08,25.84,73.09,35.43Z"/><path class="cls-1" d="M28.64,87.09c9.3-.11,17-4.25,24-9.85a35.93,35.93,0,0,0,8.7-10.3,2.18,2.18,0,0,0,0-2.7,6.3,6.3,0,0,1,2.34-9,6.42,6.42,0,0,1,8.86,3.06,6.26,6.26,0,0,1-3.73,8.55,4,4,0,0,0-2.25,2.07c-8,14.47-20.46,22.18-36.78,23.65a24.7,24.7,0,0,1-14.58-3.29c-7.8-4.45-11.68-14-9.73-22.76a30.72,30.72,0,0,1,11.07-17.6c1.8-1.46,1.65-1.4,2.43.64.95,2.53.56,4.2-1.59,6.17C12.86,59.87,10,65,10.21,71.56a16,16,0,0,0,13.6,15.1A26,26,0,0,0,28.64,87.09Z"/><path class="cls-1" d="M56,89.27c1.6-1.31,3.12-2.53,4.61-3.78.7-.59,1.26,0,1.84.17,5,1.76,10.06,2.59,15.26,1.07A16,16,0,0,0,88.57,65.65c-3.12-9-9.73-14.71-18-18.72a41.07,41.07,0,0,0-19.16-4.19,2.58,2.58,0,0,0-2.32,1.16,6.37,6.37,0,1,1-.4-7.77,3,3,0,0,0,2.58,1.13c8.64,0,16.88,1.75,24.43,6.07,7.8,4.47,14.08,10.44,17.48,19a23,23,0,0,1,1.16,14.47c-1.79,7-6.72,11.25-13.08,13.89C72.73,94.18,64.37,93,56,89.27Z"/></svg>