<?xml version="1.0" encoding="UTF-8" standalone="no"?>
<!-- Created with Inkscape (http://www.inkscape.org/) -->

<svg
   width="68.956871mm"
   height="68.979927mm"
   viewBox="0 0 68.956871 68.979928"
   version="1.1"
   id="svg5"
   sodipodi:docname="net_instagram.svg"
   inkscape:version="1.1.2 (b8e25be833, 2022-02-05)"
   xmlns:inkscape="http://www.inkscape.org/namespaces/inkscape"
   xmlns:sodipodi="http://sodipodi.sourceforge.net/DTD/sodipodi-0.dtd"
   xmlns="http://www.w3.org/2000/svg"
   xmlns:svg="http://www.w3.org/2000/svg">
  <sodipodi:namedview
     id="namedview7"
     pagecolor="#ffffff"
     bordercolor="#999999"
     borderopacity="1"
     inkscape:pageshadow="0"
     inkscape:pageopacity="0"
     inkscape:pagecheckerboard="0"
     inkscape:document-units="mm"
     showgrid="false"
     inkscape:snap-page="false"
     inkscape:zoom="2.0938813"
     inkscape:cx="42.027216"
     inkscape:cy="148.05042"
     inkscape:window-width="1920"
     inkscape:window-height="1017"
     inkscape:window-x="-8"
     inkscape:window-y="-8"
     inkscape:window-maximized="1"
     inkscape:current-layer="layer1"
     fit-margin-top="0.6"
     fit-margin-left="0.6"
     fit-margin-right="0.6"
     fit-margin-bottom="0.6"
     lock-margins="true" />
  <defs
     id="defs2" />
  <g
     inkscape:label="Capa 1"
     inkscape:groupmode="layer"
     id="layer1"
     transform="translate(-15.115283,0.19084956)">
    <path
       style="fill:#dfefd4;fill-opacity:1;stroke-width:0.264583"
       d="m 20.522144,67.862127 c -1.82561,-0.56184 -3.4492,-1.93582 -4.40044,-3.72391 -0.47183,-0.88692 -0.49264,-2.14999 -0.49264,-29.89791 0,-27.74792 0.0208,-29.011 0.49264,-29.89792 0.68768,-1.29266 1.96391,-2.58988 3.21152,-3.26433 l 1.05834,-0.57212995 h 28.97187 28.97187 l 1.05834,0.57212995 c 1.24761,0.67445 2.52384,1.97167 3.21152,3.26433 0.47183,0.88692 0.49264,2.15 0.49264,29.89792 v 28.97187 l -0.57212,1.05833 c -0.67445,1.24762 -1.97167,2.52385 -3.26433,3.21153 -0.88512,0.47086 -2.18906,0.49466 -29.50104,0.53841 -15.71625,0.0252 -28.87343,-0.0461 -29.23817,-0.15832 z m 15.34754,-25.16087 v -15.35155 l -5.09323,0.0719 -5.09323,0.0719 -0.0687,14.94896 c -0.0378,8.22193 -0.0118,15.09779 0.0578,15.27969 0.0951,0.24856 1.3775,0.33073 5.16193,0.33073 h 5.03539 z m 16.99028,5.47601 0.0753,-9.87554 0.6376,-0.93009 c 1.10703,-1.61487 2.2468,-2.20529 4.25719,-2.20529 2.01039,0 3.15016,0.59042 4.25719,2.20529 l 0.6376,0.93009 0.0754,9.88122 0.0754,9.88122 5.08401,-0.0718 5.08401,-0.0718 0.0729,-9.525 c 0.0443,-5.79236 -0.0374,-10.24423 -0.20851,-11.36034 -0.61494,-4.01117 -3.10261,-7.32133 -6.84546,-9.10876 -1.87951,-0.89757 -2.18343,-0.96215 -4.52827,-0.96215 -2.27089,0 -2.68342,0.0805 -4.27316,0.83368 -0.96778,0.45852 -2.36677,1.4189 -3.10885,2.13417 l -1.34924,1.3005 v -1.94145 -1.94145 l -5.09323,0.0719 -5.09323,0.0719 -0.0687,14.94896 c -0.0378,8.22193 -0.0118,15.09779 0.0578,15.27969 0.0951,0.24853 1.37566,0.33073 5.15272,0.33073 h 5.02619 z m -19.50382,-27.10084 c 3.83427,-1.88529 4.57499,-7.228651 1.38974,-10.025302 -1.26403,-1.1098202 -2.55403,-1.49724 -4.56007,-1.36951 -3.08078,0.1961698 -5.18489,2.300281 -5.38106,5.381072 -0.1269,1.99281 0.25927,3.29557 1.34263,4.52945 1.77222,2.01844 4.83841,2.64978 7.20876,1.48429 z"
       id="path834" />
  </g>
</svg>
