<?xml version="1.0" encoding="UTF-8" standalone="no"?>
<!-- Created with Inkscape (http://www.inkscape.org/) -->

<svg
   width="68.629723mm"
   height="68.778221mm"
   viewBox="0 0 68.629723 68.778222"
   version="1.1"
   id="svg5"
   sodipodi:docname="net_github.svg"
   inkscape:version="1.1.2 (b8e25be833, 2022-02-05)"
   xmlns:inkscape="http://www.inkscape.org/namespaces/inkscape"
   xmlns:sodipodi="http://sodipodi.sourceforge.net/DTD/sodipodi-0.dtd"
   xmlns="http://www.w3.org/2000/svg"
   xmlns:svg="http://www.w3.org/2000/svg">
  <sodipodi:namedview
     id="namedview7"
     pagecolor="#ffffff"
     bordercolor="#999999"
     borderopacity="1"
     inkscape:pageshadow="0"
     inkscape:pageopacity="0"
     inkscape:pagecheckerboard="0"
     inkscape:document-units="mm"
     showgrid="false"
     inkscape:snap-page="false"
     inkscape:zoom="0.37014941"
     inkscape:cx="-495.74576"
     inkscape:cy="629.47554"
     inkscape:window-width="1920"
     inkscape:window-height="1017"
     inkscape:window-x="-8"
     inkscape:window-y="-8"
     inkscape:window-maximized="1"
     inkscape:current-layer="layer1"
     fit-margin-top="0.6"
     fit-margin-left="0.6"
     fit-margin-right="0.6"
     fit-margin-bottom="0.6"
     lock-margins="true" />
  <defs
     id="defs2" />
  <g
     inkscape:label="Capa 1"
     inkscape:groupmode="layer"
     id="layer1"
     transform="translate(-6.7584846,-7.1824931)">
    <path
       style="fill:#dfefd4;stroke-width:0.264583;fill-opacity:1"
       d="m 35.781678,75.053073 c -4.51022,-0.72359 -9.673665,-2.74015 -13.361459,-5.21827 -4.80482,-3.22873 -9.073708,-8.02833 -11.577306,-13.01662 -2.4972701,-4.975677 -3.4844281,-9.248277 -3.4844281,-15.08125 0,-4.612079 0.349736,-6.856141 1.681078,-10.786581 3.6248601,-10.70144 12.5739951,-19.12103 23.4339951,-22.0473403 15.17418,-4.08879 31.519661,3.2990503 38.692121,17.4880903 2.64638,5.23525 3.62253,9.370418 3.62253,15.345831 0,4.690483 -0.3815,7.068273 -1.76171,10.980213 -4.00022,11.337887 -13.76491,19.836757 -25.387851,22.096747 -3.18255,0.61883 -8.78604,0.73186 -11.85697,0.23918 z m 10.64948,-4.04844 0.72761,-0.28273 -0.002,-4.30603 c -0.002,-6.12849 -0.17207,-6.91403 -2.10596,-9.73757 -0.87811,-1.28217 -1.59662,-2.45983 -1.59662,-2.61703 0,-0.15719 0.24919,-0.2858 0.55375,-0.2858 0.30456,0 1.756,-0.245 3.22543,-0.54445 7.692021,-1.567537 11.858461,-6.058267 11.870191,-12.794112 0.005,-2.986463 -0.64921,-5.226029 -2.2034,-7.540589 -0.90196,-1.34323 -1.09671,-1.84335 -1.02299,-2.62695 0.0501,-0.53232 0.10313,-2.15848 0.11789,-3.61369 l 0.0268,-2.64583 -0.66146,0.0876 c -0.3638,0.0482 -1.67349,0.63017 -2.91042,1.29329 -1.23692,0.66311 -2.56718,1.37195 -2.956111,1.5752 -0.61951,0.32373 -1.03458,0.30281 -3.34886,-0.16881 -3.39428,-0.69171 -6.74995,-0.69171 -10.14423,0 -2.31427,0.47162 -2.72935,0.49254 -3.34885,0.16881 -0.38894,-0.20325 -1.71919,-0.91209 -2.95612,-1.5752 -1.236924,-0.66312 -2.546612,-1.2451 -2.910414,-1.29329 l -0.661458,-0.0876 0.02684,2.64583 c 0.01476,1.45521 0.06772,3.07818 0.117692,3.6066 0.07305,0.77248 -0.131503,1.30206 -1.043722,2.70219 -1.582577,2.429031 -2.189173,4.505269 -2.183157,7.472439 0.01366,6.737095 4.179255,11.226655 11.870879,12.794112 1.46942,0.29945 2.92086,0.54445 3.22543,0.54445 0.30456,0 0.55375,0.12861 0.55375,0.2858 0,0.1572 -0.71851,1.33486 -1.59668,2.61703 -1.27173,1.85677 -1.64835,2.6467 -1.85055,3.88138 -0.36034,2.20026 -0.33404,10.07025 0.0344,10.29796 1.02812,0.63541 9.604,0.74845 11.15187,0.14699 z m -15.20396,-3.93385 -0.0757,-2.57969 -1.37385,0.0894 c -1.728225,0.11239 -3.900129,-0.50801 -5.281445,-1.50863 -0.585905,-0.42442 -1.688771,-1.62891 -2.450814,-2.67662 -1.04274,-1.43364 -1.675081,-2.03301 -2.555859,-2.42262 -1.143726,-0.50593 -1.170408,-0.54598 -1.173938,-1.76208 -0.002,-0.68442 -0.08,-1.52985 -0.17336,-1.87875 -0.163921,-0.61258 -0.129387,-0.6298 1.006429,-0.50178 2.31806,0.26129 4.558599,1.8964 6.474456,4.72497 1.215957,1.79524 3.174278,2.52896 4.948961,1.85423 0.4664,-0.17733 0.69784,-0.52369 0.83365,-1.24763 0.10341,-0.55118 0.35698,-1.3289 0.5635,-1.72826 l 0.37548,-0.72611 -1.27129,-0.37754 c -4.975077,-1.47744 -9.113709,-5.194107 -10.946235,-9.830187 -0.73282,-1.85395 -0.851411,-2.511822 -0.955473,-5.300324 -0.08997,-2.410838 -0.01259,-3.599029 0.318748,-4.894792 0.476309,-1.862678 1.888564,-5.122628 2.404804,-5.551068 0.233784,-0.19402 0.2863,-1.08929 0.190817,-3.25297 -0.159017,-3.60341 0.268272,-5.46231 1.533814,-6.67278 0.741436,-0.70918 0.982727,-0.78321 2.457099,-0.75385 1.803669,0.0359 3.331036,0.56557 6.000546,2.08087 l 1.71979,0.9762 2.52509,-0.42033 c 3.20646,-0.53376 6.29545,-0.53376 9.50191,0 l 2.52509,0.42033 1.719791,-0.9762 c 2.66951,-1.5153 4.19688,-2.04496 6.00055,-2.08087 1.47437,-0.0294 1.71566,0.0447 2.4571,0.75385 1.26554,1.21047 1.69283,3.06937 1.53381,6.67278 -0.0955,2.16368 -0.043,3.05895 0.19082,3.25297 0.51624,0.42844 1.92849,3.68839 2.4048,5.551068 0.33134,1.295763 0.40872,2.483954 0.31875,4.894792 -0.10406,2.788502 -0.22265,3.446374 -0.95547,5.300324 -1.83253,4.63608 -5.97116,8.352747 -10.94624,9.830187 l -1.27129,0.37754 0.46432,0.84926 c 0.39256,0.71801 0.47744,1.71813 0.54928,6.47165 0.0621,4.11163 0.16928,5.6224 0.39873,5.6224 0.74914,0 5.8698,-2.7727 7.78274,-4.21414 14.6328,-11.02614 16.02064,-32.011101 2.97597,-44.998361 -11.67511,-11.6237203 -30.124291,-11.6237203 -41.799408,0 -13.0446701,12.98726 -11.6568271,33.972221 2.975971,44.998361 1.948257,1.46806 7.038276,4.21414 7.811136,4.21414 0.26162,0 0.32435,-0.6073 0.26645,-2.57969 z"
       id="path21" />
  </g>
</svg>
