<svg xmlns="http://www.w3.org/2000/svg" xmlns:xlink="http://www.w3.org/1999/xlink" viewBox="0 0 252.51 406"><defs><style>.cls-1,.cls-7{fill:#faebd6;}.cls-1,.cls-10,.cls-43{stroke:#72390d;}.cls-1,.cls-10,.cls-11,.cls-26,.cls-4,.cls-42,.cls-43{stroke-miterlimit:10;}.cls-1,.cls-10,.cls-26,.cls-4,.cls-42,.cls-43{stroke-width:0.5px;}.cls-2,.cls-29{fill:#030202;}.cls-3{fill:#e4e4e4;}.cls-23,.cls-4{fill:#586da8;}.cls-26,.cls-4{stroke:#080919;}.cls-10,.cls-11,.cls-26,.cls-5{fill:none;}.cls-6{fill:#0b0b0c;}.cls-8{clip-path:url(#clip-path);}.cls-43,.cls-9{fill:#c2714e;}.cls-11{stroke:#030202;}.cls-12{clip-path:url(#clip-path-2);}.cls-13{clip-path:url(#clip-path-3);}.cls-14{fill:#72390d;}.cls-15{clip-path:url(#clip-path-4);}.cls-16{clip-path:url(#clip-path-5);}.cls-17{fill:#9b9b9b;}.cls-18{fill:#626262;}.cls-19{clip-path:url(#clip-path-6);}.cls-20{fill:#b0b0b0;}.cls-21{opacity:0.8;}.cls-22{clip-path:url(#clip-path-7);}.cls-24{clip-path:url(#clip-path-8);}.cls-25{fill:#131b2b;}.cls-27{fill:#08080a;}.cls-28{clip-path:url(#clip-path-9);}.cls-29{opacity:0.9;}.cls-30{opacity:0.08;}.cls-31,.cls-42{fill:#fff;}.cls-32{fill:#010102;}.cls-33{fill:#414042;}.cls-34{fill:#120f0e;}.cls-35{fill:#14a5dc;}.cls-36{fill:#010002;}.cls-37{fill:#00d8f5;}.cls-38{fill:#404041;}.cls-39{clip-path:url(#clip-path-10);}.cls-40{clip-path:url(#clip-path-11);}.cls-41{fill:#171519;}.cls-42{stroke:#171519;}.cls-44{clip-path:url(#clip-path-12);}.cls-45{clip-path:url(#clip-path-13);}</style><clipPath id="clip-path"><path class="cls-1" d="M223.05,170.19a25,25,0,0,0-6.81,3.26c-2.81,2.08-3.75,2.62-4.18,4.51s-3.12,6.63-3.94,7.65-1.7,2.17,1.72,2.23c5,.09,5.63-4.75,7.28-6.9a8.45,8.45,0,0,1,4.14-2.8s-.86,8.5-2,11.18-3.75,7-1.54,7.61c1.81.49,3.42-.9,5.29-6.11s2.95-6.37,2.95-6.37a23.49,23.49,0,0,1-.18,7.22c-.55,2.74-4.56,10.24-4.23,11.9s-.41,2.34,1.66,2.21,2.28-1.15,2.28-1.15,2.13,2,3.35-.13c.21-.37.67-1,1.15-1.8,2-3.08,4.68-11.53,5-12.58.41-1.31,1.11,3.79.32,5.73s-.91,9.28,0,9.42,2,.43,2.43-1.45.89-5.49,1.16-7.75,1.12-7.06,0-9.06,2.78-12.89,2.78-12.89,2.13-7.94-3.95-8.43-12.26-2.16-12.8-.29A43,43,0,0,1,223.05,170.19Z"/></clipPath><clipPath id="clip-path-2"><path class="cls-2" d="M142,70.35s-19.57,2.76-22.32,3.7-38.21,42.62-38.21,42.62-4,15.31-2.32,16.9,1.73,4.61,5.21,3.62a91.38,91.38,0,0,0,9.53-3.37,129.34,129.34,0,0,0,13-6.54l20.36-17.65Z"/></clipPath><clipPath id="clip-path-3"><path class="cls-7" d="M92.23,101.52s1.67-5.14,3-6.68,7.77-6.34,8.95-6.58,10.83,2,11.56,2.58,1.83,6.18,1.83,6.75a13.52,13.52,0,0,1-4.13,3c-.66.73-.55,1.47-1.28,2.32-.31,1.39-5.72,3.42-6,3.45-1.18.12-2.56,3.27-2.56,3.27s-4.82,1.91-7.78-.08S92.23,101.52,92.23,101.52Z"/></clipPath><clipPath id="clip-path-4"><path class="cls-7" d="M118.86,98.54s-1.84-1.79-4.91.92-2.8,3.83-1.88,4.67,5.8-1.12,6.79-2.06A2.21,2.21,0,0,0,118.86,98.54Z"/></clipPath><clipPath id="clip-path-5"><path class="cls-5" d="M90.05,98.93c-1.12.36-13.7,19.21-13.7,19.21S71,134,75.15,135.94s13.53,2.59,20.13-3c5.13-9.68,9.31-23.31,9.31-23.31s-13.36,2.71-12.85-8.49C92.08,101.19,91.18,98.56,90.05,98.93Z"/></clipPath><clipPath id="clip-path-6"><path class="cls-3" d="M76.35,355.62s-.73,10.55-7,15.51-3,2.12-3,2.12-7.26,3.24-7.17,6.26a79,79,0,0,0,1.26,9s3.63,4.44,8.48,4.36,11.69.93,14.16-2.95a69.33,69.33,0,0,1,6.25-8s-.32-2.3,1.6-2.94,2.22,1.49,2.22,1.49,8.08-3.28,9.19-4.94-.11-11.58-.11-11.58Z"/></clipPath><clipPath id="clip-path-7"><path id="zapato_I" data-name="zapato I" class="cls-3" d="M220.68,369.12v15.35s-1.58,1.77-2.82,3a4.35,4.35,0,0,0-1.24,2.82v8.65s3.36,5.3,9.71,5.47,11.65-.35,15.88-4.06,3.18-3.17,3.18-3.17l.12-9.53a1.59,1.59,0,0,1-1.89-.87c-.52-1.25,0-16.78,0-16.78S231.1,357.65,220.68,369.12Z"/></clipPath><clipPath id="clip-path-8"><path class="cls-4" d="M125.29,160.47S102.74,204.32,97.48,214c-6.08,11.22-12.93,36-15.45,42s-6.72,10.63-6.91,15.1,1.34,8.43,2.13,16.38,1.19,48.6-.19,51.33-4.79,4.83-4.59,10.12c.07,1.91,2.85,2.18,2.18,5.16s-3,6-.89,6.72,7-2.13,14.59.36,13.83,3.89,15.18,2.7c3.38-3-.46-10.15.94-11.64s4.62-6.45,3.18-9.18-3.57-5.94-3.61-9.66c0-2.19,2.64-8.79,4.72-15.26,1.46-4.55,3.15-23.1,2.53-27.79a121.81,121.81,0,0,1-1.11-15.53c0-3.29-3.65-2.13-2.74-5.11s15.72-26.61,20.66-34.31,15-27.19,16.2-27.19c.11,0,1.67-.28,1.89.34,2.23,6.34,7.9,43.13,15.26,54.17,8.07,12.1,9.58,20.48,12.62,24.4s19.27,23.55,24.87,35.47,12.58,26.51,12.12,32.47-2.21,9.41,1.53,12.76,7.29,11.47,7.29,11.47,1.85-9.29,8.9-9.48,14.79,4.48,14.65,7.84c1.39-1.68,1.5-5.33-.08-8.36-2.19-4.19,4.3-6.76,4-10.65-.19-2.6-9.63-8.72-10.9-11.7s-9.47-39.49-10.94-44.7-12-15.12-15-17.36-3-8.13-4.39-10.17-7.16-3.24-8.09-7-11-62.39-12.72-78-.36-17.37-.36-17.37l-48.24-5.43Z"/></clipPath><clipPath id="clip-path-9"><path class="cls-5" d="M146.31,75.2S158.88,89,173.36,74l21.37,2-18.6,72.77-3.54,24.6a155,155,0,0,1-28.29-.69c-13.88-1.82-16.52-1.46-21-5.15s-5.94-16.14-3.12-30.6,14.72-42.79,16.44-47.15c1-2.44,2.34-6.94,4.72-10.26C143.24,77,146.14,74.09,146.31,75.2Z"/></clipPath><clipPath id="clip-path-10"><path id="Bazo_I" data-name="Bazo I" class="cls-6" d="M215.29,170.69s9.12-1.34,15.46.94c5.51,2,8.23,7.64,9.85,7.54,4-11.94,2.32-37.17,1.19-44.61-.62-4.08-7.62-16.45-7.62-16.45s-28.25,1.14-24,15.58c6,13.31,4.79,10.13,6.43,14.47S221.71,160.74,215.29,170.69Z"/></clipPath><clipPath id="clip-path-11"><path class="cls-5" d="M177.19,66.21c-1.33,0-3.25,4.39-6.29,8.91-1.51,4.4-7.5,89.18-9.22,115.88-.29,4.56-1.26,6.64-.46,7.22s2.92-.72,6.67-1.75c4.88-1.34,19.21-7.71,22.32-9.21,5.5-2.66,1.78-35,2.49-36.37s1.34-3.12.58-4.39,2.62-31.42,2.62-31.42-10.9-12.5-5-24.66S199.36,75,199.36,75L183,72.87s-1.51-1.21-3.25-2.55S178.53,66.22,177.19,66.21Z"/></clipPath><clipPath id="clip-path-12"><path class="cls-5" d="M158.84,57.06s0-1.61-3.35-2.37a15.06,15.06,0,0,0-5.43-.39l.32,1.57"/></clipPath><clipPath id="clip-path-13"><path class="cls-5" d="M172.2,52.56l-.71-1.68c-2.42.33-5.25,4-5.25,4"/></clipPath></defs><g id="Frame4"><g id="Frame_1" data-name="Frame 1"><path id="Zapato_I-2" data-name="Zapato I" d="M214.26,173.17s12.36,12,23.83,6C235.64,166.88,216.17,163.64,214.26,173.17Z"/><g id="Mano_I" data-name="Mano I"><path class="cls-7" d="M223.05,170.19a25,25,0,0,0-6.81,3.26c-2.81,2.08-3.75,2.62-4.18,4.51s-3.12,6.63-3.94,7.65-1.7,2.17,1.72,2.23c5,.09,5.63-4.75,7.28-6.9a8.45,8.45,0,0,1,4.14-2.8s-.86,8.5-2,11.18-3.75,7-1.54,7.61c1.81.49,3.42-.9,5.29-6.11s2.95-6.37,2.95-6.37a23.49,23.49,0,0,1-.18,7.22c-.55,2.74-4.56,10.24-4.23,11.9s-.41,2.34,1.66,2.21,2.28-1.15,2.28-1.15,2.13,2,3.35-.13c.21-.37.67-1,1.15-1.8,2-3.08,4.68-11.53,5-12.58.41-1.31,1.11,3.79.32,5.73s-.91,9.28,0,9.42,2,.43,2.43-1.45.89-5.49,1.16-7.75,1.12-7.06,0-9.06,2.78-12.89,2.78-12.89,2.13-7.94-3.95-8.43-12.26-2.16-12.8-.29A43,43,0,0,1,223.05,170.19Z"/><g class="cls-8"><path class="cls-9" d="M209.17,188.42s3.46-.75,5.76-6.68,2.5-9.09,2.5-9.09l4.35-2.66,2.92-6,4.33-.53s7.45.89,10.44,2.1a3.89,3.89,0,0,1,1,.54c.79.7,1.79,4.1,2.14,5.8.16.79.17,1.21,0,.84-.45-.79-2,9.26-2.56,8.69-.81-.78-1.87-5-6-6.93-3.67-1.75-5.5-2.41-7.28-1.58-2.35,1.1-3.19,4.84-3.39,6.1a44.51,44.51,0,0,1-4.29,13.89c-.69,1.38-1.54,3-1,3.4,1.49,1.17,3.8-.89,3.8-.89l-2.5,2.53-4.19-.86L219,185.14l.57-5-5.38,6.62Z"/><path class="cls-9" d="M225.53,185l2.11-3.25a38.1,38.1,0,0,1,.52,7.83,24.85,24.85,0,0,1-3.08,9c-1.64,3-3.51,6-1.91,7.19s-4.34,2.68-4.91,1.72,2.82-7.1,2.82-7.1a15.72,15.72,0,0,1,1.11-3.39C222.72,196.23,225.53,185,225.53,185Z"/><path class="cls-9" d="M232,184.17,229,196s-4.67,8.62-3.7,9.35a1.75,1.75,0,0,0,2.05-.14s-1.23-.39.41-3.78S232.72,188.41,232,184.17Z"/><path class="cls-9" d="M234.71,194l.35-5.46s2.1,3.09,1.94,5c-.27,3.12-2.36,11.44-.95,12.77-.2.92-1.69-.26-1.69-.26l-1.72-3.29Z"/><path class="cls-1" d="M225.45,204.63s3.41-8.81,4-10.73,2.6-9.73,2.6-9.73"/></g><path class="cls-10" d="M223.05,170.19a25,25,0,0,0-6.81,3.26c-2.81,2.08-3.75,2.62-4.18,4.51s-3.12,6.63-3.94,7.65-1.7,2.17,1.72,2.23c5,.09,5.63-4.75,7.28-6.9a8.45,8.45,0,0,1,4.14-2.8s-.86,8.5-2,11.18-3.75,7-1.54,7.61c1.81.49,3.42-.9,5.29-6.11s2.95-6.37,2.95-6.37a23.49,23.49,0,0,1-.18,7.22c-.55,2.74-4.56,10.24-4.23,11.9s-.41,2.34,1.66,2.21,2.28-1.15,2.28-1.15,2.13,2,3.35-.13c.21-.37.67-1,1.15-1.8,2-3.08,4.68-11.53,5-12.58.41-1.31,1.11,3.79.32,5.73s-.91,9.28,0,9.42,2,.43,2.43-1.45.89-5.49,1.16-7.75,1.12-7.06,0-9.06,2.78-12.89,2.78-12.89,2.13-7.94-3.95-8.43-12.26-2.16-12.8-.29A43,43,0,0,1,223.05,170.19Z"/></g><g id="Antebrazo_D" data-name="Antebrazo D"><path class="cls-11" d="M140.94,72.25s-18.56.86-21.31,1.8-38.21,42.62-38.21,42.62-4,15.31-2.32,16.9,1.73,4.61,5.21,3.62a91.38,91.38,0,0,0,9.53-3.37,129.34,129.34,0,0,0,13-6.54l20.36-17.65Z"/><path class="cls-2" d="M142,70.35s-19.57,2.76-22.32,3.7-38.21,42.62-38.21,42.62-4,15.31-2.32,16.9,1.73,4.61,5.21,3.62a91.38,91.38,0,0,0,9.53-3.37,129.34,129.34,0,0,0,13-6.54l20.36-17.65Z"/><g class="cls-12"><polygon class="cls-6" points="97.92 127.62 106.39 119 126.21 75.31 138.81 71.07 121.58 68.87 86.56 107.69 85.92 129.42 97.92 127.62"/></g></g><g id="BazoComp_D" data-name="BazoComp D"><path id="Manga_D" data-name="Manga D" d="M90.46,99.55s13.39,1.29,14.13,10.1S87.35,111.12,90.46,99.55Z"/><path class="cls-7" d="M92.23,101.52s1.67-5.14,3-6.68,7.77-6.34,8.95-6.58,10.83,2,11.56,2.58,1.83,6.18,1.83,6.75a13.52,13.52,0,0,1-4.13,3c-.66.73-.55,1.47-1.28,2.32-.31,1.39-5.72,3.42-6,3.45-1.18.12-2.56,3.27-2.56,3.27s-4.82,1.91-7.78-.08S92.23,101.52,92.23,101.52Z"/><g class="cls-13"><path class="cls-9" d="M96,109.94s2.61-2.1,2.41-4.35A13.27,13.27,0,0,1,99,101s4.48,3.32,5.12,2.59,1.52-3.67,2.41-3.62,3.74-1.39,3.59-3c.43.08,2.68-1.6,2.3-3.2.4-.12,5,2.66,5,2.66l1.55,4.3-11.05,7.72-8,4.62Z"/></g><path class="cls-14" d="M103.15,103.32a28.09,28.09,0,0,0-3.74-1.72v-.45a28.72,28.72,0,0,1,3.94,1.77Z"/><path class="cls-14" d="M104.31,105.33a3.69,3.69,0,0,1-2-.73,5.3,5.3,0,0,1-1.54-1.81,5.69,5.69,0,0,1-2.33.92l-.12-.44c1.1-.22,2.28-.7,2.25-1h0l.46,0h0a4.26,4.26,0,0,0,1.55,2,3,3,0,0,0,2.45.57c1.51-.3,1.75-3,1.85-4.17l0-.29c.05-.5-2.41-2.39-4.72-3.86l.23-.38c1.19.76,5,3.3,5,4.31l0,.28c-.11,1.25-.36,4.19-2.19,4.55A3.86,3.86,0,0,1,104.31,105.33Z"/><path class="cls-14" d="M107.21,104.46a7.86,7.86,0,0,1-1-.11l0-.44c1.79.29,2.27,0,2.73-.33a4.19,4.19,0,0,1,.52-.29c.58-.25,1.26-5,1-5.86-.15-.49-3.05-2.38-5.78-3.92l.22-.39c1,.55,5.73,3.29,6,4.21s-.24,6-1.23,6.38a3.14,3.14,0,0,0-.44.25A2.89,2.89,0,0,1,107.21,104.46Z"/><path class="cls-14" d="M110.39,103l-.19-.42c2.71-1,2.76-2.55,2.76-2.57.18-1.85.33-4.81,0-5.44s-3.77-2.39-5.89-3.38l.18-.4c.94.44,5.66,2.67,6.13,3.61s.07,5.18,0,5.66C113.42,100.11,113.39,101.87,110.39,103Z"/><path class="cls-14" d="M98.69,110.65a6,6,0,0,1-3-.93c-3-2-3.63-8-3.66-8.2v-.08c.07-.21,1.7-5.2,3-6.75s7.77-6.38,9.08-6.65c1.14-.24,10.92,1.95,11.77,2.63s1.91,6.48,1.91,6.93-2.19,2.1-4.2,3.15a3,3,0,0,0-.54,1,4.05,4.05,0,0,1-.69,1.25c-.46,1.56-5.93,3.54-6.17,3.56-.77.08-1.87,2-2.38,3.15l0,.08-.08,0A12.86,12.86,0,0,1,98.69,110.65Zm-6.23-9.1c.06.55.75,6,3.44,7.8s6.84.31,7.47.08c.26-.57,1.5-3.19,2.7-3.32.38-.07,5.54-2,5.81-3.29l.05-.09a3.47,3.47,0,0,0,.64-1.16,3.29,3.29,0,0,1,.64-1.16l.06,0a15.49,15.49,0,0,0,4-2.84c0-.64-1.14-6-1.75-6.52s-10.15-2.78-11.36-2.53-7.56,5-8.83,6.5S92.63,101.05,92.46,101.55Z"/><path class="cls-7" d="M118.86,98.54s-1.84-1.79-4.91.92-2.8,3.83-1.88,4.67,5.8-1.12,6.79-2.06A2.21,2.21,0,0,0,118.86,98.54Z"/><g class="cls-15"><path class="cls-9" d="M118.49,102.36s-5,1.08-4.76-.14S117,97.94,117,97.94a4.26,4.26,0,0,0-4.48,1c-1.94,2-2,6.56-2,6.56l3.44.66Z"/></g><path class="cls-14" d="M112.7,104.55a1.23,1.23,0,0,1-.78-.26,1.87,1.87,0,0,1-.7-1.32c0-.94.79-2.11,2.57-3.68,3-2.67,5-1.11,5.21-.92a2.2,2.2,0,0,1,1,1.57,2.85,2.85,0,0,1-.93,2.3A13,13,0,0,1,112.7,104.55Zm4.66-6.37a4.64,4.64,0,0,0-3.24,1.45c-1.66,1.47-2.45,2.56-2.43,3.36a1.33,1.33,0,0,0,.54,1c.73.67,5.45-1.11,6.47-2.06a2.44,2.44,0,0,0,.8-2,1.67,1.67,0,0,0-.77-1.24l0,0A2.24,2.24,0,0,0,117.36,98.18Z"/><g id="Brazo_D" data-name="Brazo D"><path class="cls-2" d="M90.05,98.93c-1.12.36-13.7,19.21-13.7,19.21S71,134,75.15,135.94s13.53,2.59,20.13-3c5.13-9.68,9.31-23.31,9.31-23.31s-13.36,2.71-12.85-8.49C92.08,101.19,91.18,98.56,90.05,98.93Z"/><g class="cls-16"><path class="cls-6" d="M74.14,137.42s3.5-10.21,7.9-15,5.92-12.17,8.46-13c1.75-.56,1.8-1.29,1.8-1.29a5.26,5.26,0,0,1-1-4.43c.51-3.84-2.16-8.37-2.16-8.37l-14.94,23-2.71,15.16Z"/></g></g></g><g id="Chaqueta_D" data-name="Chaqueta D"><path class="cls-2" d="M132.41,92.42l-4.32,9.5s-18.68,82.59-16.43,84.38,2.78,1.6,6.85-.72S132.41,92.42,132.41,92.42Z"/><path class="cls-17" d="M147.86,57.43s-12.65,4.76-13.53,16.38c-.51,6.77-23.23,112.49-19.94,112.49S134.64,169,134.64,169L147.53,68.73Z"/><path class="cls-18" d="M134.64,169s-14.68,15.9-13.76,9.25,5.9-45.58,5.9-45.58,6.68-24,8.78-34.19,1.77-19.51,5-25.15a26.39,26.39,0,0,1,8-8.92Z"/></g><path class="cls-9" d="M164.54,71.68,151.33,73l-5.75-6a59.23,59.23,0,0,1,.54,8.26c-.07,1.25-2.59,8-2.59,8,7.7,5.38,14.23,2.87,18.43,1.6,5.46-1.66,8.89-9.41,8.89-9.41l-2.36-9.76Z"/><path class="cls-10" d="M150.77,86.22s-4.94-17.92-6.18-20.53"/><g id="zapato_D" data-name="zapato D"><path class="cls-3" d="M76.35,355.62s-.73,10.55-7,15.51-3,2.12-3,2.12-7.26,3.24-7.17,6.26a79,79,0,0,0,1.26,9s3.63,4.44,8.48,4.36,11.69.93,14.16-2.95a69.33,69.33,0,0,1,6.25-8s-.32-2.3,1.6-2.94,2.22,1.49,2.22,1.49,8.08-3.28,9.19-4.94-.11-11.58-.11-11.58Z"/><g class="cls-19"><path class="cls-20" d="M58.53,375.8s1.43,5.63,4.12,6.91a34.69,34.69,0,0,0,5.64,2s3.61,9.07,5,9.53-9.59.86-9.59.86l-6.49-5.71Z"/><path class="cls-20" d="M83,392.5l-1.66-11.91-1.22-1.54S92,367.56,92.27,359.7s16,3.07,16,3.07l-.21,14.09-13.28,9.26Z"/><path class="cls-6" d="M64.64,371s-4.08,7.58-.71,9.3,11.05,3.16,13.86.87,14.12-12.39,14.48-22.62-19.4-4.26-19.4-4.26S72.77,368.4,64.64,371Z"/><path class="cls-21" d="M105.79,379.83S87.19,391.41,76.52,397c-4.22,2.21-15.87-6-16-6.7s10.48,3.46,19-.53c4.4-2.07,8.78-6.55,12.11-9.2,7.53-6,10.59-5.73,8.36-9.71-6.38.09-24,.31-29.22,3-6.09,3.18-13,7.82-13,7.82L56,376.65l9-10.27,9.45-13.86,28.44,8.58,5.37,5.06Z"/></g></g><path id="zapato_I-3" data-name="zapato I" class="cls-3" d="M220.68,369.12v15.35s-1.58,1.77-2.82,3a4.35,4.35,0,0,0-1.24,2.82v8.65s3.36,5.3,9.71,5.47,11.65-.35,15.88-4.06,3.18-3.17,3.18-3.17l.12-9.53a1.59,1.59,0,0,1-1.89-.87c-.52-1.25,0-16.78,0-16.78S231.1,357.65,220.68,369.12Z"/><g class="cls-22"><path class="cls-6" d="M219.45,367.18v18.64s-1.06,9.06,9.35,8.71,12.88-3.53,15.71-10.19c1.25-2.95-.89-18.4-.89-18.4s-6.35-3.08-12.55-3C225.49,363,220,366.17,219.45,367.18Z"/><path class="cls-21" d="M216.62,386.59c4.06,0,7.77.62,8.48-2.25a30.65,30.65,0,0,0,.7-6.22s-.59-3.88,5.27-4.24,13.44,7.94,13.44,7.94l2.29-10.76-9.53-9.35s-14.65-1.59-14.82-1.06S216.62,386.59,216.62,386.59Z"/><path class="cls-20" d="M216.62,388.53s.95,7.53,7.45,8.82a17.67,17.67,0,0,0,4.2.36l.53,8.29-12.18-1.56L213.8,397Z"/><path class="cls-20" d="M240.8,402.65l.18-8.12s3.59-1.59,4.53-8.47c3.94,4.41,2.35,12.7,2.35,12.7Z"/><path class="cls-21" d="M214.15,393.82s7.06,10.94,18.36,8.65,15-8.82,15-8.82l-2,7.23s-5.41,6.53-6.47,6.53S223.86,406,221.74,406s-6.88-6.22-6.88-6.22Z"/></g><g id="Piernas"><g id="Piernas-2" data-name="Piernas"><path class="cls-23" d="M125.29,160.47S102.74,204.32,97.48,214c-6.08,11.22-12.93,36-15.45,42s-6.72,10.63-6.91,15.1,1.34,8.43,2.13,16.38,1.19,48.6-.19,51.33-4.79,4.83-4.59,10.12c.07,1.91,2.85,2.18,2.18,5.16s-3,6-.89,6.72,7-2.13,14.59.36,13.83,3.89,15.18,2.7c3.38-3-.46-10.15.94-11.64s4.62-6.45,3.18-9.18-3.57-5.94-3.61-9.66c0-2.19,2.64-8.79,4.72-15.26,1.46-4.55,3.15-23.1,2.53-27.79a121.81,121.81,0,0,1-1.11-15.53c0-3.29-3.65-2.13-2.74-5.11s15.72-26.61,20.66-34.31,15-27.19,16.2-27.19c.11,0,1.67-.28,1.89.34,2.23,6.34,7.9,43.13,15.26,54.17,8.07,12.1,9.58,20.48,12.62,24.4s19.27,23.55,24.87,35.47,12.58,26.51,12.12,32.47-2.21,9.41,1.53,12.76,7.29,11.47,7.29,11.47,1.85-9.29,8.9-9.48,14.79,4.48,14.65,7.84c1.39-1.68,1.5-5.33-.08-8.36-2.19-4.19,4.3-6.76,4-10.65-.19-2.6-9.63-8.72-10.9-11.7s-9.47-39.49-10.94-44.7-12-15.12-15-17.36-3-8.13-4.39-10.17-7.16-3.24-8.09-7-11-62.39-12.72-78-.36-17.37-.36-17.37l-48.24-5.43Z"/><g class="cls-24"><path class="cls-25" d="M131.9,239.37s4-26.66,3.51-33.37-13.13-15.61-18.36-14.12-10.33,14.09-14.24,22C99.46,220.7,89,249.75,84.94,259.75c-.7,1.7-6.82,8,2.91,10.13,1.42.32,7.38,2.54,6.5,5.53-1.42,4.85-10.94,8.35-11,13.82,0,3.75,13.61,44.08,11.09,50.53-1.21,3.1-7.43,4.79-12.35,4.48-5.34-.34-9.4-2.78-10.54-1.89-2.19,1.72,4,3.21,8.3,4.94s14.94,5.58,15.53,6.95c1.2,2.79-3.17,11.64-3.17,11.64l-21.62-4.72-1-22.05,3.68-7.7.64-49.13-7-15.15s8.07-15,8.78-14.93,24.51-61.75,24.51-61.75l7.87-12.17,14.94-21s38.69,7.29,49.2,11.91c3.08,1.36,1,4.54-5,5.61-12.16,2.17-35.94,2.41-34.37,8.48,1.11,4.28,12.91,6.76,14.72,9,6.05,7.7,5,21.28,9.41,35.53.67,2.18,21.29,47.35,22.59,50.36,1.53,3.52,5,3.49,8.12,2,2.18-1,7.2-2.39,8.82.58.73,1.34-.13,17.46,1.06,22.12s14.44,33.56,19.17,36c4.51,2.3,1,7.69-.82,11.67s-7.76,10.82-7.76,10.82l.26,2.12s4.89,3,6.44.71c3-4.41,6.89-9.85,9.89-10.83,2-.64,8.2-.53,11,2.12,3.73,3.46,3.79,9.83,2.46,10-2.35.25-8.95-4.85-13.75.85-.62.74-1.75,2.51-.12,2.94,2.81.75,9.35.06,8.71,1.42-1.87,4-15.28,9.47-15.28,9.47l-9.85-5.73-17.34-41.26L145.25,233.08Z"/><path class="cls-25" d="M238.22,350.51s-25-26.79-28.46-32.75c7.49,6.9,15.3,17.68,24.45,16S238.22,350.51,238.22,350.51Z"/><path class="cls-25" d="M107.41,338.94s-9-9-15.65-31.18c4,8.57,9.33,18.34,16.24,20.95C109.45,332.06,107.41,338.94,107.41,338.94Z"/><path class="cls-25" d="M109.06,266.24s-3,5-2.59,7.41,4.69,2.21,6.18,1.41c1.2-.65,1-4.87,1-4.87Z"/></g><path class="cls-26" d="M125.29,160.47S102.74,204.32,97.48,214c-6.08,11.22-12.93,36-15.45,42s-6.72,10.63-6.91,15.1,1.34,8.43,2.13,16.38,1.19,48.6-.19,51.33-4.79,4.83-4.59,10.12c.07,1.91,2.85,2.18,2.18,5.16s-3,6-.89,6.72,7-2.13,14.59.36,13.83,3.89,15.18,2.7c3.38-3-.46-10.15.94-11.64s4.62-6.45,3.18-9.18-3.57-5.94-3.61-9.66c0-2.19,2.64-8.79,4.72-15.26,1.46-4.55,3.15-23.1,2.53-27.79a121.81,121.81,0,0,1-1.11-15.53c0-3.29-3.65-2.13-2.74-5.11s15.72-26.61,20.66-34.31,15-27.19,16.2-27.19c.11,0,1.67-.28,1.89.34,2.23,6.34,7.9,43.13,15.26,54.17,8.07,12.1,9.58,20.48,12.62,24.4s19.27,23.55,24.87,35.47,12.58,26.51,12.12,32.47-2.21,9.41,1.53,12.76,7.29,11.47,7.29,11.47,1.85-9.29,8.9-9.48,14.79,4.48,14.65,7.84c1.39-1.68,1.5-5.33-.08-8.36-2.19-4.19,4.3-6.76,4-10.65-.19-2.6-9.63-8.72-10.9-11.7s-9.47-39.49-10.94-44.7-12-15.12-15-17.36-3-8.13-4.39-10.17-7.16-3.24-8.09-7-11-62.39-12.72-78-.36-17.37-.36-17.37l-48.24-5.43Z"/></g></g><g id="Torzo"><path class="cls-27" d="M146.31,75.2S158.88,89,173.36,74l21.37,2-18.6,72.77-3.54,24.6a155,155,0,0,1-28.29-.69c-13.88-1.82-16.52-1.46-21-5.15s-5.94-16.14-3.12-30.6,14.72-42.79,16.44-47.15c1-2.44,2.34-6.94,4.72-10.26A18.26,18.26,0,0,1,146.31,75.2Z"/><g class="cls-28"><polygon class="cls-29" points="134.85 82.22 197.35 98.09 197.77 72.13 138.74 71.82 134.85 82.22"/><path class="cls-29" d="M179.89,153.65s.25,10.11-15.08,11.25c-19,1.41-46.21-2.8-48.75-10-1.61,11.78,10.56,20,13,21.14l43.77,1.62s6.21-5,6.95-5S179.89,153.65,179.89,153.65Z"/><g class="cls-30"><path class="cls-31" d="M158.53,98a7.7,7.7,0,0,0,3.43-.59,3.46,3.46,0,0,0,2.09-2.09,2.91,2.91,0,0,0-.17-1.67,3.71,3.71,0,0,0-.39-.77,2.25,2.25,0,0,0-.24-.3,1.58,1.58,0,0,1-.28-.3c-.16-.32.37-.07.47,0a3,3,0,0,1,.7.44,4.11,4.11,0,0,1,1,1.15,4.85,4.85,0,0,1-1,5.76,8.32,8.32,0,0,1-2.41,1.79,8.67,8.67,0,0,1-1.62.64,5.69,5.69,0,0,1-1.74.26,2.26,2.26,0,0,1-2.1-2,2.13,2.13,0,0,1,2.23-2.3Z"/><path class="cls-32" d="M158.15,102.55a2.49,2.49,0,0,1-2.1-2.2,2.38,2.38,0,0,1,1.58-2.44,2.52,2.52,0,0,1,.9-.13h.14a7.26,7.26,0,0,0,3.19-.58,3.3,3.3,0,0,0,1.95-1.92,2.71,2.71,0,0,0-.16-1.53,3.51,3.51,0,0,0-.37-.72,2.13,2.13,0,0,0-.21-.26.6.6,0,0,0-.08-.08,1.11,1.11,0,0,1-.24-.28.35.35,0,0,1,0-.39.33.33,0,0,1,.35-.12,1.86,1.86,0,0,1,.45.16,4.51,4.51,0,0,1,.74.46,4.36,4.36,0,0,1,1.07,1.23c1.26,2.09.4,4.55-1,6a8.76,8.76,0,0,1-2.48,1.84,9.23,9.23,0,0,1-1.66.66,5.6,5.6,0,0,1-1.82.26Zm.38-4.28a2.06,2.06,0,0,0-.73.11,1.87,1.87,0,0,0-1.25,1.93,2,2,0,0,0,1.66,1.75l.2,0a5.47,5.47,0,0,0,1.66-.24,9.53,9.53,0,0,0,1.57-.63A8.33,8.33,0,0,0,164,99.48a4.67,4.67,0,0,0,.95-5.48,4.12,4.12,0,0,0-.95-1.08,4.44,4.44,0,0,0-.38-.27l.08.13a3.56,3.56,0,0,1,.43.82,3.23,3.23,0,0,1,.18,1.81,3.77,3.77,0,0,1-2.23,2.25,7.49,7.49,0,0,1-3,.62h-.15l-.33,0Z"/><path class="cls-32" d="M159.16,100.18c.88,0,.24,0,0,0a7.24,7.24,0,0,0,3.58-1,4.66,4.66,0,0,0,2.16-2.65,3.78,3.78,0,0,0,0-2.11,3.72,3.72,0,0,0-1.41-1.85c-.12-.09.93.1,1.69,1.35a4.83,4.83,0,0,1-1,5.76,8.51,8.51,0,0,1-2.41,1.79,9.41,9.41,0,0,1-1.62.64C159.64,102.24,158.86,100.17,159.16,100.18Z"/><path class="cls-33" d="M159.2,100.18h0Z"/><path class="cls-31" d="M147.68,96.41a8,8,0,0,1-3.14-1.57,3.64,3.64,0,0,1-1.47-2.63,2.93,2.93,0,0,1,.59-1.55,3.41,3.41,0,0,1,.58-.62,2.18,2.18,0,0,1,.31-.22,1.63,1.63,0,0,0,.34-.21c.24-.26-.33-.18-.44-.16a3.72,3.72,0,0,0-.79.22,4.23,4.23,0,0,0-1.27.81c-1.61,1.52-1.52,4-.55,5.83a9.35,9.35,0,0,0,1.86,2.43,9.82,9.82,0,0,0,1.39,1.09,6.06,6.06,0,0,0,1.61.75,2.14,2.14,0,0,0,2.53-1.3,2.18,2.18,0,0,0-.79-2.52,2.11,2.11,0,0,0-.76-.35C146.65,96.14,147.87,96.45,147.68,96.41Z"/><path class="cls-32" d="M146.89,100.87h0l-.25-.05A5.93,5.93,0,0,1,145,100a9.46,9.46,0,0,1-1.43-1.12,9.36,9.36,0,0,1-1.91-2.49c-1-1.86-1.14-4.47.6-6.12a4.37,4.37,0,0,1,1.35-.86,3.62,3.62,0,0,1,.84-.23,1.76,1.76,0,0,1,.46,0,.35.35,0,0,1,.31.22.35.35,0,0,1-.1.37,1.17,1.17,0,0,1-.31.2l-.09,0a1.85,1.85,0,0,0-.27.2,3,3,0,0,0-.54.58,2.62,2.62,0,0,0-.55,1.42,3.45,3.45,0,0,0,1.38,2.42,7.65,7.65,0,0,0,2.91,1.49l.08,0h.05a2.61,2.61,0,0,1,.85.39,2.47,2.47,0,0,1,.88,2.81A2.4,2.4,0,0,1,146.89,100.87ZM144.2,89.75a3.81,3.81,0,0,0-.44.15,3.66,3.66,0,0,0-1.19.76c-1.56,1.47-1.38,3.85-.5,5.54a8.66,8.66,0,0,0,1.8,2.36,9.61,9.61,0,0,0,1.35,1.06,5.47,5.47,0,0,0,1.54.72l.19,0A1.92,1.92,0,0,0,149,99.19a2,2,0,0,0-.7-2.23,1.85,1.85,0,0,0-.67-.31h0l-.32-.08h-.09l-.06,0A8,8,0,0,1,144.38,95a4,4,0,0,1-1.56-2.82,3.09,3.09,0,0,1,.64-1.68,3.6,3.6,0,0,1,.62-.67Z"/><path class="cls-32" d="M146.58,98.3c-.85-.24-.24-.07,0,0a7.49,7.49,0,0,1-3.18-2A4.88,4.88,0,0,1,142,93.07a3.86,3.86,0,0,1,.56-2,3.65,3.65,0,0,1,1.83-1.37c.15-.05-.91-.18-2,.8-1.61,1.51-1.52,4-.55,5.83a9.35,9.35,0,0,0,1.86,2.43,9.82,9.82,0,0,0,1.39,1.09C145.58,100.14,146.86,98.37,146.58,98.3Z"/><path class="cls-33" d="M146.54,98.29h0Z"/><path class="cls-31" d="M141.66,91.84a5.22,5.22,0,0,0,0,2.8,7.74,7.74,0,0,0,1.42,2.69c.26.35.54.68.82,1a6.19,6.19,0,0,1-2.59-5.06A3.94,3.94,0,0,1,141.66,91.84Z"/><path class="cls-31" d="M165.5,95.4a5.27,5.27,0,0,1-2.57,5,6.26,6.26,0,0,1-1.27.63c1.57-1,3.1-2.26,3.65-4.14A4.74,4.74,0,0,0,165.5,95.4Z"/><path class="cls-34" d="M164.53,105.61a12.65,12.65,0,0,0-.9-2.57,1.68,1.68,0,0,0-.08-.71,3.43,3.43,0,0,0-.44-.92l.4-.16s-.27-.72-.57-1.34A13.39,13.39,0,0,0,158.06,95,16.46,16.46,0,0,0,154,93.54l-.08,0h-.07a16.49,16.49,0,0,0-4.27,0,12.75,12.75,0,0,0-6.13,3c-.47.48-1,1.07-1,1.07l.32.28a3.81,3.81,0,0,0-.7.73,1.51,1.51,0,0,0-.28.64,12,12,0,0,0-1.64,2.13c-.44.25-.86.59-.91.92-.08.59-.11,5.8.42,6.3s1.56,1.1,1.84,1a.7.7,0,0,0,.21-.13.85.85,0,0,0,1,.17,1.15,1.15,0,0,0,1.36-.46,7.31,7.31,0,0,0,.25-3,18.48,18.48,0,0,0-.24-3.59c0-.1,0-.15,0-.15a1,1,0,0,0-.36-1.09.89.89,0,0,0-1,0v0s-.21-.27-.63,0c.12-.51.47-1.52.47-1.52a7.86,7.86,0,0,1,.41-.68c.15-.21.39-.49.52-.64a1.25,1.25,0,0,0,.72-.26l1.25-.91.75.18a14.09,14.09,0,0,1,4.05-2.16,8.8,8.8,0,0,1,3.38-.15,8.93,8.93,0,0,1,3.15,1.28A14.6,14.6,0,0,1,160,99.8l.77.08s.54.77.91,1.28a1.25,1.25,0,0,0,.59.49c.07.19.21.53.29.78s.18.78.18.78,0,1.08,0,1.6c-.32-.38-.61-.19-.61-.19v0a.91.91,0,0,0-1-.33c-.65.11-.67.9-.67.9a.77.77,0,0,0-.06.14,17.36,17.36,0,0,0-1.32,3.32,7.13,7.13,0,0,0-.68,3c.25.61.7.95,1.14.89a.87.87,0,0,0,1,.19.6.6,0,0,0,.16.18c.23.22,1.4,0,2-.3s2.21-5.24,2.31-5.83C165.17,106.45,164.87,106,164.53,105.61Zm-14.43-11a11.37,11.37,0,0,1,1.24-.13A11.37,11.37,0,0,0,150.1,94.65Zm1.32-.13h0Zm4.66.82a11.75,11.75,0,0,1,1.15.54C156.83,95.67,156.45,95.49,156.08,95.34Zm-.07,0,0,0Z"/><path class="cls-34" d="M159.62,97.59a12.48,12.48,0,0,0-5.77-3h-.09l-.08,0h0a12.24,12.24,0,0,0-6.37.85c-3.13,1.44-3.92,2.93-3.92,2.93a1,1,0,0,0,.87-.24l1.25-.91.75.18a14.09,14.09,0,0,1,4.05-2.16,8.8,8.8,0,0,1,3.38-.15,8.93,8.93,0,0,1,3.15,1.28A14.6,14.6,0,0,1,160,99.8l.77.08s.54.77.91,1.28a1.06,1.06,0,0,0,.75.52S162.15,100,159.62,97.59Z"/><path class="cls-31" d="M162.94,99.91A13.39,13.39,0,0,0,158.06,95,16.46,16.46,0,0,0,154,93.54l-.08,0h-.07a16.49,16.49,0,0,0-4.27,0,12.75,12.75,0,0,0-6.13,3c-.47.48-1,1.07-1,1.07l.88.77a11.16,11.16,0,0,1,4.07-3,11.84,11.84,0,0,1,6.3-.82,12.22,12.22,0,0,1,5.73,2.9,11.76,11.76,0,0,1,3,4.16l1.06-.43S163.24,100.53,162.94,99.91Z"/><path class="cls-34" d="M162.43,101.8h0a.13.13,0,0,1-.07-.08,11.73,11.73,0,0,0-2.93-4.11,12.08,12.08,0,0,0-5.65-2.87,11.86,11.86,0,0,0-6.24.81,11.08,11.08,0,0,0-4,2.92.12.12,0,0,1-.08,0,.1.1,0,0,1-.1,0l-.88-.77a.11.11,0,0,1,0-.15s.49-.6,1-1.08a13,13,0,0,1,6.21-3.08,16.42,16.42,0,0,1,4.3,0H154a17.45,17.45,0,0,1,4.08,1.44,13.6,13.6,0,0,1,4.94,5c.3.61.57,1.34.58,1.34a.11.11,0,0,1-.07.14l-1.06.44Zm-8.65-7.29h0a12.27,12.27,0,0,1,5.8,2.93,12.47,12.47,0,0,1,2.94,4.09l.84-.35c-.09-.21-.3-.75-.53-1.22h0A13.19,13.19,0,0,0,158,95.07a16.74,16.74,0,0,0-4-1.42h-.07l-.08,0a16.71,16.71,0,0,0-4.23,0,12.57,12.57,0,0,0-6.06,3c-.36.36-.72.8-.87,1l.69.61a11.7,11.7,0,0,1,4-2.88,11.92,11.92,0,0,1,6.38-.83Z"/><path class="cls-34" d="M143.2,97.85a12.45,12.45,0,0,1,3.87-2.76,13.09,13.09,0,0,1,5.47-1l.05-.33a11.85,11.85,0,0,0-5.71,1,12.59,12.59,0,0,0-3.94,2.86Z"/><path class="cls-34" d="M145.28,96.92l1,.22a12.44,12.44,0,0,1,2.46-1.6,8,8,0,0,1,2.27-.67,7.54,7.54,0,0,0-2.74.54,10.23,10.23,0,0,0-1.84,1.08l-.5,0Z"/><path class="cls-31" d="M142.14,101.25a5.69,5.69,0,0,0-1-.18c-.4,0-1.72.66-1.81,1.25s-.11,5.8.42,6.3,1.56,1.1,1.84,1,.26-.24.26-.24Z"/><path class="cls-32" d="M141.35,109.72a4.47,4.47,0,0,1-1.72-1c-.25-.24-.41-1.31-.47-3.2,0-1.48,0-2.91,0-3.2.09-.67,1.48-1.34,1.93-1.34a5.66,5.66,0,0,1,1.06.18.13.13,0,0,1,.09.12l-.32,8.1c0,.07,0,.21-.32.34A.57.57,0,0,1,141.35,109.72Zm.18-8.49a3.15,3.15,0,0,0-.41,0c-.36,0-1.62.63-1.7,1.15,0,.29-.06,1.75,0,3.16.09,2.55.33,3,.4,3a3.44,3.44,0,0,0,1.71.95c.15-.06.18-.11.19-.13h0l.31-8Zm.17,8.16Zm0,0Zm0,0Z"/><path class="cls-35" d="M142.14,101.25a.64.64,0,0,0-.64.5,39.4,39.4,0,0,0-.36,4.43,11.93,11.93,0,0,0,.23,3.29c.19.2.37,0,.37,0Z"/><path class="cls-35" d="M139.66,106.27s-.14,1.7.23,2.18a3.74,3.74,0,0,0,1.21.88,9.21,9.21,0,0,1-.18-1.79s-.19.8-.66.48S139.66,106.27,139.66,106.27Z"/><path class="cls-31" d="M142.77,101.27s-.21-.27-.63,0-.56,2.76-.64,4.36a13.53,13.53,0,0,0,.24,3.82.84.84,0,0,0,1.08.2Z"/><path class="cls-32" d="M142.22,109.84h-.08a.82.82,0,0,1-.51-.35,13.43,13.43,0,0,1-.25-3.87c.12-2.49.28-4.2.69-4.45a.57.57,0,0,1,.8,0,.08.08,0,0,1,0,.07l.05,8.35a.13.13,0,0,1,0,.1A1,1,0,0,1,142.22,109.84Zm.31-8.58a.47.47,0,0,0-.32.09c-.07,0-.25.28-.4,1.6-.09.82-.15,1.81-.19,2.67a13.81,13.81,0,0,0,.23,3.76.51.51,0,0,0,.34.22.73.73,0,0,0,.51,0l0-8.24A.22.22,0,0,0,142.53,101.26Z"/><path class="cls-36" d="M140.38,101.58a1.64,1.64,0,0,0-.83.69,1.05,1.05,0,0,1,.65-.16c.35,0-.4,2.53.11,2.79.9.44.76.26.76.26s.14-2.25.21-2.8a3,3,0,0,1,.26-.87S140.86,101.52,140.38,101.58Z"/><path class="cls-35" d="M139.57,102.55s.51-.11.5.11-.3,2.13,0,2.64,1.12.51,1.12.51a3,3,0,0,1-1.17-.21c-.38-.23-.43-1.07-.29-2S139.57,102.55,139.57,102.55Z"/><path class="cls-31" d="M141.25,101.64a.42.42,0,0,0-.33.3c0,.26-.18,2.71-.18,2.71l.21.08s.08-2.33.16-2.65A2.09,2.09,0,0,1,141.25,101.64Z"/><path class="cls-31" d="M140.2,101.41a12.78,12.78,0,0,1,1.65-2.14l.76.46s-.35,1-.47,1.52Z"/><path class="cls-32" d="M140.18,101.53a.16.16,0,0,1-.08-.06.09.09,0,0,1,0-.12,12.45,12.45,0,0,1,1.68-2.17.11.11,0,0,1,.13,0l.77.45a.12.12,0,0,1,0,.14s-.35,1-.47,1.51a.12.12,0,0,1-.1.09l-1.94.16Zm1.68-2.12a11.94,11.94,0,0,0-1.42,1.87l1.6-.13c.11-.44.34-1.13.43-1.38Z"/><path class="cls-32" d="M141.85,99.27a1.51,1.51,0,0,1,.28-.64,3.81,3.81,0,0,1,.82-.82l.69.48s-.39.45-.62.76a7.86,7.86,0,0,0-.41.68Z"/><path class="cls-35" d="M141,100.61a9.13,9.13,0,0,1,.92-1.15l.58.32a4.62,4.62,0,0,0-.29.69c-.11.33-.21.58-.21.58a5,5,0,0,1-.77.1s.69-.63.67-.86S141.33,100.31,141,100.61Z"/><path class="cls-31" d="M142.14,98.94a2.37,2.37,0,0,1,.84-1l.46.38a3.68,3.68,0,0,0-.89,1.18S142.68,98.69,142.14,98.94Z"/><path class="cls-31" d="M144.15,102.41a1,1,0,0,0-.36-1.09.92.92,0,0,0-1.42.63c-.07.37-.35,6.34,0,7.17s1.18.79,1.8.06S144.15,102.41,144.15,102.41Z"/><path class="cls-32" d="M143,109.83a1,1,0,0,1-.76-.68c-.36-.87-.06-6.92,0-7.22a1.14,1.14,0,0,1,.64-.81,1,1,0,0,1,1,.11,1.07,1.07,0,0,1,.43,1.2c.07.71.59,6.09,0,6.83a1.37,1.37,0,0,1-1.23.57Zm.37-8.54a.69.69,0,0,0-.38,0,.9.9,0,0,0-.51.65c0,.17-.12,1.72-.16,3.39a17.4,17.4,0,0,0,.14,3.71.79.79,0,0,0,.58.52h0a1.19,1.19,0,0,0,1-.5c.48-.57.14-5,0-6.69a.06.06,0,0,1,0,0s.18-.68-.31-1A1.08,1.08,0,0,0,143.38,101.29Z"/><path class="cls-37" d="M142.41,107.88s.18,1,.5,1,.36-.45.36-.45.14.65.46.62.45-.41.45-.41a1,1,0,0,1-.83.88C142.37,109.7,142.41,108.47,142.41,107.88Z"/><path class="cls-35" d="M142.41,108.27s0-3,0-4.18a8.46,8.46,0,0,1,.21-2.34c.19-.39.36-.45.6-.46a.42.42,0,0,1,.35.11.54.54,0,0,0-.7.41,1.83,1.83,0,0,0-.12.79l.45,0-.46.16.48.14-.49,0,0,.31.39.11-.44,0v.49l.4,0-.36.19.41.16-.4,0,.38.23h-.4v.79l.28-.08-.26.27.4.08-.42.18.46.27-.43,0,0,.33.37,0-.36.26,0,.53.31.07-.33.15v.2l.34.06-.36.3v.27l.44-.11-.57.55S142.61,108.85,142.41,108.27Z"/><path class="cls-36" d="M143.68,101.6c-.35.09-.81,7.68.14,7.29S144.49,101.38,143.68,101.6Z"/><path class="cls-31" d="M162.75,104.81a5.31,5.31,0,0,1,1,.18c.38.13,1.44,1.2,1.34,1.79s-1.66,5.53-2.31,5.83-1.81.52-2,.3-.18-.31-.18-.31Z"/><path class="cls-32" d="M160.92,113.1a.57.57,0,0,1-.25-.1c-.25-.23-.23-.38-.2-.44l2.16-7.78a.11.11,0,0,1,.12-.08,5.3,5.3,0,0,1,1.06.18c.43.15,1.54,1.26,1.42,1.92a29.93,29.93,0,0,1-.95,3c-.63,1.77-1.11,2.73-1.42,2.88A4.37,4.37,0,0,1,160.92,113.1Zm-.22-.45s0,.07.14.18a3.39,3.39,0,0,0,1.91-.32c.09,0,.44-.36,1.3-2.75.47-1.33.89-2.72.94-3,.09-.52-.92-1.55-1.26-1.66a3.65,3.65,0,0,0-.89-.16l-2.14,7.7Zm0,0Zm0,0Zm0,0Z"/><path class="cls-35" d="M162.75,104.81a.66.66,0,0,1,.45.69,41.2,41.2,0,0,1-1,4.32,11.79,11.79,0,0,1-1.22,3c-.24.14-.34-.16-.34-.16Z"/><path class="cls-35" d="M163.73,110.26s-.55,1.8-1,2.13a3.6,3.6,0,0,1-1.41.42,9.68,9.68,0,0,0,.72-1.62s-.07.81.48.67S163.73,110.26,163.73,110.26Z"/><path class="cls-31" d="M162.14,104.62s.29-.19.61.19-.31,2.81-.72,4.35a12.93,12.93,0,0,1-1.39,3.53.82.82,0,0,1-1.08-.17Z"/><path class="cls-32" d="M160.07,112.93a1,1,0,0,1-.61-.34.11.11,0,0,1,0-.11l2.58-7.9a.12.12,0,0,1,0,0c.13-.09.46-.16.77.22s-.05,2-.69,4.44a13.32,13.32,0,0,1-1.42,3.59.79.79,0,0,1-.59.16Zm-.38-.43a.82.82,0,0,0,.47.21.5.5,0,0,0,.4-.1,13.58,13.58,0,0,0,1.35-3.48c.22-.83.47-1.79.63-2.6.26-1.3.16-1.58.11-1.65-.19-.23-.34-.2-.41-.18Z"/><path class="cls-36" d="M164.32,105.72a1.78,1.78,0,0,1,.58.93,1.1,1.1,0,0,0-.57-.37c-.35-.09-.4,2.53-1,2.6-1,.12-.8,0-.8,0s.56-2.18.65-2.73a3.14,3.14,0,0,0,0-.91S163.88,105.49,164.32,105.72Z"/><path class="cls-35" d="M164.79,106.91s-.46-.28-.51-.06-.37,2.12-.84,2.49c-.32.25-1.2.1-1.2.1a2.77,2.77,0,0,0,1.17.19c.43-.08.73-.86.89-1.82S164.79,106.91,164.79,106.91Z"/><path class="cls-31" d="M163.47,105.48a.42.42,0,0,1,.22.4c0,.26-.64,2.62-.64,2.62h-.23s.63-2.23.66-2.57A1.8,1.8,0,0,0,163.47,105.48Z"/><path class="cls-31" d="M164.53,105.62a13,13,0,0,0-.9-2.58l-.87.17s0,1.08,0,1.6Z"/><path class="cls-32" d="M164.52,105.73h0l-1.78-.8a.13.13,0,0,1-.08-.12c0-.51,0-1.58,0-1.59a.13.13,0,0,1,.09-.12l.87-.17a.12.12,0,0,1,.12,0,12.78,12.78,0,0,1,.93,2.63.1.1,0,0,1,0,.11A.1.1,0,0,1,164.52,105.73Zm-1.65-1,1.48.66a11.82,11.82,0,0,0-.78-2.24l-.68.13C162.89,103.56,162.9,104.29,162.87,104.75Z"/><path class="cls-32" d="M163.63,103a1.68,1.68,0,0,0-.08-.71,4,4,0,0,0-.53-1l-.79.22s.23.56.35.93.18.78.18.78Z"/><path class="cls-35" d="M164.07,104.6a8.67,8.67,0,0,0-.53-1.39l-.64.11a5.12,5.12,0,0,1,.07.75c0,.34,0,.61,0,.61a6,6,0,0,0,.71.36s-.47-.83-.38-1S163.8,104.19,164.07,104.6Z"/><path class="cls-31" d="M163.45,102.62a2.49,2.49,0,0,0-.5-1.2l-.55.2a4,4,0,0,1,.48,1.43S163,102.21,163.45,102.62Z"/><path class="cls-31" d="M160.49,105.23s0-.79.67-.9a1,1,0,0,1,1.16,1.07c0,.37-1.6,6.12-2.17,6.79s-1.36.35-1.72-.54S160.49,105.23,160.49,105.23Z"/><path class="cls-32" d="M159.31,112.65h0a1.46,1.46,0,0,1-1-1c-.36-.91,1.77-5.84,2.05-6.48a1,1,0,0,1,.78-1,1.05,1.05,0,0,1,.93.22,1.21,1.21,0,0,1,.37,1c0,.3-1.59,6.14-2.19,6.84A1,1,0,0,1,159.31,112.65Zm2.25-8.22a1.17,1.17,0,0,0-.37,0c-.55.1-.58.8-.58.8s0,0,0,0c-.67,1.53-2.34,5.63-2.06,6.33a1.2,1.2,0,0,0,.81.81h0a.72.72,0,0,0,.7-.31,15.65,15.65,0,0,0,1.26-3.46c.47-1.6.86-3.1.89-3.27a1,1,0,0,0-.29-.79A.81.81,0,0,0,161.56,104.43Z"/><path class="cls-37" d="M160.48,111s-.48.89-.77.77-.21-.55-.21-.55-.33.56-.62.43-.3-.54-.3-.54a1,1,0,0,0,.52,1.11C160,112.74,160.3,111.57,160.48,111Z"/><path class="cls-35" d="M160.36,111.37s1-2.84,1.27-4a8.09,8.09,0,0,0,.51-2.29c-.06-.43-.2-.54-.42-.64a.45.45,0,0,0-.37,0,.56.56,0,0,1,.54.63,1.77,1.77,0,0,1-.13.78l-.44-.11.39.3-.49,0,.44.18-.1.28-.41,0,.41.18-.15.46L161,107l.28.29-.44,0,.37.17-.43.08.38.13-.22.75-.25-.17.17.35-.4-.06.33.31-.51.1.42.11-.06.32-.36-.08.25.36-.14.51-.32,0,.27.26-.06.19-.34-.06.26.41-.1.25-.38-.26.37.72S160,111.85,160.36,111.37Z"/><path class="cls-36" d="M161.19,104.62c.3.21-1.57,7.55-2.35,6.86S160.48,104.14,161.19,104.62Z"/><path class="cls-34" d="M162.79,101.24A13.18,13.18,0,0,0,160,97.32a13.73,13.73,0,0,0-4.9-2.76l.05-.33a12.31,12.31,0,0,1,5.1,2.91,13.08,13.08,0,0,1,2.86,4Z"/><path class="cls-34" d="M161.1,99.65l-1-.11a13.59,13.59,0,0,0-1.85-2.35,8.48,8.48,0,0,0-2-1.4,8,8,0,0,1,2.44,1.43,10.48,10.48,0,0,1,1.41,1.65l.47.2Z"/><path class="cls-32" d="M143.81,104.48c-.37,1.35-2.08,2-2.74,2.32a4.18,4.18,0,0,0,1.05.34s-1.35,3.69-3.69,4.83a2.88,2.88,0,0,0,1.79.23c-.9,2.43.32,4.66-1.31,7a3.51,3.51,0,0,0,2.46-1.38,6.67,6.67,0,0,1-.49,4.55,5,5,0,0,0,2.83-1.49c-.15,1.13,1.48,3.51,1.16,5.12a4,4,0,0,0,1.61-1.47c.68,2.11,1.64,2.59,1.6,5.47,1.77-1.33,3.37-2.06,4.67-5.33a9.66,9.66,0,0,0,1,1.39,5.69,5.69,0,0,0,2-3.39,3,3,0,0,1,.81,2,7.14,7.14,0,0,0,2.67-4.66,2.45,2.45,0,0,0,1.81,1.2c-1-1.73,1.38-3.92,1-6.71a2.5,2.5,0,0,0,1.54-.28,8.9,8.9,0,0,1-3.14-4.7c1.22.19,1.19.09,1.16.08a11.89,11.89,0,0,1-1.52-2.12c-.24-.52-7.71-5.85-7.71-5.85Z"/><path class="cls-31" d="M142,109.73a3.28,3.28,0,0,0,.2,1.75,7.25,7.25,0,0,0-1.4,2.48A11.65,11.65,0,0,1,142,109.73Z"/><path class="cls-31" d="M160.69,112.52a3.21,3.21,0,0,1-.65,1.62,7.53,7.53,0,0,1,.7,2.8A9.4,9.4,0,0,0,160.69,112.52Z"/><path class="cls-31" d="M142.5,115.07c-.07.44-.16.88-.2,1.33a9.32,9.32,0,0,0,0,1.67,12.26,12.26,0,0,1,.1,1.71,2.75,2.75,0,0,1-.4,1.31,3.92,3.92,0,0,0,.22-1.31c0-.57-.12-1.13-.17-1.69A6.59,6.59,0,0,1,142.5,115.07Z"/><path class="cls-31" d="M144.8,118a14.26,14.26,0,0,0-.06,1.46,9.29,9.29,0,0,0,.26,1.82,13.45,13.45,0,0,1,.58,3.25c-.12-.48-.24-1-.38-1.43s-.4-1.22-.54-1.84A5.83,5.83,0,0,1,144.8,118Z"/><path class="cls-31" d="M147.58,118.93c-.1.47-.23.92-.3,1.39a6.89,6.89,0,0,0,0,1.87,28.33,28.33,0,0,0,1,3.57,4.33,4.33,0,0,1,.17,1.71,8.24,8.24,0,0,0-.41-1.45c-.25-.6-.53-1.19-.76-1.81a6.58,6.58,0,0,1-.36-3.69A5.67,5.67,0,0,1,147.58,118.93Z"/><path class="cls-31" d="M158.77,117.3a6.65,6.65,0,0,1-.25,3.1,5.9,5.9,0,0,1-1.5,2.65,9.13,9.13,0,0,0,1.28-2.78,12.68,12.68,0,0,0,.37-1.62A12.26,12.26,0,0,0,158.77,117.3Z"/><path class="cls-31" d="M155.64,119.17a6,6,0,0,1-.33,2.87,7.23,7.23,0,0,1-1.42,2.52c.39-.85.78-1.69,1.09-2.57A15.2,15.2,0,0,0,155.64,119.17Z"/><path class="cls-31" d="M152.83,119.72a6.9,6.9,0,0,1-.1,3.35,10,10,0,0,1-1.85,3.34,16.53,16.53,0,0,1-1.1,1.26c.49-1,1.11-1.88,1.63-2.83a11.34,11.34,0,0,0,1.25-3.42C152.76,120.85,152.78,120.29,152.83,119.72Z"/><path class="cls-33" d="M146.66,98.16h0Z"/><path class="cls-31" d="M160,102.28a13.84,13.84,0,0,0-1.58-3.82c-.19-.3-.15-.52.33-.75a.71.71,0,0,1,.9.21,11.31,11.31,0,0,1,1.62,3.77.66.66,0,0,1-.49.75C160.34,102.6,160.06,102.55,160,102.28Z"/><path class="cls-32" d="M160.24,102.77a.58.58,0,0,1-.49-.44,13.4,13.4,0,0,0-1.54-3.74.72.72,0,0,1-.13-.58,1,1,0,0,1,.56-.52,1,1,0,0,1,.59-.09.91.91,0,0,1,.63.39,11.52,11.52,0,0,1,1.65,3.85.89.89,0,0,1-.64,1A1.41,1.41,0,0,1,160.24,102.77Zm-1.07-4.89a.67.67,0,0,0-.31.05c-.25.12-.29.2-.3.22a.31.31,0,0,0,.07.18,14.16,14.16,0,0,1,1.61,3.9s0,0,.06,0a.8.8,0,0,0,.39-.07.42.42,0,0,0,.33-.48,11.14,11.14,0,0,0-1.57-3.67A.48.48,0,0,0,159.17,97.88Z"/><path class="cls-31" d="M145.18,100.1a12.92,12.92,0,0,1,2.5-3.21c.26-.23.28-.46-.13-.82a.71.71,0,0,0-.92-.06,11,11,0,0,0-2.52,3.15.69.69,0,0,0,.27.87C144.76,100.31,145.05,100.34,145.18,100.1Z"/><path class="cls-32" d="M144.82,100.5h0a1.42,1.42,0,0,1-.59-.28.92.92,0,0,1-.35-1.17,11.08,11.08,0,0,1,2.59-3.23.87.87,0,0,1,.7-.19,1.23,1.23,0,0,1,1,.93.7.7,0,0,1-.28.52,12.75,12.75,0,0,0-2.44,3.14A.53.53,0,0,1,144.82,100.5Zm2.29-4.38a.42.42,0,0,0-.32.08,10.62,10.62,0,0,0-2.46,3.08.45.45,0,0,0,.19.55.82.82,0,0,0,.36.18h0c.05,0,.06,0,.07,0a13.75,13.75,0,0,1,2.56-3.28c.07-.06.11-.11.11-.14s0-.12-.23-.31A.55.55,0,0,0,147.11,96.12Z"/><path class="cls-31" d="M152.19,104.2a35.16,35.16,0,0,1,8.16,2.2l.06-.43c.73-5.53-3.32-11.06-6.93-11.59s-8.93,3.59-9.65,9.11c0,.15,0,.29-.05.43A35.09,35.09,0,0,1,152.19,104.2Z"/><path class="cls-32" d="M143.75,104.17a.24.24,0,0,1-.22-.27c0-.15,0-.3.05-.45.74-5.6,6.17-9.88,9.94-9.32s7.88,6.27,7.14,11.87c0,.15,0,.3-.07.44a.23.23,0,0,1-.12.18.33.33,0,0,1-.22,0,36.14,36.14,0,0,0-16.44-2.46Zm9.7-9.55c-3.55-.53-8.67,3.56-9.38,8.91,0,0,0,.08,0,.12a35.41,35.41,0,0,1,8.16.31,36.28,36.28,0,0,1,7.93,2.09.5.5,0,0,1,0-.12C160.87,100.58,157,95.15,153.45,94.62Z"/><path class="cls-32" d="M152.06,94.63c-2.24-.61-7.59,4-8.23,8.86,0,.15,0,.29-.05.43,1.11-.1,5.27.4,5.68-1-.41-.34-1.62-.78-1.89-1.68a4.2,4.2,0,0,1,.1-2C148.18,97.3,150.36,95,152.06,94.63Z"/><path class="cls-32" d="M154.84,95c2.3.08,6.26,6.07,5.62,10.94l-.06.43c-1.05-.44-5.17-1.17-5.2-2.68.48-.2,1.77-.27,2.25-1a4,4,0,0,0,.42-1.92A7.74,7.74,0,0,0,154.84,95Z"/><polygon class="cls-31" points="153.33 108.21 151.49 109.82 150.06 107.72 150.68 104.97 153.45 105.39 153.33 108.21"/><path d="M151.44,110.19l-1.65-2.42.69-3.08,3.23.49-.14,3.15Zm-1.12-2.51,1.21,1.77,1.55-1.36.11-2.5-2.32-.34Z"/><path class="cls-31" d="M160.44,105.09a29.39,29.39,0,0,0-6.39-2.09l.54-8.66c0-.41-.46-.74-1-.82s-1.08.16-1.17.5l-1.72,8.49a28.6,28.6,0,0,0-6.64.11s-.68,0-.76,1.25c-.06,1,.51,1.19.51,1.19a29.72,29.72,0,0,1,16.23,2.43s.56.07.77-1.09S160.44,105.09,160.44,105.09Z"/><path class="cls-32" d="M143.81,105.31h-.05s-.77-.21-.7-1.45.83-1.46,1-1.47a28.92,28.92,0,0,1,6.47-.14L152.18,94a1.28,1.28,0,0,1,1.45-.68c.61.09,1.25.5,1.21,1.08l-.53,8.45a28.65,28.65,0,0,1,6.23,2.06c.05,0,.75.4.53,1.58-.25,1.34-1,1.29-1,1.28h0l0,0a28.52,28.52,0,0,0-7.89-2.34,28.21,28.21,0,0,0-8.2-.06Zm8.31-.42a28.64,28.64,0,0,1,8,2.35c.09,0,.35-.16.49-.89s-.2-1-.25-1a29.42,29.42,0,0,0-6.32-2.06l-.22,0,.55-8.88c0-.24-.34-.49-.78-.55s-.84.14-.89.32l-1.76,8.69-.22,0a28.19,28.19,0,0,0-6.58.12h0s-.46,0-.52,1c0,.66.2.87.29.92A28.35,28.35,0,0,1,152.12,104.89Z"/><path class="cls-31" d="M149.8,107.78a3.31,3.31,0,0,0-.55,0,3.09,3.09,0,0,0-1,.34,2.77,2.77,0,0,0-1,.85,3,3,0,0,1,.55-1.44,3.15,3.15,0,0,1,.35-.38l-.05,0h0a2.58,2.58,0,0,0-1.73.26,4.1,4.1,0,0,1-.06-.93,3.85,3.85,0,0,0-1.58,1,5.31,5.31,0,0,1,.12-2.27h0a5.66,5.66,0,0,0-.37,3.93,4.62,4.62,0,0,1,1.19-1.58,7.45,7.45,0,0,0,.2,1.28,2.6,2.6,0,0,1,.95-.86,5.21,5.21,0,0,0-.2,2.76,4.31,4.31,0,0,1,2.85-2.19,4.56,4.56,0,0,0-.39.84,2.91,2.91,0,0,1,1.57-.24Z"/><path class="cls-31" d="M158.52,109.5a3.72,3.72,0,0,0-1.22-1.37,3.57,3.57,0,0,1-.29.88,2.53,2.53,0,0,0-1.6-.75s0,0-.06,0a2.64,2.64,0,0,1,.25.47,3.15,3.15,0,0,1,.16,1.54,2.84,2.84,0,0,0-.7-1.1,3.22,3.22,0,0,0-.85-.61,4.44,4.44,0,0,0-.64-.24h0l-1.19,1a3,3,0,0,1,1.41.68,3.85,3.85,0,0,0-.16-.92,4.51,4.51,0,0,1,2.18,2.94,5.19,5.19,0,0,0,.52-2.71,2.58,2.58,0,0,1,.69,1.1,6.16,6.16,0,0,0,.53-1.17,4.89,4.89,0,0,1,.73,1.87,5.6,5.6,0,0,0,.71-3.61A4.79,4.79,0,0,1,158.52,109.5Z"/><path class="cls-31" d="M158.52,109.5a3.72,3.72,0,0,0-1.22-1.37,3.57,3.57,0,0,1-.29.88,2.82,2.82,0,0,0-1.66-.75,2.64,2.64,0,0,1,.25.47,3.15,3.15,0,0,1,.16,1.54,2.84,2.84,0,0,0-.7-1.1,3.22,3.22,0,0,0-.85-.61,4.44,4.44,0,0,0-.64-.24h0l-1.19,1a3,3,0,0,1,1.41.68,3.85,3.85,0,0,0-.16-.92,4.51,4.51,0,0,1,2.18,2.94,5.19,5.19,0,0,0,.52-2.71,2.58,2.58,0,0,1,.69,1.1,6.16,6.16,0,0,0,.53-1.17,4.89,4.89,0,0,1,.73,1.87,5.6,5.6,0,0,0,.71-3.61A4.79,4.79,0,0,1,158.52,109.5Z"/><path class="cls-38" d="M144.09,103.79a2.37,2.37,0,0,1,.35-1.21l-.37,0s-.68,0-.76,1.25c-.06,1,.51,1.19.51,1.19l.49-.06A1.77,1.77,0,0,1,144.09,103.79Z"/><path class="cls-38" d="M160.44,105.09l-.4-.19a2.2,2.2,0,0,1,.06,1.18,1.89,1.89,0,0,1-.51,1.2l.46.21s.56.07.77-1.09S160.44,105.09,160.44,105.09Z"/><polygon class="cls-32" points="151.93 106.17 151.89 105.24 152.22 105.29 151.93 106.17"/><polygon class="cls-32" points="152.38 106.23 152.35 105.31 152.68 105.36 152.38 106.23"/><polygon class="cls-32" points="152.82 106.3 152.78 105.37 153.11 105.42 152.82 106.3"/><polygon class="cls-32" points="151.53 106.11 151.8 105.23 151.47 105.18 151.53 106.11"/><polygon class="cls-32" points="151.1 106.04 151.37 105.16 151.04 105.11 151.1 106.04"/><polygon class="cls-32" points="151.96 107.52 151.51 109.64 151.63 107.47 151.96 107.52"/><polygon class="cls-32" points="150.78 102.28 151.94 102.9 150.63 102.74 150.78 102.28"/><polygon class="cls-32" points="154.03 103.25 152.72 103.02 154 102.76 154.03 103.25"/><path class="cls-32" d="M145.64,104.76c-.54-.31-.82-1.15.12-2.31-.66,0-1.06.09-1.69.17,0,0-.68,0-.76,1.25-.06,1,.51,1.19.51,1.19.61-.08,1.22-.15,1.84-.2C145.67,104.82,145.67,104.78,145.64,104.76Z"/><polygon class="cls-32" points="150.76 102.14 149.47 101.76 150.78 101.52 150.76 102.14"/><polygon class="cls-32" points="150.93 101.45 149.66 101.1 150.93 100.83 150.93 101.45"/><polygon class="cls-32" points="151.09 100.76 149.85 100.44 151.08 100.13 151.09 100.76"/><polygon class="cls-32" points="151.26 100.06 150.04 99.77 151.23 99.44 151.26 100.06"/><polygon class="cls-32" points="151.42 99.37 150.23 99.11 151.38 98.75 151.42 99.37"/><polygon class="cls-32" points="151.59 98.68 150.42 98.44 151.53 98.06 151.59 98.68"/><polygon class="cls-32" points="151.75 97.98 150.61 97.78 151.68 97.36 151.75 97.98"/><polygon class="cls-32" points="151.92 97.29 150.8 97.12 151.82 96.67 151.92 97.29"/><polygon class="cls-32" points="152.09 96.6 150.99 96.45 151.97 95.98 152.09 96.6"/><polygon class="cls-32" points="152.25 95.9 151.18 95.79 152.12 95.29 152.25 95.9"/><polygon class="cls-32" points="152.42 95.21 151.37 95.13 152.26 94.6 152.42 95.21"/><polygon class="cls-32" points="154.28 102.04 155.47 102.66 154.14 102.65 154.28 102.04"/><polygon class="cls-32" points="154.31 101.33 155.47 101.97 154.16 101.93 154.31 101.33"/><polygon class="cls-32" points="154.35 100.62 155.45 101.27 154.18 101.22 154.35 100.62"/><polygon class="cls-32" points="154.38 99.91 155.44 100.58 154.2 100.5 154.38 99.91"/><polygon class="cls-32" points="154.42 99.2 155.43 99.89 154.22 99.79 154.42 99.2"/><polygon class="cls-32" points="154.46 98.49 155.42 99.19 154.24 99.08 154.46 98.49"/><polygon class="cls-32" points="154.49 97.78 155.41 98.5 154.26 98.36 154.49 97.78"/><polygon class="cls-32" points="154.53 97.08 155.4 97.81 154.28 97.64 154.53 97.08"/><polygon class="cls-32" points="154.57 96.37 155.39 97.11 154.3 96.93 154.57 96.37"/><polygon class="cls-32" points="154.6 95.66 155.38 96.42 154.32 96.21 154.6 95.66"/><polygon class="cls-32" points="154.64 94.95 155.37 95.72 154.34 95.49 154.64 94.95"/><path class="cls-32" d="M144.68,98.29a6.44,6.44,0,0,0-.57.87.69.69,0,0,0,.27.87c.38.28.67.31.8.07a8.61,8.61,0,0,1,.63-1C145.19,99,144.74,98.7,144.68,98.29Z"/><path class="cls-32" d="M158.39,106.67c.6-.14,1.08-.87.48-2.26.62.23,1,.39,1.58.66,0,0,.66.2.41,1.42-.21,1-.8,1-.8,1-.56-.26-1.13-.5-1.72-.73C158.35,106.71,158.36,106.67,158.39,106.67Z"/><path class="cls-32" d="M161,100.72a5.92,5.92,0,0,1,.33,1,.66.66,0,0,1-.48.75c-.44.16-.73.11-.79-.16a11,11,0,0,0-.34-1.17C160.31,101.27,160.82,101.1,161,100.72Z"/><path class="cls-31" d="M149.65,95.48a15.55,15.55,0,0,0-2.21,2,14.15,14.15,0,0,0-1.89,2.71c-.24.46-.45.93-.67,1.4a10,10,0,0,1,3.46-5.26A8.7,8.7,0,0,1,149.65,95.48Z"/><path class="cls-31" d="M160,103.92a19.08,19.08,0,0,0-.62-2.77,15.88,15.88,0,0,0-1.34-3c-.25-.43-.53-.84-.81-1.25a10.12,10.12,0,0,1,2.67,5.56A10.37,10.37,0,0,1,160,103.92Z"/><path class="cls-31" d="M144,102.86a4.74,4.74,0,0,0-.09,1.83c-.3-.18-.34-.64-.32-.94A1.28,1.28,0,0,1,144,102.86Z"/><path class="cls-31" d="M160.42,105.34a1.29,1.29,0,0,1,.16,1c-.05.3-.21.72-.55.81A5.44,5.44,0,0,0,160.42,105.34Z"/><path class="cls-31" d="M149.57,106.37a.32.32,0,0,0,.27-.55c-.41-.39-1.22-.22-1.85-.36a6.41,6.41,0,0,1-.91-.27,1.44,1.44,0,0,0,.68.73A3.58,3.58,0,0,0,149.57,106.37Z"/><path class="cls-31" d="M154.19,107.06c-.48-.18-.24-.55-.12-.61.49-.26,1.22.15,1.87.2a7.53,7.53,0,0,0,.95,0,1.39,1.39,0,0,1-.85.51A3.63,3.63,0,0,1,154.19,107.06Z"/><path class="cls-31" d="M159.16,117c.35.77.43,1.54.75,2.32-.08-.91.09-1.8-.06-2.7a8.07,8.07,0,0,0-.95-2.56,6.68,6.68,0,0,0,.88-3.92c-.56,2.21-1.5,3.24-2.26,3.46a4.48,4.48,0,0,1-.1-1.7,3.7,3.7,0,0,0-.64,2.33c-.09,1.32.54,1.84.18,4a17.53,17.53,0,0,1-1.21-3.57,5.14,5.14,0,0,0-2-3.59c-1-.69-1.81-.7-2,0-.25.94.92.78,1.81,1.44a3.29,3.29,0,0,1,1.18,3.18c-.4-1.77-1.37-2.62-2.27-2.82A2.47,2.47,0,0,1,153,115a2.25,2.25,0,0,0-1.91-1.75,2.15,2.15,0,0,0-2.29,1.12,2.38,2.38,0,0,1,1-1.87c-.91-.07-2.06.46-2.9,2a3.15,3.15,0,0,1,2-2.71c1-.38,2.12.12,2.12-.86,0-.78-.75-1-1.92-.64a4.92,4.92,0,0,0-2.87,2.86,17.5,17.5,0,0,1-2.08,3.08c.22-2.23.95-2.55,1.22-3.84a3.7,3.7,0,0,0,0-2.43,4.26,4.26,0,0,1-.53,1.61c-.67-.44-1.52-1.73-1.49-4a6.53,6.53,0,0,0,0,4,7.91,7.91,0,0,0-1.57,2.19c-.37.82-.44,1.74-.75,2.59.5-.66.78-1.39,1.32-2a5.92,5.92,0,0,1,1.57-1.3,9.1,9.1,0,0,0-.89,6.25c.86-1.2,2-2.9,3-3.38a14,14,0,0,0-.14,5.48c1.09-4.14,3.53-5.63,3.53-5.63a9.47,9.47,0,0,0-1.22,3.34c-.73,4.19.67,4.43,1,7.66a11.07,11.07,0,0,0,2.85-5.59,9.23,9.23,0,0,0-.05-5s1.93,2,1.94,6.44a13.72,13.72,0,0,0,1.28-5.3c.85.76,1.49,2.72,2,4.12a9.17,9.17,0,0,0,.76-6.26A6.76,6.76,0,0,1,159.16,117Zm-11.5-1.08-.65.94c-.16.24-.32.5-.5.73a3.06,3.06,0,0,1,.59-1.87c.19-.3.42-.57.63-.85s.32-.53.48-.8A2.5,2.5,0,0,1,147.66,115.88Zm3,4.36c-.17.72-.31,1.45-.43,2.18s-.17,1.3-.33,1.94a7.46,7.46,0,0,1-.6-3.72,15.51,15.51,0,0,1,.42-2.24c.18-.71.33-1.42.47-2.13s.24-1.31.44-2a8.19,8.19,0,0,1,.46,3.73A18.42,18.42,0,0,1,150.7,120.24Zm3.66-1.52a8.39,8.39,0,0,1-.3-.84c-.13-.37-.26-.74-.38-1.11a2.49,2.49,0,0,1-.06-1.93c.09.3.15.61.27.91s.27.66.38,1A3.17,3.17,0,0,1,154.36,118.72Z"/><ellipse class="cls-32" cx="152.69" cy="100.68" rx="0.32" ry="0.44" transform="translate(27.94 234.44) rotate(-80.4)"/><path class="cls-32" d="M152.74,103.6c0,.14-.21.22-.43.19s-.38-.17-.36-.31.21-.23.43-.19S152.76,103.46,152.74,103.6Z"/><path class="cls-32" d="M152.24,106.68c0,.11-.17.18-.36.16s-.32-.15-.3-.26.18-.19.36-.16S152.26,106.56,152.24,106.68Z"/><path class="cls-32" d="M149.54,103.37c0,.1-.14.15-.3.13s-.27-.12-.25-.21.14-.15.3-.13S149.56,103.28,149.54,103.37Z"/><ellipse class="cls-32" cx="146.8" cy="103.29" rx="0.15" ry="0.25" transform="translate(21.75 232.05) rotate(-80.97)"/><path class="cls-32" d="M155,104.19c0,.09.1.18.26.21s.29,0,.3-.13-.1-.19-.26-.21S155,104.09,155,104.19Z"/><ellipse class="cls-32" cx="157.65" cy="104.91" rx="0.15" ry="0.25" transform="translate(29.29 244.13) rotate(-80.97)"/><ellipse class="cls-32" cx="152.98" cy="98.43" rx="0.25" ry="0.36" transform="matrix(0.17, -0.99, 0.99, 0.17, 30.59, 233.01)"/><ellipse class="cls-32" cx="153.27" cy="96.28" rx="0.18" ry="0.26" transform="matrix(0.16, -0.99, 0.99, 0.16, 33.05, 231.59)"/><path class="cls-33" d="M153.69,94.52c0,.07-.1.12-.21.1s-.18-.09-.17-.16.1-.12.21-.11S153.7,94.44,153.69,94.52Z"/><path class="cls-31" d="M153.48,94.69a.41.41,0,0,1-.28-.21.14.14,0,0,0-.06.12c0,.14.12.29.31.31a.3.3,0,0,0,.37-.21.23.23,0,0,0,0-.14S153.68,94.72,153.48,94.69Z"/><path class="cls-32" d="M153.33,100.64a.73.73,0,0,1,.08.91.89.89,0,0,1-.91.39,1,1,0,0,1-.72-.61.72.72,0,0,1,.29-.85.73.73,0,0,0,.53,1h0A.69.69,0,0,0,153.33,100.64Z"/><path class="cls-32" d="M152.9,103.55c.46.5-.14,1.2-.72,1.1s-.94-.89-.4-1.25a.65.65,0,0,0,.49.93A.62.62,0,0,0,152.9,103.55Z"/><path class="cls-32" d="M149.69,103.34a.48.48,0,0,1,.06.59.59.59,0,0,1-.61.28c-.43-.07-.76-.73-.3-1a.48.48,0,0,0,.39.66A.47.47,0,0,0,149.69,103.34Z"/><path class="cls-32" d="M147.12,103.51a.43.43,0,0,1-.09.49.54.54,0,0,1-.66.07c-.35-.2-.42-.88.08-.92a.42.42,0,0,0,.05.62A.41.41,0,0,0,147.12,103.51Z"/><path class="cls-32" d="M154.86,104.12a.49.49,0,0,0,.3.66.47.47,0,0,0,.54-.52c.39.37-.11.9-.54.85a.63.63,0,0,1-.52-.45A.47.47,0,0,1,154.86,104.12Z"/><path class="cls-32" d="M157.28,105c0,.26.25.53.53.43a.42.42,0,0,0,.22-.58c.46.18.21.82-.17.91a.57.57,0,0,1-.62-.26A.44.44,0,0,1,157.28,105Z"/><path class="cls-32" d="M152.45,106.61c.46.47-.15,1.14-.7,1s-.89-.86-.37-1.19a.61.61,0,0,0,.47.87A.6.6,0,0,0,152.45,106.61Z"/><path class="cls-32" d="M153.5,98.44a.59.59,0,0,1,.08.74.72.72,0,0,1-.74.33.75.75,0,0,1-.59-.47.58.58,0,0,1,.22-.73.59.59,0,0,0,.44.8h0A.57.57,0,0,0,153.5,98.44Z"/><path class="cls-32" d="M153.65,96.27a.41.41,0,0,1,.09.48.53.53,0,0,1-.58.3c-.38-.06-.7-.68-.26-.88a.43.43,0,0,0,.3.56A.41.41,0,0,0,153.65,96.27Z"/><path class="cls-32" d="M153.8,94.56a.35.35,0,0,1,.08.44.46.46,0,0,1-.47.23c-.33-.06-.61-.6-.21-.75a.31.31,0,1,0,.6.08Z"/><path class="cls-32" d="M163.11,101.41l.4-.16s-.27-.72-.57-1.34A13.39,13.39,0,0,0,158.06,95,16.46,16.46,0,0,0,154,93.54l-.08,0h-.07a16.49,16.49,0,0,0-4.27,0,12.75,12.75,0,0,0-6.13,3c-.47.48-1,1.07-1,1.07l.32.28c-.17.14.58.66.71.51a1.25,1.25,0,0,0,.72-.26l1.25-.91.75.18a14.09,14.09,0,0,1,4.05-2.16,8.8,8.8,0,0,1,3.38-.15,8.93,8.93,0,0,1,3.15,1.28A14.6,14.6,0,0,1,160,99.8l.77.08s.54.77.91,1.28a1.25,1.25,0,0,0,.59.49C162.36,101.84,162.82,101.57,163.11,101.41Zm-13-6.76a11.37,11.37,0,0,1,1.24-.13A11.37,11.37,0,0,0,150.1,94.65Zm1.32-.13h0Zm4.66.82a11.75,11.75,0,0,1,1.15.54C156.83,95.67,156.45,95.49,156.08,95.34Zm-.07,0,0,0Z"/><path class="cls-31" d="M162.94,99.91A13.39,13.39,0,0,0,158.06,95,16.46,16.46,0,0,0,154,93.54l-.08,0h-.07a16.49,16.49,0,0,0-4.27,0,12.75,12.75,0,0,0-6.13,3c-.47.48-1,1.07-1,1.07l.88.77a11.16,11.16,0,0,1,4.07-3,11.84,11.84,0,0,1,6.3-.82,12.22,12.22,0,0,1,5.73,2.9,11.76,11.76,0,0,1,3,4.16l1.06-.43S163.24,100.53,162.94,99.91Z"/><path class="cls-32" d="M162.43,101.8h0a.13.13,0,0,1-.07-.08,11.73,11.73,0,0,0-2.93-4.11,12.08,12.08,0,0,0-5.65-2.87,11.86,11.86,0,0,0-6.24.81,11.08,11.08,0,0,0-4,2.92.12.12,0,0,1-.08,0,.1.1,0,0,1-.1,0l-.88-.77a.11.11,0,0,1,0-.15s.49-.6,1-1.08a13,13,0,0,1,6.21-3.08,16.42,16.42,0,0,1,4.3,0H154a17.45,17.45,0,0,1,4.08,1.44,13.6,13.6,0,0,1,4.94,5c.3.61.57,1.34.58,1.34a.11.11,0,0,1-.07.14l-1.06.44Zm-8.65-7.29h0a12.27,12.27,0,0,1,5.8,2.93,12.47,12.47,0,0,1,2.94,4.09l.84-.35c-.09-.21-.3-.75-.53-1.22h0A13.19,13.19,0,0,0,158,95.07a16.74,16.74,0,0,0-4-1.42h-.07l-.08,0a16.71,16.71,0,0,0-4.23,0,12.57,12.57,0,0,0-6.06,3c-.36.36-.72.8-.87,1l.69.61a11.7,11.7,0,0,1,4-2.88,11.92,11.92,0,0,1,6.38-.83Z"/><path class="cls-35" d="M143.2,97.85a12.45,12.45,0,0,1,3.87-2.76,13.09,13.09,0,0,1,5.47-1l.05-.33a11.85,11.85,0,0,0-5.71,1,12.59,12.59,0,0,0-3.94,2.86Z"/><path class="cls-35" d="M145.28,96.92l1,.22a12.44,12.44,0,0,1,2.46-1.6,8,8,0,0,1,2.27-.67,7.54,7.54,0,0,0-2.74.54,10.23,10.23,0,0,0-1.84,1.08l-.5,0Z"/><path class="cls-35" d="M162.79,101.24A13.18,13.18,0,0,0,160,97.32a13.73,13.73,0,0,0-4.9-2.76l.05-.33a12.31,12.31,0,0,1,5.1,2.91,13.08,13.08,0,0,1,2.86,4Z"/><path class="cls-35" d="M161.1,99.65l-1-.11a13.59,13.59,0,0,0-1.85-2.35,8.48,8.48,0,0,0-2-1.4,8,8,0,0,1,2.44,1.43,10.48,10.48,0,0,1,1.41,1.65l.47.2Z"/></g><path class="cls-29" d="M123.68,113l1.7-4.59s15-3,23.65-.84,31,9.72,31,9.72C174.86,116.23,139.1,102.44,123.68,113Z"/></g></g><g id="BrazoI"><path id="Bazo_I-2" data-name="Bazo I" class="cls-6" d="M215.29,170.69s9.12-1.34,15.46.94c5.51,2,8.23,7.64,9.85,7.54,4-11.94,2.32-37.17,1.19-44.61-.62-4.08-7.62-16.45-7.62-16.45s-28.25,1.14-24,15.58c6,13.31,4.79,10.13,6.43,14.47S221.71,160.74,215.29,170.69Z"/><g class="cls-39"><path class="cls-2" d="M207.24,132l5.26-1.12s9.46,21.79,9.1,25.45-2.14,11.86-1.5,12.08,17,.79,19,11.49c-6.48-1.87-26.82-7.6-26.82-7.6l1-15Z"/></g></g><path class="cls-6" d="M210,132.76l-.31,2.1.85,0,0,0C210,134.43,210,132.76,210,132.76Z"/><path class="cls-6" d="M225.82,105.6l-17-17.21-2.35.06,1.47-5.34c-.16-.59-1-.22-1.63-.32l-1.86.39,1.35-1.87c.2-.47.46-.94.23-1.44l-3.14-.93-1.17-4.46c-2.23.14-5.45,1.45-14.38,11-10.45,11.21,1.25,22,1.25,22l1.7,2,22.67,23.22,2.33,1.66,21.36-12.34C236.49,121.62,227.79,108.26,225.82,105.6Z"/><path class="cls-2" d="M212.92,132.77l1.67-5.24-2.16,3.3-16.59-23.58,1.57-2.39-4.19.46,1.41-3.52-6.09-5.45,1.71,13.2L210,132.76s0,1.67.5,2.11l0,0c.57.4,2.46.08,2.46.08l-.1.25,2.34-.79,1.13-3.28Z"/><path class="cls-2" d="M206.27,82.79a.74.74,0,0,1-.56-.37,1.15,1.15,0,0,1,0-1.11l-3.19,3Z"/><path class="cls-2" d="M208.12,88.73l17.7,16.87c-5-6.73-15.5-16.93-16.46-17.36-1.33-.61-1.69-3-1.45-4.64a1.1,1.1,0,0,0,0-.49l-3.83,6.76Z"/><path class="cls-2" d="M206,79.87a1.62,1.62,0,0,0-.33-.42A12.29,12.29,0,0,0,203,78.13l-1.21-3.62-.39.08.57,4.87Z"/><path class="cls-5" d="M239.93,136.33l0,0c.14.44.27.89.4,1.36A7.76,7.76,0,0,0,239.93,136.33Z"/><path class="cls-5" d="M236.59,178.46c.81.54,1.24.9,1.24.9s-.3-.41-.86-1.06A1.5,1.5,0,0,1,236.59,178.46Z"/><g id="Chaqueta_I" data-name="Chaqueta I"><path class="cls-17" d="M170.47,193.68l-5.3,1.79s-2.65,4.77-5.69-.36,3-106.52,3.45-111.19,6.21-8.7,7.6-13.34a6.25,6.25,0,0,0-.37-4.47l-5.61-5.22L171.7,57s8.31,3.7,8.45,6.66c.3,6,4.39,4.37,4.23,8.13-.1,2.58-6.3,1.55-6.51,5.47C176,113.13,170.47,193.68,170.47,193.68Z"/><path class="cls-18" d="M183.41,74.11s.94-.86-1.3-3.12c-.69-.68-1.87-1.41-2.19-2-.75-1.39-.67-3.37-2.07-4.5-2-1.62-5.09,5.23-5.09,5.23s-2,2.28-3.48,7.61a75.83,75.83,0,0,0-1.7,12.12c-1.4,27.08-6.67,100.83-6.67,100.83s-1.17,9.81.84,5.11,16.21-85,16.21-85Z"/><path class="cls-6" d="M177.19,66.21c-1.33,0-3.25,4.39-6.29,8.91-1.51,4.4-7.5,89.18-9.22,115.88-.29,4.56-1.26,6.64-.46,7.22s2.92-.72,6.67-1.75c4.88-1.34,19.21-7.71,22.32-9.21,5.5-2.66,1.78-35,2.49-36.37s1.34-3.12.58-4.39,2.62-31.42,2.62-31.42-10.9-12.5-5-24.66,10.82-15.94,10.82-15.94L183,72.87s-1.51-1.21-3.25-2.55S178.53,66.22,177.19,66.21Z"/><polygon class="cls-2" points="179.74 70.31 185.36 79.2 165.17 138.27 186.96 79.3 179.74 70.31"/><g class="cls-40"><polygon class="cls-2" points="193.82 153.72 181.3 155.06 190.35 152.06 173.47 143.98 191.53 150.33 178.2 137.22 190.86 145.77 189.8 100.37 206.36 119.15 195.3 148.81 193.82 153.72"/><path class="cls-2" d="M193.23,152.09c-.4-2.3-.78-2.84-1.39-.64-.81,2.92-1,29.36-2.28,31-2.84,3.58-30.08,16.89-30.08,16.89l18.25-5.69,10.59-4.26s5.29-3.86,5.65-8C194.76,172.26,193.5,153.59,193.23,152.09Z"/></g><path class="cls-18" d="M168.91,74.09s3.5-6.67,2.79-9a13,13,0,0,0-2.79-4.45L166.77,65s1,2.08,1.78,4S168.91,74.09,168.91,74.09Z"/></g><g id="Cabeza"><path class="cls-7" d="M153.46,28.53A32.18,32.18,0,0,0,148,29a16.48,16.48,0,0,0-6.1,30.22c1.71,3.14,4.84,8.19,8.06,9.73,4.79,2.3,6.66,5.29,10.15,5.34s10.38-11.11,11.31-13.92c.6-1.85,1.26-14.77,1.26-14.77A16.51,16.51,0,0,0,158.44,29,33.42,33.42,0,0,0,153.46,28.53Z"/><path class="cls-14" d="M160.06,74.5c-2.16,0-3.69-1.12-5.62-2.5a30,30,0,0,0-4.63-2.86c-3.3-1.58-6.51-6.78-8.15-9.78a16.74,16.74,0,0,1,6.25-30.65,32.8,32.8,0,0,1,5.56-.43,33.77,33.77,0,0,1,4.66.4l.34.05a16.77,16.77,0,0,1,14.41,16.83c0,.54-.67,13-1.28,14.85C170.72,63.1,163.77,74.55,160.06,74.5Zm-6.6-45.72a31.8,31.8,0,0,0-5.47.43A16.23,16.23,0,0,0,142,59l.06,0,0,.05c1.6,2.94,4.76,8.09,8,9.63a29.64,29.64,0,0,1,4.71,2.9c1.86,1.33,3.33,2.38,5.33,2.41,3.21,0,10.11-10.82,11.07-13.75.58-1.79,1.24-14.57,1.25-14.7a16.26,16.26,0,0,0-14-16.32l-.35-.05A31.08,31.08,0,0,0,153.46,28.78Z"/><path class="cls-31" d="M158.84,57.06s0-1.61-3.35-2.37a15.06,15.06,0,0,0-5.43-.39l.32,1.57"/><path class="cls-41" d="M158.59,57.07s-.1-1.44-3.15-2.13a16.46,16.46,0,0,0-5.08-.43l.27,1.31-.49.1-.37-1.82.25-.05a15.54,15.54,0,0,1,5.53.4c3.48.79,3.54,2.53,3.54,2.61Z"/><path class="cls-9" d="M169.44,48.59s-3.12,3.91-3.56,5.83a49.66,49.66,0,0,0-.34,7.48l-1.11-8.82Z"/><path class="cls-42" d="M166.24,54.85s2.83-3.64,5.25-4l.54,1.37"/><path class="cls-2" d="M159,52.72s-6.46-3.28-10-2c0,0-.33.59.52.61C151.63,50.59,159,52.72,159,52.72Z"/><path class="cls-2" d="M172.61,46.76c-2.65-.33-7.19,5.5-7.19,5.5s4-3.42,4.78-3.89,2.28-1.23,2.28-1.23Z"/><path class="cls-9" d="M144,51.21s2.81,12.19,9.92,14.05c-.48,1.29-8-.11-8-.11s-4.3-8.4-3.08-10.94S144,51.21,144,51.21Z"/><path class="cls-43" d="M167.21,65l1.28.74s2.51-3.76,2.81-5.18.49-2.95.49-2.95"/><path class="cls-2" d="M138.84,33.72a26.78,26.78,0,0,1,4,7.29c1.15,3.71.65,7.55,2.41,7.41,0,0-3.16,9,1.78,12.87.64.25,1,2.45,1.92,2.67.67.15,1.37.3,2.06.43,2.27.43,4.37.71,4.37.71a22.56,22.56,0,0,0,3.4-.88c2.19-.71,7.22-2.82,8.49-.68l1.26,2.15A31,31,0,0,1,166,71.37c-.36.64-.76,1.39-1.14,2.1-.16.3-.48.91-.78,1.45s-.47.83-.56,1a4.21,4.21,0,0,0-.46.95c-.13.36.26.75.26.86,0,.33-1.6.44-2.34.45a14.48,14.48,0,0,1-4.23-.84c-4.18-1.37-9.65-4.44-12-9.19-4.15-8.22-3-18-4.92-18.89-1.34-.61-3.09,4.9-3.09,4.9A15,15,0,0,1,134,42.43,14.39,14.39,0,0,1,138.84,33.72Z"/><path class="cls-9" d="M140.92,50.13s-3.34-3.34-4.43-1c-.5,1.08-.38,3.27.46,5.26,1,2.37,3.88,4.53,4.89,4.11"/><path class="cls-14" d="M141.52,58.83c-1.41,0-3.92-2.19-4.8-4.31-.83-2-1-4.26-.46-5.46a1.54,1.54,0,0,1,1.15-1c1.53-.26,3.6,1.78,3.69,1.87l-.36.35c-.54-.54-2.19-1.92-3.24-1.73a1.09,1.09,0,0,0-.79.69,7.29,7.29,0,0,0,.47,5.06c1,2.29,3.73,4.32,4.57,4l.19.46A1.16,1.16,0,0,1,141.52,58.83Z"/><path class="cls-7" d="M163.71,50.77s2.84,12.42,2.41,12.69-4.63-.74-4.63-.74a1,1,0,0,1,.25-1.22"/><path class="cls-14" d="M165.76,63.75a27.11,27.11,0,0,1-4.33-.79l-.11,0,0-.1a1.26,1.26,0,0,1,.32-1.53l.31.4a.72.72,0,0,0-.22.81,24.89,24.89,0,0,0,4.23.75c.05-1-1.45-8.08-2.45-12.44l.49-.11c2.89,12.6,2.47,12.86,2.3,13A1.15,1.15,0,0,1,165.76,63.75Z"/><g class="cls-44"><circle class="cls-41" cx="156.66" cy="55.79" r="2.09"/></g><g class="cls-45"><ellipse class="cls-41" cx="170.39" cy="52.18" rx="1.71" ry="1.47" transform="translate(115.74 221.8) rotate(-89.17)"/></g></g></g></g></svg>