<svg xmlns="http://www.w3.org/2000/svg" xmlns:xlink="http://www.w3.org/1999/xlink" viewBox="0 0 252.51 406"><defs><style>.cls-1,.cls-7{fill:#faebd6;}.cls-1,.cls-10,.cls-43{stroke:#72390d;}.cls-1,.cls-10,.cls-11,.cls-26,.cls-4,.cls-42,.cls-43{stroke-miterlimit:10;}.cls-1,.cls-10,.cls-26,.cls-4,.cls-42,.cls-43{stroke-width:0.5px;}.cls-2,.cls-29{fill:#030202;}.cls-3{fill:#e4e4e4;}.cls-23,.cls-4{fill:#586da8;}.cls-26,.cls-4{stroke:#080919;}.cls-10,.cls-11,.cls-26,.cls-5{fill:none;}.cls-6{fill:#0b0b0c;}.cls-8{clip-path:url(#clip-path);}.cls-43,.cls-9{fill:#c2714e;}.cls-11{stroke:#030202;}.cls-12{clip-path:url(#clip-path-2);}.cls-13{clip-path:url(#clip-path-3);}.cls-14{fill:#72390d;}.cls-15{clip-path:url(#clip-path-4);}.cls-16{clip-path:url(#clip-path-5);}.cls-17{fill:#9b9b9b;}.cls-18{fill:#626262;}.cls-19{clip-path:url(#clip-path-6);}.cls-20{fill:#b0b0b0;}.cls-21{opacity:0.8;}.cls-22{clip-path:url(#clip-path-7);}.cls-24{clip-path:url(#clip-path-8);}.cls-25{fill:#131b2b;}.cls-27{fill:#08080a;}.cls-28{clip-path:url(#clip-path-9);}.cls-29{opacity:0.9;}.cls-30{opacity:0.08;}.cls-31,.cls-42{fill:#fff;}.cls-32{fill:#010102;}.cls-33{fill:#414042;}.cls-34{fill:#120f0e;}.cls-35{fill:#14a5dc;}.cls-36{fill:#010002;}.cls-37{fill:#00d8f5;}.cls-38{fill:#404041;}.cls-39{clip-path:url(#clip-path-10);}.cls-40{clip-path:url(#clip-path-11);}.cls-41{fill:#171519;}.cls-42{stroke:#171519;}.cls-44{clip-path:url(#clip-path-12);}.cls-45{clip-path:url(#clip-path-13);}</style><clipPath id="clip-path"><path class="cls-1" d="M224.81,172.54a24.52,24.52,0,0,0-6.31,4c-2.49,2.39-3.35,3-3.51,4.95s-2.19,6.94-2.85,8.05-1.4,2.35,2,2c4.92-.48,4.92-5.36,6.26-7.69a8.27,8.27,0,0,1,3.72-3.25s.31,8.54-.49,11.33-2.75,7.4-.48,7.74c1.86.27,3.26-1.29,4.4-6.68s2.05-6.66,2.05-6.66a23.53,23.53,0,0,1,.82,7.18c-.18,2.79-3.12,10.69-2.56,12.3s-.09,2.38,1.95,2,2.1-1.4,2.1-1.4,2.39,1.78,3.3-.52c.16-.39.52-1.11.9-1.92,1.52-3.28,3-12,3.23-13.06.23-1.35,1.62,3.64,1.11,5.66s.36,9.31,1.28,9.35,2,.19,2.21-1.73.12-5.55.08-7.82.14-7.13-1.19-9,1-13.11,1-13.11,1-8.12-5.07-7.92-12.45-.74-12.72,1.18A43.65,43.65,0,0,1,224.81,172.54Z"/></clipPath><clipPath id="clip-path-2"><path class="cls-2" d="M138.61,74.26s-19.18,1.16-21.87,1.86S79.32,115.5,79.32,115.5s-3.91,14.93-2.26,16.65,1.7,4.74,5.11,4,4.9,4.91,9.56,3.47,32.43-27.44,32.43-27.44Z"/></clipPath><clipPath id="clip-path-3"><path class="cls-7" d="M85.16,115s1.67-5.14,3-6.68,7.77-6.33,9-6.58,10.83,2,11.57,2.58,1.83,6.18,1.83,6.75a13.34,13.34,0,0,1-4.13,3c-.66.73-.55,1.47-1.28,2.32-.32,1.39-5.72,3.42-6,3.45-1.18.12-2.55,3.28-2.55,3.28s-4.83,1.9-7.78-.08S85.16,115,85.16,115Z"/></clipPath><clipPath id="clip-path-4"><path class="cls-7" d="M111.8,112s-1.85-1.79-4.91.92-2.8,3.84-1.88,4.68,5.79-1.12,6.79-2.06A2.22,2.22,0,0,0,111.8,112Z"/></clipPath><clipPath id="clip-path-5"><path class="cls-5" d="M84.7,112.38c-.94.28-9.33,14.58-9.33,14.58s-2.46,12,1.48,13.45,12.29,1.89,17.31-2.34c3.15-7.34,4.88-17.65,4.88-17.65s-11.38,2.11-12.53-6.36C86.81,114.09,85.64,112.11,84.7,112.38Z"/></clipPath><clipPath id="clip-path-6"><path class="cls-3" d="M70.35,355.62s1.27,10.55-5,15.51-3,2.12-3,2.12-7.26,3.24-7.17,6.26a79,79,0,0,0,1.26,9s3.63,4.44,8.48,4.36,11.69.93,14.16-2.95a69.33,69.33,0,0,1,6.25-8s-2.32-2.3-.4-2.94,2.22,1.49,2.22,1.49,8.08-3.28,9.19-4.94S96.24,364,96.24,364Z"/></clipPath><clipPath id="clip-path-7"><path id="zapato_I" data-name="zapato I" class="cls-3" d="M214.68,370.12l.23,11.63s.19,5.49-1,6.72a4.35,4.35,0,0,0-1.24,2.82v8.65a7.86,7.86,0,0,0,7.71,5.47c6.35.18,13.65-.35,17.88-4.06s3.18-3.17,3.18-3.17l.12-9.53a1.59,1.59,0,0,1-1.89-.87c-.52-1.25-5-16.9-5-16.9S225.1,358.65,214.68,370.12Z"/></clipPath><clipPath id="clip-path-8"><path class="cls-4" d="M125.29,160.47S102.74,204.32,97.48,214c-6.08,11.22-15.93,36-18.45,42s-5.72,10.63-5.91,15.1,1.34,8.43,2.13,16.38-2.81,48.6-4.19,51.33-4.79,4.83-4.59,10.12c.07,1.91,2.85,2.18,2.18,5.16s-3,6-.89,6.72,7-2.13,14.59.36,13.83,3.89,15.18,2.7c3.38-3-.28-7.33,1.12-8.82s5-2.8,3.59-5.53a28.83,28.83,0,0,1-3.11-11.37,103.16,103.16,0,0,1,3.63-20c1.46-4.55,7.5-27.57,6.92-33.9-.3-3.25-.36-6.62-1.5-9.42-1.24-3.05-3.65-2.13-2.74-5.11s16.77-23.57,21.71-31.27,11.34-25.58,12.58-25.58c.11,0,1.67-.27,1.89.35,2.23,6.34,10.47,38.47,17.83,49.51,8.07,12.1,9.58,21.48,12.62,25.4s15.27,23.55,20.87,35.47,12.58,26.51,12.12,32.47-2.21,9.41,1.53,12.76,7.78,9.75,7.78,9.75,1.36-7.57,8.41-7.76,12.89.31,12.75,3.66c1.39-1.68,1.81-6.21.23-9.23-2.18-4.2,2.58-5.73,2.3-9.62-.19-2.6-6.32-4.7-7.59-7.68s-5.47-39.49-6.94-44.7-12-15.12-15-17.36-3-8.13-4.39-10.17-5.16-4.24-6.09-8-11-62.39-12.72-78-.36-17.37-.36-17.37l-48.24-5.43Z"/></clipPath><clipPath id="clip-path-9"><path class="cls-5" d="M144.31,79.2S156.88,93,171.36,78l19.37,3-16.6,71.77-3.54,24.6a155,155,0,0,1-28.29-.69c-13.88-1.82-16.52-1.46-21-5.15s-6.94-16.14-4.12-30.6,15.72-42.79,17.44-47.15c1-2.44,2.34-6.94,4.72-10.26C141.24,81,144.14,78.09,144.31,79.2Z"/></clipPath><clipPath id="clip-path-10"><path id="Bazo_I" data-name="Bazo I" class="cls-6" d="M216.44,173.33s10.74-2,17.4.09c5.8,1.77,8.15,6,9.85,5.85,4.19-11.4-5.44-44.42-7.37-47.8s-3.78-6.28-3.78-6.28-29.64,1.63-25.13,15.24C207.88,141.35,219.87,163.06,216.44,173.33Z"/></clipPath><clipPath id="clip-path-11"><path class="cls-5" d="M175.19,70.74c-1.33,0-3.25,4.38-6.29,8.88-1.51,4.38-7.5,88.82-9.22,115.41-.29,4.54-1.26,6.61-.46,7.19s2.92-.71,6.67-1.74c4.88-1.34,19.21-7.68,22.32-9.17,5.5-2.65-.22-36.86.49-38.22s1.34-3.11.58-4.37,4.62-29.3,4.62-29.3-10.9-12.45-5-24.56,8.5-14.39,8.5-14.39L181,77.38s-1.51-1.21-3.25-2.55S176.53,70.75,175.19,70.74Z"/></clipPath><clipPath id="clip-path-12"><path class="cls-5" d="M156.84,61.06s0-1.61-3.35-2.37a15.06,15.06,0,0,0-5.43-.39l.32,1.57"/></clipPath><clipPath id="clip-path-13"><path class="cls-5" d="M170.2,56.56l-.71-1.68c-2.42.33-5.25,4-5.25,4"/></clipPath></defs><g id="Frame5"><g id="Frame_1" data-name="Frame 1"><path id="Zapato_I-2" data-name="Zapato I" d="M215.67,175.66s13.14,11.13,24.18,4.4C236.57,167.94,216.93,166,215.67,175.66Z"/><g id="Mano_I" data-name="Mano I"><path class="cls-7" d="M224.81,172.54a24.52,24.52,0,0,0-6.31,4c-2.49,2.39-3.35,3-3.51,4.95s-2.19,6.94-2.85,8.05-1.4,2.35,2,2c4.92-.48,4.92-5.36,6.26-7.69a8.27,8.27,0,0,1,3.72-3.25s.31,8.54-.49,11.33-2.75,7.4-.48,7.74c1.86.27,3.26-1.29,4.4-6.68s2.05-6.66,2.05-6.66a23.53,23.53,0,0,1,.82,7.18c-.18,2.79-3.12,10.69-2.56,12.3s-.09,2.38,1.95,2,2.1-1.4,2.1-1.4,2.39,1.78,3.3-.52c.16-.39.52-1.11.9-1.92,1.52-3.28,3-12,3.23-13.06.23-1.35,1.62,3.64,1.11,5.66s.36,9.31,1.28,9.35,2,.19,2.21-1.73.12-5.55.08-7.82.14-7.13-1.19-9,1-13.11,1-13.11,1-8.12-5.07-7.92-12.45-.74-12.72,1.18A43.65,43.65,0,0,1,224.81,172.54Z"/><g class="cls-8"><path class="cls-9" d="M213.56,192.22s3.32-1.14,4.79-7.29,1.23-9.31,1.23-9.31l3.94-3.14,2.08-6.3,4.21-1s7.5,0,10.64.89a3.46,3.46,0,0,1,1,.43c.88.59,2.34,3.86,2.92,5.51.26.76.34,1.17.08.83-.56-.73-.68,9.42-1.35,8.92-.91-.68-2.54-4.72-6.88-6.19-3.88-1.32-5.78-1.76-7.43-.73-2.18,1.35-2.5,5.16-2.52,6.44A43.75,43.75,0,0,1,224,195.53c-.5,1.45-1.12,3.14-.52,3.5,1.63,1,3.64-1.33,3.64-1.33L225,200.51l-4.27-.38,2.17-12.29-.12-5L218.32,190Z"/><path class="cls-9" d="M229.3,187l1.64-3.47a38.63,38.63,0,0,1,1.6,7.72,24.24,24.24,0,0,1-1.82,9.28c-1.21,3.18-2.65,6.35-.9,7.36s-3.94,3.15-4.64,2.27,1.83-7.38,1.83-7.38a15.2,15.2,0,0,1,.63-3.48C228.06,198.42,229.3,187,229.3,187Z"/><path class="cls-9" d="M235.6,185.38l-1.33,12.11s-3.45,9.1-2.39,9.71a1.73,1.73,0,0,0,2-.37s-1.27-.26-.11-3.81S236.89,189.52,235.6,185.38Z"/><path class="cls-9" d="M239.63,194.82l-.4-5.46s2.51,2.82,2.61,4.78c.17,3.13-.76,11.63.82,12.79-.08.93-1.71-.07-1.71-.07l-2.16-3.06Z"/><path class="cls-1" d="M231.92,206.45s2.17-9.14,2.45-11.11,1.23-10,1.23-10"/></g><path class="cls-10" d="M224.81,172.54a24.52,24.52,0,0,0-6.31,4c-2.49,2.39-3.35,3-3.51,4.95s-2.19,6.94-2.85,8.05-1.4,2.35,2,2c4.92-.48,4.92-5.36,6.26-7.69a8.27,8.27,0,0,1,3.72-3.25s.31,8.54-.49,11.33-2.75,7.4-.48,7.74c1.86.27,3.26-1.29,4.4-6.68s2.05-6.66,2.05-6.66a23.53,23.53,0,0,1,.82,7.18c-.18,2.79-3.12,10.69-2.56,12.3s-.09,2.38,1.95,2,2.1-1.4,2.1-1.4,2.39,1.78,3.3-.52c.16-.39.52-1.11.9-1.92,1.52-3.28,3-12,3.23-13.06.23-1.35,1.62,3.64,1.11,5.66s.36,9.31,1.28,9.35,2,.19,2.21-1.73.12-5.55.08-7.82.14-7.13-1.19-9,1-13.11,1-13.11,1-8.12-5.07-7.92-12.45-.74-12.72,1.18A43.65,43.65,0,0,1,224.81,172.54Z"/></g><g id="Antebrazo_D" data-name="Antebrazo D"><path class="cls-11" d="M137.62,76.07s-18.19-.65-20.88.05S79.32,115.5,79.32,115.5s-3.91,14.93-2.26,16.65,1.7,4.74,5.11,4a81.37,81.37,0,0,0,9.34-2.58,113.13,113.13,0,0,0,12.71-5.46l19.94-15.93Z"/><path class="cls-2" d="M138.61,74.26s-19.18,1.16-21.87,1.86S79.32,115.5,79.32,115.5s-3.91,14.93-2.26,16.65,1.7,4.74,5.11,4,4.9,4.91,9.56,3.47,32.43-27.44,32.43-27.44Z"/><g class="cls-12"><polygon class="cls-6" points="95.5 127.76 103.79 119.86 123.18 77.92 135.53 74.72 118.65 71.12 84.36 106.96 83.74 128.57 95.5 127.76"/></g></g><path id="Manga_D" data-name="Manga D" d="M83.4,113s13.38,1.3,14.13,10.1S80.29,124.56,83.4,113Z"/><path class="cls-7" d="M85.16,115s1.67-5.14,3-6.68,7.77-6.33,9-6.58,10.83,2,11.57,2.58,1.83,6.18,1.83,6.75a13.34,13.34,0,0,1-4.13,3c-.66.73-.55,1.47-1.28,2.32-.32,1.39-5.72,3.42-6,3.45-1.18.12-2.55,3.28-2.55,3.28s-4.83,1.9-7.78-.08S85.16,115,85.16,115Z"/><g class="cls-13"><path class="cls-9" d="M88.91,123.38s2.6-2.09,2.41-4.34a13.38,13.38,0,0,1,.58-4.63S96.38,117.72,97,117s1.53-3.67,2.41-3.62,3.74-1.4,3.59-3c.44.09,2.68-1.6,2.3-3.19.41-.12,5,2.65,5,2.65l1.56,4.3-11,7.72-8,4.62Z"/></g><path class="cls-14" d="M96.09,116.76A30.24,30.24,0,0,0,92.35,115v-.45a29.37,29.37,0,0,1,3.94,1.78Z"/><path class="cls-14" d="M97.24,118.77a3.62,3.62,0,0,1-1.94-.72,5.28,5.28,0,0,1-1.54-1.81,5.66,5.66,0,0,1-2.33.91l-.12-.44c1.09-.22,2.28-.69,2.25-1h0l.46,0h0a4.25,4.25,0,0,0,1.54,2,3,3,0,0,0,2.45.58c1.51-.31,1.75-3,1.85-4.18l0-.28c0-.5-2.41-2.4-4.72-3.87l.24-.37c1.19.75,5,3.29,4.94,4.31l0,.28c-.11,1.25-.37,4.18-2.2,4.55A3.31,3.31,0,0,1,97.24,118.77Z"/><path class="cls-14" d="M100.14,117.91c-.27,0-.59-.06-1-.12l0-.44c1.78.29,2.26,0,2.73-.32a2.73,2.73,0,0,1,.51-.29c.59-.25,1.27-4.95,1-5.87-.14-.48-3-2.37-5.77-3.92l.21-.38c1,.54,5.73,3.28,6,4.2s-.25,6-1.23,6.38a2.51,2.51,0,0,0-.45.26A2.92,2.92,0,0,1,100.14,117.91Z"/><path class="cls-14" d="M103.32,116.43l-.19-.42c2.71-1,2.76-2.55,2.76-2.56.18-1.86.33-4.82,0-5.44s-3.76-2.4-5.88-3.39l.18-.4c.94.44,5.66,2.68,6.12,3.61s.07,5.19,0,5.67C106.36,113.55,106.33,115.32,103.32,116.43Z"/><path class="cls-14" d="M91.62,124.1a6.12,6.12,0,0,1-3-.94c-3-2-3.64-7.94-3.66-8.19v-.09c.07-.21,1.7-5.19,3-6.75s7.76-6.38,9.07-6.65c1.14-.23,10.93,2,11.77,2.63s1.92,6.48,1.92,6.94-2.2,2.09-4.21,3.15a2.84,2.84,0,0,0-.54,1,3.9,3.9,0,0,1-.68,1.25c-.47,1.56-5.94,3.54-6.18,3.57-.77.07-1.87,2-2.38,3.15l0,.07-.09,0A13.29,13.29,0,0,1,91.62,124.1ZM85.4,115c.06.55.74,6,3.43,7.79s6.84.32,7.48.09c.26-.58,1.49-3.2,2.69-3.32.38-.07,5.54-2.06,5.82-3.29l0-.09a3.5,3.5,0,0,0,.64-1.17,3.46,3.46,0,0,1,.65-1.15l.06,0a15.1,15.1,0,0,0,4-2.84c0-.64-1.14-6-1.74-6.52s-10.16-2.78-11.36-2.53-7.57,5-8.83,6.51S85.56,114.5,85.4,115Z"/><path class="cls-7" d="M111.8,112s-1.85-1.79-4.91.92-2.8,3.84-1.88,4.68,5.79-1.12,6.79-2.06A2.22,2.22,0,0,0,111.8,112Z"/><g class="cls-15"><path class="cls-9" d="M111.43,115.8s-5.06,1.08-4.76-.14,3.25-4.27,3.25-4.27a4.25,4.25,0,0,0-4.48,1c-2,2-2,6.56-2,6.56l3.45.67Z"/></g><path class="cls-14" d="M105.63,118a1.28,1.28,0,0,1-.77-.25,1.82,1.82,0,0,1-.7-1.32c0-.94.79-2.11,2.57-3.69,3-2.67,5-1.1,5.21-.92a2.2,2.2,0,0,1,1,1.57,2.84,2.84,0,0,1-.93,2.3C111.1,116.5,107.42,118.1,105.63,118Zm4.67-6.36a4.55,4.55,0,0,0-3.25,1.45c-1.65,1.46-2.45,2.56-2.43,3.35a1.39,1.39,0,0,0,.54,1c.74.67,5.46-1.11,6.47-2.07a2.43,2.43,0,0,0,.81-1.95,1.74,1.74,0,0,0-.77-1.24l0,0A2.21,2.21,0,0,0,110.3,111.63Z"/><g id="Brazo_D" data-name="Brazo D"><path class="cls-2" d="M84.7,112.38c-.94.28-9.33,14.58-9.33,14.58s-2.46,12,1.48,13.45,12.29,1.89,17.31-2.34c3.15-7.34,4.88-17.65,4.88-17.65s-11.38,2.11-12.53-6.36C86.81,114.09,85.64,112.11,84.7,112.38Z"/><g class="cls-16"><path class="cls-6" d="M76.17,141.53s1.63-7.73,4.81-11.4,3.49-9.22,5.61-9.85c1.46-.43,1.4-1,1.4-1A4.35,4.35,0,0,1,86.43,116c-.09-2.9-3.1-6.31-3.1-6.31l-9.88,17.44-.23,11.46Z"/></g></g><g id="Chaqueta_D" data-name="Chaqueta D"><path class="cls-2" d="M129.41,97.42l-4.32,9.5s-18.68,82.59-16.43,84.38,2.78,1.6,6.85-.72S129.41,97.42,129.41,97.42Z"/><path class="cls-17" d="M144.86,62.43s-12.65,4.76-13.53,16.38c-.51,6.77-23.23,112.49-19.94,112.49S131.64,174,131.64,174L144.53,73.73Z"/><path class="cls-18" d="M131.64,174s-14.68,15.9-13.76,9.25,5.9-45.58,5.9-45.58,6.68-24,8.78-34.19,1.77-19.51,5-25.15a26.39,26.39,0,0,1,8-8.92Z"/></g><path class="cls-9" d="M162.54,75.68,149.33,77l-5.75-6a59.23,59.23,0,0,1,.54,8.26c-.07,1.25-2.59,8-2.59,8,7.7,5.38,14.23,2.87,18.43,1.6,5.46-1.66,8.89-9.41,8.89-9.41L165.9,70.6Z"/><path class="cls-10" d="M148.77,90.22s-4.94-17.92-6.18-20.53"/><g id="zapato_D" data-name="zapato D"><path class="cls-3" d="M70.35,355.62s1.27,10.55-5,15.51-3,2.12-3,2.12-7.26,3.24-7.17,6.26a79,79,0,0,0,1.26,9s3.63,4.44,8.48,4.36,11.69.93,14.16-2.95a69.33,69.33,0,0,1,6.25-8s-2.32-2.3-.4-2.94,2.22,1.49,2.22,1.49,8.08-3.28,9.19-4.94S96.24,364,96.24,364Z"/><g class="cls-19"><path class="cls-20" d="M54.53,375.8s1.43,5.63,4.12,6.91a34.69,34.69,0,0,0,5.64,2s3.61,9.07,5,9.53-9.59.86-9.59.86l-7.49-5.71Z"/><path class="cls-20" d="M79,392.5l-1.66-11.91-1.22-1.54S86,367.56,86.27,359.7s16,3.07,16,3.07l-.21,14.09-13.28,9.26Z"/><path class="cls-6" d="M60.64,371s-4.08,7.58-.71,9.3,11.05,3.16,13.86.87,12.12-12.39,12.48-22.62-19.4-4.26-19.4-4.26S68.77,368.4,60.64,371Z"/><path class="cls-21" d="M99.79,379.83c-17.17,10.69-17,10.75-29.27,17.18-4.22,2.21-13.87-6-14-6.7s10.48,3.46,19-.53c4.4-2.07,6.78-6.55,10.11-9.2,7.53-6,10.59-5.73,8.36-9.71-6.38.09-22,.31-27.22,3-6.09,3.18-14,7.82-14,7.82L51,376.65l8-10.27,9.45-13.86,28.44,8.58,5.37,5.06Z"/></g></g><path id="zapato_I-3" data-name="zapato I" class="cls-3" d="M214.68,370.12l.23,11.63s.19,5.49-1,6.72a4.35,4.35,0,0,0-1.24,2.82v8.65a7.86,7.86,0,0,0,7.71,5.47c6.35.18,13.65-.35,17.88-4.06s3.18-3.17,3.18-3.17l.12-9.53a1.59,1.59,0,0,1-1.89-.87c-.52-1.25-5-16.9-5-16.9S225.1,358.65,214.68,370.12Z"/><g class="cls-22"><path class="cls-6" d="M213.45,368.18l2,18.64s-1.06,9.06,9.35,8.71,12.88-3.53,15.71-10.19c1.25-2.95-2.89-18.4-2.89-18.4s-6.35-3.08-12.55-3C219.49,364,214,367.17,213.45,368.18Z"/><path class="cls-21" d="M212.62,387.59c4.06,0,7.77.62,8.48-2.25s-1.3-6.22-1.3-6.22-.59-3.88,5.27-4.24,13.44,7.94,13.44,7.94l2.29-10.76-9.53-9.35s-14.65-1.59-14.82-1.06S212.62,387.59,212.62,387.59Z"/><path class="cls-20" d="M212.62,389.53s.95,7.53,7.45,8.82a17.67,17.67,0,0,0,4.2.36L222.8,407l-12.18-1.56L209.8,398Z"/><path class="cls-20" d="M236.8,403.65l.18-8.12s3.59-1.59,4.53-8.47c3.94,4.41,2.35,12.7,2.35,12.7Z"/><path class="cls-21" d="M210.15,394.82s7.06,10.94,18.36,8.65,15-8.82,15-8.82l-2,7.23s-7.41,6.53-8.47,6.53S217.86,407,215.74,407s-4.88-6.22-4.88-6.22Z"/></g><g id="Piernas"><g id="Piernas-2" data-name="Piernas"><path class="cls-23" d="M125.29,160.47S102.74,204.32,97.48,214c-6.08,11.22-15.93,36-18.45,42s-5.72,10.63-5.91,15.1,1.34,8.43,2.13,16.38-2.81,48.6-4.19,51.33-4.79,4.83-4.59,10.12c.07,1.91,2.85,2.18,2.18,5.16s-3,6-.89,6.72,7-2.13,14.59.36,13.83,3.89,15.18,2.7c3.38-3-.28-7.33,1.12-8.82s5-2.8,3.59-5.53a28.83,28.83,0,0,1-3.11-11.37,103.16,103.16,0,0,1,3.63-20c1.46-4.55,7.5-27.57,6.92-33.9-.3-3.25-.36-6.62-1.5-9.42-1.24-3.05-3.65-2.13-2.74-5.11s16.77-23.57,21.71-31.27,11.34-25.58,12.58-25.58c.11,0,1.67-.27,1.89.35,2.23,6.34,10.47,38.47,17.83,49.51,8.07,12.1,9.58,21.48,12.62,25.4s15.27,23.55,20.87,35.47,12.58,26.51,12.12,32.47-2.21,9.41,1.53,12.76,7.78,9.75,7.78,9.75,1.36-7.57,8.41-7.76,12.89.31,12.75,3.66c1.39-1.68,1.81-6.21.23-9.23-2.18-4.2,2.58-5.73,2.3-9.62-.19-2.6-6.32-4.7-7.59-7.68s-5.47-39.49-6.94-44.7-12-15.12-15-17.36-3-8.13-4.39-10.17-5.16-4.24-6.09-8-11-62.39-12.72-78-.36-17.37-.36-17.37l-48.24-5.43Z"/><g class="cls-24"><path class="cls-25" d="M125.65,241.53s6.89-26.19,6.35-32.9-13.13-15.6-18.36-14.11-6.92,11.45-10.83,19.4C99.46,220.7,87,249.75,82.94,259.75c-.65,1.59-7.69,12.09-.77,15.27a8.88,8.88,0,0,0,1.74.57c1.43.32,9.26,2.3,8.38,5.29-1.42,4.85-13.12,9.8-13.14,15.27,0,3.75,9.66,35.36,7.14,41.82-1.2,3.1-5.74,6.54-10.66,6.23-5.34-.33-9.38-1-10.51-.14-2.19,1.72,4.51,1.5,8.76,3.23s14.94,5.58,15.53,6.95c1.2,2.79-3.17,11.64-3.17,11.64l-21.62-4.72-1-22.05,3.68-7.7,4.64-49.13-7-15.15s10.07-15,10.78-14.93,24.51-61.75,24.51-61.75l7.87-12.17,14.94-21s38.69,7.29,49.2,11.91c3.08,1.36-.41,7.28-6.42,8.35-12.15,2.17-39.15-.77-37.58,5.29,1.1,4.28,12.4,6.79,14.2,9.09,6.05,7.7,6,21,9.62,35.47,2.38,9.53,23.79,47.89,25.5,51.83,1.53,3.52,5,3.49,8.12,2,2.18-1,7.2-2.39,8.82.58.73,1.34-2.95,16.69-1.76,21.36s13.26,34.32,18,36.74c4.51,2.3,1,7.69-.82,11.67s-7.76,10.82-7.76,10.82l.26,2.12s4.89,3,6.44.71c3-4.41,6.06-8.49,9.06-9.48,2-.64,7.62-2.78,10.48-.12,3.72,3.46,4.62,9.46,3.29,9.6-2.35.25-8.38-3.59-13.18,2.11-.62.74-1.75,2.51-.12,2.94,2.81.75,9.35.06,8.71,1.42-1.87,4-15.28,9.47-15.28,9.47l-9.85-5.73-13.34-41.26-38.71-86.75-7.2-26.38-2.74-5.3L137,223.09Z"/><path class="cls-25" d="M232.47,348.71S221.65,340.22,214,330c-4.41-5.89-7-11.82-8.24-14,7.49,6.89,13.65,14.35,22.45,18.77C236.54,338.94,232.47,348.71,232.47,348.71Z"/><path class="cls-25" d="M101.41,338.94s-9-9-15.65-31.18c4,8.57,9.33,18.34,16.24,20.95C103.45,332.06,101.41,338.94,101.41,338.94Z"/><path class="cls-25" d="M107.06,266.24s-3,5-2.59,7.41,4.69,2.21,6.18,1.41c1.2-.65,1-4.87,1-4.87Z"/></g><path class="cls-26" d="M125.29,160.47S102.74,204.32,97.48,214c-6.08,11.22-15.93,36-18.45,42s-5.72,10.63-5.91,15.1,1.34,8.43,2.13,16.38-2.81,48.6-4.19,51.33-4.79,4.83-4.59,10.12c.07,1.91,2.85,2.18,2.18,5.16s-3,6-.89,6.72,7-2.13,14.59.36,13.83,3.89,15.18,2.7c3.38-3-.28-7.33,1.12-8.82s5-2.8,3.59-5.53a28.83,28.83,0,0,1-3.11-11.37,103.16,103.16,0,0,1,3.63-20c1.46-4.55,7.5-27.57,6.92-33.9-.3-3.25-.36-6.62-1.5-9.42-1.24-3.05-3.65-2.13-2.74-5.11s16.77-23.57,21.71-31.27,11.34-25.58,12.58-25.58c.11,0,1.67-.27,1.89.35,2.23,6.34,10.47,38.47,17.83,49.51,8.07,12.1,9.58,21.48,12.62,25.4s15.27,23.55,20.87,35.47,12.58,26.51,12.12,32.47-2.21,9.41,1.53,12.76,7.78,9.75,7.78,9.75,1.36-7.57,8.41-7.76,12.89.31,12.75,3.66c1.39-1.68,1.81-6.21.23-9.23-2.18-4.2,2.58-5.73,2.3-9.62-.19-2.6-6.32-4.7-7.59-7.68s-5.47-39.49-6.94-44.7-12-15.12-15-17.36-3-8.13-4.39-10.17-5.16-4.24-6.09-8-11-62.39-12.72-78-.36-17.37-.36-17.37l-48.24-5.43Z"/></g></g><g id="Torzo"><path class="cls-27" d="M144.31,79.2S156.88,93,171.36,78l19.37,3-16.6,71.77-3.54,24.6a155,155,0,0,1-28.29-.69c-13.88-1.82-16.52-1.46-21-5.15s-6.94-16.14-4.12-30.6,15.72-42.79,17.44-47.15c1-2.44,2.34-6.94,4.72-10.26A18.26,18.26,0,0,1,144.31,79.2Z"/><g class="cls-28"><polygon class="cls-29" points="132.85 86.22 195.35 102.09 193.77 77.13 136.74 75.82 132.85 86.22"/><path class="cls-29" d="M177.89,157.65s.25,10.11-15.08,11.25c-19,1.41-46.21-2.8-48.75-10-1.61,11.78,10.56,20,13,21.14l43.77,1.62s6.21-5,6.95-5S177.89,157.65,177.89,157.65Z"/><g class="cls-30"><path class="cls-31" d="M156.53,102a7.7,7.7,0,0,0,3.43-.59,3.46,3.46,0,0,0,2.09-2.09,2.91,2.91,0,0,0-.17-1.67,3.71,3.71,0,0,0-.39-.77,2.25,2.25,0,0,0-.24-.3,1.58,1.58,0,0,1-.28-.3c-.16-.32.37-.07.47,0a3,3,0,0,1,.7.44,4.11,4.11,0,0,1,1,1.15,4.85,4.85,0,0,1-1,5.76,8.32,8.32,0,0,1-2.41,1.79,8.67,8.67,0,0,1-1.62.64,5.69,5.69,0,0,1-1.74.26,2.26,2.26,0,0,1-2.1-2,2.13,2.13,0,0,1,2.23-2.3Z"/><path class="cls-32" d="M156.15,106.55a2.49,2.49,0,0,1-2.1-2.2,2.38,2.38,0,0,1,1.58-2.44,2.52,2.52,0,0,1,.9-.13h.14a7.26,7.26,0,0,0,3.19-.58,3.3,3.3,0,0,0,1.95-1.92,2.71,2.71,0,0,0-.16-1.53,3.51,3.51,0,0,0-.37-.72,2.13,2.13,0,0,0-.21-.26.6.6,0,0,0-.08-.08,1.11,1.11,0,0,1-.24-.28.35.35,0,0,1,0-.39.33.33,0,0,1,.35-.12,1.86,1.86,0,0,1,.45.16,4.51,4.51,0,0,1,.74.46,4.36,4.36,0,0,1,1.07,1.23c1.26,2.09.4,4.55-1,6a8.76,8.76,0,0,1-2.48,1.84,9.23,9.23,0,0,1-1.66.66,5.6,5.6,0,0,1-1.82.26Zm.38-4.28a2.06,2.06,0,0,0-.73.11,1.87,1.87,0,0,0-1.25,1.93,2,2,0,0,0,1.66,1.75l.2,0a5.47,5.47,0,0,0,1.66-.24,9.53,9.53,0,0,0,1.57-.63,8.33,8.33,0,0,0,2.35-1.73,4.67,4.67,0,0,0,.95-5.48,4.12,4.12,0,0,0-.95-1.08,4.44,4.44,0,0,0-.38-.27l.08.13a3.56,3.56,0,0,1,.43.82,3.23,3.23,0,0,1,.18,1.81,3.77,3.77,0,0,1-2.23,2.25,7.49,7.49,0,0,1-3,.62h-.15l-.33,0Z"/><path class="cls-32" d="M157.16,104.18c.88,0,.24,0,0,0a7.24,7.24,0,0,0,3.58-1,4.66,4.66,0,0,0,2.16-2.65,3.78,3.78,0,0,0,0-2.11,3.72,3.72,0,0,0-1.41-1.85c-.12-.09.93.1,1.69,1.35a4.83,4.83,0,0,1-1,5.76,8.51,8.51,0,0,1-2.41,1.79,9.41,9.41,0,0,1-1.62.64C157.64,106.24,156.86,104.17,157.16,104.18Z"/><path class="cls-33" d="M157.2,104.18h0Z"/><path class="cls-31" d="M145.68,100.41a8,8,0,0,1-3.14-1.57,3.64,3.64,0,0,1-1.47-2.63,2.93,2.93,0,0,1,.59-1.55,3.41,3.41,0,0,1,.58-.62,2.18,2.18,0,0,1,.31-.22,1.63,1.63,0,0,0,.34-.21c.24-.26-.33-.18-.44-.16a3.72,3.72,0,0,0-.79.22,4.23,4.23,0,0,0-1.27.81c-1.61,1.52-1.52,4-.55,5.83a9.35,9.35,0,0,0,1.86,2.43,9.82,9.82,0,0,0,1.39,1.09,6.06,6.06,0,0,0,1.61.75,2.14,2.14,0,0,0,2.53-1.3,2.18,2.18,0,0,0-.79-2.52,2.11,2.11,0,0,0-.76-.35C144.65,100.14,145.87,100.45,145.68,100.41Z"/><path class="cls-32" d="M144.89,104.87h0l-.25-.05A5.93,5.93,0,0,1,143,104a9.46,9.46,0,0,1-1.43-1.12,9.36,9.36,0,0,1-1.91-2.49c-1-1.86-1.14-4.47.6-6.12a4.37,4.37,0,0,1,1.35-.86,3.62,3.62,0,0,1,.84-.23,1.76,1.76,0,0,1,.46,0,.35.35,0,0,1,.31.22.35.35,0,0,1-.1.37,1.17,1.17,0,0,1-.31.2l-.09,0a1.85,1.85,0,0,0-.27.2,3,3,0,0,0-.54.58,2.62,2.62,0,0,0-.55,1.42,3.45,3.45,0,0,0,1.38,2.42,7.65,7.65,0,0,0,2.91,1.49l.08,0h.05a2.61,2.61,0,0,1,.85.39,2.47,2.47,0,0,1,.88,2.81A2.4,2.4,0,0,1,144.89,104.87ZM142.2,93.75a3.81,3.81,0,0,0-.44.15,3.66,3.66,0,0,0-1.19.76c-1.56,1.47-1.38,3.85-.5,5.54a8.66,8.66,0,0,0,1.8,2.36,9.61,9.61,0,0,0,1.35,1.06,5.47,5.47,0,0,0,1.54.72l.19,0a1.92,1.92,0,0,0,2.05-1.19,2,2,0,0,0-.7-2.23,1.85,1.85,0,0,0-.67-.31h0l-.32-.08h-.09l-.06,0A8,8,0,0,1,142.38,99a4,4,0,0,1-1.56-2.82,3.09,3.09,0,0,1,.64-1.68,3.6,3.6,0,0,1,.62-.67Z"/><path class="cls-32" d="M144.58,102.3c-.85-.24-.24-.07,0,0a7.49,7.49,0,0,1-3.18-2A4.88,4.88,0,0,1,140,97.07a3.86,3.86,0,0,1,.56-2,3.65,3.65,0,0,1,1.83-1.37c.15-.05-.91-.18-2,.8-1.61,1.51-1.52,4-.55,5.83a9.35,9.35,0,0,0,1.86,2.43,9.82,9.82,0,0,0,1.39,1.09C143.58,104.14,144.86,102.37,144.58,102.3Z"/><path class="cls-33" d="M144.54,102.29h0Z"/><path class="cls-31" d="M139.66,95.84a5.22,5.22,0,0,0,0,2.8,7.74,7.74,0,0,0,1.42,2.69c.26.35.54.68.82,1a6.19,6.19,0,0,1-2.59-5.06A3.94,3.94,0,0,1,139.66,95.84Z"/><path class="cls-31" d="M163.5,99.4a5.27,5.27,0,0,1-2.57,5,6.26,6.26,0,0,1-1.27.63c1.57-1,3.1-2.26,3.65-4.14A4.74,4.74,0,0,0,163.5,99.4Z"/><path class="cls-34" d="M162.53,109.61a12.65,12.65,0,0,0-.9-2.57,1.68,1.68,0,0,0-.08-.71,3.43,3.43,0,0,0-.44-.92l.4-.16s-.27-.72-.57-1.34A13.39,13.39,0,0,0,156.06,99,16.46,16.46,0,0,0,152,97.54l-.08,0h-.07a16.49,16.49,0,0,0-4.27,0,12.75,12.75,0,0,0-6.13,3c-.47.48-1,1.07-1,1.07l.32.28a3.81,3.81,0,0,0-.7.73,1.51,1.51,0,0,0-.28.64,12,12,0,0,0-1.64,2.13c-.44.25-.86.59-.91.92-.08.59-.11,5.8.42,6.3s1.56,1.1,1.84,1a.7.7,0,0,0,.21-.13.85.85,0,0,0,1,.17,1.15,1.15,0,0,0,1.36-.46,7.31,7.31,0,0,0,.25-3,18.48,18.48,0,0,0-.24-3.59c0-.1,0-.15,0-.15a1,1,0,0,0-.36-1.09.89.89,0,0,0-1,0v0s-.21-.27-.63,0c.12-.51.47-1.52.47-1.52a7.86,7.86,0,0,1,.41-.68c.15-.21.39-.49.52-.64a1.25,1.25,0,0,0,.72-.26l1.25-.91.75.18a14.09,14.09,0,0,1,4.05-2.16,8.8,8.8,0,0,1,3.38-.15,8.93,8.93,0,0,1,3.15,1.28A14.6,14.6,0,0,1,158,103.8l.77.08s.54.77.91,1.28a1.25,1.25,0,0,0,.59.49c.07.19.21.53.29.78s.18.78.18.78,0,1.08,0,1.6c-.32-.38-.61-.19-.61-.19v0a.91.91,0,0,0-1-.33c-.65.11-.67.9-.67.9a.77.77,0,0,0-.06.14,17.36,17.36,0,0,0-1.32,3.32,7.13,7.13,0,0,0-.68,3c.25.61.7.95,1.14.89a.87.87,0,0,0,1,.19.6.6,0,0,0,.16.18c.23.22,1.4,0,2-.3s2.21-5.24,2.31-5.83C163.17,110.45,162.87,110,162.53,109.61Zm-14.43-11a11.37,11.37,0,0,1,1.24-.13A11.37,11.37,0,0,0,148.1,98.65Zm1.32-.13h0Zm4.66.82a11.75,11.75,0,0,1,1.15.54C154.83,99.67,154.45,99.49,154.08,99.34Zm-.07,0,0,0Z"/><path class="cls-34" d="M157.62,101.59a12.48,12.48,0,0,0-5.77-3h-.09l-.08,0h0a12.24,12.24,0,0,0-6.37.85c-3.13,1.44-3.92,2.93-3.92,2.93a1,1,0,0,0,.87-.24l1.25-.91.75.18a14.09,14.09,0,0,1,4.05-2.16,8.8,8.8,0,0,1,3.38-.15,8.93,8.93,0,0,1,3.15,1.28A14.6,14.6,0,0,1,158,103.8l.77.08s.54.77.91,1.28a1.06,1.06,0,0,0,.75.52S160.15,104,157.62,101.59Z"/><path class="cls-31" d="M160.94,103.91A13.39,13.39,0,0,0,156.06,99,16.46,16.46,0,0,0,152,97.54l-.08,0h-.07a16.49,16.49,0,0,0-4.27,0,12.75,12.75,0,0,0-6.13,3c-.47.48-1,1.07-1,1.07l.88.77a11.16,11.16,0,0,1,4.07-3,11.84,11.84,0,0,1,6.3-.82,12.22,12.22,0,0,1,5.73,2.9,11.76,11.76,0,0,1,3,4.16l1.06-.43S161.24,104.53,160.94,103.91Z"/><path class="cls-34" d="M160.43,105.8h0a.13.13,0,0,1-.07-.08,11.73,11.73,0,0,0-2.93-4.11,12.08,12.08,0,0,0-5.65-2.87,11.86,11.86,0,0,0-6.24.81,11.08,11.08,0,0,0-4,2.92.12.12,0,0,1-.08,0,.1.1,0,0,1-.1,0l-.88-.77a.11.11,0,0,1,0-.15s.49-.6,1-1.08a13,13,0,0,1,6.21-3.08,16.42,16.42,0,0,1,4.3,0H152a17.45,17.45,0,0,1,4.08,1.44,13.6,13.6,0,0,1,4.94,5c.3.61.57,1.34.58,1.34a.11.11,0,0,1-.07.14l-1.06.44Zm-8.65-7.29h0a12.27,12.27,0,0,1,5.8,2.93,12.47,12.47,0,0,1,2.94,4.09l.84-.35c-.09-.21-.3-.75-.53-1.22h0A13.19,13.19,0,0,0,156,99.07a16.74,16.74,0,0,0-4-1.42h-.07l-.08,0a16.71,16.71,0,0,0-4.23,0,12.57,12.57,0,0,0-6.06,3c-.36.36-.72.8-.87,1l.69.61a11.7,11.7,0,0,1,4-2.88,11.92,11.92,0,0,1,6.38-.83Z"/><path class="cls-34" d="M141.2,101.85a12.45,12.45,0,0,1,3.87-2.76,13.09,13.09,0,0,1,5.47-1l.05-.33a11.85,11.85,0,0,0-5.71,1,12.59,12.59,0,0,0-3.94,2.86Z"/><path class="cls-34" d="M143.28,100.92l1,.22a12.44,12.44,0,0,1,2.46-1.6,8,8,0,0,1,2.27-.67,7.54,7.54,0,0,0-2.74.54,10.23,10.23,0,0,0-1.84,1.08l-.5,0Z"/><path class="cls-31" d="M140.14,105.25a5.69,5.69,0,0,0-1-.18c-.4,0-1.72.66-1.81,1.25s-.11,5.8.42,6.3,1.56,1.1,1.84,1,.26-.24.26-.24Z"/><path class="cls-32" d="M139.35,113.72a4.47,4.47,0,0,1-1.72-1c-.25-.24-.41-1.31-.47-3.2,0-1.48,0-2.91,0-3.2.09-.67,1.48-1.34,1.93-1.34a5.66,5.66,0,0,1,1.06.18.13.13,0,0,1,.09.12l-.32,8.1c0,.07,0,.21-.32.34A.57.57,0,0,1,139.35,113.72Zm.18-8.49a3.15,3.15,0,0,0-.41,0c-.36,0-1.62.63-1.7,1.15,0,.29-.06,1.75,0,3.16.09,2.55.33,3,.4,3a3.44,3.44,0,0,0,1.71.95c.15-.06.18-.11.19-.13h0l.31-8Zm.17,8.16Zm0,0Zm0,0Z"/><path class="cls-35" d="M140.14,105.25a.64.64,0,0,0-.64.5,39.4,39.4,0,0,0-.36,4.43,11.93,11.93,0,0,0,.23,3.29c.19.2.37,0,.37,0Z"/><path class="cls-35" d="M137.66,110.27s-.14,1.7.23,2.18a3.74,3.74,0,0,0,1.21.88,9.21,9.21,0,0,1-.18-1.79s-.19.8-.66.48S137.66,110.27,137.66,110.27Z"/><path class="cls-31" d="M140.77,105.27s-.21-.27-.63,0-.56,2.76-.64,4.36a13.53,13.53,0,0,0,.24,3.82.84.84,0,0,0,1.08.2Z"/><path class="cls-32" d="M140.22,113.84h-.08a.82.82,0,0,1-.51-.35,13.43,13.43,0,0,1-.25-3.87c.12-2.49.28-4.2.69-4.45a.57.57,0,0,1,.8,0,.08.08,0,0,1,0,.07l.05,8.35a.13.13,0,0,1,0,.1A1,1,0,0,1,140.22,113.84Zm.31-8.58a.47.47,0,0,0-.32.09c-.07,0-.25.28-.4,1.6-.09.82-.15,1.81-.19,2.67a13.81,13.81,0,0,0,.23,3.76.51.51,0,0,0,.34.22.73.73,0,0,0,.51,0l0-8.24A.22.22,0,0,0,140.53,105.26Z"/><path class="cls-36" d="M138.38,105.58a1.64,1.64,0,0,0-.83.69,1.05,1.05,0,0,1,.65-.16c.35,0-.4,2.53.11,2.79.9.44.76.26.76.26s.14-2.25.21-2.8a3,3,0,0,1,.26-.87S138.86,105.52,138.38,105.58Z"/><path class="cls-35" d="M137.57,106.55s.51-.11.5.11-.3,2.13,0,2.64,1.12.51,1.12.51a3,3,0,0,1-1.17-.21c-.38-.23-.43-1.07-.29-2S137.57,106.55,137.57,106.55Z"/><path class="cls-31" d="M139.25,105.64a.42.42,0,0,0-.33.3c0,.26-.18,2.71-.18,2.71l.21.08s.08-2.33.16-2.65A2.09,2.09,0,0,1,139.25,105.64Z"/><path class="cls-31" d="M138.2,105.41a12.78,12.78,0,0,1,1.65-2.14l.76.46s-.35,1-.47,1.52Z"/><path class="cls-32" d="M138.18,105.53a.16.16,0,0,1-.08-.06.09.09,0,0,1,0-.12,12.45,12.45,0,0,1,1.68-2.17.11.11,0,0,1,.13,0l.77.45a.12.12,0,0,1,0,.14s-.35,1-.47,1.51a.12.12,0,0,1-.1.09l-1.94.16Zm1.68-2.12a11.94,11.94,0,0,0-1.42,1.87l1.6-.13c.11-.44.34-1.13.43-1.38Z"/><path class="cls-32" d="M139.85,103.27a1.51,1.51,0,0,1,.28-.64,3.81,3.81,0,0,1,.82-.82l.69.48s-.39.45-.62.76a7.86,7.86,0,0,0-.41.68Z"/><path class="cls-35" d="M139,104.61a9.13,9.13,0,0,1,.92-1.15l.58.32a4.62,4.62,0,0,0-.29.69c-.11.33-.21.58-.21.58a5,5,0,0,1-.77.1s.69-.63.67-.86S139.33,104.31,139,104.61Z"/><path class="cls-31" d="M140.14,102.94a2.37,2.37,0,0,1,.84-1l.46.38a3.68,3.68,0,0,0-.89,1.18S140.68,102.69,140.14,102.94Z"/><path class="cls-31" d="M142.15,106.41a1,1,0,0,0-.36-1.09.92.92,0,0,0-1.42.63c-.07.37-.35,6.34,0,7.17s1.18.79,1.8.06S142.15,106.41,142.15,106.41Z"/><path class="cls-32" d="M141,113.83a1,1,0,0,1-.76-.68c-.36-.87-.06-6.92,0-7.22a1.14,1.14,0,0,1,.64-.81,1,1,0,0,1,1,.11,1.07,1.07,0,0,1,.43,1.2c.07.71.59,6.09,0,6.83a1.37,1.37,0,0,1-1.23.57Zm.37-8.54a.69.69,0,0,0-.38,0,.9.9,0,0,0-.51.65c0,.17-.12,1.72-.16,3.39a17.4,17.4,0,0,0,.14,3.71.79.79,0,0,0,.58.52h0a1.19,1.19,0,0,0,1-.5c.48-.57.14-5,0-6.69a.06.06,0,0,1,0,0s.18-.68-.31-1A1.08,1.08,0,0,0,141.38,105.29Z"/><path class="cls-37" d="M140.41,111.88s.18,1,.5,1,.36-.45.36-.45.14.65.46.62.45-.41.45-.41a1,1,0,0,1-.83.88C140.37,113.7,140.41,112.47,140.41,111.88Z"/><path class="cls-35" d="M140.41,112.27s0-3,0-4.18a8.46,8.46,0,0,1,.21-2.34c.19-.39.36-.45.6-.46a.42.42,0,0,1,.35.11.54.54,0,0,0-.7.41,1.83,1.83,0,0,0-.12.79l.45,0-.46.16.48.14-.49,0,0,.31.39.11-.44,0v.49l.4,0-.36.19.41.16-.4,0,.38.23h-.4v.79l.28-.08-.26.27.4.08-.42.18.46.27-.43,0,0,.33.37,0-.36.26,0,.53.31.07-.33.15v.2l.34.06-.36.3v.27l.44-.11-.57.55S140.61,112.85,140.41,112.27Z"/><path class="cls-36" d="M141.68,105.6c-.35.09-.81,7.68.14,7.29S142.49,105.38,141.68,105.6Z"/><path class="cls-31" d="M160.75,108.81a5.31,5.31,0,0,1,1,.18c.38.13,1.44,1.2,1.34,1.79s-1.66,5.53-2.31,5.83-1.81.52-2,.3-.18-.31-.18-.31Z"/><path class="cls-32" d="M158.92,117.1a.57.57,0,0,1-.25-.1c-.25-.23-.23-.38-.2-.44l2.16-7.78a.11.11,0,0,1,.12-.08,5.3,5.3,0,0,1,1.06.18c.43.15,1.54,1.26,1.42,1.92a29.93,29.93,0,0,1-.95,3c-.63,1.77-1.11,2.73-1.42,2.88A4.37,4.37,0,0,1,158.92,117.1Zm-.22-.45s0,.07.14.18a3.39,3.39,0,0,0,1.91-.32c.09,0,.44-.36,1.3-2.75.47-1.33.89-2.72.94-3,.09-.52-.92-1.55-1.26-1.66a3.65,3.65,0,0,0-.89-.16l-2.14,7.7Zm0,0Zm0,0Zm0,0Z"/><path class="cls-35" d="M160.75,108.81a.66.66,0,0,1,.45.69,41.2,41.2,0,0,1-1,4.32,11.79,11.79,0,0,1-1.22,3c-.24.14-.34-.16-.34-.16Z"/><path class="cls-35" d="M161.73,114.26s-.55,1.8-1,2.13a3.6,3.6,0,0,1-1.41.42,9.68,9.68,0,0,0,.72-1.62s-.07.81.48.67S161.73,114.26,161.73,114.26Z"/><path class="cls-31" d="M160.14,108.62s.29-.19.61.19-.31,2.81-.72,4.35a12.93,12.93,0,0,1-1.39,3.53.82.82,0,0,1-1.08-.17Z"/><path class="cls-32" d="M158.07,116.93a1,1,0,0,1-.61-.34.11.11,0,0,1,0-.11l2.58-7.9a.12.12,0,0,1,0,0c.13-.09.46-.16.77.22s-.05,2-.69,4.44a13.32,13.32,0,0,1-1.42,3.59.79.79,0,0,1-.59.16Zm-.38-.43a.82.82,0,0,0,.47.21.5.5,0,0,0,.4-.1,13.58,13.58,0,0,0,1.35-3.48c.22-.83.47-1.79.63-2.6.26-1.3.16-1.58.11-1.65-.19-.23-.34-.2-.41-.18Z"/><path class="cls-36" d="M162.32,109.72a1.78,1.78,0,0,1,.58.93,1.1,1.1,0,0,0-.57-.37c-.35-.09-.4,2.53-1,2.6-1,.12-.8,0-.8,0s.56-2.18.65-2.73a3.14,3.14,0,0,0,0-.91S161.88,109.49,162.32,109.72Z"/><path class="cls-35" d="M162.79,110.91s-.46-.28-.51-.06-.37,2.12-.84,2.49c-.32.25-1.2.1-1.2.1a2.77,2.77,0,0,0,1.17.19c.43-.08.73-.86.89-1.82S162.79,110.91,162.79,110.91Z"/><path class="cls-31" d="M161.47,109.48a.42.42,0,0,1,.22.4c0,.26-.64,2.62-.64,2.62h-.23s.63-2.23.66-2.57A1.8,1.8,0,0,0,161.47,109.48Z"/><path class="cls-31" d="M162.53,109.62a13,13,0,0,0-.9-2.58l-.87.17s0,1.08,0,1.6Z"/><path class="cls-32" d="M162.52,109.73h0l-1.78-.8a.13.13,0,0,1-.08-.12c0-.51,0-1.58,0-1.59a.13.13,0,0,1,.09-.12l.87-.17a.12.12,0,0,1,.12,0,12.78,12.78,0,0,1,.93,2.63.1.1,0,0,1,0,.11A.1.1,0,0,1,162.52,109.73Zm-1.65-1,1.48.66a11.82,11.82,0,0,0-.78-2.24l-.68.13C160.89,107.56,160.9,108.29,160.87,108.75Z"/><path class="cls-32" d="M161.63,107a1.68,1.68,0,0,0-.08-.71,4,4,0,0,0-.53-1l-.79.22s.23.56.35.93.18.78.18.78Z"/><path class="cls-35" d="M162.07,108.6a8.67,8.67,0,0,0-.53-1.39l-.64.11a5.12,5.12,0,0,1,.07.75c0,.34,0,.61,0,.61a6,6,0,0,0,.71.36s-.47-.83-.38-1S161.8,108.19,162.07,108.6Z"/><path class="cls-31" d="M161.45,106.62a2.49,2.49,0,0,0-.5-1.2l-.55.2a4,4,0,0,1,.48,1.43S161,106.21,161.45,106.62Z"/><path class="cls-31" d="M158.49,109.23s0-.79.67-.9a1,1,0,0,1,1.16,1.07c0,.37-1.6,6.12-2.17,6.79s-1.36.35-1.72-.54S158.49,109.23,158.49,109.23Z"/><path class="cls-32" d="M157.31,116.65h0a1.46,1.46,0,0,1-1-1c-.36-.91,1.77-5.84,2.05-6.48a1,1,0,0,1,.78-1,1.05,1.05,0,0,1,.93.22,1.21,1.21,0,0,1,.37,1c0,.3-1.59,6.14-2.19,6.84A1,1,0,0,1,157.31,116.65Zm2.25-8.22a1.17,1.17,0,0,0-.37,0c-.55.1-.58.8-.58.8s0,0,0,0c-.67,1.53-2.34,5.63-2.06,6.33a1.2,1.2,0,0,0,.81.81h0a.72.72,0,0,0,.7-.31,15.65,15.65,0,0,0,1.26-3.46c.47-1.6.86-3.1.89-3.27a1,1,0,0,0-.29-.79A.81.81,0,0,0,159.56,108.43Z"/><path class="cls-37" d="M158.48,115s-.48.89-.77.77-.21-.55-.21-.55-.33.56-.62.43-.3-.54-.3-.54a1,1,0,0,0,.52,1.11C158,116.74,158.3,115.57,158.48,115Z"/><path class="cls-35" d="M158.36,115.37s1-2.84,1.27-4a8.09,8.09,0,0,0,.51-2.29c-.06-.43-.2-.54-.42-.64a.45.45,0,0,0-.37,0,.56.56,0,0,1,.54.63,1.77,1.77,0,0,1-.13.78l-.44-.11.39.3-.49,0,.44.18-.1.28-.41,0,.41.18-.15.46L159,111l.28.29-.44,0,.37.17-.43.08.38.13-.22.75-.25-.17.17.35-.4-.06.33.31-.51.1.42.11-.06.32-.36-.08.25.36-.14.51-.32,0,.27.26-.06.19-.34-.06.26.41-.1.25-.38-.26.37.72S158,115.85,158.36,115.37Z"/><path class="cls-36" d="M159.19,108.62c.3.21-1.57,7.55-2.35,6.86S158.48,108.14,159.19,108.62Z"/><path class="cls-34" d="M160.79,105.24a13.18,13.18,0,0,0-2.82-3.92,13.73,13.73,0,0,0-4.9-2.76l.05-.33a12.31,12.31,0,0,1,5.1,2.91,13.08,13.08,0,0,1,2.86,4Z"/><path class="cls-34" d="M159.1,103.65l-1-.11a13.59,13.59,0,0,0-1.85-2.35,8.48,8.48,0,0,0-2-1.4,8,8,0,0,1,2.44,1.43,10.48,10.48,0,0,1,1.41,1.65l.47.2Z"/><path class="cls-32" d="M141.81,108.48c-.37,1.35-2.08,2-2.74,2.32a4.18,4.18,0,0,0,1.05.34s-1.35,3.69-3.69,4.83a2.88,2.88,0,0,0,1.79.23c-.9,2.43.32,4.66-1.31,7a3.51,3.51,0,0,0,2.46-1.38,6.67,6.67,0,0,1-.49,4.55,5,5,0,0,0,2.83-1.49c-.15,1.13,1.48,3.51,1.16,5.12a4,4,0,0,0,1.61-1.47c.68,2.11,1.64,2.59,1.6,5.47,1.77-1.33,3.37-2.06,4.67-5.33a9.66,9.66,0,0,0,1,1.39,5.69,5.69,0,0,0,2-3.39,3,3,0,0,1,.81,2,7.14,7.14,0,0,0,2.67-4.66,2.45,2.45,0,0,0,1.81,1.2c-1-1.73,1.38-3.92,1-6.71a2.5,2.5,0,0,0,1.54-.28,8.9,8.9,0,0,1-3.14-4.7c1.22.19,1.19.09,1.16.08a11.89,11.89,0,0,1-1.52-2.12c-.24-.52-7.71-5.85-7.71-5.85Z"/><path class="cls-31" d="M140,113.73a3.28,3.28,0,0,0,.2,1.75,7.25,7.25,0,0,0-1.4,2.48A11.65,11.65,0,0,1,140,113.73Z"/><path class="cls-31" d="M158.69,116.52a3.21,3.21,0,0,1-.65,1.62,7.53,7.53,0,0,1,.7,2.8A9.4,9.4,0,0,0,158.69,116.52Z"/><path class="cls-31" d="M140.5,119.07c-.07.44-.16.88-.2,1.33a9.32,9.32,0,0,0,0,1.67,12.26,12.26,0,0,1,.1,1.71,2.75,2.75,0,0,1-.4,1.31,3.92,3.92,0,0,0,.22-1.31c0-.57-.12-1.13-.17-1.69A6.59,6.59,0,0,1,140.5,119.07Z"/><path class="cls-31" d="M142.8,122a14.26,14.26,0,0,0-.06,1.46,9.29,9.29,0,0,0,.26,1.82,13.45,13.45,0,0,1,.58,3.25c-.12-.48-.24-1-.38-1.43s-.4-1.22-.54-1.84A5.83,5.83,0,0,1,142.8,122Z"/><path class="cls-31" d="M145.58,122.93c-.1.47-.23.92-.3,1.39a6.89,6.89,0,0,0,0,1.87,28.33,28.33,0,0,0,1,3.57,4.33,4.33,0,0,1,.17,1.71,8.24,8.24,0,0,0-.41-1.45c-.25-.6-.53-1.19-.76-1.81a6.58,6.58,0,0,1-.36-3.69A5.67,5.67,0,0,1,145.58,122.93Z"/><path class="cls-31" d="M156.77,121.3a6.65,6.65,0,0,1-.25,3.1,5.9,5.9,0,0,1-1.5,2.65,9.13,9.13,0,0,0,1.28-2.78,12.68,12.68,0,0,0,.37-1.62A12.26,12.26,0,0,0,156.77,121.3Z"/><path class="cls-31" d="M153.64,123.17a6,6,0,0,1-.33,2.87,7.23,7.23,0,0,1-1.42,2.52c.39-.85.78-1.69,1.09-2.57A15.2,15.2,0,0,0,153.64,123.17Z"/><path class="cls-31" d="M150.83,123.72a6.9,6.9,0,0,1-.1,3.35,10,10,0,0,1-1.85,3.34,16.53,16.53,0,0,1-1.1,1.26c.49-1,1.11-1.88,1.63-2.83a11.34,11.34,0,0,0,1.25-3.42C150.76,124.85,150.78,124.29,150.83,123.72Z"/><path class="cls-33" d="M144.66,102.16h0Z"/><path class="cls-31" d="M158,106.28a13.84,13.84,0,0,0-1.58-3.82c-.19-.3-.15-.52.33-.75a.71.71,0,0,1,.9.21,11.31,11.31,0,0,1,1.62,3.77.66.66,0,0,1-.49.75C158.34,106.6,158.06,106.55,158,106.28Z"/><path class="cls-32" d="M158.24,106.77a.58.58,0,0,1-.49-.44,13.4,13.4,0,0,0-1.54-3.74.72.72,0,0,1-.13-.58,1,1,0,0,1,.56-.52,1,1,0,0,1,.59-.09.91.91,0,0,1,.63.39,11.52,11.52,0,0,1,1.65,3.85.89.89,0,0,1-.64,1A1.41,1.41,0,0,1,158.24,106.77Zm-1.07-4.89a.67.67,0,0,0-.31.05c-.25.12-.29.2-.3.22a.31.31,0,0,0,.07.18,14.16,14.16,0,0,1,1.61,3.9s0,0,.06,0a.8.8,0,0,0,.39-.07.42.42,0,0,0,.33-.48,11.14,11.14,0,0,0-1.57-3.67A.48.48,0,0,0,157.17,101.88Z"/><path class="cls-31" d="M143.18,104.1a12.92,12.92,0,0,1,2.5-3.21c.26-.23.28-.46-.13-.82a.71.71,0,0,0-.92-.06,11,11,0,0,0-2.52,3.15.69.69,0,0,0,.27.87C142.76,104.31,143.05,104.34,143.18,104.1Z"/><path class="cls-32" d="M142.82,104.5h0a1.42,1.42,0,0,1-.59-.28.92.92,0,0,1-.35-1.17,11.08,11.08,0,0,1,2.59-3.23.87.87,0,0,1,.7-.19,1.23,1.23,0,0,1,1,.93.7.7,0,0,1-.28.52,12.75,12.75,0,0,0-2.44,3.14A.53.53,0,0,1,142.82,104.5Zm2.29-4.38a.42.42,0,0,0-.32.08,10.62,10.62,0,0,0-2.46,3.08.45.45,0,0,0,.19.55.82.82,0,0,0,.36.18h0c.05,0,.06,0,.07,0a13.75,13.75,0,0,1,2.56-3.28c.07-.06.11-.11.11-.14s0-.12-.23-.31A.55.55,0,0,0,145.11,100.12Z"/><path class="cls-31" d="M150.19,108.2a35.16,35.16,0,0,1,8.16,2.2l.06-.43c.73-5.53-3.32-11.06-6.93-11.59s-8.93,3.59-9.65,9.11c0,.15,0,.29-.05.43A35.09,35.09,0,0,1,150.19,108.2Z"/><path class="cls-32" d="M141.75,108.17a.24.24,0,0,1-.22-.27c0-.15,0-.3.05-.45.74-5.6,6.17-9.88,9.94-9.32s7.88,6.27,7.14,11.87c0,.15,0,.3-.07.44a.23.23,0,0,1-.12.18.33.33,0,0,1-.22,0,36.14,36.14,0,0,0-16.44-2.46Zm9.7-9.55c-3.55-.53-8.67,3.56-9.38,8.91,0,0,0,.08,0,.12a35.41,35.41,0,0,1,8.16.31,36.28,36.28,0,0,1,7.93,2.09.5.5,0,0,1,0-.12C158.87,104.58,155,99.15,151.45,98.62Z"/><path class="cls-32" d="M150.06,98.63c-2.24-.61-7.59,4-8.23,8.86,0,.15,0,.29-.05.43,1.11-.1,5.27.4,5.68-1-.41-.34-1.62-.78-1.89-1.68a4.2,4.2,0,0,1,.1-2C146.18,101.3,148.36,99,150.06,98.63Z"/><path class="cls-32" d="M152.84,99c2.3.08,6.26,6.07,5.62,10.94l-.06.43c-1.05-.44-5.17-1.17-5.2-2.68.48-.2,1.77-.27,2.25-1a4,4,0,0,0,.42-1.92A7.74,7.74,0,0,0,152.84,99Z"/><polygon class="cls-31" points="151.33 112.21 149.49 113.82 148.06 111.72 148.68 108.97 151.45 109.39 151.33 112.21"/><path d="M149.44,114.19l-1.65-2.42.69-3.08,3.23.49-.14,3.15Zm-1.12-2.51,1.21,1.77,1.55-1.36.11-2.5-2.32-.34Z"/><path class="cls-31" d="M158.44,109.09a29.39,29.39,0,0,0-6.39-2.09l.54-8.66c0-.41-.46-.74-1-.82s-1.08.16-1.17.5l-1.72,8.49a28.6,28.6,0,0,0-6.64.11s-.68,0-.76,1.25c-.06,1,.51,1.19.51,1.19a29.72,29.72,0,0,1,16.23,2.43s.56.07.77-1.09S158.44,109.09,158.44,109.09Z"/><path class="cls-32" d="M141.81,109.31h-.05s-.77-.21-.7-1.45.83-1.46,1-1.47a28.92,28.92,0,0,1,6.47-.14L150.18,98a1.28,1.28,0,0,1,1.45-.68c.61.09,1.25.5,1.21,1.08l-.53,8.45a28.65,28.65,0,0,1,6.23,2.06c.05,0,.75.4.53,1.58-.25,1.34-1,1.29-1,1.28h0l0,0a28.52,28.52,0,0,0-7.89-2.34,28.21,28.21,0,0,0-8.2-.06Zm8.31-.42a28.64,28.64,0,0,1,8,2.35c.09,0,.35-.16.49-.89s-.2-1-.25-1a29.42,29.42,0,0,0-6.32-2.06l-.22,0,.55-8.88c0-.24-.34-.49-.78-.55s-.84.14-.89.32l-1.76,8.69-.22,0a28.19,28.19,0,0,0-6.58.12h0s-.46,0-.52,1c0,.66.2.87.29.92A28.35,28.35,0,0,1,150.12,108.89Z"/><path class="cls-31" d="M147.8,111.78a3.31,3.31,0,0,0-.55,0,3.09,3.09,0,0,0-1,.34,2.77,2.77,0,0,0-1,.85,3,3,0,0,1,.55-1.44,3.15,3.15,0,0,1,.35-.38l-.05,0h0a2.58,2.58,0,0,0-1.73.26,4.1,4.1,0,0,1-.06-.93,3.85,3.85,0,0,0-1.58,1,5.31,5.31,0,0,1,.12-2.27h0a5.66,5.66,0,0,0-.37,3.93,4.62,4.62,0,0,1,1.19-1.58,7.45,7.45,0,0,0,.2,1.28,2.6,2.6,0,0,1,.95-.86,5.21,5.21,0,0,0-.2,2.76,4.31,4.31,0,0,1,2.85-2.19,4.56,4.56,0,0,0-.39.84,2.91,2.91,0,0,1,1.57-.24Z"/><path class="cls-31" d="M156.52,113.5a3.72,3.72,0,0,0-1.22-1.37,3.57,3.57,0,0,1-.29.88,2.53,2.53,0,0,0-1.6-.75s0,0-.06,0a2.64,2.64,0,0,1,.25.47,3.15,3.15,0,0,1,.16,1.54,2.84,2.84,0,0,0-.7-1.1,3.22,3.22,0,0,0-.85-.61,4.44,4.44,0,0,0-.64-.24h0l-1.19,1a3,3,0,0,1,1.41.68,3.85,3.85,0,0,0-.16-.92,4.51,4.51,0,0,1,2.18,2.94,5.19,5.19,0,0,0,.52-2.71,2.58,2.58,0,0,1,.69,1.1,6.16,6.16,0,0,0,.53-1.17,4.89,4.89,0,0,1,.73,1.87,5.6,5.6,0,0,0,.71-3.61A4.79,4.79,0,0,1,156.52,113.5Z"/><path class="cls-31" d="M156.52,113.5a3.72,3.72,0,0,0-1.22-1.37,3.57,3.57,0,0,1-.29.88,2.82,2.82,0,0,0-1.66-.75,2.64,2.64,0,0,1,.25.47,3.15,3.15,0,0,1,.16,1.54,2.84,2.84,0,0,0-.7-1.1,3.22,3.22,0,0,0-.85-.61,4.44,4.44,0,0,0-.64-.24h0l-1.19,1a3,3,0,0,1,1.41.68,3.85,3.85,0,0,0-.16-.92,4.51,4.51,0,0,1,2.18,2.94,5.19,5.19,0,0,0,.52-2.71,2.58,2.58,0,0,1,.69,1.1,6.16,6.16,0,0,0,.53-1.17,4.89,4.89,0,0,1,.73,1.87,5.6,5.6,0,0,0,.71-3.61A4.79,4.79,0,0,1,156.52,113.5Z"/><path class="cls-38" d="M142.09,107.79a2.37,2.37,0,0,1,.35-1.21l-.37,0s-.68,0-.76,1.25c-.06,1,.51,1.19.51,1.19l.49-.06A1.77,1.77,0,0,1,142.09,107.79Z"/><path class="cls-38" d="M158.44,109.09l-.4-.19a2.2,2.2,0,0,1,.06,1.18,1.89,1.89,0,0,1-.51,1.2l.46.21s.56.07.77-1.09S158.44,109.09,158.44,109.09Z"/><polygon class="cls-32" points="149.93 110.17 149.89 109.24 150.22 109.29 149.93 110.17"/><polygon class="cls-32" points="150.38 110.23 150.35 109.31 150.68 109.36 150.38 110.23"/><polygon class="cls-32" points="150.82 110.3 150.78 109.37 151.11 109.42 150.82 110.3"/><polygon class="cls-32" points="149.53 110.11 149.8 109.23 149.47 109.18 149.53 110.11"/><polygon class="cls-32" points="149.1 110.04 149.37 109.16 149.04 109.11 149.1 110.04"/><polygon class="cls-32" points="149.96 111.52 149.51 113.64 149.63 111.47 149.96 111.52"/><polygon class="cls-32" points="148.78 106.28 149.94 106.9 148.63 106.74 148.78 106.28"/><polygon class="cls-32" points="152.03 107.25 150.72 107.02 152 106.76 152.03 107.25"/><path class="cls-32" d="M143.64,108.76c-.54-.31-.82-1.15.12-2.31-.66,0-1.06.09-1.69.17,0,0-.68,0-.76,1.25-.06,1,.51,1.19.51,1.19.61-.08,1.22-.15,1.84-.2C143.67,108.82,143.67,108.78,143.64,108.76Z"/><polygon class="cls-32" points="148.76 106.14 147.47 105.76 148.78 105.52 148.76 106.14"/><polygon class="cls-32" points="148.93 105.45 147.66 105.1 148.93 104.83 148.93 105.45"/><polygon class="cls-32" points="149.09 104.76 147.85 104.44 149.08 104.13 149.09 104.76"/><polygon class="cls-32" points="149.26 104.06 148.04 103.77 149.23 103.44 149.26 104.06"/><polygon class="cls-32" points="149.42 103.37 148.23 103.11 149.38 102.75 149.42 103.37"/><polygon class="cls-32" points="149.59 102.68 148.42 102.44 149.53 102.06 149.59 102.68"/><polygon class="cls-32" points="149.75 101.98 148.61 101.78 149.68 101.36 149.75 101.98"/><polygon class="cls-32" points="149.92 101.29 148.8 101.12 149.82 100.67 149.92 101.29"/><polygon class="cls-32" points="150.09 100.6 148.99 100.45 149.97 99.98 150.09 100.6"/><polygon class="cls-32" points="150.25 99.9 149.18 99.79 150.12 99.29 150.25 99.9"/><polygon class="cls-32" points="150.42 99.21 149.37 99.13 150.26 98.6 150.42 99.21"/><polygon class="cls-32" points="152.28 106.04 153.47 106.66 152.14 106.65 152.28 106.04"/><polygon class="cls-32" points="152.31 105.33 153.47 105.97 152.16 105.93 152.31 105.33"/><polygon class="cls-32" points="152.35 104.62 153.45 105.27 152.18 105.22 152.35 104.62"/><polygon class="cls-32" points="152.38 103.91 153.44 104.58 152.2 104.5 152.38 103.91"/><polygon class="cls-32" points="152.42 103.2 153.43 103.89 152.22 103.79 152.42 103.2"/><polygon class="cls-32" points="152.46 102.49 153.42 103.19 152.24 103.08 152.46 102.49"/><polygon class="cls-32" points="152.49 101.78 153.41 102.5 152.26 102.36 152.49 101.78"/><polygon class="cls-32" points="152.53 101.08 153.4 101.81 152.28 101.64 152.53 101.08"/><polygon class="cls-32" points="152.57 100.37 153.39 101.11 152.3 100.93 152.57 100.37"/><polygon class="cls-32" points="152.6 99.66 153.38 100.42 152.32 100.21 152.6 99.66"/><polygon class="cls-32" points="152.64 98.95 153.37 99.72 152.34 99.49 152.64 98.95"/><path class="cls-32" d="M142.68,102.29a6.44,6.44,0,0,0-.57.87.69.69,0,0,0,.27.87c.38.28.67.31.8.07a8.61,8.61,0,0,1,.63-1C143.19,103,142.74,102.7,142.68,102.29Z"/><path class="cls-32" d="M156.39,110.67c.6-.14,1.08-.87.48-2.26.62.23,1,.39,1.58.66,0,0,.66.2.41,1.42-.21,1-.8,1-.8,1-.56-.26-1.13-.5-1.72-.73C156.35,110.71,156.36,110.67,156.39,110.67Z"/><path class="cls-32" d="M159,104.72a5.92,5.92,0,0,1,.33,1,.66.66,0,0,1-.48.75c-.44.16-.73.11-.79-.16a11,11,0,0,0-.34-1.17C158.31,105.27,158.82,105.1,159,104.72Z"/><path class="cls-31" d="M147.65,99.48a15.55,15.55,0,0,0-2.21,2,14.15,14.15,0,0,0-1.89,2.71c-.24.46-.45.93-.67,1.4a10,10,0,0,1,3.46-5.26A8.7,8.7,0,0,1,147.65,99.48Z"/><path class="cls-31" d="M158,107.92a19.08,19.08,0,0,0-.62-2.77,15.88,15.88,0,0,0-1.34-3c-.25-.43-.53-.84-.81-1.25a10.12,10.12,0,0,1,2.67,5.56A10.37,10.37,0,0,1,158,107.92Z"/><path class="cls-31" d="M142,106.86a4.74,4.74,0,0,0-.09,1.83c-.3-.18-.34-.64-.32-.94A1.28,1.28,0,0,1,142,106.86Z"/><path class="cls-31" d="M158.42,109.34a1.29,1.29,0,0,1,.16,1c-.05.3-.21.72-.55.81A5.44,5.44,0,0,0,158.42,109.34Z"/><path class="cls-31" d="M147.57,110.37a.32.32,0,0,0,.27-.55c-.41-.39-1.22-.22-1.85-.36a6.41,6.41,0,0,1-.91-.27,1.44,1.44,0,0,0,.68.73A3.58,3.58,0,0,0,147.57,110.37Z"/><path class="cls-31" d="M152.19,111.06c-.48-.18-.24-.55-.12-.61.49-.26,1.22.15,1.87.2a7.53,7.53,0,0,0,.95,0,1.39,1.39,0,0,1-.85.51A3.63,3.63,0,0,1,152.19,111.06Z"/><path class="cls-31" d="M157.16,121c.35.77.43,1.54.75,2.32-.08-.91.09-1.8-.06-2.7a8.07,8.07,0,0,0-.95-2.56,6.68,6.68,0,0,0,.88-3.92c-.56,2.21-1.5,3.24-2.26,3.46a4.48,4.48,0,0,1-.1-1.7,3.7,3.7,0,0,0-.64,2.33c-.09,1.32.54,1.84.18,4a17.53,17.53,0,0,1-1.21-3.57,5.14,5.14,0,0,0-2-3.59c-1-.69-1.81-.7-2,0-.25.94.92.78,1.81,1.44a3.29,3.29,0,0,1,1.18,3.18c-.4-1.77-1.37-2.62-2.27-2.82A2.47,2.47,0,0,1,151,119a2.25,2.25,0,0,0-1.91-1.75,2.15,2.15,0,0,0-2.29,1.12,2.38,2.38,0,0,1,1-1.87c-.91-.07-2.06.46-2.9,2a3.15,3.15,0,0,1,2-2.71c1-.38,2.12.12,2.12-.86,0-.78-.75-1-1.92-.64a4.92,4.92,0,0,0-2.87,2.86,17.5,17.5,0,0,1-2.08,3.08c.22-2.23.95-2.55,1.22-3.84a3.7,3.7,0,0,0,0-2.43,4.26,4.26,0,0,1-.53,1.61c-.67-.44-1.52-1.73-1.49-4a6.53,6.53,0,0,0,0,4,7.91,7.91,0,0,0-1.57,2.19c-.37.82-.44,1.74-.75,2.59.5-.66.78-1.39,1.32-2a5.92,5.92,0,0,1,1.57-1.3,9.1,9.1,0,0,0-.89,6.25c.86-1.2,2-2.9,3-3.38a14,14,0,0,0-.14,5.48c1.09-4.14,3.53-5.63,3.53-5.63a9.47,9.47,0,0,0-1.22,3.34c-.73,4.19.67,4.43,1,7.66a11.07,11.07,0,0,0,2.85-5.59,9.23,9.23,0,0,0-.05-5s1.93,2,1.94,6.44a13.72,13.72,0,0,0,1.28-5.3c.85.76,1.49,2.72,2,4.12a9.17,9.17,0,0,0,.76-6.26A6.76,6.76,0,0,1,157.16,121Zm-11.5-1.08-.65.94c-.16.24-.32.5-.5.73a3.06,3.06,0,0,1,.59-1.87c.19-.3.42-.57.63-.85s.32-.53.48-.8A2.5,2.5,0,0,1,145.66,119.88Zm3,4.36c-.17.72-.31,1.45-.43,2.18s-.17,1.3-.33,1.94a7.46,7.46,0,0,1-.6-3.72,15.51,15.51,0,0,1,.42-2.24c.18-.71.33-1.42.47-2.13s.24-1.31.44-2a8.19,8.19,0,0,1,.46,3.73A18.42,18.42,0,0,1,148.7,124.24Zm3.66-1.52a8.39,8.39,0,0,1-.3-.84c-.13-.37-.26-.74-.38-1.11a2.49,2.49,0,0,1-.06-1.93c.09.3.15.61.27.91s.27.66.38,1A3.17,3.17,0,0,1,152.36,122.72Z"/><ellipse class="cls-32" cx="150.69" cy="104.68" rx="0.32" ry="0.44" transform="translate(22.33 235.8) rotate(-80.4)"/><path class="cls-32" d="M150.74,107.6c0,.14-.21.22-.43.19s-.38-.17-.36-.31.21-.23.43-.19S150.76,107.46,150.74,107.6Z"/><path class="cls-32" d="M150.24,110.68c0,.11-.17.18-.36.16s-.32-.15-.3-.26.18-.19.36-.16S150.26,110.56,150.24,110.68Z"/><path class="cls-32" d="M147.54,107.37c0,.1-.14.15-.3.13s-.27-.12-.25-.21.14-.15.3-.13S147.56,107.28,147.54,107.37Z"/><ellipse class="cls-32" cx="144.8" cy="107.29" rx="0.15" ry="0.25" transform="translate(16.11 233.45) rotate(-80.97)"/><path class="cls-32" d="M153,108.19c0,.09.1.18.26.21s.29,0,.3-.13-.1-.19-.26-.21S153,108.09,153,108.19Z"/><ellipse class="cls-32" cx="155.65" cy="108.91" rx="0.15" ry="0.25" transform="translate(23.66 245.53) rotate(-80.97)"/><ellipse class="cls-32" cx="150.98" cy="102.43" rx="0.25" ry="0.36" transform="translate(24.98 234.37) rotate(-80.47)"/><ellipse class="cls-32" cx="151.27" cy="100.28" rx="0.18" ry="0.26" transform="translate(27.43 232.95) rotate(-80.52)"/><path class="cls-33" d="M151.69,98.52c0,.07-.1.12-.21.1s-.18-.09-.17-.16.1-.12.21-.11S151.7,98.44,151.69,98.52Z"/><path class="cls-31" d="M151.48,98.69a.41.41,0,0,1-.28-.21.14.14,0,0,0-.06.12c0,.14.12.29.31.31a.3.3,0,0,0,.37-.21.23.23,0,0,0,0-.14S151.68,98.72,151.48,98.69Z"/><path class="cls-32" d="M151.33,104.64a.73.73,0,0,1,.08.91.89.89,0,0,1-.91.39,1,1,0,0,1-.72-.61.72.72,0,0,1,.29-.85.73.73,0,0,0,.53,1h0A.69.69,0,0,0,151.33,104.64Z"/><path class="cls-32" d="M150.9,107.55c.46.5-.14,1.2-.72,1.1s-.94-.89-.4-1.25a.65.65,0,0,0,.49.93A.62.62,0,0,0,150.9,107.55Z"/><path class="cls-32" d="M147.69,107.34a.48.48,0,0,1,.06.59.59.59,0,0,1-.61.28c-.43-.07-.76-.73-.3-1a.48.48,0,0,0,.39.66A.47.47,0,0,0,147.69,107.34Z"/><path class="cls-32" d="M145.12,107.51a.43.43,0,0,1-.09.49.54.54,0,0,1-.66.07c-.35-.2-.42-.88.08-.92a.42.42,0,0,0,.05.62A.41.41,0,0,0,145.12,107.51Z"/><path class="cls-32" d="M152.86,108.12a.49.49,0,0,0,.3.66.47.47,0,0,0,.54-.52c.39.37-.11.9-.54.85a.63.63,0,0,1-.52-.45A.47.47,0,0,1,152.86,108.12Z"/><path class="cls-32" d="M155.28,109c0,.26.25.53.53.43a.42.42,0,0,0,.22-.58c.46.18.21.82-.17.91a.57.57,0,0,1-.62-.26A.44.44,0,0,1,155.28,109Z"/><path class="cls-32" d="M150.45,110.61c.46.47-.15,1.14-.7,1s-.89-.86-.37-1.19a.61.61,0,0,0,.47.87A.6.6,0,0,0,150.45,110.61Z"/><path class="cls-32" d="M151.5,102.44a.59.59,0,0,1,.08.74.72.72,0,0,1-.74.33.75.75,0,0,1-.59-.47.58.58,0,0,1,.22-.73.59.59,0,0,0,.44.8h0A.57.57,0,0,0,151.5,102.44Z"/><path class="cls-32" d="M151.65,100.27a.41.41,0,0,1,.09.48.53.53,0,0,1-.58.3c-.38-.06-.7-.68-.26-.88a.43.43,0,0,0,.3.56A.41.41,0,0,0,151.65,100.27Z"/><path class="cls-32" d="M151.8,98.56a.35.35,0,0,1,.08.44.46.46,0,0,1-.47.23c-.33-.06-.61-.6-.21-.75a.31.31,0,1,0,.6.08Z"/><path class="cls-32" d="M161.11,105.41l.4-.16s-.27-.72-.57-1.34A13.39,13.39,0,0,0,156.06,99,16.46,16.46,0,0,0,152,97.54l-.08,0h-.07a16.49,16.49,0,0,0-4.27,0,12.75,12.75,0,0,0-6.13,3c-.47.48-1,1.07-1,1.07l.32.28c-.17.14.58.66.71.51a1.25,1.25,0,0,0,.72-.26l1.25-.91.75.18a14.09,14.09,0,0,1,4.05-2.16,8.8,8.8,0,0,1,3.38-.15,8.93,8.93,0,0,1,3.15,1.28A14.6,14.6,0,0,1,158,103.8l.77.08s.54.77.91,1.28a1.25,1.25,0,0,0,.59.49C160.36,105.84,160.82,105.57,161.11,105.41Zm-13-6.76a11.37,11.37,0,0,1,1.24-.13A11.37,11.37,0,0,0,148.1,98.65Zm1.32-.13h0Zm4.66.82a11.75,11.75,0,0,1,1.15.54C154.83,99.67,154.45,99.49,154.08,99.34Zm-.07,0,0,0Z"/><path class="cls-31" d="M160.94,103.91A13.39,13.39,0,0,0,156.06,99,16.46,16.46,0,0,0,152,97.54l-.08,0h-.07a16.49,16.49,0,0,0-4.27,0,12.75,12.75,0,0,0-6.13,3c-.47.48-1,1.07-1,1.07l.88.77a11.16,11.16,0,0,1,4.07-3,11.84,11.84,0,0,1,6.3-.82,12.22,12.22,0,0,1,5.73,2.9,11.76,11.76,0,0,1,3,4.16l1.06-.43S161.24,104.53,160.94,103.91Z"/><path class="cls-32" d="M160.43,105.8h0a.13.13,0,0,1-.07-.08,11.73,11.73,0,0,0-2.93-4.11,12.08,12.08,0,0,0-5.65-2.87,11.86,11.86,0,0,0-6.24.81,11.08,11.08,0,0,0-4,2.92.12.12,0,0,1-.08,0,.1.1,0,0,1-.1,0l-.88-.77a.11.11,0,0,1,0-.15s.49-.6,1-1.08a13,13,0,0,1,6.21-3.08,16.42,16.42,0,0,1,4.3,0H152a17.45,17.45,0,0,1,4.08,1.44,13.6,13.6,0,0,1,4.94,5c.3.61.57,1.34.58,1.34a.11.11,0,0,1-.07.14l-1.06.44Zm-8.65-7.29h0a12.27,12.27,0,0,1,5.8,2.93,12.47,12.47,0,0,1,2.94,4.09l.84-.35c-.09-.21-.3-.75-.53-1.22h0A13.19,13.19,0,0,0,156,99.07a16.74,16.74,0,0,0-4-1.42h-.07l-.08,0a16.71,16.71,0,0,0-4.23,0,12.57,12.57,0,0,0-6.06,3c-.36.36-.72.8-.87,1l.69.61a11.7,11.7,0,0,1,4-2.88,11.92,11.92,0,0,1,6.38-.83Z"/><path class="cls-35" d="M141.2,101.85a12.45,12.45,0,0,1,3.87-2.76,13.09,13.09,0,0,1,5.47-1l.05-.33a11.85,11.85,0,0,0-5.71,1,12.59,12.59,0,0,0-3.94,2.86Z"/><path class="cls-35" d="M143.28,100.92l1,.22a12.44,12.44,0,0,1,2.46-1.6,8,8,0,0,1,2.27-.67,7.54,7.54,0,0,0-2.74.54,10.23,10.23,0,0,0-1.84,1.08l-.5,0Z"/><path class="cls-35" d="M160.79,105.24a13.18,13.18,0,0,0-2.82-3.92,13.73,13.73,0,0,0-4.9-2.76l.05-.33a12.31,12.31,0,0,1,5.1,2.91,13.08,13.08,0,0,1,2.86,4Z"/><path class="cls-35" d="M159.1,103.65l-1-.11a13.59,13.59,0,0,0-1.85-2.35,8.48,8.48,0,0,0-2-1.4,8,8,0,0,1,2.44,1.43,10.48,10.48,0,0,1,1.41,1.65l.47.2Z"/></g><path class="cls-29" d="M121.68,117l1.7-4.59s15-3,23.65-.84,31,9.72,31,9.72C172.86,120.23,137.1,106.44,121.68,117Z"/></g></g><g id="BrazoI"><path id="Bazo_I-2" data-name="Bazo I" class="cls-6" d="M216.44,173.33s10.74-2,17.4.09c5.8,1.77,8.15,6,9.85,5.85,4.19-11.4-5.44-44.42-7.37-47.8s-3.78-6.28-3.78-6.28-29.64,1.63-25.13,15.24C207.88,141.35,219.87,163.06,216.44,173.33Z"/><g class="cls-39"><path class="cls-2" d="M204.32,138.84l5.52-1.17s10,20.48,9.63,24-2.2,11.29-1.53,11.48,17.82.42,19.93,10.52C231.06,182,209.69,177,209.69,177l1-14.27Z"/></g></g><path class="cls-6" d="M207.31,137.23l-.29,2.1h.81C207.29,138.89,207.31,137.23,207.31,137.23Z"/><path class="cls-6" d="M222.83,109.89l-17.22-16-2.35.08,1.41-5.35c-.17-.59-1-.21-1.64-.31l-1.85.41,1.33-1.88c.19-.47.45-.94.21-1.44l-3.15-.89L198.36,80c-2.23.17-5.44.53-14.27,10.2-10.33,11.32,1.49,22,1.49,22l1.72,2,22.92,23,2.35,1.64,20.75-12.29C233.2,126.08,224.83,112.54,222.83,109.89Z"/><path class="cls-2" d="M210.22,137.2l1.62-5.26-2.13,3.33-16.84-23.41,1.54-2.39-4.18.5,1.37-3.54L185.45,101l1.85,13.19,20,23s0,1.66.52,2.1h0c.58.41,2.46.06,2.46.06l-.09.25,2.33-.81,1.1-3.3Z"/><path class="cls-2" d="M203,88.27a.71.71,0,0,1-.56-.36,1.18,1.18,0,0,1,0-1.11l-3.16,3.07Z"/><path class="cls-2" d="M205,94.19l17.88,15.7c-5-6.67-15.68-15.77-16.64-16.2-1.35-.6-1.73-3-1.51-4.63a1.06,1.06,0,0,0,0-.48l-1.76,5.8Z"/><path class="cls-2" d="M202.72,85.36a1.45,1.45,0,0,0-.33-.41,12.22,12.22,0,0,0-2.66-1.3l-1.25-3.6-.38.08.62,4.86Z"/><path class="cls-5" d="M237.93,140.33l0,0c.14.44.27.89.4,1.36A7.76,7.76,0,0,0,237.93,140.33Z"/><path class="cls-5" d="M240.4,178.26c.84.5,1.29.83,1.29.83s-.33-.39-.92-1A1.84,1.84,0,0,1,240.4,178.26Z"/><g id="Chaqueta_I" data-name="Chaqueta I"><path class="cls-17" d="M168.47,197.7l-5.3,1.78s-2.65,4.76-5.69-.35,3-106.09,3.45-110.75,6.21-8.66,7.6-13.28a6.23,6.23,0,0,0-.37-4.46l-5.61-5.19,7.15-3.89s8.31,3.68,8.45,6.62c.3,6,4.39,4.36,4.23,8.1-.1,2.57-6.3,1.54-6.51,5.45C174,117.47,168.47,197.7,168.47,197.7Z"/><path class="cls-18" d="M181.41,78.62s.94-.86-1.3-3.11c-.69-.68-1.87-1.41-2.19-2-.75-1.39-.67-3.36-2.07-4.48-2-1.62-5.09,5.21-5.09,5.21s-2,2.26-3.48,7.57a75.26,75.26,0,0,0-1.7,12.08c-1.4,27-6.67,100.41-6.67,100.41s-1.17,9.77.84,5.09S176,114.74,176,114.74Z"/><path class="cls-6" d="M175.19,70.74c-1.33,0-3.25,4.38-6.29,8.88-1.51,4.38-7.5,88.82-9.22,115.41-.29,4.54-1.26,6.61-.46,7.19s2.92-.71,6.67-1.74c4.88-1.34,19.21-7.68,22.32-9.17,5.5-2.65-.22-36.86.49-38.22s1.34-3.11.58-4.37,4.62-29.3,4.62-29.3-10.9-12.45-5-24.56,9.27-14.51,9.27-14.51l-17.14-3s-1.51-1.21-3.25-2.55S176.53,70.75,175.19,70.74Z"/><polygon class="cls-2" points="177.74 74.83 183.36 83.68 163.17 142.51 184.96 83.78 177.74 74.83"/><g class="cls-40"><polygon class="cls-2" points="189.82 155.91 179.3 159.24 186.35 154.26 171.47 148.2 187.53 152.53 176.2 141.47 186.86 147.99 187.8 104.77 204.36 123.47 191.3 151.02 189.82 155.91"/><path class="cls-2" d="M189.23,154.28c-.4-2.28-.78-2.82-1.39-.63-.81,2.91,1,31.23-.28,32.87-2.84,3.57-30.08,16.82-30.08,16.82l18.25-5.66,10.59-4.24s5.29-3.84,5.65-8C192.76,176.37,189.5,155.78,189.23,154.28Z"/></g><path class="cls-18" d="M166.91,78.59s3.5-6.64,2.79-9a12.91,12.91,0,0,0-2.79-4.43l-2.14,4.34s1,2.07,1.78,3.93S166.91,78.59,166.91,78.59Z"/></g><g id="Cabeza"><path class="cls-7" d="M151.46,32.53A32.18,32.18,0,0,0,146,33a16.48,16.48,0,0,0-6.1,30.22c1.71,3.14,4.84,8.19,8.06,9.73,4.79,2.3,6.66,5.29,10.15,5.34s10.38-11.11,11.31-13.92c.6-1.85,1.26-14.77,1.26-14.77A16.51,16.51,0,0,0,156.44,33,33.42,33.42,0,0,0,151.46,32.53Z"/><path class="cls-14" d="M158.06,78.5c-2.16,0-3.69-1.12-5.62-2.5a30,30,0,0,0-4.63-2.86c-3.3-1.58-6.51-6.78-8.15-9.78a16.74,16.74,0,0,1,6.25-30.65,32.8,32.8,0,0,1,5.56-.43,33.77,33.77,0,0,1,4.66.4l.34,0a16.77,16.77,0,0,1,14.41,16.83c0,.54-.67,13-1.28,14.85C168.72,67.1,161.77,78.55,158.06,78.5Zm-6.6-45.72a31.8,31.8,0,0,0-5.47.43A16.23,16.23,0,0,0,140,63l.06,0,0,.05c1.6,2.94,4.76,8.09,8,9.63a29.64,29.64,0,0,1,4.71,2.9c1.86,1.33,3.33,2.38,5.33,2.41,3.21,0,10.11-10.82,11.07-13.75.58-1.79,1.24-14.57,1.25-14.7a16.26,16.26,0,0,0-14-16.32l-.35,0A31.08,31.08,0,0,0,151.46,32.78Z"/><path class="cls-31" d="M156.84,61.06s0-1.61-3.35-2.37a15.06,15.06,0,0,0-5.43-.39l.32,1.57"/><path class="cls-41" d="M156.59,61.07s-.1-1.44-3.15-2.13a16.46,16.46,0,0,0-5.08-.43l.27,1.31-.49.1-.37-1.82.25-.05a15.54,15.54,0,0,1,5.53.4c3.48.79,3.54,2.53,3.54,2.61Z"/><path class="cls-9" d="M167.44,52.59s-3.12,3.91-3.56,5.83a49.66,49.66,0,0,0-.34,7.48l-1.11-8.82Z"/><path class="cls-42" d="M164.24,58.85s2.83-3.64,5.25-4l.54,1.37"/><path class="cls-2" d="M157,56.72s-6.46-3.28-10-2c0,0-.33.59.52.61C149.63,54.59,157,56.72,157,56.72Z"/><path class="cls-2" d="M170.61,50.76c-2.65-.33-7.19,5.5-7.19,5.5s4-3.42,4.78-3.89,2.28-1.23,2.28-1.23Z"/><path class="cls-9" d="M142,55.21s2.81,12.19,9.92,14.05c-.48,1.29-8-.11-8-.11s-4.3-8.4-3.08-10.94S142,55.21,142,55.21Z"/><path class="cls-43" d="M165.21,69l1.28.74s2.51-3.76,2.81-5.18.49-3,.49-3"/><path class="cls-2" d="M136.84,37.72a26.78,26.78,0,0,1,4,7.29c1.15,3.71.65,7.55,2.41,7.41,0,0-3.16,9,1.78,12.87.64.25,1,2.45,1.92,2.67.67.15,1.37.3,2.06.43,2.27.43,4.37.71,4.37.71a22.56,22.56,0,0,0,3.4-.88c2.19-.71,7.22-2.82,8.49-.68l1.26,2.15A31,31,0,0,1,164,75.37c-.36.64-.76,1.39-1.14,2.1-.16.3-.48.91-.78,1.45s-.47.83-.56,1a4.21,4.21,0,0,0-.46.95c-.13.36.26.75.26.86,0,.33-1.6.44-2.34.45a14.48,14.48,0,0,1-4.23-.84c-4.18-1.37-9.65-4.44-12-9.19-4.15-8.22-3-18-4.92-18.89-1.34-.61-3.09,4.9-3.09,4.9A15,15,0,0,1,132,46.43,14.39,14.39,0,0,1,136.84,37.72Z"/><path class="cls-9" d="M138.92,54.13s-3.34-3.34-4.43-1c-.5,1.08-.38,3.27.46,5.26,1,2.37,3.88,4.53,4.89,4.11"/><path class="cls-14" d="M139.52,62.83c-1.41,0-3.92-2.19-4.8-4.31-.83-2-1-4.26-.46-5.46a1.54,1.54,0,0,1,1.15-1c1.53-.26,3.6,1.78,3.69,1.87l-.36.35c-.54-.54-2.19-1.92-3.24-1.73a1.09,1.09,0,0,0-.79.69,7.29,7.29,0,0,0,.47,5.06c1,2.29,3.73,4.32,4.57,4l.19.46A1.16,1.16,0,0,1,139.52,62.83Z"/><path class="cls-7" d="M161.71,54.77s2.84,12.42,2.41,12.69-4.63-.74-4.63-.74a1,1,0,0,1,.25-1.22"/><path class="cls-14" d="M163.76,67.75a27.11,27.11,0,0,1-4.33-.79l-.11,0,0-.1a1.26,1.26,0,0,1,.32-1.53l.31.4a.72.72,0,0,0-.22.81,24.89,24.89,0,0,0,4.23.75c.05-1-1.45-8.08-2.45-12.44l.49-.11c2.89,12.6,2.47,12.86,2.3,13A1.15,1.15,0,0,1,163.76,67.75Z"/><g class="cls-44"><circle class="cls-41" cx="154.66" cy="59.79" r="2.09"/></g><g class="cls-45"><ellipse class="cls-41" cx="168.39" cy="56.18" rx="1.71" ry="1.47" transform="translate(109.77 223.74) rotate(-89.17)"/></g></g></g></g></svg>