<svg xmlns="http://www.w3.org/2000/svg" xmlns:xlink="http://www.w3.org/1999/xlink" viewBox="0 0 252.51 406"><defs><style>.cls-1,.cls-2,.cls-8{fill:#faebd6;}.cls-1,.cls-11,.cls-2,.cls-43{stroke:#72390d;}.cls-1,.cls-11,.cls-12,.cls-2,.cls-27,.cls-42,.cls-43,.cls-5{stroke-miterlimit:10;}.cls-1,.cls-11,.cls-2,.cls-27,.cls-42,.cls-43,.cls-5{stroke-width:0.5px;}.cls-2,.cls-9{clip-path:url(#clip-path);}.cls-11,.cls-12,.cls-27,.cls-3{fill:none;}.cls-4{fill:#e4e4e4;}.cls-24,.cls-5{fill:#586da8;}.cls-27,.cls-5{stroke:#080919;}.cls-30,.cls-6{fill:#030202;}.cls-7{fill:#0b0b0c;}.cls-10,.cls-43{fill:#c2714e;}.cls-12{stroke:#030202;}.cls-13{clip-path:url(#clip-path-3);}.cls-14{clip-path:url(#clip-path-4);}.cls-15{fill:#72390d;}.cls-16{clip-path:url(#clip-path-5);}.cls-17{clip-path:url(#clip-path-6);}.cls-18{fill:#9b9b9b;}.cls-19{fill:#626262;}.cls-20{clip-path:url(#clip-path-7);}.cls-21{fill:#b0b0b0;}.cls-22{opacity:0.8;}.cls-23{clip-path:url(#clip-path-8);}.cls-25{clip-path:url(#clip-path-9);}.cls-26{fill:#131b2b;}.cls-28{fill:#08080a;}.cls-29{clip-path:url(#clip-path-10);}.cls-30{opacity:0.9;}.cls-31{opacity:0.08;}.cls-32,.cls-42{fill:#fff;}.cls-33{fill:#010102;}.cls-34{fill:#414042;}.cls-35{fill:#120f0e;}.cls-36{fill:#14a5dc;}.cls-37{fill:#010002;}.cls-38{fill:#00d8f5;}.cls-39{fill:#404041;}.cls-40{clip-path:url(#clip-path-11);}.cls-41{fill:#171519;}.cls-42{stroke:#171519;}.cls-44{clip-path:url(#clip-path-12);}.cls-45{clip-path:url(#clip-path-13);}.cls-46{clip-path:url(#clip-path-14);}</style><clipPath id="clip-path"><path class="cls-1" d="M224.47,174.74a23.88,23.88,0,0,0-6.12,4.44c-2.35,2.58-3.17,3.29-3.17,5.29s-1.65,7.29-2.24,8.47-1.06,3.08,2.24,2,4.58-5.77,5.76-8.24a8,8,0,0,1,3.53-3.53s1.06,8.84.47,11.77-1.64,8.58.18,8.05,3.23-1.47,3.94-7.12,1.53-7,1.53-7,2.47,7.23,2,10.05-2.83,8.59-2.12,10.24.12,2.47,2.18,2,2-1.55,2-1.55,1.67,1.5,2.41-.92c.12-.42.43-1.17.75-2A98.91,98.91,0,0,0,241,193.24c.12-1.41,2,3.7,1.63,5.82s1.17,9.65,2.12,9.65,2.11.11,2.11-1.89-.35-5.76-.58-8.11-.48-7.42-2-9.3-.12-13.65-.12-13.65.35-8.47-5.88-8-12.83-.23-13,1.77A42.2,42.2,0,0,1,224.47,174.74Z"/></clipPath><clipPath id="clip-path-3"><path class="cls-6" d="M138.65,76.86s-14.77,1.12-17.41,2S84,122.94,84,122.94s-4.06,16.24-2.47,18,1.59,5,4.94,4.1a79.61,79.61,0,0,0,9.18-3.22c4.59-1.76,12.53-6.47,12.53-6.47l19.76-18.06Z"/></clipPath><clipPath id="clip-path-4"><path class="cls-8" d="M99,100.13s1.8-5.82,3.17-7.62,8.36-7.55,9.63-7.9,11.64,1.49,12.43,2.11,2,6.74,2,7.38c0,.26-1.93,2.08-4.44,3.58-.71.85-.59,1.67-1.38,2.66-.34,1.57-6.15,4.18-6.45,4.23-1.27.21-2.75,3.81-2.75,3.81s-5.19,2.43-8.36.42S99,100.13,99,100.13Z"/></clipPath><clipPath id="clip-path-5"><path class="cls-8" d="M127.58,95.06s-2-1.86-5.27,1.35-3,4.45-2,5.32,6.23-1.63,7.3-2.74S129,96,127.58,95.06Z"/></clipPath><clipPath id="clip-path-6"><path class="cls-3" d="M97.06,98.06c-1.18.53-14.3,22.94-14.3,22.94s-5.58,18.29-1.23,19.94,14.12,1.36,21-5.59c5.35-11.35,9.71-27,9.71-27s-13.95,4.53-13.42-8C99.18,100.35,98.24,97.53,97.06,98.06Z"/></clipPath><clipPath id="clip-path-7"><path class="cls-4" d="M84.53,357.65S80.16,367,72.81,371.59s-3.46,1.94-3.46,1.94-8.11,2.82-8.47,5.82a72.4,72.4,0,0,0,0,9s3.18,4.59,8.3,4.77,13.23,1.59,16.41-2.12a80.08,80.08,0,0,1,7.76-7.59,3,3,0,0,1,2.12-2.82,1.58,1.58,0,0,1,2.12,1.59s9-2.83,10.41-4.42,1.59-11.47,1.59-11.47Z"/></clipPath><clipPath id="clip-path-8"><path id="zapato_I" data-name="zapato I" class="cls-4" d="M221.82,369.12v15.35s-1.58,1.77-2.82,3a4.35,4.35,0,0,0-1.24,2.82v8.65s3.36,5.3,9.71,5.47,11.65-.35,15.88-4.06,3.18-3.17,3.18-3.17l.12-9.53a1.59,1.59,0,0,1-1.89-.87c-.52-1.25,0-16.78,0-16.78S232.24,357.65,221.82,369.12Z"/></clipPath><clipPath id="clip-path-9"><path class="cls-5" d="M125.06,168.66s-23,41.54-28.39,50.75c-6.2,10.63-16.32,34.12-18.91,39.77s-4.7,9.17-4.94,13.41,4.24,8.94,4.94,16.47,8.48,49.88,7.06,52.47-5.64,5.18-4.47,6.59,4.24,1.64,3.53,4.47-3.53,7.06-1.41,7.76,8.93,4.94,16.47,7.3,12,1.64,12.47,0-1.41-12,0-13.41,4.94-3.06,3.53-5.65S110,341.76,110,338.24s4-24.95,3.53-31.53-.71-11.06-2.82-15.53-2.36-8.24-1.89-13.18-2.82-3.76-1.88-6.59,17.1-24.47,22.12-31.76,13.26-25.77,14.5-25.77c.11,0,1.67-.26,1.88.33,2.16,6,8.44,40.86,15.68,51.32,7.94,11.47,9.35,19.41,12.35,23.12s21,23.11,26.47,34.41,13.41,28.23,12.88,33.88-1.94,6.53,1.77,9.71a46.86,46.86,0,0,1,6.7,7.41s2-6.88,9-7.06,15.36,5.47,15.18,8.65c1.41-1.59,3.35-3.18,2.12-6.18s-2.83-1.94-1.41-4.41,2.82-6.18,2.82-8.65-9.18-9-10.41-11.82-6-31.06-7.41-36-16.24-19.94-19.24-22.06-4.94-8.65-6.35-10.59-7.06-2.12-7.94-5.65-11.3-59.11-12.89-73.94-.17-16.46-.17-16.46l-48.18-5.15Z"/></clipPath><clipPath id="clip-path-10"><path class="cls-3" d="M144.12,81.76s12.46,13,25.49-2.9L189.24,80l-13.83,73.65-2.29,24.88a138.85,138.85,0,0,1-26.74,1.12c-13.19-.94-15.67-.41-20-3.83s-7.24-15.73-5.19-30.4,13-43.89,14.46-48.36c.81-2.51,1.92-7.12,4-10.59A18.11,18.11,0,0,1,144.12,81.76Z"/></clipPath><clipPath id="clip-path-11"><path class="cls-3" d="M176.29,72.22c-1.32.07-3.23,4.6-6.26,9.31-1.49,4.5-7.45,89.65-9.16,116.45-.29,4.58-1.25,6.73-.46,7.26s2.9-.91,6.63-2.17c4.85-1.64,19.1-8.9,22.2-10.6,5.47-3,1.76-35.12,2.47-36.53s1.33-3.2.57-4.42,2.61-31.58,2.61-31.58-10.83-11.82-5-24.35,9.84-14.44,9.84-14.44l-17.66-2.62s-1.5-1.12-3.24-2.35S177.62,72.16,176.29,72.22Z"/></clipPath><clipPath id="clip-path-12"><path class="cls-3" d="M157.27,63.85s0-1.61-3.38-2.32a15.06,15.06,0,0,0-5.43-.31l.34,1.56"/></clipPath><clipPath id="clip-path-13"><path class="cls-3" d="M170.57,59.15l-.74-1.66c-2.41.37-5.19,4-5.19,4"/></clipPath><clipPath id="clip-path-14"><path id="Bazo_I" data-name="Bazo I" class="cls-7" d="M221.78,174.74s7.75-1.67,13.9-.71c5.34.83,9.06,4.34,10.56,4,.73-9.88-.86-38.12-3.06-41.21S234,124.21,234,124.21s-26.85,5.91-21.24,18.16c7.11,10.92,5.61,8.28,7.64,11.89S226.59,164.7,221.78,174.74Z"/></clipPath></defs><g id="Frame1"><path id="Zapato_I-2" data-name="Zapato I" d="M221.78,175.53s14,10.06,24.46,2.47C242,166.18,222.27,165.82,221.78,175.53Z"/><g id="Mano_I" data-name="Mano I"><path class="cls-8" d="M224.47,174.74a23.88,23.88,0,0,0-6.12,4.44c-2.35,2.58-3.17,3.29-3.17,5.29s-1.65,7.29-2.24,8.47-1.06,3.08,2.24,2,4.58-5.77,5.76-8.24a8,8,0,0,1,3.53-3.53s1.06,8.84.47,11.77-1.64,8.58.18,8.05,3.23-1.47,3.94-7.12,1.53-7,1.53-7,2.47,7.23,2,10.05-2.83,8.59-2.12,10.24.12,2.47,2.18,2,2-1.55,2-1.55,1.67,1.5,2.41-.92c.12-.42.43-1.17.75-2A98.91,98.91,0,0,0,241,193.24c.12-1.41,2,3.7,1.63,5.82s1.17,9.65,2.12,9.65,2.11.11,2.11-1.89-.35-5.76-.58-8.11-.48-7.42-2-9.3-.12-13.65-.12-13.65.35-8.47-5.88-8-12.83-.23-13,1.77A42.2,42.2,0,0,1,224.47,174.74Z"/><path class="cls-8" d="M224.47,174.74a23.88,23.88,0,0,0-6.12,4.44c-2.35,2.58-3.17,3.29-3.17,5.29s-1.65,7.29-2.24,8.47-1.06,3.08,2.24,2,4.58-5.77,5.76-8.24a8,8,0,0,1,3.53-3.53s1.06,8.84.47,11.77-1.64,8.58.18,8.05,3.23-1.47,3.94-7.12,1.53-7,1.53-7,2.47,7.23,2,10.05-2.83,8.59-2.12,10.24.12,2.47,2.18,2,2-1.55,2-1.55,1.67,1.5,2.41-.92c.12-.42.43-1.17.75-2A98.91,98.91,0,0,0,241,193.24c.12-1.41,2,3.7,1.63,5.82s1.17,9.65,2.12,9.65,2.11.11,2.11-1.89-.35-5.76-.58-8.11-.48-7.42-2-9.3-.12-13.65-.12-13.65.35-8.47-5.88-8-12.83-.23-13,1.77A42.2,42.2,0,0,1,224.47,174.74Z"/><g class="cls-9"><path class="cls-10" d="M214.63,195.65s3.31-1.33,4.28-7.77.46-9.71.46-9.71l3.78-3.43,1.59-6.62,4.23-1.24s7.69-.29,11,.47a3.9,3.9,0,0,1,1.11.4c.95.58,2.73,3.9,3.46,5.59.34.78.45,1.21.16.87-.64-.74.11,9.8-.62,9.3-1-.66-3-4.78-7.59-6.13-4.09-1.2-6.07-1.58-7.68-.44-2.11,1.5-2.11,5.47-2,6.8a45.34,45.34,0,0,1-1.17,14.91c-.39,1.52-.88,3.29-.24,3.64,1.77,1,3.62-1.53,3.62-1.53l-1.94,3-4.41-.2,1.17-12.85-.55-5.18-3.92,7.65Z"/><path class="cls-10" d="M230.32,189.53l1.39-3.68a42.46,42.46,0,0,1,2.3,7.94,25.37,25.37,0,0,1-1.07,9.71c-1,3.35-2.17,6.71-.29,7.68s-3.77,3.44-4.56,2.56,1.23-7.74,1.23-7.74a16.46,16.46,0,0,1,.35-3.65C230,201.47,230.32,189.53,230.32,189.53Z"/><path class="cls-10" d="M236.65,187.62l-.33,12.62s-2.76,9.58-1.61,10.17a1.72,1.72,0,0,0,2-.47s-1.33-.2-.45-3.94S238.32,191.85,236.65,187.62Z"/><path class="cls-10" d="M241.59,197.24l-.88-5.65s2.81,2.82,3.08,4.85c.45,3.24.22,12.1,2,13.24,0,1-1.77,0-1.77,0l-2.47-3.09Z"/><path class="cls-1" d="M234.68,209.63s1.44-9.57,1.56-11.63.41-10.38.41-10.38"/></g><path class="cls-11" d="M224.47,174.74a23.88,23.88,0,0,0-6.12,4.44c-2.35,2.58-3.17,3.29-3.17,5.29s-1.65,7.29-2.24,8.47-1.06,3.08,2.24,2,4.58-5.77,5.76-8.24a8,8,0,0,1,3.53-3.53s1.06,8.84.47,11.77-1.64,8.58.18,8.05,3.23-1.47,3.94-7.12,1.53-7,1.53-7,2.47,7.23,2,10.05-2.83,8.59-2.12,10.24.12,2.47,2.18,2,2-1.55,2-1.55,1.67,1.5,2.41-.92c.12-.42.43-1.17.75-2A98.91,98.91,0,0,0,241,193.24c.12-1.41,2,3.7,1.63,5.82s1.17,9.65,2.12,9.65,2.11.11,2.11-1.89-.35-5.76-.58-8.11-.48-7.42-2-9.3-.12-13.65-.12-13.65.35-8.47-5.88-8-12.83-.23-13,1.77A42.2,42.2,0,0,1,224.47,174.74Z"/><path class="cls-11" d="M224.47,174.74a23.88,23.88,0,0,0-6.12,4.44c-2.35,2.58-3.17,3.29-3.17,5.29s-1.65,7.29-2.24,8.47-1.06,3.08,2.24,2,4.58-5.77,5.76-8.24a8,8,0,0,1,3.53-3.53s1.06,8.84.47,11.77-1.64,8.58.18,8.05,3.23-1.47,3.94-7.12,1.53-7,1.53-7,2.47,7.23,2,10.05-2.83,8.59-2.12,10.24.12,2.47,2.18,2,2-1.55,2-1.55,1.67,1.5,2.41-.92c.12-.42.43-1.17.75-2A98.91,98.91,0,0,0,241,193.24c.12-1.41,2,3.7,1.63,5.82s1.17,9.65,2.12,9.65,2.11.11,2.11-1.89-.35-5.76-.58-8.11-.48-7.42-2-9.3-.12-13.65-.12-13.65.35-8.47-5.88-8-12.83-.23-13,1.77A42.2,42.2,0,0,1,224.47,174.74Z"/></g><g id="Antebrazo_D" data-name="Antebrazo D"><path class="cls-12" d="M137.65,78.86s-13.77-.88-16.41,0S84,122.94,84,122.94s-4.06,16.24-2.47,18,1.59,5,4.94,4.1a79.61,79.61,0,0,0,9.18-3.22c4.59-1.76,12.53-6.47,12.53-6.47l19.76-18.06Z"/><path class="cls-6" d="M138.65,76.86s-14.77,1.12-17.41,2S84,122.94,84,122.94s-4.06,16.24-2.47,18,1.59,5,4.94,4.1a79.61,79.61,0,0,0,9.18-3.22c4.59-1.76,12.53-6.47,12.53-6.47l19.76-18.06Z"/><g class="cls-13"><polygon class="cls-7" points="99.65 135.35 107.88 126.47 127.51 80.49 139.65 76.47 123.18 73.4 89.06 113.53 88.12 136.79 99.65 135.35"/></g></g><g id="BazoComp_D" data-name="BazoComp D"><path id="Manga_D" data-name="Manga D" d="M97.06,98.06s14.38.56,15.18,10.29S93.71,111.12,97.06,98.06Z"/><path class="cls-8" d="M99,100.13s1.8-5.82,3.17-7.62,8.36-7.55,9.63-7.9,11.64,1.49,12.43,2.11,2,6.74,2,7.38c0,.26-1.93,2.08-4.44,3.58-.71.85-.59,1.67-1.38,2.66-.34,1.57-6.15,4.18-6.45,4.23-1.27.21-2.75,3.81-2.75,3.81s-5.19,2.43-8.36.42S99,100.13,99,100.13Z"/><g class="cls-14"><path class="cls-10" d="M103,109.24s2.8-2.5,2.59-5a15.7,15.7,0,0,1,.64-5.19s4.81,3.39,5.5,2.54,1.64-4.18,2.59-4.18,4-1.8,3.86-3.54c.47.06,2.88-2,2.47-3.71.44-.15,5.33,2.63,5.33,2.63l1.67,4.67-11.88,9.31-8.64,5.66Z"/></g><path class="cls-15" d="M110.69,101.41a29.76,29.76,0,0,0-4-1.67v-.5a28,28,0,0,1,4.24,1.72Z"/><path class="cls-15" d="M111.93,103.57a3.64,3.64,0,0,1-2.09-.68,5.29,5.29,0,0,1-1.65-1.91,6.3,6.3,0,0,1-2.5,1.17l-.13-.48c1.17-.32,2.45-.92,2.41-1.29h0l.5-.06h0a4.38,4.38,0,0,0,1.66,2.16,3.1,3.1,0,0,0,2.63.48c1.63-.44,1.88-3.47,2-4.77l0-.31c.06-.56-2.59-2.51-5.07-4l.26-.43c1.27.76,5.42,3.33,5.31,4.47l0,.31c-.12,1.4-.39,4.67-2.36,5.2A4,4,0,0,1,111.93,103.57Z"/><path class="cls-15" d="M115.05,102.42c-.29,0-.64,0-1-.06l.06-.5c1.91.21,2.43-.17,2.93-.54a4.76,4.76,0,0,1,.55-.36c.64-.31,1.37-5.58,1.07-6.58-.15-.53-3.27-2.44-6.2-4l.23-.45c1,.54,6.16,3.28,6.45,4.28s-.26,6.64-1.32,7.17a3.94,3.94,0,0,0-.48.31A3.22,3.22,0,0,1,115.05,102.42Z"/><path class="cls-15" d="M118.47,100.57l-.21-.46c2.92-1.29,3-3,3-3,.19-2.07.35-5.37,0-6s-4.05-2.42-6.32-3.38l.19-.46c1,.43,6.08,2.61,6.58,3.61s.07,5.76,0,6.3C121.74,97.17,121.7,99.13,118.47,100.57Z"/><path class="cls-15" d="M105.89,109.85a6,6,0,0,1-3.26-.83c-3.24-2.06-3.9-8.59-3.93-8.87v-.09c.08-.24,1.83-5.89,3.22-7.7s8.35-7.6,9.76-8c1.22-.33,11.74,1.45,12.64,2.15s2.06,7.07,2.06,7.58-2.36,2.47-4.52,3.77a3.7,3.7,0,0,0-.59,1.15,4.72,4.72,0,0,1-.73,1.43c-.5,1.77-6.38,4.33-6.64,4.37-.83.14-2,2.32-2.56,3.66l0,.09-.09,0A14.27,14.27,0,0,1,105.89,109.85Zm-6.68-9.7c.06.61.79,6.61,3.68,8.44s7.35-.1,8-.4c.27-.66,1.61-3.65,2.9-3.86.4-.11,6-2.65,6.25-4l0-.11a4.31,4.31,0,0,0,.68-1.33,4.08,4.08,0,0,1,.7-1.33l.06,0A18,18,0,0,0,125.9,94c0-.71-1.22-6.63-1.87-7.13s-10.91-2.42-12.21-2.06-8.13,6-9.5,7.81S99.38,99.59,99.21,100.15Z"/><path class="cls-8" d="M127.58,95.06s-2-1.86-5.27,1.35-3,4.45-2,5.32,6.23-1.63,7.3-2.74S129,96,127.58,95.06Z"/><g class="cls-16"><path class="cls-10" d="M127.18,99.34s-5.43,1.53-5.11.15,3.49-5,3.49-5a4.6,4.6,0,0,0-4.82,1.37c-2.09,2.35-2.16,7.42-2.16,7.42l3.7.51Z"/></g><path class="cls-15" d="M121,102.15a1.25,1.25,0,0,1-.83-.23,2,2,0,0,1-.75-1.42c0-1,.85-2.4,2.76-4.27,3.25-3.17,5.37-1.56,5.6-1.37a2.28,2.28,0,0,1,1,1.69,3.41,3.41,0,0,1-1,2.62C126.83,100.14,122.88,102.15,121,102.15Zm5-7.38a5.2,5.2,0,0,0-3.49,1.82c-1.78,1.74-2.64,3-2.61,3.89a1.42,1.42,0,0,0,.58,1.06c.79.7,5.86-1.59,7-2.72a2.93,2.93,0,0,0,.87-2.22,1.79,1.79,0,0,0-.83-1.33l0,0A2.17,2.17,0,0,0,126,94.77Z"/><g id="Brazo_D" data-name="Brazo D"><path class="cls-6" d="M97.06,98.06c-1.18.53-14.3,22.94-14.3,22.94s-5.58,18.29-1.23,19.94,14.12,1.36,21-5.59c5.35-11.35,9.71-27,9.71-27s-13.95,4.53-13.42-8C99.18,100.35,98.24,97.53,97.06,98.06Z"/><g class="cls-17"><path class="cls-7" d="M80.47,142.71s3.65-11.77,8.24-17.65,6.17-14.22,8.82-15.41c1.82-.83,1.88-1.65,1.88-1.65s-1.53-1.41-1.11-4.81c.54-4.33-2.25-9.07-2.25-9.07L80.47,121.41l-2.82,17.18Z"/></g></g></g><g id="Chaqueta_D" data-name="Chaqueta D"><path class="cls-6" d="M130.39,101.19l-4.25,9.42s-18.07,81.86-15.81,83.63,2.79,1.58,6.85-.71S130.39,101.19,130.39,101.19Z"/><path class="cls-18" d="M143.73,69.22S132.41,76,132.18,82.75s-22.42,111.49-19.12,111.49,20.13-17.18,20.13-17.18l14.87-96Z"/><path class="cls-19" d="M133.19,177.06s-14.57,15.76-13.7,9.18,5.57-45.18,5.57-45.18,6.5-23.79,8.53-33.9,1.62-19.33,4.78-24.92a23.79,23.79,0,0,1,8.85-8.84Z"/></g><g id="Cuello"><path class="cls-10" d="M165.93,72.29l3.68,6.57s-1.6,5.61-7.06,7.26a21.52,21.52,0,0,1-19.28-2.91s1.91-1.81,1.88-3.68-1.88-7.18-1.88-7.18l8.65,1.89,13.21-1.3"/><path class="cls-10" d="M141.49,66.08s4.27,15.1,6.57,18.63"/><path class="cls-15" d="M147.85,84.85c-2.29-3.52-6.42-18.08-6.6-18.7l.49-.14c0,.15,4.28,15.11,6.53,18.57Z"/></g><g id="zapato_D" data-name="zapato D"><path class="cls-4" d="M84.53,357.65S80.16,367,72.81,371.59s-3.46,1.94-3.46,1.94-8.11,2.82-8.47,5.82a72.4,72.4,0,0,0,0,9s3.18,4.59,8.3,4.77,13.23,1.59,16.41-2.12a80.08,80.08,0,0,1,7.76-7.59,3,3,0,0,1,2.12-2.82,1.58,1.58,0,0,1,2.12,1.59s9-2.83,10.41-4.42,1.59-11.47,1.59-11.47Z"/><g class="cls-20"><path class="cls-21" d="M60.73,375.65s.68,5.64,3.33,7.06A34.5,34.5,0,0,0,69.71,385s2.47,9.18,3.88,9.71-10.24.35-10.24.35l-6-6Z"/><path class="cls-21" d="M85.16,393.53V381.65l-1.06-1.59s14.19-10.77,15.61-18.53,16.41,3.88,16.41,3.88l-2.3,13.94-15.35,8.47Z"/><path class="cls-7" d="M67.88,371.18s-5.41,7.29-2.12,9.17S78,384.12,81.29,382,98,370.47,99.88,360.35s-18.82-4.23-18.82-4.23S76.82,369.06,67.88,371.18Z"/><path class="cls-22" d="M111,382.18s-21.31,10.49-33.37,15.47c-4.77,2-16.91-6.8-16.9-7.53s11.59,4,21.15.53c4.94-1.82,10.21-6,14.12-8.47,8.81-5.53,12-5.12,10.24-9.18-6.75-.25-26.4-1-32.3,1.41-6.88,2.83-14.82,7.06-14.82,7.06l-1.24-5.12,13.06-8.64,12-13.24,27.71,9,4.92,5.29Z"/></g></g><path id="zapato_I-3" data-name="zapato I" class="cls-4" d="M221.82,369.12v15.35s-1.58,1.77-2.82,3a4.35,4.35,0,0,0-1.24,2.82v8.65s3.36,5.3,9.71,5.47,11.65-.35,15.88-4.06,3.18-3.17,3.18-3.17l.12-9.53a1.59,1.59,0,0,1-1.89-.87c-.52-1.25,0-16.78,0-16.78S232.24,357.65,221.82,369.12Z"/><g class="cls-23"><path class="cls-7" d="M220.59,367.18v18.64s-1.06,9.06,9.35,8.71,12.88-3.53,15.71-10.19c1.25-2.95-.89-18.4-.89-18.4s-6.35-3.08-12.55-3C226.63,363,221.17,366.17,220.59,367.18Z"/><path class="cls-22" d="M217.76,386.59c4.06,0,7.77.62,8.48-2.25a30.65,30.65,0,0,0,.7-6.22s-.59-3.88,5.27-4.24,13.44,7.94,13.44,7.94l2.29-10.76-9.53-9.35s-14.65-1.59-14.82-1.06S217.76,386.59,217.76,386.59Z"/><path class="cls-21" d="M217.76,388.53s1,7.53,7.45,8.82a17.67,17.67,0,0,0,4.2.36l.53,8.29-12.18-1.56L214.94,397Z"/><path class="cls-21" d="M241.94,402.65l.18-8.12s3.59-1.59,4.53-8.47c3.94,4.41,2.35,12.7,2.35,12.7Z"/><path class="cls-22" d="M215.29,393.82s7.06,10.94,18.36,8.65,15-8.82,15-8.82l-2,7.23s-5.41,6.53-6.47,6.53S225,406,222.88,406s-6.88-6.22-6.88-6.22Z"/></g><g id="Piernas"><g id="Piernas-2" data-name="Piernas"><path class="cls-24" d="M125.06,168.66s-23,41.54-28.39,50.75c-6.2,10.63-16.32,34.12-18.91,39.77s-4.7,9.17-4.94,13.41,4.24,8.94,4.94,16.47,8.48,49.88,7.06,52.47-5.64,5.18-4.47,6.59,4.24,1.64,3.53,4.47-3.53,7.06-1.41,7.76,8.93,4.94,16.47,7.3,12,1.64,12.47,0-1.41-12,0-13.41,4.94-3.06,3.53-5.65S110,341.76,110,338.24s4-24.95,3.53-31.53-.71-11.06-2.82-15.53-2.36-8.24-1.89-13.18-2.82-3.76-1.88-6.59,17.1-24.47,22.12-31.76,13.26-25.77,14.5-25.77c.11,0,1.67-.26,1.88.33,2.16,6,8.44,40.86,15.68,51.32,7.94,11.47,9.35,19.41,12.35,23.12s21,23.11,26.47,34.41,13.41,28.23,12.88,33.88-1.94,6.53,1.77,9.71a46.86,46.86,0,0,1,6.7,7.41s2-6.88,9-7.06,15.36,5.47,15.18,8.65c1.41-1.59,3.35-3.18,2.12-6.18s-2.83-1.94-1.41-4.41,2.82-6.18,2.82-8.65-9.18-9-10.41-11.82-6-31.06-7.41-36-16.24-19.94-19.24-22.06-4.94-8.65-6.35-10.59-7.06-2.12-7.94-5.65-11.3-59.11-12.89-73.94-.17-16.46-.17-16.46l-48.18-5.15Z"/><g class="cls-25"><path class="cls-26" d="M128.82,243.41s6.36-27.53,5.89-33.88-9.2-17.65-14.45-16.24-16.85,20-20.85,27.53S80.59,265.29,78,267.65s-2.82,5.88,0,6.11,12.94.48,14.59,4-8.24,9.42-8.71,12.95S102,334.94,99.41,341.06a9.82,9.82,0,0,1-11.29,6.12c-3.06-.71-5.48-2.09-7.68-.46s6,1.63,10.27,3.28,8.23.94,8.23,2.35-3.06,16.47-3.06,16.47L79.18,362l-.71-18.35,3.77-7.3-7.77-52.23-6.82-14.36s6.11-14.27,6.82-14.19,25.18-58.51,25.18-58.51l8-11.53,15.17-19.88s38.61,6.91,49.06,11.29c9.3,3.89-35.72,3.68-35.17,10.12.42,5,8.81,9.76,10.51,12,4,5.23,10.24,44.82,13.69,50.23s15.44,33,18,34.83,7.77.7,10.94-.71,5.53-.94,6.24,7.3,2.35,19.76,6.59,25.64,12.7,20.95,16.94,23.53.94,7.3-.94,11.06-9.18,12.94-9.18,12.94l4.23,4.94s11.35-13.41,15.91-14.82,7.86,2.12,7.86,2.12,8,9.41,5.65,9.64-10.2-6.11-15.06-.7a105.86,105.86,0,0,0-8.94,11.76l-10.83-2.58-18.89-39.09-47.22-97.7Z"/><path class="cls-26" d="M242.58,349.07s-30.29-26.36-33.64-32c7.41,6.53,19.24,17.82,28.41,16.23S242.58,349.07,242.58,349.07Z"/><path class="cls-26" d="M112.24,342.65s-12.36-11.83-18.71-32.83c3.88,8.12,11.65,23.65,18.53,26.12A10.2,10.2,0,0,1,112.24,342.65Z"/><path class="cls-26" d="M107.65,270.12s-8.12,9.3-3.53,7.41a82.7,82.7,0,0,0,8.19-3.92Z"/></g><path class="cls-27" d="M125.06,168.66s-23,41.54-28.39,50.75c-6.2,10.63-16.32,34.12-18.91,39.77s-4.7,9.17-4.94,13.41,4.24,8.94,4.94,16.47,8.48,49.88,7.06,52.47-5.64,5.18-4.47,6.59,4.24,1.64,3.53,4.47-3.53,7.06-1.41,7.76,8.93,4.94,16.47,7.3,12,1.64,12.47,0-1.41-12,0-13.41,4.94-3.06,3.53-5.65S110,341.76,110,338.24s4-24.95,3.53-31.53-.71-11.06-2.82-15.53-2.36-8.24-1.89-13.18-2.82-3.76-1.88-6.59,17.1-24.47,22.12-31.76,13.26-25.77,14.5-25.77c.11,0,1.67-.26,1.88.33,2.16,6,8.44,40.86,15.68,51.32,7.94,11.47,9.35,19.41,12.35,23.12s21,23.11,26.47,34.41,13.41,28.23,12.88,33.88-1.94,6.53,1.77,9.71a46.86,46.86,0,0,1,6.7,7.41s2-6.88,9-7.06,15.36,5.47,15.18,8.65c1.41-1.59,3.35-3.18,2.12-6.18s-2.83-1.94-1.41-4.41,2.82-6.18,2.82-8.65-9.18-9-10.41-11.82-6-31.06-7.41-36-16.24-19.94-19.24-22.06-4.94-8.65-6.35-10.59-7.06-2.12-7.94-5.65-11.3-59.11-12.89-73.94-.17-16.46-.17-16.46l-48.18-5.15Z"/></g></g><g id="Torzo"><path class="cls-28" d="M144.12,81.76s12.46,13,25.49-2.9L189.24,80l-13.83,73.65-2.29,24.88a138.85,138.85,0,0,1-26.74,1.12c-13.19-.94-15.67-.41-20-3.83s-7.24-15.73-5.19-30.4,13-43.89,14.46-48.36c.81-2.51,1.92-7.12,4-10.59A18.11,18.11,0,0,1,144.12,81.76Z"/><g class="cls-29"><polygon class="cls-30" points="133.59 89.53 193.29 101.44 192.59 75.4 136.82 78.86 133.59 89.53"/><path class="cls-30" d="M179.18,158.24s.66,10.11-13.77,12.23c-17.92,2.63-43.77.16-46.47-6.94-1,11.91,10.83,19.34,13.18,20.35l41.41-1.17s5.65-5.42,6.35-5.42S179.18,158.24,179.18,158.24Z"/><g class="cls-31"><path class="cls-32" d="M157.29,104.77a6.82,6.82,0,0,0,3.23-.66,3.13,3.13,0,0,0,1.83-2.16,3.31,3.31,0,0,0-.31-1.68,4,4,0,0,0-.45-.77,2.48,2.48,0,0,0-.25-.3,1.64,1.64,0,0,1-.29-.3c-.19-.32.34-.08.44,0a3.45,3.45,0,0,1,.71.43,4.68,4.68,0,0,1,1.07,1.15,5,5,0,0,1-.43,5.85,7.67,7.67,0,0,1-2.16,1.85,8,8,0,0,1-1.49.68,5.11,5.11,0,0,1-1.65.29,2.41,2.41,0,0,1-2.19-2,2,2,0,0,1,1.16-2.24,1.71,1.71,0,0,1,.78-.13C158.32,104.8,157.1,104.76,157.29,104.77Z"/><path class="cls-33" d="M157.32,109.35a2.7,2.7,0,0,1-2.2-2.19,2.21,2.21,0,0,1,1.29-2.49,2.09,2.09,0,0,1,.85-.15h.14a6.33,6.33,0,0,0,3-.64,3,3,0,0,0,1.71-2,2.92,2.92,0,0,0-.29-1.54,3.23,3.23,0,0,0-.42-.72,1.69,1.69,0,0,0-.22-.27l-.08-.08a1,1,0,0,1-.26-.28.38.38,0,0,1,0-.39.32.32,0,0,1,.33-.13,2.07,2.07,0,0,1,.44.15,4.66,4.66,0,0,1,.76.46,4.87,4.87,0,0,1,1.13,1.22,5.29,5.29,0,0,1-.43,6.14,7.66,7.66,0,0,1-2.22,1.91,8.29,8.29,0,0,1-1.53.7,5.37,5.37,0,0,1-1.72.3Zm0-4.34a2,2,0,0,0-.68.12,1.78,1.78,0,0,0-1,2,2.17,2.17,0,0,0,1.74,1.74l.19,0a4.79,4.79,0,0,0,1.58-.28,7.7,7.7,0,0,0,1.45-.66,7.36,7.36,0,0,0,2.1-1.8,4.8,4.8,0,0,0,.42-5.55,4.35,4.35,0,0,0-1-1.09,4.25,4.25,0,0,0-.39-.25l.1.12a4.85,4.85,0,0,1,.48.83,3.44,3.44,0,0,1,.32,1.82,3.35,3.35,0,0,1-1.94,2.32,6.7,6.7,0,0,1-2.86.69h-.48Z"/><path class="cls-33" d="M158.08,106.93h0a6.29,6.29,0,0,0,3.35-1.11,4.27,4.27,0,0,0,1.84-2.71,4.08,4.08,0,0,0-.21-2.14,4.24,4.24,0,0,0-1.51-1.85c-.12-.09.9.08,1.74,1.34a5,5,0,0,1-.43,5.84,7.54,7.54,0,0,1-2.16,1.86,8,8,0,0,1-1.49.67C158.72,109,157.79,106.92,158.08,106.93Z"/><path class="cls-34" d="M158.11,106.93h0Z"/><path class="cls-32" d="M146.75,103.33a7.84,7.84,0,0,1-3.15-1.53A4,4,0,0,1,142,99.17a2.9,2.9,0,0,1,.44-1.58,3.45,3.45,0,0,1,.5-.64,2,2,0,0,1,.27-.23,1.16,1.16,0,0,0,.31-.22c.21-.26-.33-.17-.43-.15a3.05,3.05,0,0,0-.74.24,3.51,3.51,0,0,0-1.14.85c-1.42,1.56-1.12,4,0,5.9a10.12,10.12,0,0,0,2,2.42,9.78,9.78,0,0,0,1.42,1.07,6,6,0,0,0,1.61.74,1.9,1.9,0,0,0,2.31-1.37,2.41,2.41,0,0,0-1-2.53,2.34,2.34,0,0,0-.76-.34C145.73,103.08,146.93,103.37,146.75,103.33Z"/><path class="cls-33" d="M146.37,107.86h0l-.24,0a6.8,6.8,0,0,1-1.68-.76,10.64,10.64,0,0,1-1.46-1.11,10.19,10.19,0,0,1-2.05-2.49c-1.09-1.86-1.5-4.5,0-6.19a3.68,3.68,0,0,1,1.22-.9,3.22,3.22,0,0,1,.78-.25,1.35,1.35,0,0,1,.45,0,.38.38,0,0,1,.31.22.34.34,0,0,1-.06.37.89.89,0,0,1-.28.21l-.08.05a2,2,0,0,0-.25.21,2.51,2.51,0,0,0-.46.6,2.62,2.62,0,0,0-.41,1.44,3.92,3.92,0,0,0,1.54,2.43,7.85,7.85,0,0,0,2.92,1.45l.08,0h.05a2.48,2.48,0,0,1,.85.38,2.71,2.71,0,0,1,1.09,2.82A2.13,2.13,0,0,1,146.37,107.86Zm-3.55-11.2a2,2,0,0,0-.4.16,3.21,3.21,0,0,0-1.08.79c-1.37,1.52-1,3.92,0,5.61a10,10,0,0,0,1.94,2.36,10.24,10.24,0,0,0,1.39,1,6.1,6.1,0,0,0,1.53.71l.19,0a1.69,1.69,0,0,0,1.86-1.25,2.14,2.14,0,0,0-.87-2.24,2,2,0,0,0-.67-.3h0l-.31-.08h-.09l-.05,0a8.16,8.16,0,0,1-2.79-1.45,4.42,4.42,0,0,1-1.75-2.83,3.12,3.12,0,0,1,.47-1.71,3.05,3.05,0,0,1,.54-.69Z"/><path class="cls-33" d="M145.85,105.26c-.83-.22-.23-.06,0,0a7.82,7.82,0,0,1-3.23-2,5.45,5.45,0,0,1-1.62-3.19,3.87,3.87,0,0,1,.37-2A3.18,3.18,0,0,1,143,96.58c.13,0-.89-.16-1.81.86-1.42,1.55-1.12,4,0,5.9a10.12,10.12,0,0,0,2,2.42,9.78,9.78,0,0,0,1.42,1.07C145.06,107.14,146.13,105.33,145.85,105.26Z"/><path class="cls-34" d="M145.82,105.25h0Z"/><path class="cls-32" d="M140.57,98.82a5.66,5.66,0,0,0,.26,2.84,8.73,8.73,0,0,0,1.59,2.69c.28.35.58.68.88,1a7,7,0,0,1-2.93-5.08A4.2,4.2,0,0,1,140.57,98.82Z"/><path class="cls-32" d="M163.74,102a5.09,5.09,0,0,1-2,5.06,5.63,5.63,0,0,1-1.17.67,7.28,7.28,0,0,0,3.15-4.26A5.16,5.16,0,0,0,163.74,102Z"/><path class="cls-35" d="M163.7,112.32a13.53,13.53,0,0,0-1.09-2.58,1.88,1.88,0,0,0-.13-.72,4.07,4.07,0,0,0-.51-.92l.37-.17s-.32-.73-.66-1.34a14.79,14.79,0,0,0-5.11-4.91,16.43,16.43,0,0,0-4-1.37h-.08l-.07,0a15.5,15.5,0,0,0-4.09.08,11.06,11.06,0,0,0-5.61,3.19c-.41.49-.81,1.1-.81,1.1l.33.28a3.08,3.08,0,0,0-.61.75,1.65,1.65,0,0,0-.22.66,11.12,11.12,0,0,0-1.38,2.18c-.4.26-.78.61-.79.94,0,.6.4,5.87,1,6.37s1.59,1.08,1.86,1a.46.46,0,0,0,.18-.13.81.81,0,0,0,1,.15c.4.21.89,0,1.25-.49a7.51,7.51,0,0,0,0-3.07,20.25,20.25,0,0,0-.54-3.63l0-.14a1.09,1.09,0,0,0-.45-1.1.8.8,0,0,0-1,0v0s-.22-.28-.6,0c.07-.52.32-1.55.32-1.55a5.08,5.08,0,0,1,.33-.69c.13-.22.32-.5.44-.66a1.09,1.09,0,0,0,.67-.28l1.12-.94.73.17a12,12,0,0,1,3.69-2.26,7.86,7.86,0,0,1,3.23-.21,8.85,8.85,0,0,1,3.13,1.23,15.94,15.94,0,0,1,3.35,3.39l.74.06,1,1.28a1.36,1.36,0,0,0,.61.48c.09.2.26.54.35.8a6.65,6.65,0,0,1,.25.77s.12,1.1.12,1.63c-.34-.38-.59-.18-.59-.18v0a.88.88,0,0,0-1-.32c-.61.13-.57.93-.57.93a.93.93,0,0,1,0,.13,17.37,17.37,0,0,0-1,3.39,7.41,7.41,0,0,0-.4,3c.3.62.76.95,1.18.88a.81.81,0,0,0,1,.17.85.85,0,0,0,.17.19c.24.21,1.34,0,1.93-.34s1.66-5.35,1.7-6A1.94,1.94,0,0,0,163.7,112.32Zm-14.79-10.81a8.66,8.66,0,0,1,1.18-.15A8.66,8.66,0,0,0,148.91,101.51Zm1.26-.16h0Zm4.54.75c.36.14.74.32,1.14.52C155.45,102.42,155.07,102.24,154.71,102.1Zm-.08,0h0Z"/><path class="cls-35" d="M158.29,104.3a12.86,12.86,0,0,0-5.79-2.88h-.08l-.08,0h0a10.92,10.92,0,0,0-6,1c-2.88,1.51-3.51,3-3.51,3a.91.91,0,0,0,.82-.26l1.12-.94.73.17a12,12,0,0,1,3.69-2.26,7.86,7.86,0,0,1,3.23-.21,8.85,8.85,0,0,1,3.13,1.23,15.94,15.94,0,0,1,3.35,3.39l.74.06,1,1.28c.4.52.77.52.77.52S160.93,106.69,158.29,104.3Z"/><path class="cls-32" d="M161.68,106.59a14.79,14.79,0,0,0-5.11-4.91,16.43,16.43,0,0,0-4-1.37h-.08l-.07,0a15.5,15.5,0,0,0-4.09.08,11.06,11.06,0,0,0-5.61,3.19c-.41.49-.81,1.1-.81,1.1l.9.76a9.94,9.94,0,0,1,3.64-3.06,10.63,10.63,0,0,1,6-.94,12.38,12.38,0,0,1,5.74,2.82,13.15,13.15,0,0,1,3.2,4.16l1-.46S162,107.2,161.68,106.59Z"/><path class="cls-35" d="M161.35,108.5h0a.12.12,0,0,1-.07-.07,13.25,13.25,0,0,0-3.16-4.11,12.29,12.29,0,0,0-5.68-2.79,10.49,10.49,0,0,0-5.9.94,9.84,9.84,0,0,0-3.6,3,.1.1,0,0,1-.08,0,.19.19,0,0,1-.1,0l-.91-.76a.14.14,0,0,1,0-.16s.42-.62.82-1.11a11.28,11.28,0,0,1,5.68-3.23,15.18,15.18,0,0,1,4.12-.07h.16a17.35,17.35,0,0,1,4,1.38,14.92,14.92,0,0,1,5.17,5c.34.62.67,1.34.67,1.35a.11.11,0,0,1,0,.15l-1,.45A.08.08,0,0,1,161.35,108.5Zm-8.93-7.21h0a12.6,12.6,0,0,1,5.81,2.86,13.76,13.76,0,0,1,3.17,4.08l.78-.36c-.1-.22-.36-.76-.61-1.23h0a14.47,14.47,0,0,0-5.06-4.86,16.38,16.38,0,0,0-4-1.36h-.14a15.07,15.07,0,0,0-4.07.07,11,11,0,0,0-5.54,3.16c-.31.38-.62.83-.75,1l.72.6a10.42,10.42,0,0,1,3.61-3,10.76,10.76,0,0,1,6-1Z"/><path class="cls-35" d="M142.57,104.87A11,11,0,0,1,146,102a11.58,11.58,0,0,1,5.16-1.08l0-.33a10.56,10.56,0,0,0-5.38,1.15,10.88,10.88,0,0,0-3.52,3Z"/><path class="cls-35" d="M144.49,103.89l.94.21a11.09,11.09,0,0,1,2.23-1.66,7.14,7.14,0,0,1,2.11-.73,6.73,6.73,0,0,0-2.58.59,9.21,9.21,0,0,0-1.66,1.14l-.48,0Z"/><path class="cls-32" d="M141.86,108.33a5.27,5.27,0,0,0-1-.16c-.39,0-1.6.69-1.63,1.29s.4,5.87,1,6.37,1.59,1.08,1.86,1,.22-.24.22-.24Z"/><path class="cls-33" d="M141.84,116.91a4.72,4.72,0,0,1-1.74-1c-.26-.23-.5-1.32-.73-3.22-.18-1.5-.27-3-.26-3.25,0-.67,1.3-1.38,1.73-1.39a5,5,0,0,1,1,.17.14.14,0,0,1,.1.12l.4,8.19c0,.07,0,.22-.28.36A.53.53,0,0,1,141.84,116.91Zm-.57-8.59-.4,0c-.34,0-1.5.67-1.52,1.19,0,.29.09,1.77.26,3.2.3,2.58.57,3,.65,3.07a3.58,3.58,0,0,0,1.72.93c.14-.07.16-.12.17-.14h0l-.41-8.11C141.64,108.4,141.46,108.35,141.27,108.32Zm.88,8.24Zm0,0Zm0,0Z"/><path class="cls-36" d="M141.86,108.33a.56.56,0,0,0-.57.52,40.24,40.24,0,0,0,0,4.48,12.89,12.89,0,0,0,.51,3.32.21.21,0,0,0,.35,0Z"/><path class="cls-36" d="M139.92,113.45a5.59,5.59,0,0,0,.41,2.21,4.06,4.06,0,0,0,1.24.86,10.64,10.64,0,0,1-.33-1.8s-.12.8-.6.49S139.92,113.45,139.92,113.45Z"/><path class="cls-32" d="M142.46,108.34s-.22-.28-.6,0-.3,2.8-.24,4.43a15,15,0,0,0,.57,3.85.82.82,0,0,0,1.06.18Z"/><path class="cls-33" d="M142.68,117l-.07,0a.82.82,0,0,1-.52-.34,14.39,14.39,0,0,1-.58-3.91c-.11-2.52-.1-4.25.27-4.51a.55.55,0,0,1,.77,0,.11.11,0,0,1,0,.07l.78,8.45a.1.1,0,0,1,0,.1A.83.83,0,0,1,142.68,117Zm-.45-8.68a.37.37,0,0,0-.3.09c-.06,0-.21.29-.24,1.62,0,.84,0,1.84.05,2.71a14.66,14.66,0,0,0,.55,3.79.53.53,0,0,0,.35.23.69.69,0,0,0,.48,0l-.77-8.34A.17.17,0,0,0,142.23,108.34Z"/><path class="cls-37" d="M140.2,108.7a1.44,1.44,0,0,0-.74.71.93.93,0,0,1,.61-.18c.35,0-.16,2.57.35,2.82.9.43.76.25.76.25s-.07-2.27-.05-2.83a3,3,0,0,1,.17-.89S140.66,108.62,140.2,108.7Z"/><path class="cls-36" d="M139.51,109.69s.48-.12.48.11a7.52,7.52,0,0,0,.27,2.67c.25.35,1.11.48,1.11.48a2.51,2.51,0,0,1-1.13-.19c-.39-.22-.51-1.06-.46-2S139.51,109.69,139.51,109.69Z"/><path class="cls-32" d="M141,108.74a.37.37,0,0,0-.29.31c0,.26.06,2.74.06,2.74l.21.08s-.13-2.36-.08-2.69A1.4,1.4,0,0,1,141,108.74Z"/><path class="cls-32" d="M140,108.53a11.39,11.39,0,0,1,1.39-2.19l.78.44s-.25,1-.32,1.55Z"/><path class="cls-33" d="M140,108.65a.15.15,0,0,1-.09-.06.1.1,0,0,1,0-.12,10.79,10.79,0,0,1,1.42-2.23.09.09,0,0,1,.12,0l.78.44a.13.13,0,0,1,.06.14s-.25,1-.32,1.54c0,0,0,.08-.09.09l-1.84.2Zm1.41-2.17a11,11,0,0,0-1.19,1.91l1.52-.16c.07-.45.23-1.15.29-1.4Z"/><path class="cls-33" d="M141.4,106.34a1.65,1.65,0,0,1,.22-.66,3.21,3.21,0,0,1,.72-.85l.69.48s-.33.46-.52.78a5.08,5.08,0,0,0-.33.69Z"/><path class="cls-36" d="M140.66,107.7a7.67,7.67,0,0,1,.78-1.17l.58.31a7,7,0,0,0-.22.7c-.07.33-.14.59-.14.59a5,5,0,0,1-.73.12s.61-.66.56-.89S141,107.39,140.66,107.7Z"/><path class="cls-32" d="M141.66,106a2.06,2.06,0,0,1,.72-1l.46.37a3.45,3.45,0,0,0-.74,1.21S142.15,105.73,141.66,106Z"/><path class="cls-32" d="M143.89,109.47a1.09,1.09,0,0,0-.45-1.1.83.83,0,0,0-1.3.66c0,.38.22,6.42.62,7.25s1.2.78,1.72,0S143.89,109.47,143.89,109.47Z"/><path class="cls-33" d="M143.45,117a1.12,1.12,0,0,1-.8-.67c-.42-.87-.66-7-.63-7.31a1.05,1.05,0,0,1,.55-.83,1,1,0,0,1,.92.09,1.17,1.17,0,0,1,.52,1.21c.13.71,1.1,6.16.57,6.91a1.21,1.21,0,0,1-1.13.6Zm-.41-8.64a.51.51,0,0,0-.35,0,.85.85,0,0,0-.43.67c0,.17,0,1.74.14,3.43a19.12,19.12,0,0,0,.46,3.75.86.86,0,0,0,.6.52h0a1,1,0,0,0,.93-.52c.4-.58-.31-5.08-.62-6.76v0a1,1,0,0,0-.37-1A1.17,1.17,0,0,0,143,108.35Z"/><path class="cls-38" d="M142.7,115s.26,1,.56,1,.3-.46.3-.46.2.65.5.62.4-.42.4-.42a.91.91,0,0,1-.72.9C142.82,116.87,142.75,115.63,142.7,115Z"/><path class="cls-36" d="M142.73,115.42s-.31-3-.36-4.22a9,9,0,0,1,0-2.37c.15-.4.3-.47.53-.48a.45.45,0,0,1,.35.1.48.48,0,0,0-.64.43,1.85,1.85,0,0,0,0,.8l.43,0-.42.17.47.14-.46,0,0,.31.39.1-.43,0,0,.5.38,0-.32.2.41.15-.39,0,.39.22h-.38l.05.79.27-.09-.23.29.39.07-.39.19.47.27-.42,0v.33l.36,0-.32.27,0,.53.31.07-.3.16,0,.2.33,0-.33.32,0,.27.41-.12-.5.56S143,116,142.73,115.42Z"/><path class="cls-37" d="M143.36,108.65c-.33.1-.1,7.79.77,7.37S144.12,108.41,143.36,108.65Z"/><path class="cls-32" d="M161.92,111.55a4.51,4.51,0,0,1,1,.16c.38.13,1.49,1.18,1.44,1.78s-1.1,5.63-1.7,6-1.69.55-1.93.34-.2-.31-.2-.31Z"/><path class="cls-33" d="M160.9,120a.47.47,0,0,1-.25-.1c-.26-.22-.25-.37-.23-.43l1.39-7.91a.11.11,0,0,1,.11-.09,5.78,5.78,0,0,1,1,.17c.42.14,1.58,1.24,1.53,1.91a29.49,29.49,0,0,1-.65,3.1c-.45,1.79-.82,2.78-1.1,2.93A3.78,3.78,0,0,1,160.9,120Zm-.25-.45s0,.08.15.18a2.88,2.88,0,0,0,1.8-.36c.08,0,.39-.37,1-2.8.35-1.35.62-2.77.65-3.06,0-.52-1-1.54-1.35-1.65a4.76,4.76,0,0,0-.88-.15l-1.37,7.83Zm0,0Zm0,0Zm0,0Z"/><path class="cls-36" d="M161.92,111.55a.72.72,0,0,1,.5.69,43.09,43.09,0,0,1-.58,4.38,11.07,11.07,0,0,1-.91,3.09c-.21.14-.33-.15-.33-.15Z"/><path class="cls-36" d="M163.34,117s-.36,1.83-.8,2.18a3.26,3.26,0,0,1-1.33.45,8.82,8.82,0,0,0,.55-1.66s0,.82.52.67S163.34,117,163.34,117Z"/><path class="cls-32" d="M161.33,111.37s.25-.2.59.18,0,2.84-.3,4.41a13.25,13.25,0,0,1-1,3.6.8.8,0,0,1-1.06-.16Z"/><path class="cls-33" d="M160.06,119.8a1,1,0,0,1-.61-.33.19.19,0,0,1,0-.1l1.79-8a.21.21,0,0,1,0-.06c.12-.09.43-.17.76.21s.13,2.07-.28,4.51a12.61,12.61,0,0,1-1,3.65.66.66,0,0,1-.55.17Zm-.39-.42a.75.75,0,0,0,.47.2.44.44,0,0,0,.37-.1,13.22,13.22,0,0,0,1-3.55c.14-.84.29-1.82.38-2.64.13-1.32,0-1.61,0-1.67-.2-.23-.35-.2-.41-.18Z"/><path class="cls-37" d="M163.51,112.43a2,2,0,0,1,.64.93,1.24,1.24,0,0,0-.58-.36c-.34-.08-.16,2.57-.69,2.65-.93.14-.77,0-.77,0s.34-2.21.39-2.76a3.34,3.34,0,0,0-.06-.93S163.07,112.22,163.51,112.43Z"/><path class="cls-36" d="M164.06,113.63s-.46-.27-.49,0-.16,2.15-.58,2.53-1.15.13-1.15.13a2.63,2.63,0,0,0,1.14.17c.41-.09.63-.88.69-1.86S164.06,113.63,164.06,113.63Z"/><path class="cls-32" d="M162.68,112.21a.48.48,0,0,1,.24.4c0,.26-.39,2.66-.39,2.66h-.22s.42-2.26.41-2.6A1.84,1.84,0,0,0,162.68,112.21Z"/><path class="cls-32" d="M163.71,112.33a15,15,0,0,0-1.1-2.59l-.81.18s.12,1.1.12,1.63Z"/><path class="cls-33" d="M163.7,112.45h0l-1.78-.78a.14.14,0,0,1-.08-.12c0-.52-.13-1.6-.13-1.61a.1.1,0,0,1,.08-.12l.81-.19a.13.13,0,0,1,.13,0,14.6,14.6,0,0,1,1.12,2.64.11.11,0,0,1,0,.11A.14.14,0,0,1,163.7,112.45Zm-1.66-1,1.48.65a13.37,13.37,0,0,0-1-2.26l-.64.15C162,110.28,162,111,162,111.48Z"/><path class="cls-33" d="M162.61,109.74a1.88,1.88,0,0,0-.13-.72,4.62,4.62,0,0,0-.6-1l-.75.24s.28.56.42.94a6.65,6.65,0,0,1,.25.77Z"/><path class="cls-36" d="M163.18,111.31a9.68,9.68,0,0,0-.63-1.4l-.61.12a6,6,0,0,1,.13.76c0,.35.07.62.07.62a5,5,0,0,0,.71.35s-.52-.83-.45-1.05S162.88,110.9,163.18,111.31Z"/><path class="cls-32" d="M162.4,109.32a2.73,2.73,0,0,0-.58-1.2l-.51.21a4.48,4.48,0,0,1,.59,1.43S162,108.91,162.4,109.32Z"/><path class="cls-32" d="M159.79,112s0-.8.57-.93a1,1,0,0,1,1.2,1.06c0,.38-1,6.22-1.48,6.91s-1.27.38-1.7-.52S159.79,112,159.79,112Z"/><path class="cls-33" d="M159.32,119.54h0a1.59,1.59,0,0,1-1-1c-.43-.9,1.18-5.93,1.39-6.59,0-.14,0-.88.66-1a1.06,1.06,0,0,1,.92.2,1.37,1.37,0,0,1,.43,1c0,.31-1,6.24-1.5,7A.87.87,0,0,1,159.32,119.54Zm1.44-8.35a.88.88,0,0,0-.36,0c-.52.11-.49.82-.49.82v0c-.51,1.56-1.75,5.74-1.42,6.44a1.29,1.29,0,0,0,.84.81h0A.66.66,0,0,0,160,119a16.35,16.35,0,0,0,.9-3.52c.32-1.63.56-3.15.57-3.33a1.12,1.12,0,0,0-.35-.79A.7.7,0,0,0,160.76,111.19Z"/><path class="cls-38" d="M160.29,117.85s-.38.91-.67.79-.24-.55-.24-.55-.27.57-.56.44-.34-.53-.34-.53a1.12,1.12,0,0,0,.6,1.11C160,119.62,160.17,118.43,160.29,117.85Z"/><path class="cls-36" d="M160.21,118.22s.67-2.89.87-4a8.6,8.6,0,0,0,.29-2.33c-.1-.44-.24-.54-.46-.64a.4.4,0,0,0-.36,0,.6.6,0,0,1,.58.62,1.91,1.91,0,0,1-.06.8l-.43-.11.4.3h-.48l.45.18-.08.28h-.39l.41.17-.11.47-.37-.17.3.29-.42,0,.37.16-.41.09.38.13-.15.76-.25-.17.19.35-.39,0,.35.31-.49.11.42.1,0,.33-.36-.08.29.36-.09.52-.31,0,.27.26,0,.2-.33-.06.28.41L160,118l-.4-.26.42.72S159.9,118.72,160.21,118.22Z"/><path class="cls-37" d="M160.41,111.38c.31.21-.84,7.67-1.65,7S159.69,110.91,160.41,111.38Z"/><path class="cls-35" d="M161.65,107.93A14.66,14.66,0,0,0,158.6,104a13.91,13.91,0,0,0-4.93-2.69l0-.34a12.54,12.54,0,0,1,5.13,2.84,14.53,14.53,0,0,1,3.1,4Z"/><path class="cls-35" d="M159.89,106.36l-.95-.1a14.29,14.29,0,0,0-2-2.33,8.86,8.86,0,0,0-2-1.39,8.37,8.37,0,0,1,2.47,1.41,11.92,11.92,0,0,1,1.49,1.64l.47.19Z"/><path class="cls-33" d="M143.74,111.57c-.23,1.36-1.82,2.07-2.42,2.4a4.67,4.67,0,0,0,1,.32s-1,3.76-3.11,4.95a2.71,2.71,0,0,0,1.74.2c-.66,2.47.71,4.71-.65,7.06a3,3,0,0,0,2.24-1.44,7,7,0,0,1-.07,4.62,4.39,4.39,0,0,0,2.58-1.57c0,1.15,1.72,3.53,1.56,5.16a3.59,3.59,0,0,0,1.42-1.52c.83,2.12,1.8,2.59,2,5.51,1.58-1.38,3.05-2.15,4-5.49a12.89,12.89,0,0,0,1.11,1.4,5.35,5.35,0,0,0,1.6-3.48,3.48,3.48,0,0,1,.95,2,6.83,6.83,0,0,0,2.15-4.76,2.54,2.54,0,0,0,1.85,1.17c-1.11-1.73,1-4,.36-6.8a2.17,2.17,0,0,0,1.45-.32,9.91,9.91,0,0,1-3.43-4.69c1.19.17,1.15.07,1.12.06a14.58,14.58,0,0,1-1.65-2.11c-.27-.53-7.9-5.78-7.9-5.78Z"/><path class="cls-32" d="M142.46,116.91a3.72,3.72,0,0,0,.35,1.76,7.12,7.12,0,0,0-1.12,2.54A11.93,11.93,0,0,1,142.46,116.91Z"/><path class="cls-32" d="M160.62,119.39a3.07,3.07,0,0,1-.47,1.64,8.63,8.63,0,0,1,.91,2.82A9.92,9.92,0,0,0,160.62,119.39Z"/><path class="cls-32" d="M143.42,122.29c0,.46-.08.9-.08,1.36a9.65,9.65,0,0,0,.15,1.69,14.39,14.39,0,0,1,.24,1.73,2.79,2.79,0,0,1-.26,1.32,4.21,4.21,0,0,0,.09-1.33c-.07-.57-.22-1.13-.31-1.7A6.75,6.75,0,0,1,143.42,122.29Z"/><path class="cls-32" d="M145.88,125.24a14.77,14.77,0,0,0,.06,1.48,10.54,10.54,0,0,0,.42,1.83,15.2,15.2,0,0,1,.84,3.28c-.16-.49-.31-1-.5-1.44s-.48-1.23-.67-1.86A6.16,6.16,0,0,1,145.88,125.24Z"/><path class="cls-32" d="M148.62,126.11c-.05.47-.14.94-.16,1.41a7.11,7.11,0,0,0,.16,1.89,32.09,32.09,0,0,0,1.29,3.59,4.93,4.93,0,0,1,.3,1.73,7.7,7.7,0,0,0-.52-1.46c-.29-.61-.61-1.2-.88-1.81a7.2,7.2,0,0,1-.67-3.74A5.55,5.55,0,0,1,148.62,126.11Z"/><path class="cls-32" d="M159.21,124.25a6.94,6.94,0,0,1,0,3.14A5.52,5.52,0,0,1,158,130.1a8.61,8.61,0,0,0,1-2.84,11.15,11.15,0,0,0,.22-1.64C159.25,125.16,159.23,124.71,159.21,124.25Z"/><path class="cls-32" d="M156.37,126.2a6.21,6.21,0,0,1-.06,2.91,6.81,6.81,0,0,1-1.15,2.57,23.42,23.42,0,0,0,.82-2.62A15.15,15.15,0,0,0,156.37,126.2Z"/><path class="cls-32" d="M153.72,126.81a7.25,7.25,0,0,1,.2,3.39,9.32,9.32,0,0,1-1.48,3.41,13.43,13.43,0,0,1-.94,1.3c.39-1,.9-1.92,1.31-2.9a11.09,11.09,0,0,0,.9-3.48C153.75,128,153.73,127.38,153.72,126.81Z"/><path class="cls-34" d="M145.92,105.12h0Z"/><path class="cls-32" d="M159.06,109a15.24,15.24,0,0,0-1.84-3.84c-.21-.3-.19-.52.25-.76a.67.67,0,0,1,.88.2,12.39,12.39,0,0,1,1.88,3.78.63.63,0,0,1-.4.77C159.42,109.35,159.15,109.31,159.06,109Z"/><path class="cls-33" d="M159.34,109.53a.59.59,0,0,1-.5-.44,15.54,15.54,0,0,0-1.81-3.75.73.73,0,0,1-.17-.58.83.83,0,0,1,.49-.54.89.89,0,0,1,.55-.11,1,1,0,0,1,.64.39,12.85,12.85,0,0,1,1.92,3.87.85.85,0,0,1-.52,1A1.28,1.28,0,0,1,159.34,109.53Zm-1.45-4.92a.42.42,0,0,0-.29,0c-.24.13-.27.21-.27.23s0,.1.08.18a15.82,15.82,0,0,1,1.88,3.91s0,0,.07,0a.67.67,0,0,0,.37-.08.4.4,0,0,0,.27-.48,12.6,12.6,0,0,0-1.83-3.69A.43.43,0,0,0,157.89,104.61Z"/><path class="cls-32" d="M144.67,107.11a12.08,12.08,0,0,1,2.11-3.29c.23-.24.23-.47-.19-.83a.66.66,0,0,0-.89,0,9.85,9.85,0,0,0-2.14,3.23.74.74,0,0,0,.34.87C144.29,107.33,144.56,107.36,144.67,107.11Z"/><path class="cls-33" d="M144.36,107.52h0a1.32,1.32,0,0,1-.59-.27,1,1,0,0,1-.44-1.18,10.2,10.2,0,0,1,2.2-3.31.78.78,0,0,1,.66-.21,1.09,1.09,0,0,1,.54.26,1.11,1.11,0,0,1,.45.67.69.69,0,0,1-.22.52,12.13,12.13,0,0,0-2.07,3.23A.48.48,0,0,1,144.36,107.52Zm1.81-4.47a.32.32,0,0,0-.29.09,9.66,9.66,0,0,0-2.1,3.15.49.49,0,0,0,.24.56,1,1,0,0,0,.36.18h0c.05,0,.05,0,.06,0a12.79,12.79,0,0,1,2.16-3.37.25.25,0,0,0,.1-.15s0-.11-.25-.3A.59.59,0,0,0,146.17,103.05Z"/><path class="cls-32" d="M151.75,111.12a34,34,0,0,1,8,2.08l0-.44c.21-5.6-4.16-11.12-7.66-11.59s-8.25,3.79-8.46,9.39c0,.15,0,.3,0,.44A32.51,32.51,0,0,1,151.75,111.12Z"/><path class="cls-33" d="M143.65,111.25a.28.28,0,0,1-.23-.27c0-.15,0-.3,0-.45.22-5.68,5-10.11,8.71-9.61s8.1,6.19,7.89,11.87l0,.45a.19.19,0,0,1-.1.17.22.22,0,0,1-.21,0,33.59,33.59,0,0,0-7.95-2.06,32,32,0,0,0-8-.12Zm8.47-9.84c-3.45-.47-8,3.76-8.21,9.19v.12a32.53,32.53,0,0,1,7.85.16,34.65,34.65,0,0,1,7.78,2s0-.08,0-.12C159.75,107.3,155.56,101.88,152.12,101.41Z"/><path class="cls-33" d="M150.79,101.45c-2.2-.57-6.93,4.18-7.12,9.11,0,.15,0,.3,0,.44,1.06-.13,5.09.3,5.36-1.16-.42-.33-1.63-.76-2-1.66a4.37,4.37,0,0,1-.08-2C147.3,104.22,149.19,101.87,150.79,101.45Z"/><path class="cls-33" d="M153.48,101.82c2.22,0,6.54,6,6.36,11l0,.43c-1-.41-5.05-1.08-5.21-2.6.44-.22,1.67-.31,2.06-1.11a4.25,4.25,0,0,0,.23-1.95A8.55,8.55,0,0,0,153.48,101.82Z"/><polygon class="cls-32" points="153.19 115.16 151.57 116.82 150.01 114.73 150.37 111.93 153.06 112.3 153.19 115.16"/><path d="M151.56,117.19l-1.8-2.41.4-3.12,3.13.42.15,3.2Zm-1.29-2.51,1.31,1.76,1.37-1.39-.12-2.53-2.25-.31Z"/><path class="cls-32" d="M159.74,111.87a28.42,28.42,0,0,0-6.31-2l-.25-8.77c0-.41-.5-.74-1-.81s-1,.19-1.07.52l-.91,8.62a25.82,25.82,0,0,0-6.35.24s-.65,0-.62,1.28c0,1.05.59,1.19.59,1.19a25.81,25.81,0,0,1,7.93-.08,28.19,28.19,0,0,1,7.85,2.23s.53.06.64-1.11S159.74,111.87,159.74,111.87Z"/><path class="cls-33" d="M143.82,112.41l0,0s-.77-.2-.8-1.45.66-1.49.81-1.51a26.18,26.18,0,0,1,6.18-.25l.89-8.41a1.13,1.13,0,0,1,1.32-.72c.6.09,1.24.49,1.25,1.08l.24,8.55a29.3,29.3,0,0,1,6.16,2,1.52,1.52,0,0,1,.64,1.6c-.13,1.36-.81,1.32-.89,1.31h0l0,0a28,28,0,0,0-7.78-2.22,25.8,25.8,0,0,0-7.86.09Zm7.92-.59a28.11,28.11,0,0,1,7.85,2.23c.08,0,.32-.16.39-.9s-.28-1-.33-1.06a28.48,28.48,0,0,0-6.24-2l-.22,0-.25-9c0-.23-.36-.48-.79-.54s-.8.16-.83.34l-.92,8.82-.22,0a25.08,25.08,0,0,0-6.29.24h0s-.44,0-.41,1c0,.66.27.87.36.92A26,26,0,0,1,151.74,111.82Z"/><path class="cls-32" d="M149.77,114.79a4.36,4.36,0,0,0-.52,0,2.89,2.89,0,0,0-.91.36,2.45,2.45,0,0,0-.84.88,3,3,0,0,1,.4-1.47,2.85,2.85,0,0,1,.31-.38l-.06,0h0a2.26,2.26,0,0,0-1.64.29,3.78,3.78,0,0,1-.13-.94,3.27,3.27,0,0,0-1.44,1,5.53,5.53,0,0,1-.08-2.3h0a6,6,0,0,0,0,4,4.13,4.13,0,0,1,1-1.62,8.14,8.14,0,0,0,.3,1.29A2.3,2.3,0,0,1,147,115a5.57,5.57,0,0,0,.05,2.79,3.76,3.76,0,0,1,2.54-2.26,4.33,4.33,0,0,0-.3.85,2.59,2.59,0,0,1,1.48-.27Z"/><path class="cls-32" d="M158.29,116.37A4.19,4.19,0,0,0,157,115a3.74,3.74,0,0,1-.21.89,2.6,2.6,0,0,0-1.6-.73h-.05a3.64,3.64,0,0,1,.28.47,3.32,3.32,0,0,1,.28,1.56,3.24,3.24,0,0,0-.76-1.1,3.46,3.46,0,0,0-.87-.6,4.8,4.8,0,0,0-.63-.24v0l-1.06,1.07a3,3,0,0,1,1.42.66,5,5,0,0,0-.23-.92,4.92,4.92,0,0,1,2.34,2.93,5.33,5.33,0,0,0,.26-2.75,2.86,2.86,0,0,1,.76,1.1,6.24,6.24,0,0,0,.4-1.19,5.3,5.3,0,0,1,.87,1.87,5.71,5.71,0,0,0,.36-3.66A5,5,0,0,1,158.29,116.37Z"/><path class="cls-32" d="M158.29,116.37A4.19,4.19,0,0,0,157,115a3.74,3.74,0,0,1-.21.89,2.78,2.78,0,0,0-1.65-.73,3.64,3.64,0,0,1,.28.47,3.32,3.32,0,0,1,.28,1.56,3.24,3.24,0,0,0-.76-1.1,3.46,3.46,0,0,0-.87-.6,4.8,4.8,0,0,0-.63-.24v0l-1.06,1.07a3,3,0,0,1,1.42.66,5,5,0,0,0-.23-.92,4.92,4.92,0,0,1,2.34,2.93,5.33,5.33,0,0,0,.26-2.75,2.86,2.86,0,0,1,.76,1.1,6.24,6.24,0,0,0,.4-1.19,5.3,5.3,0,0,1,.87,1.87,5.71,5.71,0,0,0,.36-3.66A5,5,0,0,1,158.29,116.37Z"/><path class="cls-39" d="M144,110.86a2.45,2.45,0,0,1,.22-1.23l-.34.05s-.65,0-.62,1.28c0,1.05.59,1.19.59,1.19l.47-.07A1.87,1.87,0,0,1,144,110.86Z"/><path class="cls-39" d="M159.74,111.87l-.41-.18a2.29,2.29,0,0,1,.17,1.19,1.89,1.89,0,0,1-.38,1.22l.46.2s.53.06.64-1.11S159.74,111.87,159.74,111.87Z"/><polygon class="cls-33" points="151.67 113.12 151.56 112.19 151.88 112.23 151.67 113.12"/><polygon class="cls-33" points="152.11 113.18 152 112.25 152.32 112.29 152.11 113.18"/><polygon class="cls-33" points="152.53 113.23 152.42 112.3 152.74 112.35 152.53 113.23"/><polygon class="cls-33" points="151.28 113.06 151.47 112.17 151.15 112.13 151.28 113.06"/><polygon class="cls-33" points="150.86 113.01 151.05 112.12 150.73 112.07 150.86 113.01"/><polygon class="cls-33" points="151.82 114.49 151.58 116.64 151.5 114.45 151.82 114.49"/><polygon class="cls-33" points="150.23 109.21 151.4 109.82 150.13 109.68 150.23 109.21"/><polygon class="cls-33" points="153.43 110.13 152.16 109.92 153.36 109.63 153.43 110.13"/><path class="cls-33" d="M145.52,111.82c-.54-.31-.88-1.15-.09-2.35-.62.06-1,.11-1.6.21,0,0-.65,0-.62,1.28,0,1.05.59,1.19.59,1.19.57-.09,1.16-.17,1.75-.23C145.55,111.87,145.55,111.83,145.52,111.82Z"/><polygon class="cls-33" points="150.2 109.07 148.93 108.71 150.17 108.44 150.2 109.07"/><polygon class="cls-33" points="150.3 108.37 149.05 108.04 150.25 107.74 150.3 108.37"/><polygon class="cls-33" points="150.4 107.67 149.18 107.36 150.33 107.03 150.4 107.67"/><polygon class="cls-33" points="150.49 106.96 149.3 106.69 150.41 106.33 150.49 106.96"/><polygon class="cls-33" points="150.59 106.26 149.42 106.01 150.5 105.63 150.59 106.26"/><polygon class="cls-33" points="150.69 105.55 149.55 105.34 150.58 104.92 150.69 105.55"/><polygon class="cls-33" points="150.78 104.85 149.67 104.66 150.66 104.22 150.78 104.85"/><polygon class="cls-33" points="150.88 104.14 149.79 103.99 150.74 103.52 150.88 104.14"/><polygon class="cls-33" points="150.98 103.44 149.92 103.31 150.82 102.82 150.98 103.44"/><polygon class="cls-33" points="151.08 102.73 150.04 102.64 150.9 102.12 151.08 102.73"/><polygon class="cls-33" points="151.18 102.03 150.16 101.97 150.98 101.42 151.18 102.03"/><polygon class="cls-33" points="153.56 108.91 154.76 109.51 153.48 109.52 153.56 108.91"/><polygon class="cls-33" points="153.53 108.19 154.69 108.81 153.44 108.8 153.53 108.19"/><polygon class="cls-33" points="153.5 107.47 154.62 108.11 153.39 108.07 153.5 107.47"/><polygon class="cls-33" points="153.48 106.75 154.55 107.4 153.35 107.35 153.48 106.75"/><polygon class="cls-33" points="153.45 106.03 154.48 106.7 153.31 106.63 153.45 106.03"/><polygon class="cls-33" points="153.42 105.31 154.41 106 153.26 105.9 153.42 105.31"/><polygon class="cls-33" points="153.39 104.59 154.34 105.3 153.22 105.18 153.39 104.59"/><polygon class="cls-33" points="153.37 103.88 154.27 104.6 153.18 104.46 153.37 103.88"/><polygon class="cls-33" points="153.34 103.16 154.2 103.9 153.13 103.73 153.34 103.16"/><polygon class="cls-33" points="153.31 102.45 154.13 103.2 153.09 103.01 153.31 102.45"/><polygon class="cls-33" points="153.29 101.73 154.06 102.5 153.04 102.28 153.29 101.73"/><path class="cls-33" d="M144,105.28a5,5,0,0,0-.48.9.74.74,0,0,0,.34.87c.39.28.66.31.77.06a8.24,8.24,0,0,1,.51-1A1.19,1.19,0,0,1,144,105.28Z"/><path class="cls-33" d="M157.91,113.5c.56-.15,1-.89.27-2.29.61.22,1,.38,1.56.64,0,0,.65.19.52,1.43-.11,1-.68,1-.68,1-.55-.25-1.12-.48-1.71-.7C157.88,113.55,157.88,113.51,157.91,113.5Z"/><path class="cls-33" d="M159.87,107.44a6.79,6.79,0,0,1,.41,1,.63.63,0,0,1-.4.77c-.41.17-.68.12-.77-.15a10.25,10.25,0,0,0-.43-1.18C159.28,108,159.75,107.83,159.87,107.44Z"/><path class="cls-32" d="M148.55,102.35a14.08,14.08,0,0,0-1.94,2.07A13.86,13.86,0,0,0,145,107.2c-.19.47-.35,1-.51,1.43a9.44,9.44,0,0,1,2.85-5.39A7.93,7.93,0,0,1,148.55,102.35Z"/><path class="cls-32" d="M159.17,110.7a21.7,21.7,0,0,0-.83-2.79,17.93,17.93,0,0,0-1.55-3c-.28-.44-.59-.84-.89-1.25a11.36,11.36,0,0,1,3,5.57A9.57,9.57,0,0,1,159.17,110.7Z"/><path class="cls-32" d="M143.8,109.92a5.14,5.14,0,0,0,.07,1.86,1.13,1.13,0,0,1-.38-1A1.22,1.22,0,0,1,143.8,109.92Z"/><path class="cls-32" d="M159.74,112.12a1.53,1.53,0,0,1,.24,1c0,.31-.14.73-.45.83A5.76,5.76,0,0,0,159.74,112.12Z"/><path class="cls-32" d="M149.42,113.36c.49,0,.32-.46.22-.55-.43-.39-1.19-.2-1.81-.33a8.52,8.52,0,0,1-.9-.26,1.68,1.68,0,0,0,.72.73A3.39,3.39,0,0,0,149.42,113.36Z"/><path class="cls-32" d="M153.92,114c-.48-.17-.28-.55-.17-.61.45-.27,1.18.12,1.81.16a6.89,6.89,0,0,0,.91,0,1.18,1.18,0,0,1-.77.52A3.27,3.27,0,0,1,153.92,114Z"/><path class="cls-32" d="M159.55,123.9c.41.77.55,1.55.92,2.34-.16-.92-.07-1.83-.29-2.74a9.36,9.36,0,0,0-1.13-2.57,6.86,6.86,0,0,0,.49-4c-.34,2.25-1.15,3.3-1.86,3.54a4.6,4.6,0,0,1-.24-1.72,3.69,3.69,0,0,0-.42,2.37c0,1.34.68,1.86.53,4.1a20,20,0,0,1-1.47-3.59,5.77,5.77,0,0,0-2.25-3.6c-1.05-.67-1.8-.67-1.92.09-.16,1,1,.77,1.86,1.43a3.66,3.66,0,0,1,1.41,3.19c-.54-1.78-1.54-2.62-2.42-2.81a2.71,2.71,0,0,1,.68,2.12,2.38,2.38,0,0,0-2-1.73,1.89,1.89,0,0,0-2.09,1.17,2.24,2.24,0,0,1,.83-1.9c-.88-.06-1.93.5-2.6,2.12a2.92,2.92,0,0,1,1.63-2.78c1-.4,2,.09,2-.91-.07-.79-.81-1-1.9-.6a4.33,4.33,0,0,0-2.5,2.94,15.69,15.69,0,0,1-1.73,3.16c0-2.26.7-2.6.84-3.92a4,4,0,0,0-.24-2.45,4.21,4.21,0,0,1-.37,1.64c-.68-.43-1.61-1.73-1.78-4a7.06,7.06,0,0,0,.4,4.1,7.28,7.28,0,0,0-1.32,2.24c-.28.84-.27,1.77-.49,2.64.42-.68.62-1.43,1.09-2.08a5.65,5.65,0,0,1,1.38-1.34,9.55,9.55,0,0,0-.3,6.33c.72-1.22,1.65-3,2.57-3.47a15.28,15.28,0,0,0,.35,5.54c.68-4.2,2.89-5.75,2.89-5.75a9.33,9.33,0,0,0-.88,3.4c-.33,4.25,1,4.46,1.68,7.73a10.79,10.79,0,0,0,2.24-5.71,10,10,0,0,0-.49-5.08s2,2,2.42,6.49a14.35,14.35,0,0,0,.77-5.39c.87.75,1.66,2.72,2.28,4.13a9.65,9.65,0,0,0,.18-6.35A7.7,7.7,0,0,1,159.55,123.9ZM148.43,123c-.17.32-.36.64-.54,1s-.26.51-.42.74a3.26,3.26,0,0,1,.4-1.9c.16-.3.36-.58.53-.88a7.61,7.61,0,0,0,.4-.81A2.51,2.51,0,0,1,148.43,123Zm3.3,4.35c-.1.74-.17,1.47-.22,2.22s0,1.32-.15,2a8.25,8.25,0,0,1-.9-3.75,15.57,15.57,0,0,1,.21-2.27c.1-.72.19-1.44.26-2.16s.12-1.33.25-2a8.67,8.67,0,0,1,.76,3.76A16.36,16.36,0,0,1,151.73,127.37Zm3.37-1.6c-.14-.27-.24-.57-.36-.85l-.46-1.11a2.68,2.68,0,0,1-.22-2c.11.31.2.61.33.91s.32.67.46,1A3.44,3.44,0,0,1,155.1,125.77Z"/><ellipse class="cls-33" cx="151.92" cy="107.56" rx="0.32" ry="0.43" transform="translate(9.24 227.11) rotate(-75.26)"/><path class="cls-33" d="M152.22,110.51c0,.14-.18.23-.39.2s-.38-.17-.38-.31.18-.23.4-.2S152.23,110.36,152.22,110.51Z"/><path class="cls-33" d="M152,113.63c0,.12-.15.19-.33.17s-.32-.14-.32-.26.15-.19.33-.17S152,113.51,152,113.63Z"/><path class="cls-33" d="M149.14,110.34c0,.09-.13.15-.28.13s-.26-.11-.26-.21.13-.15.28-.13S149.14,110.24,149.14,110.34Z"/><ellipse class="cls-33" cx="146.5" cy="110.3" rx="0.15" ry="0.25" transform="translate(10.08 232.85) rotate(-78.91)"/><path class="cls-33" d="M154.43,111.06c0,.09.12.19.27.21s.27,0,.28-.14-.12-.18-.27-.21S154.44,111,154.43,111.06Z"/><ellipse class="cls-33" cx="157.05" cy="111.74" rx="0.15" ry="0.25" transform="translate(17.18 244.36) rotate(-78.91)"/><ellipse class="cls-33" cx="152" cy="105.27" rx="0.25" ry="0.35" transform="translate(12.53 226.66) rotate(-75.74)"/><ellipse class="cls-33" cx="152.09" cy="103.09" rx="0.18" ry="0.25" transform="translate(15.31 225.78) rotate(-76.03)"/><path class="cls-34" d="M152.34,101.31c0,.07-.09.12-.19.11s-.18-.09-.18-.17.09-.12.19-.11S152.34,101.23,152.34,101.31Z"/><path class="cls-32" d="M152.15,101.48c-.2,0-.28-.22-.29-.21a.2.2,0,0,0,0,.13.33.33,0,0,0,.32.31c.18,0,.34-.07.34-.22a.29.29,0,0,0,0-.14S152.34,101.51,152.15,101.48Z"/><path class="cls-33" d="M152.53,107.51a.77.77,0,0,1-.68,1.32,1,1,0,0,1-.74-.6.69.69,0,0,1,.2-.86.78.78,0,0,0,.59,1h0C152.36,108.4,152.61,107.94,152.53,107.51Z"/><path class="cls-33" d="M152.38,110.46a.67.67,0,0,1-.6,1.12c-.54-.08-1-.88-.49-1.25a.7.7,0,0,0,.55.93A.59.59,0,0,0,152.38,110.46Z"/><path class="cls-33" d="M149.28,110.31a.52.52,0,0,1,.11.59.53.53,0,0,1-.57.29c-.41-.06-.79-.73-.36-1a.53.53,0,0,0,.42.66A.44.44,0,0,0,149.28,110.31Z"/><path class="cls-33" d="M146.83,110.52a.45.45,0,0,1,0,.5.5.5,0,0,1-.63.09c-.35-.2-.48-.89,0-.94a.46.46,0,0,0,.11.63A.37.37,0,0,0,146.83,110.52Z"/><path class="cls-33" d="M154.3,111a.52.52,0,0,0,.35.66c.32.07.51-.23.47-.53.4.36,0,.92-.44.87a.69.69,0,0,1-.54-.44A.48.48,0,0,1,154.3,111Z"/><path class="cls-33" d="M156.7,111.87c0,.27.29.53.55.43a.41.41,0,0,0,.15-.59c.47.17.29.82-.07.92a.57.57,0,0,1-.62-.26A.45.45,0,0,1,156.7,111.87Z"/><path class="cls-33" d="M152.21,113.55a.65.65,0,0,1-.57,1.08c-.52-.09-.94-.85-.47-1.2a.67.67,0,0,0,.53.88C152.1,114.33,152.3,113.93,152.21,113.55Z"/><path class="cls-33" d="M152.5,105.28a.63.63,0,0,1,.14.74.65.65,0,0,1-.68.35.82.82,0,0,1-.61-.46.6.6,0,0,1,.15-.75.66.66,0,0,0,.49.8h0C152.36,106,152.56,105.64,152.5,105.28Z"/><path class="cls-33" d="M152.45,103.07a.47.47,0,0,1,.13.5.46.46,0,0,1-.52.31c-.38,0-.74-.67-.33-.89a.46.46,0,0,0,.33.56C152.33,103.6,152.49,103.33,152.45,103.07Z"/><path class="cls-33" d="M152.45,101.35a.37.37,0,0,1,.11.44.4.4,0,0,1-.43.24c-.32,0-.63-.59-.27-.75,0,.21.13.46.36.42A.31.31,0,0,0,152.45,101.35Z"/><path class="cls-33" d="M162,108.1l.37-.17s-.32-.73-.66-1.34a14.79,14.79,0,0,0-5.11-4.91,16.43,16.43,0,0,0-4-1.37h-.08l-.07,0a15.5,15.5,0,0,0-4.09.08,11.06,11.06,0,0,0-5.61,3.19c-.41.49-.81,1.1-.81,1.1l.33.28c-.16.15.6.66.72.5a1.09,1.09,0,0,0,.67-.28l1.12-.94.73.17a12,12,0,0,1,3.69-2.26,7.86,7.86,0,0,1,3.23-.21,8.85,8.85,0,0,1,3.13,1.23,15.94,15.94,0,0,1,3.35,3.39l.74.06,1,1.28a1.36,1.36,0,0,0,.61.48C161.29,108.55,161.71,108.27,162,108.1Zm-13.06-6.59a8.66,8.66,0,0,1,1.18-.15A8.66,8.66,0,0,0,148.91,101.51Zm1.26-.16h0Zm4.54.75c.36.14.74.32,1.14.52C155.45,102.42,155.07,102.24,154.71,102.1Zm-.08,0h0Z"/><path class="cls-32" d="M161.68,106.59a14.79,14.79,0,0,0-5.11-4.91,16.43,16.43,0,0,0-4-1.37h-.08l-.07,0a15.5,15.5,0,0,0-4.09.08,11.06,11.06,0,0,0-5.61,3.19c-.41.49-.81,1.1-.81,1.1l.9.76a9.94,9.94,0,0,1,3.64-3.06,10.63,10.63,0,0,1,6-.94,12.38,12.38,0,0,1,5.74,2.82,13.15,13.15,0,0,1,3.2,4.16l1-.46S162,107.2,161.68,106.59Z"/><path class="cls-33" d="M161.35,108.5h0a.12.12,0,0,1-.07-.07,13.25,13.25,0,0,0-3.16-4.11,12.29,12.29,0,0,0-5.68-2.79,10.49,10.49,0,0,0-5.9.94,9.84,9.84,0,0,0-3.6,3,.1.1,0,0,1-.08,0,.19.19,0,0,1-.1,0l-.91-.76a.14.14,0,0,1,0-.16s.42-.62.82-1.11a11.28,11.28,0,0,1,5.68-3.23,15.18,15.18,0,0,1,4.12-.07h.16a17.35,17.35,0,0,1,4,1.38,14.92,14.92,0,0,1,5.17,5c.34.62.67,1.34.67,1.35a.11.11,0,0,1,0,.15l-1,.45A.08.08,0,0,1,161.35,108.5Zm-8.93-7.21h0a12.6,12.6,0,0,1,5.81,2.86,13.76,13.76,0,0,1,3.17,4.08l.78-.36c-.1-.22-.36-.76-.61-1.23h0a14.47,14.47,0,0,0-5.06-4.86,16.38,16.38,0,0,0-4-1.36h-.14a15.07,15.07,0,0,0-4.07.07,11,11,0,0,0-5.54,3.16c-.31.38-.62.83-.75,1l.72.6a10.42,10.42,0,0,1,3.61-3,10.76,10.76,0,0,1,6-1Z"/><path class="cls-36" d="M142.57,104.87A11,11,0,0,1,146,102a11.58,11.58,0,0,1,5.16-1.08l0-.33a10.56,10.56,0,0,0-5.38,1.15,10.88,10.88,0,0,0-3.52,3Z"/><path class="cls-36" d="M144.49,103.89l.94.21a11.09,11.09,0,0,1,2.23-1.66,7.14,7.14,0,0,1,2.11-.73,6.73,6.73,0,0,0-2.58.59,9.21,9.21,0,0,0-1.66,1.14l-.48,0Z"/><path class="cls-36" d="M161.65,107.93A14.66,14.66,0,0,0,158.6,104a13.91,13.91,0,0,0-4.93-2.69l0-.34a12.54,12.54,0,0,1,5.13,2.84,14.53,14.53,0,0,1,3.1,4Z"/><path class="cls-36" d="M159.89,106.36l-.95-.1a14.29,14.29,0,0,0-2-2.33,8.86,8.86,0,0,0-2-1.39,8.37,8.37,0,0,1,2.47,1.41,11.92,11.92,0,0,1,1.49,1.64l.47.19Z"/></g><path class="cls-30" d="M124.35,121.06l1.41-4.71s14-4,22.3-2.35,29.7,7.76,29.7,7.76C172.82,121.06,138.47,109.53,124.35,121.06Z"/></g></g><g id="Chaqueta_I" data-name="Chaqueta I"><path class="cls-18" d="M169.61,200.12l-5.28,2.12s-2.62,4.94-5.65,0,3-106.71,3.43-111.42,4-7.23,5.37-12a6.21,6.21,0,0,0-.36-4.45l-3.39-6.71,5.48-3.7s10.18,2.43,10.32,5.37c.29,6,4.07,4.21,3.91,8-.11,2.59-6.27,1.94-6.47,5.87C175.09,119.22,169.61,200.12,169.61,200.12Z"/><path class="cls-19" d="M182.47,79.75s.94-.93-1.29-3-1.77-3.95-3.77-5.45S171.88,76,171.88,76s-5.46,6.12-4.85,10.35-6.93,110.94-6.93,110.94-1.16,9.89.84,5.06,16.12-86,16.12-86Z"/><path class="cls-7" d="M176.29,72.22c-1.32.07-3.23,4.6-6.26,9.31-1.49,4.5-7.45,89.65-9.16,116.45-.29,4.58-1.25,6.73-.46,7.26s2.9-.91,6.63-2.17c4.85-1.64,19.1-8.9,22.2-10.6,5.47-3,1.76-35.12,2.47-36.53s1.33-3.2.57-4.42,2.61-31.58,2.61-31.58-10.83-11.82-5-24.35,10.28-14.37,10.28-14.37l-18.1-2.69s-1.5-1.12-3.24-2.35S177.62,72.16,176.29,72.22Z"/><polygon class="cls-6" points="178.82 76.18 184.41 84.71 164.33 145.04 186 84.71 178.82 76.18"/><g class="cls-40"><polygon class="cls-6" points="192.82 158.71 180.38 160.82 189.38 157.26 172.59 150.24 190.54 155.46 177.29 143.18 189.88 150.94 188.82 105.61 205.29 123.35 194.29 153.71 192.82 158.71"/><path class="cls-6" d="M192.24,157.11c-.4-2.27-.78-2.79-1.39-.55-.8,3-1,29.41-2.26,31.15-2.83,3.76-29.91,18.76-29.91,18.76l18.14-6.82,10.54-4.92s5.25-4.19,5.61-8.38C193.75,177.19,192.5,158.59,192.24,157.11Z"/></g><path class="cls-19" d="M167.48,79.53s3.48-6.89,2.77-9.18a12,12,0,0,0-2.77-4.27l-2.13,4.49s1,2,1.77,3.84S167.48,79.53,167.48,79.53Z"/></g><g id="Cabeza"><path class="cls-8" d="M151.48,35.41a32.15,32.15,0,0,0-5.5.5,16.49,16.49,0,0,0-5.67,30.31c1.76,3.11,5,8.11,8.21,9.61,4.82,2.22,6.73,5.19,10.22,5.19S169,69.76,169.84,66.94c.58-1.86,1-14.79,1-14.79a16.5,16.5,0,0,0-14.43-16.37A33.54,33.54,0,0,0,151.48,35.41Z"/><path class="cls-15" d="M158.74,81.27c-2.16,0-3.7-1.07-5.65-2.42a30.08,30.08,0,0,0-4.68-2.79c-3.32-1.54-6.6-6.69-8.28-9.66a16.74,16.74,0,0,1,5.8-30.74,32.69,32.69,0,0,1,5.55-.5,31,31,0,0,1,4.67.33l.34,0a16.77,16.77,0,0,1,14.65,16.62c0,.54-.48,13-1.06,14.86C169.24,69.72,162.46,81.27,158.74,81.27Zm-7.26-45.61a31.6,31.6,0,0,0-5.46.5A16.24,16.24,0,0,0,140.44,66l.06,0,0,.06c1.64,2.91,4.88,8,8.09,9.5a31,31,0,0,1,4.76,2.84c1.87,1.3,3.36,2.33,5.36,2.33,3.21,0,9.95-11,10.86-13.91.56-1.8,1-14.59,1-14.72A16.26,16.26,0,0,0,156.43,36l-.35-.05A32,32,0,0,0,151.48,35.66Z"/><path class="cls-32" d="M157.27,63.85s0-1.61-3.38-2.32a15.06,15.06,0,0,0-5.43-.31l.34,1.56"/><path class="cls-41" d="M157,63.86s-.12-1.43-3.18-2.08a16.08,16.08,0,0,0-5.08-.35l.28,1.3-.49.1L148.16,61l.25-.05a15,15,0,0,1,5.53.32c3.49.74,3.58,2.48,3.58,2.55Z"/><path class="cls-10" d="M167.75,55.23s-3.07,4-3.48,5.88a49.87,49.87,0,0,0-.23,7.48l-1.23-8.8Z"/><path class="cls-42" d="M164.64,61.53s2.78-3.67,5.19-4l.56,1.36"/><path class="cls-6" d="M157.41,59.51s-6.51-3.19-10-1.89c0,0-.32.59.53.59C150,57.49,157.41,59.51,157.41,59.51Z"/><path class="cls-6" d="M170.89,53.35c-2.65-.29-7.11,5.6-7.11,5.6s3.93-3.47,4.72-4,2.26-1.26,2.26-1.26Z"/><path class="cls-10" d="M142.31,58.21s3,12.15,10.12,13.91c-.46,1.3-8,0-8,0S140,63.79,141.2,61.24,142.31,58.21,142.31,58.21Z"/><path class="cls-43" d="M165.75,71.62l1.3.72s2.45-3.8,2.73-5.22.44-3,.44-3"/><path class="cls-6" d="M136.93,40.8A26.9,26.9,0,0,1,141,48c1.2,3.69.75,7.54,2.51,7.37,0,0-3,9.07,2,12.84.64.24,1,2.43,1.95,2.64.67.15,1.38.28,2.07.4,2.28.4,4.38.65,4.38.65a22.64,22.64,0,0,0,3.38-.93c2.18-.74,7.18-2.92,8.48-.8l1.3,2.13a31.08,31.08,0,0,1-2.37,5.71c-.36.65-.75,1.4-1.11,2.12-.15.3-.47.92-.76,1.46s-.46.84-.55,1a4.13,4.13,0,0,0-.44,1c-.12.36.27.74.27.85,0,.34-1.59.47-2.33.48a14.33,14.33,0,0,1-4.24-.77c-4.21-1.32-9.72-4.3-12.19-9-4.26-8.15-3.22-18-5.2-18.81-1.34-.59-3,4.94-3,4.94a14.94,14.94,0,0,1-2.92-11.64A14.27,14.27,0,0,1,136.93,40.8Z"/><path class="cls-10" d="M139.25,57.19s-3.38-3.3-4.44-.91c-.49,1.09-.33,3.27.53,5.25,1,2.35,3.95,4.47,4.95,4"/><path class="cls-15" d="M140,65.87c-1.41,0-3.95-2.14-4.87-4.24s-1.07-4.24-.53-5.45a1.54,1.54,0,0,1,1.14-1c1.52-.28,3.62,1.73,3.71,1.82l-.35.35c-.55-.53-2.22-1.88-3.27-1.68a1.1,1.1,0,0,0-.78.7,7.31,7.31,0,0,0,.54,5c1,2.28,3.79,4.27,4.63,3.91l.19.46A1.07,1.07,0,0,1,140,65.87Z"/><path class="cls-8" d="M162,57.49s3,12.38,2.6,12.66-4.63-.68-4.63-.68a1,1,0,0,1,.23-1.22"/><path class="cls-15" d="M164.28,70.44a26.43,26.43,0,0,1-4.33-.73l-.12,0-.05-.11a1.25,1.25,0,0,1,.3-1.53l.31.39a.72.72,0,0,0-.2.81,24.47,24.47,0,0,0,4.24.7c0-1-1.57-8.07-2.63-12.4l.49-.12C165.36,70,165,70.25,164.77,70.36A1.08,1.08,0,0,1,164.28,70.44Z"/><g class="cls-44"><circle class="cls-41" cx="155.07" cy="62.61" r="2.09"/></g><g class="cls-45"><ellipse class="cls-41" cx="168.75" cy="58.81" rx="1.47" ry="1.71"/></g></g><path class="cls-7" d="M211,140.26l-.14,2.11h.81C211.09,141.93,211,140.26,211,140.26Z"/><path class="cls-7" d="M224.54,112.4,207.91,96l-2.68.09,1.66-5.61c-.21-.59-1-.18-1.66-.26l-1.77.26,1.15-1.72c.16-.48.39-1,.11-1.45l-3.34-1.2-1.66-4.93c-1.44.43-7,2.62-15.13,12.56-9.49,11.64,3,22.07,3,22.07l2.26,2.38-.59-9.57,2.18,5.47,22.42,26.09,2.46,1.58,20.17-14.19C236.37,127.07,226.72,115,224.54,112.4Z"/><path class="cls-6" d="M213.89,140.15l2.32-4.36-3,2.43-18.4-23,1.28-3.45-4,1.62,1.11-3.59-6.49-5.24,2.76,13.18L211,140.26s.09,1.67.67,2.09h0c.6.39,2.45,0,2.45,0l-.07.26,2.26-.88,2.77-4.42Z"/><path class="cls-6" d="M205.23,90.19a.79.79,0,0,1-.58-.34,1.23,1.23,0,0,1,0-1.12l-2.92,3.16Z"/><path class="cls-6" d="M207.56,96.08l17,16.32c-5.49-6.55-14.8-16.46-15.78-16.86-1.38-.56-1.93-3-1.82-4.6a1.36,1.36,0,0,0-.05-.49l-3.27,6.93Z"/><path class="cls-6" d="M204.72,87.28a1.78,1.78,0,0,0-.35-.41,13.08,13.08,0,0,0-2.74-1.23l-1.53-4.58a3.64,3.64,0,0,0-.38.09l1,5.87Z"/><path class="cls-3" d="M241.93,133.33l0,0c.14.44.27.89.4,1.36A7.76,7.76,0,0,0,241.93,133.33Z"/><path class="cls-3" d="M244.88,177.29c.88.42,1.36.71,1.36.71s-.37-.36-1-.92A1.62,1.62,0,0,1,244.88,177.29Z"/><path id="Bazo_I-2" data-name="Bazo I" class="cls-7" d="M221.78,174.74s7.75-1.67,13.9-.71c5.34.83,9.06,4.34,10.56,4,.73-9.88-.86-38.12-3.06-41.21S234,124.21,234,124.21s-26.85,5.91-21.24,18.16c7.11,10.92,5.61,8.28,7.64,11.89S226.59,164.7,221.78,174.74Z"/><g class="cls-46"><path class="cls-6" d="M209.85,141.31l6.77.42s9.26,15.62,9.35,19-.62,11,0,11.11,15.85-2.22,18.91,7.05c-6.23-.56-25.76-2.19-25.76-2.19L218.29,163Z"/></g></g></svg>