<svg xmlns="http://www.w3.org/2000/svg" xmlns:xlink="http://www.w3.org/1999/xlink" viewBox="0 0 252.51 406"><defs><style>.cls-1,.cls-2,.cls-7{fill:#faebd6;}.cls-1,.cls-11,.cls-2,.cls-44{stroke:#72390d;}.cls-1,.cls-11,.cls-12,.cls-2,.cls-27,.cls-3,.cls-43,.cls-44{stroke-miterlimit:10;}.cls-1,.cls-11,.cls-2,.cls-27,.cls-3,.cls-43,.cls-44{stroke-width:0.5px;}.cls-2,.cls-9{clip-path:url(#clip-path);}.cls-24,.cls-3{fill:#586da8;}.cls-27,.cls-3{stroke:#080919;}.cls-11,.cls-12,.cls-27,.cls-4{fill:none;}.cls-5{fill:#0b0b0c;}.cls-30,.cls-6{fill:#030202;}.cls-8{fill:#e4e4e4;}.cls-10,.cls-44{fill:#c2714e;}.cls-12{stroke:#030202;}.cls-13{clip-path:url(#clip-path-3);}.cls-14{clip-path:url(#clip-path-4);}.cls-15{fill:#72390d;}.cls-16{clip-path:url(#clip-path-5);}.cls-17{clip-path:url(#clip-path-6);}.cls-18{clip-path:url(#clip-path-7);}.cls-19{fill:#b0b0b0;}.cls-20{opacity:0.8;}.cls-21{clip-path:url(#clip-path-8);}.cls-22{fill:#9b9b9b;}.cls-23{fill:#626262;}.cls-25{clip-path:url(#clip-path-9);}.cls-26{fill:#131b2b;}.cls-28{fill:#08080a;}.cls-29{clip-path:url(#clip-path-10);}.cls-30{opacity:0.9;}.cls-31{opacity:0.08;}.cls-32,.cls-43{fill:#fff;}.cls-33{fill:#010102;}.cls-34{fill:#414042;}.cls-35{fill:#120f0e;}.cls-36{fill:#14a5dc;}.cls-37{fill:#010002;}.cls-38{fill:#00d8f5;}.cls-39{fill:#404041;}.cls-40{clip-path:url(#clip-path-11);}.cls-41{clip-path:url(#clip-path-12);}.cls-42{fill:#171519;}.cls-43{stroke:#171519;}.cls-45{clip-path:url(#clip-path-13);}.cls-46{clip-path:url(#clip-path-14);}</style><clipPath id="clip-path"><path class="cls-1" d="M226.52,171.63a24.36,24.36,0,0,0-6.39,3.8c-2.54,2.3-3.41,2.91-3.61,4.81s-2.33,6.81-3,7.88-1.34,2.85,2,2.06,5-5.17,6.42-7.44a8.11,8.11,0,0,1,3.78-3.11s.14,8.45-.72,11.19-2.46,8-.63,7.65,3.28-1.18,4.53-6.49,2.19-6.53,2.19-6.53,1.67,7,.93,9.66-3.6,8-3.08,9.57-.13,2.35,1.92,2,2.12-1.33,2.12-1.33,1.48,1.53,2.44-.72c.16-.39.53-1.08.93-1.88a98.19,98.19,0,0,0,4.38-12.53c.25-1.33,1.55,3.64,1,5.62s.18,9.23,1.09,9.29,2,.25,2.25-1.64.23-5.49.24-7.74.28-7.06-1-8.94,1.25-12.95,1.25-12.95,1.19-8-4.91-8-12.43-1.07-12.74.82A42.9,42.9,0,0,1,226.52,171.63Z"/></clipPath><clipPath id="clip-path-3"><path class="cls-6" d="M137.07,76.06s-14.57,1-17.17,1.88-35.44,42.38-35.44,42.38-1.26,15.25.72,16.91,2.57,4.71,5.91,3.85a76.91,76.91,0,0,0,9-3A100.12,100.12,0,0,0,112,132l17.33-17Z"/></clipPath><clipPath id="clip-path-4"><path class="cls-1" d="M103.42,95.45s1.8-5.82,3.17-7.61,8.36-7.56,9.63-7.91,11.63,1.5,12.43,2.11,2,6.75,2,7.38c0,.26-1.93,2.08-4.44,3.59-.71.85-.59,1.66-1.38,2.65-.34,1.57-6.15,4.18-6.46,4.24-1.27.21-2.75,3.8-2.75,3.8s-5.18,2.44-8.35.43S103.42,95.45,103.42,95.45Z"/></clipPath><clipPath id="clip-path-5"><path class="cls-7" d="M132.05,90.39s-2-1.87-5.28,1.35-3,4.44-2,5.31,6.23-1.62,7.3-2.73S133.49,91.35,132.05,90.39Z"/></clipPath><clipPath id="clip-path-6"><path class="cls-4" d="M101.52,93.38c-1.17.53-14.29,22.94-14.29,22.94s-5.59,18.3-1.23,19.94,14.11,1.36,21-5.58c5.35-11.36,9.7-27,9.7-27s-13.94,4.53-13.41-8C103.64,95.68,102.7,92.85,101.52,93.38Z"/></clipPath><clipPath id="clip-path-7"><path class="cls-8" d="M87.53,357.65S83.16,367,75.81,371.59s-3.46,1.94-3.46,1.94-8.11,2.82-8.47,5.82a72.4,72.4,0,0,0,0,9s3.18,4.59,8.3,4.77,13.23,1.59,16.41-2.12a80.08,80.08,0,0,1,7.76-7.59,3,3,0,0,1,2.12-2.82,1.58,1.58,0,0,1,2.12,1.59s9-2.83,10.41-4.42,1.59-11.47,1.59-11.47Z"/></clipPath><clipPath id="clip-path-8"><path id="zapato_I" data-name="zapato I" class="cls-8" d="M224.82,369.12v15.35s-1.58,1.77-2.82,3a4.35,4.35,0,0,0-1.24,2.82v8.65s3.36,5.3,9.71,5.47,11.65-.35,15.88-4.06,3.18-3.17,3.18-3.17l.12-9.53a1.59,1.59,0,0,1-1.89-.87c-.52-1.25,0-16.78,0-16.78S235.24,357.65,224.82,369.12Z"/></clipPath><clipPath id="clip-path-9"><path class="cls-3" d="M125.06,168.66s-23,41.54-28.39,50.75c-6.2,10.63-13.32,34.12-15.91,39.77s-4.7,9.17-4.94,13.41,4.24,8.94,4.94,16.47,8.48,49.88,7.06,52.47-5.64,5.18-4.47,6.59,4.24,1.64,3.53,4.47-3.53,7.06-1.41,7.76,8.93,4.94,16.47,7.3,12,1.64,12.47,0-1.41-12,0-13.41,4.94-3.06,3.53-5.65S113,341.76,113,338.24s4-24.95,3.53-31.53-.71-11.06-2.82-15.53-2.36-8.24-1.89-13.18-2.82-3.76-1.88-6.59,14.1-24.47,19.12-31.76,13.26-25.77,14.5-25.77c.11,0,1.67-.26,1.88.33,2.16,6,10.44,40.86,17.68,51.32,7.94,11.47,7.35,19.41,10.35,23.12s24,23.11,29.47,34.41,13.41,28.23,12.88,33.88-1.94,6.53,1.77,9.71a46.86,46.86,0,0,1,6.7,7.41s2-6.88,9-7.06,15.36,5.47,15.18,8.65c1.41-1.59,3.35-3.18,2.12-6.18s-2.83-1.94-1.41-4.41,2.82-6.18,2.82-8.65-10.18-8-11.41-10.82-9-33.06-10.41-38-14.24-18.94-17.24-21.06-4.94-8.65-6.35-10.59-7.06-2.12-7.94-5.65-11.3-59.11-12.89-73.94-1.17-16.46-1.17-16.46l-48.18-5.15Z"/></clipPath><clipPath id="clip-path-10"><path class="cls-4" d="M146.85,81.18s12.46,13,25.5-2.91l20.27.67-14.47,74.12-2.3,24.88a138.78,138.78,0,0,1-26.74,1.12c-13.19-.94-15.67-.41-20-3.83s-7.24-15.73-5.2-30.39,13-43.9,14.47-48.37c.8-2.51,1.92-7.11,4-10.59A18.15,18.15,0,0,1,146.85,81.18Z"/></clipPath><clipPath id="clip-path-11"><path id="Bazo_I" data-name="Bazo I" class="cls-5" d="M222.08,173.9s7.86-1,13.9.44c5.26,1.28,8.68,5.08,10.2,4.84,1.55-9.79,2.32-38.06.38-41.32s-8.08-13.3-8.08-13.3-27.25,3.65-22.68,16.32c6.17,11.48,4.9,8.72,6.62,12.49S227.71,164.28,222.08,173.9Z"/></clipPath><clipPath id="clip-path-12"><path class="cls-4" d="M178.09,69.05c-1.33.07-3.24,4.6-6.26,9.3-1.5,4.5-7.46,89.66-9.16,116.46-.3,4.58-1.26,6.72-.46,7.25s2.9-.9,6.63-2.17c4.85-1.64,19.1-8.9,22.19-10.6,5.47-3,1.76-35.11,2.47-36.53s1.33-3.2.58-4.42,2.61-31.58,2.61-31.58-10.84-11.82-5-24.35,11.58-12.53,11.58-12.53l-19.41-4.53s-1.5-1.11-3.23-2.35S179.41,69,178.09,69.05Z"/></clipPath><clipPath id="clip-path-13"><path class="cls-4" d="M160.84,60.06s0-1.61-3.35-2.37a15.06,15.06,0,0,0-5.43-.39l.32,1.57"/></clipPath><clipPath id="clip-path-14"><path class="cls-4" d="M174.2,55.56l-.71-1.68c-2.42.33-5.25,4-5.25,4"/></clipPath></defs><g id="Frame2"><g id="Frame_1" data-name="Frame 1"><path id="Zapato_I-2" data-name="Zapato I" d="M222.4,174.59s14,10.06,24.45,2.47C242.62,165.24,222.89,164.88,222.4,174.59Z"/><g id="Mano_I" data-name="Mano I"><path class="cls-7" d="M226.52,171.63a24.36,24.36,0,0,0-6.39,3.8c-2.54,2.3-3.41,2.91-3.61,4.81s-2.33,6.81-3,7.88-1.34,2.85,2,2.06,5-5.17,6.42-7.44a8.11,8.11,0,0,1,3.78-3.11s.14,8.45-.72,11.19-2.46,8-.63,7.65,3.28-1.18,4.53-6.49,2.19-6.53,2.19-6.53,1.67,7,.93,9.66-3.6,8-3.08,9.57-.13,2.35,1.92,2,2.12-1.33,2.12-1.33,1.48,1.53,2.44-.72c.16-.39.53-1.08.93-1.88a98.19,98.19,0,0,0,4.38-12.53c.25-1.33,1.55,3.64,1,5.62s.18,9.23,1.09,9.29,2,.25,2.25-1.64.23-5.49.24-7.74.28-7.06-1-8.94,1.25-12.95,1.25-12.95,1.19-8-4.91-8-12.43-1.07-12.74.82A42.9,42.9,0,0,1,226.52,171.63Z"/><path class="cls-7" d="M226.52,171.63a24.36,24.36,0,0,0-6.39,3.8c-2.54,2.3-3.41,2.91-3.61,4.81s-2.33,6.81-3,7.88-1.34,2.85,2,2.06,5-5.17,6.42-7.44a8.11,8.11,0,0,1,3.78-3.11s.14,8.45-.72,11.19-2.46,8-.63,7.65,3.28-1.18,4.53-6.49,2.19-6.53,2.19-6.53,1.67,7,.93,9.66-3.6,8-3.08,9.57-.13,2.35,1.92,2,2.12-1.33,2.12-1.33,1.48,1.53,2.44-.72c.16-.39.53-1.08.93-1.88a98.19,98.19,0,0,0,4.38-12.53c.25-1.33,1.55,3.64,1,5.62s.18,9.23,1.09,9.29,2,.25,2.25-1.64.23-5.49.24-7.74.28-7.06-1-8.94,1.25-12.95,1.25-12.95,1.19-8-4.91-8-12.43-1.07-12.74.82A42.9,42.9,0,0,1,226.52,171.63Z"/><g class="cls-9"><path class="cls-10" d="M214.87,190.8s3.35-1,4.93-7.08,1.42-9.18,1.42-9.18l4-3,2.21-6.17,4.23-.9s7.5.23,10.62,1.17a4.07,4.07,0,0,1,1,.45c.86.62,2.26,3.89,2.8,5.54.25.75.32,1.17.07.83-.55-.75-.87,9.3-1.54,8.78-.89-.69-2.44-3.85-6.75-5.43-3.85-1.41-5.2-1.61-6.88-.64a6.9,6.9,0,0,0-3.18,5.14,42.91,42.91,0,0,1-2.63,14.06c-.53,1.42-1.19,3.07-.6,3.44,1.62,1,3.67-1.21,3.67-1.21l-2.19,2.72-4.26-.49,2.43-12.11,0-4.94-4.57,7Z"/><path class="cls-10" d="M230.72,186l1.71-3.4a38.77,38.77,0,0,1,1.44,7.69,24,24,0,0,1-2,9.13c-1.28,3.11-2.78,6.21-1.05,7.26s-4,3-4.69,2.12,2-7.25,2-7.25a15.41,15.41,0,0,1,.7-3.44C229.24,197.34,230.72,186,230.72,186Z"/><path class="cls-10" d="M237.05,184.64l-1.59,12s-3.63,8.9-2.58,9.54a1.74,1.74,0,0,0,2-.31s-1.27-.29,0-3.77S238.25,188.77,237.05,184.64Z"/><path class="cls-10" d="M240.88,194.09l-.29-5.41s2.45,2.86,2.51,4.8c.11,3.1-1,11.49.56,12.68-.09.92-1.71-.12-1.71-.12L239.86,203Z"/><path class="cls-1" d="M232.93,205.39s2.36-9,2.68-10.93,1.44-9.82,1.44-9.82"/></g><path class="cls-11" d="M226.52,171.63a24.36,24.36,0,0,0-6.39,3.8c-2.54,2.3-3.41,2.91-3.61,4.81s-2.33,6.81-3,7.88-1.34,2.85,2,2.06,5-5.17,6.42-7.44a8.11,8.11,0,0,1,3.78-3.11s.14,8.45-.72,11.19-2.46,8-.63,7.65,3.28-1.18,4.53-6.49,2.19-6.53,2.19-6.53,1.67,7,.93,9.66-3.6,8-3.08,9.57-.13,2.35,1.92,2,2.12-1.33,2.12-1.33,1.48,1.53,2.44-.72c.16-.39.53-1.08.93-1.88a98.19,98.19,0,0,0,4.38-12.53c.25-1.33,1.55,3.64,1,5.62s.18,9.23,1.09,9.29,2,.25,2.25-1.64.23-5.49.24-7.74.28-7.06-1-8.94,1.25-12.95,1.25-12.95,1.19-8-4.91-8-12.43-1.07-12.74.82A42.9,42.9,0,0,1,226.52,171.63Z"/><path class="cls-11" d="M226.52,171.63a24.36,24.36,0,0,0-6.39,3.8c-2.54,2.3-3.41,2.91-3.61,4.81s-2.33,6.81-3,7.88-1.34,2.85,2,2.06,5-5.17,6.42-7.44a8.11,8.11,0,0,1,3.78-3.11s.14,8.45-.72,11.19-2.46,8-.63,7.65,3.28-1.18,4.53-6.49,2.19-6.53,2.19-6.53,1.67,7,.93,9.66-3.6,8-3.08,9.57-.13,2.35,1.92,2,2.12-1.33,2.12-1.33,1.48,1.53,2.44-.72c.16-.39.53-1.08.93-1.88a98.19,98.19,0,0,0,4.38-12.53c.25-1.33,1.55,3.64,1,5.62s.18,9.23,1.09,9.29,2,.25,2.25-1.64.23-5.49.24-7.74.28-7.06-1-8.94,1.25-12.95,1.25-12.95,1.19-8-4.91-8-12.43-1.07-12.74.82A42.9,42.9,0,0,1,226.52,171.63Z"/></g><g id="Antebrazo_D" data-name="Antebrazo D"><path class="cls-12" d="M139.12,75.71s-16.05,1-18.65,1.79-36,42.82-36,42.82-1.26,15.25.72,16.91,2.57,4.71,5.91,3.85a76.91,76.91,0,0,0,9-3A100.12,100.12,0,0,0,112,132l17.33-17Z"/><path class="cls-6" d="M137.07,76.06s-14.57,1-17.17,1.88-35.44,42.38-35.44,42.38-1.26,15.25.72,16.91,2.57,4.71,5.91,3.85a76.91,76.91,0,0,0,9-3A100.12,100.12,0,0,0,112,132l17.33-17Z"/><g class="cls-13"><polygon class="cls-5" points="103.07 131.98 110.04 123.64 122.1 80.45 137.03 76.67 119.27 73.78 91.01 111.48 91.29 133.33 103.07 131.98"/></g></g><g id="BazoComp_D" data-name="BazoComp D"><path id="Manga_D" data-name="Manga D" d="M101.52,93.38s14.39.56,15.18,10.3S98.17,106.44,101.52,93.38Z"/><path class="cls-7" d="M103.42,95.45s1.8-5.82,3.17-7.61,8.36-7.56,9.63-7.91,11.63,1.5,12.43,2.11,2,6.75,2,7.38c0,.26-1.93,2.08-4.44,3.59-.71.85-.59,1.66-1.38,2.65-.34,1.57-6.15,4.18-6.46,4.24-1.27.21-2.75,3.8-2.75,3.8s-5.18,2.44-8.35.43S103.42,95.45,103.42,95.45Z"/><g class="cls-14"><path class="cls-10" d="M107.44,104.57s2.8-2.51,2.59-5a15.83,15.83,0,0,1,.63-5.19s4.82,3.39,5.51,2.54,1.64-4.17,2.59-4.17,4-1.8,3.86-3.55c.46.07,2.88-2,2.47-3.7.44-.16,5.33,2.62,5.33,2.62l1.67,4.68-11.88,9.31-8.65,5.66Z"/></g><path class="cls-11" d="M103.42,95.45s1.8-5.82,3.17-7.61,8.36-7.56,9.63-7.91,11.63,1.5,12.43,2.11,2,6.75,2,7.38c0,.26-1.93,2.08-4.44,3.59-.71.85-.59,1.66-1.38,2.65-.34,1.57-6.15,4.18-6.46,4.24-1.27.21-2.75,3.8-2.75,3.8s-5.18,2.44-8.35.43S103.42,95.45,103.42,95.45Z"/><path class="cls-15" d="M115.16,96.74a28.41,28.41,0,0,0-4-1.67v-.5a28.84,28.84,0,0,1,4.23,1.71Z"/><path class="cls-15" d="M116.4,98.89a3.7,3.7,0,0,1-2.09-.67,5.31,5.31,0,0,1-1.65-1.92,6.51,6.51,0,0,1-2.51,1.18L110,97c1.18-.31,2.45-.92,2.42-1.29h0l.5-.06h0a4.24,4.24,0,0,0,1.65,2.16,3.06,3.06,0,0,0,2.64.48c1.62-.44,1.88-3.47,2-4.76l0-.32c0-.56-2.59-2.51-5.07-4l.25-.43c1.28.77,5.43,3.33,5.32,4.47l0,.31c-.12,1.4-.4,4.68-2.36,5.2A3.52,3.52,0,0,1,116.4,98.89Z"/><path class="cls-15" d="M119.52,97.74a10.19,10.19,0,0,1-1-.06l.05-.5c1.92.21,2.44-.17,2.94-.54a3.24,3.24,0,0,1,.55-.35c.63-.32,1.37-5.59,1.07-6.58-.16-.54-3.28-2.44-6.2-4l.23-.44c1,.54,6.15,3.27,6.45,4.27s-.27,6.64-1.33,7.17a3,3,0,0,0-.47.32A3.28,3.28,0,0,1,119.52,97.74Z"/><path class="cls-15" d="M122.93,95.89l-.2-.45c2.91-1.3,3-3,3-3,.19-2.07.36-5.37,0-6s-4-2.41-6.33-3.37l.2-.46c1,.42,6.08,2.6,6.58,3.61s.07,5.75,0,6.29C126.2,92.49,126.17,94.45,122.93,95.89Z"/><path class="cls-7" d="M132.05,90.39s-2-1.87-5.28,1.35-3,4.44-2,5.31,6.23-1.62,7.3-2.73S133.49,91.35,132.05,90.39Z"/><g class="cls-16"><path class="cls-10" d="M131.64,94.66s-5.42,1.53-5.11.16,3.49-5,3.49-5a4.58,4.58,0,0,0-4.81,1.37c-2.09,2.35-2.17,7.42-2.17,7.42l3.7.52Z"/></g><path class="cls-15" d="M125.42,97.47a1.29,1.29,0,0,1-.84-.23,1.94,1.94,0,0,1-.75-1.42c0-1,.85-2.4,2.77-4.26,3.24-3.17,5.37-1.56,5.6-1.37a2.26,2.26,0,0,1,1,1.68,3.43,3.43,0,0,1-1,2.62C131.29,95.46,127.34,97.47,125.42,97.47Zm5-7.38A5.14,5.14,0,0,0,127,91.92c-1.79,1.73-2.64,3-2.62,3.89a1.45,1.45,0,0,0,.58,1.06c.79.69,5.87-1.6,7-2.73a2.89,2.89,0,0,0,.86-2.22,1.75,1.75,0,0,0-.82-1.32l0,0A2.17,2.17,0,0,0,130.44,90.09Z"/><g id="Brazo_D" data-name="Brazo D"><path class="cls-6" d="M101.52,93.38c-1.17.53-14.29,22.94-14.29,22.94s-5.59,18.3-1.23,19.94,14.11,1.36,21-5.58c5.35-11.36,9.7-27,9.7-27s-13.94,4.53-13.41-8C103.64,95.68,102.7,92.85,101.52,93.38Z"/><g class="cls-17"><path class="cls-5" d="M84.94,138s3.64-11.77,8.23-17.65S99.35,106.17,102,105c1.82-.82,1.88-1.65,1.88-1.65s-1.53-1.41-1.11-4.81c.54-4.33-2.25-9.07-2.25-9.07l-15.58,27.3-2.83,17.17Z"/></g></g></g><path class="cls-10" d="M165.13,72.94l-13.21,1.3-5.76-6s.84,9.65.87,11.52a11.83,11.83,0,0,1-1.44,4.56c7.7,5.37,12.76,3.06,17,1.79,5.46-1.65,8.89-9.41,8.89-9.41l-2.5-7.5Z"/><path class="cls-11" d="M151.77,87.28s-4.94-17.92-6.18-20.53"/><g id="zapato_D" data-name="zapato D"><path class="cls-8" d="M87.53,357.65S83.16,367,75.81,371.59s-3.46,1.94-3.46,1.94-8.11,2.82-8.47,5.82a72.4,72.4,0,0,0,0,9s3.18,4.59,8.3,4.77,13.23,1.59,16.41-2.12a80.08,80.08,0,0,1,7.76-7.59,3,3,0,0,1,2.12-2.82,1.58,1.58,0,0,1,2.12,1.59s9-2.83,10.41-4.42,1.59-11.47,1.59-11.47Z"/><g class="cls-18"><path class="cls-19" d="M63.73,375.65s.68,5.64,3.33,7.06A34.5,34.5,0,0,0,72.71,385s2.47,9.18,3.88,9.71-10.24.35-10.24.35l-6-6Z"/><path class="cls-19" d="M88.16,393.53V381.65l-1.06-1.59s14.19-10.77,15.61-18.53,16.41,3.88,16.41,3.88l-2.3,13.94-15.35,8.47Z"/><path class="cls-5" d="M70.88,371.18s-5.41,7.29-2.12,9.17S81,384.12,84.29,382s16.71-11.53,18.59-21.65-18.82-4.23-18.82-4.23S79.82,369.06,70.88,371.18Z"/><path class="cls-20" d="M114,382.18s-21.31,10.49-33.37,15.47c-4.77,2-16.91-6.8-16.9-7.53s11.59,4,21.15.53c4.94-1.82,10.21-6,14.12-8.47,8.81-5.53,12-5.12,10.24-9.18-6.75-.25-26.4-1-32.3,1.41-6.88,2.83-14.82,7.06-14.82,7.06l-1.24-5.12,13.06-8.64,12-13.24,27.71,9,4.92,5.29Z"/></g></g><path id="zapato_I-3" data-name="zapato I" class="cls-8" d="M224.82,369.12v15.35s-1.58,1.77-2.82,3a4.35,4.35,0,0,0-1.24,2.82v8.65s3.36,5.3,9.71,5.47,11.65-.35,15.88-4.06,3.18-3.17,3.18-3.17l.12-9.53a1.59,1.59,0,0,1-1.89-.87c-.52-1.25,0-16.78,0-16.78S235.24,357.65,224.82,369.12Z"/><g class="cls-21"><path class="cls-5" d="M223.59,367.18v18.64s-1.06,9.06,9.35,8.71,12.88-3.53,15.71-10.19c1.25-2.95-.89-18.4-.89-18.4s-6.35-3.08-12.55-3C229.63,363,224.17,366.17,223.59,367.18Z"/><path class="cls-20" d="M220.76,386.59c4.06,0,7.77.62,8.48-2.25a30.65,30.65,0,0,0,.7-6.22s-.59-3.88,5.27-4.24,13.44,7.94,13.44,7.94l2.29-10.76-9.53-9.35s-14.65-1.59-14.82-1.06S220.76,386.59,220.76,386.59Z"/><path class="cls-19" d="M220.76,388.53s1,7.53,7.45,8.82a17.67,17.67,0,0,0,4.2.36l.53,8.29-12.18-1.56L217.94,397Z"/><path class="cls-19" d="M244.94,402.65l.18-8.12s3.59-1.59,4.53-8.47c3.94,4.41,2.35,12.7,2.35,12.7Z"/><path class="cls-20" d="M218.29,393.82s7.06,10.94,18.36,8.65,15-8.82,15-8.82l-2,7.23s-5.41,6.53-6.47,6.53S228,406,225.88,406s-6.88-6.22-6.88-6.22Z"/></g><g id="Chaqueta_D" data-name="Chaqueta D"><path class="cls-6" d="M132.81,99l-4.25,9.42s-18.07,81.86-15.81,83.63,2.79,1.59,6.85-.71S132.81,99,132.81,99Z"/><path class="cls-22" d="M148,64.33s-13.18,9.52-13.41,16.24-22.41,111.49-19.12,111.49,20.13-17.18,20.13-17.18l12.15-99.35Z"/><path class="cls-23" d="M135.61,174.88s-14.57,15.77-13.7,9.18,5.57-45.18,5.57-45.18S134,115.09,136,105s1.62-19.34,4.78-24.93a26,26,0,0,1,7.89-8.84Z"/></g><g id="Piernas"><g id="Piernas-2" data-name="Piernas"><path class="cls-24" d="M125.06,168.66s-23,41.54-28.39,50.75c-6.2,10.63-13.32,34.12-15.91,39.77s-4.7,9.17-4.94,13.41,4.24,8.94,4.94,16.47,8.48,49.88,7.06,52.47-5.64,5.18-4.47,6.59,4.24,1.64,3.53,4.47-3.53,7.06-1.41,7.76,8.93,4.94,16.47,7.3,12,1.64,12.47,0-1.41-12,0-13.41,4.94-3.06,3.53-5.65S113,341.76,113,338.24s4-24.95,3.53-31.53-.71-11.06-2.82-15.53-2.36-8.24-1.89-13.18-2.82-3.76-1.88-6.59,14.1-24.47,19.12-31.76,13.26-25.77,14.5-25.77c.11,0,1.67-.26,1.88.33,2.16,6,10.44,40.86,17.68,51.32,7.94,11.47,7.35,19.41,10.35,23.12s24,23.11,29.47,34.41,13.41,28.23,12.88,33.88-1.94,6.53,1.77,9.71a46.86,46.86,0,0,1,6.7,7.41s2-6.88,9-7.06,15.36,5.47,15.18,8.65c1.41-1.59,3.35-3.18,2.12-6.18s-2.83-1.94-1.41-4.41,2.82-6.18,2.82-8.65-10.18-8-11.41-10.82-9-33.06-10.41-38-14.24-18.94-17.24-21.06-4.94-8.65-6.35-10.59-7.06-2.12-7.94-5.65-11.3-59.11-12.89-73.94-1.17-16.46-1.17-16.46l-48.18-5.15Z"/><g class="cls-25"><path class="cls-26" d="M130.82,243.41s6.24-31.06,5.77-37.41-11.08-14.12-16.33-12.71S106,211.76,102,219.29c-3.42,6.43-15.13,35.85-19.33,45.32-.72,1.61-5.91,7.54,3.8,9.6,3.73.79,8.09,1.36,9.12,3.55,1.65,3.53-8.24,9.42-8.71,12.95s18.12,44.23,15.53,50.35-16.77,4-19,5.66,6,1.63,10.27,3.28,8.23.94,8.23,2.35-3.06,16.47-3.06,16.47L82.18,362l-.71-18.35,3.77-7.3-7.77-52.23-6.82-14.36s3.11-14.27,3.82-14.19,25.18-58.51,25.18-58.51l8-11.53,15.17-19.88s38.61,6.91,49.06,11.29c9.3,3.89-38.95,4.88-35.17,10.12,2.48,3.44,10.1,5.35,11.88,7.53,6.88,8.41,9.33,41.65,15.74,51.88,3.41,5.44,14.85,34.82,17.43,36.71s5,1.64,8.12.23,7.06-.7,7.77,7.53,3.82,19.53,8.06,25.41,12.7,20.95,16.94,23.53.94,7.3-.94,11.06-9.18,12.94-9.18,12.94l4.23,4.94s11.62-15.58,16.18-17,7.59,4.3,7.59,4.3,6.46,9.09,4.11,9.32-8.66-5.79-13.52-.38a105.86,105.86,0,0,0-8.94,11.76l-10.83-2.58-16.89-39.09-50.22-97.7Z"/><path class="cls-26" d="M242.94,348.71s-30.29-26.36-33.65-32c7.42,6.53,20.65,17.72,29.82,16.14S242.94,348.71,242.94,348.71Z"/><path class="cls-26" d="M115.76,340.88s-12.35-11.82-18.7-32.82c3.88,8.12,11.65,23.65,18.53,26.12A10.14,10.14,0,0,1,115.76,340.88Z"/><path class="cls-26" d="M110.65,270.12s-8.12,9.3-3.53,7.41a82.7,82.7,0,0,0,8.19-3.92Z"/></g><path class="cls-27" d="M125.06,168.66s-23,41.54-28.39,50.75c-6.2,10.63-13.32,34.12-15.91,39.77s-4.7,9.17-4.94,13.41,4.24,8.94,4.94,16.47,8.48,49.88,7.06,52.47-5.64,5.18-4.47,6.59,4.24,1.64,3.53,4.47-3.53,7.06-1.41,7.76,8.93,4.94,16.47,7.3,12,1.64,12.47,0-1.41-12,0-13.41,4.94-3.06,3.53-5.65S113,341.76,113,338.24s4-24.95,3.53-31.53-.71-11.06-2.82-15.53-2.36-8.24-1.89-13.18-2.82-3.76-1.88-6.59,14.1-24.47,19.12-31.76,13.26-25.77,14.5-25.77c.11,0,1.67-.26,1.88.33,2.16,6,10.44,40.86,17.68,51.32,7.94,11.47,7.35,19.41,10.35,23.12s24,23.11,29.47,34.41,13.41,28.23,12.88,33.88-1.94,6.53,1.77,9.71a46.86,46.86,0,0,1,6.7,7.41s2-6.88,9-7.06,15.36,5.47,15.18,8.65c1.41-1.59,3.35-3.18,2.12-6.18s-2.83-1.94-1.41-4.41,2.82-6.18,2.82-8.65-10.18-8-11.41-10.82-9-33.06-10.41-38-14.24-18.94-17.24-21.06-4.94-8.65-6.35-10.59-7.06-2.12-7.94-5.65-11.3-59.11-12.89-73.94-1.17-16.46-1.17-16.46l-48.18-5.15Z"/></g></g><g id="Torzo"><path class="cls-28" d="M146.85,81.18s12.46,13,25.5-2.91l20.27.67-14.47,74.12-2.3,24.88a138.78,138.78,0,0,1-26.74,1.12c-13.19-.94-15.67-.41-20-3.83s-7.24-15.73-5.2-30.39,13-43.9,14.47-48.37c.8-2.51,1.92-7.11,4-10.59A18.15,18.15,0,0,1,146.85,81.18Z"/><g class="cls-29"><polygon class="cls-30" points="136.33 88.94 196.03 100.85 195.32 74.81 139.56 78.27 136.33 88.94"/><path class="cls-30" d="M181.91,157.65s.67,10.11-13.76,12.23c-17.92,2.63-43.77.16-46.47-6.94-1,11.91,10.82,19.35,13.17,20.35l41.41-1.17s5.65-5.41,6.36-5.41S181.91,157.65,181.91,157.65Z"/><g class="cls-31"><path class="cls-32" d="M160,104.18a6.84,6.84,0,0,0,3.23-.66,3.1,3.1,0,0,0,1.82-2.16,3.21,3.21,0,0,0-.31-1.68,4.51,4.51,0,0,0-.44-.77,1.87,1.87,0,0,0-.26-.3,1.65,1.65,0,0,1-.29-.3c-.19-.32.35-.08.45,0a3.66,3.66,0,0,1,.7.43A4.68,4.68,0,0,1,166,99.86a5,5,0,0,1-.43,5.85,7.53,7.53,0,0,1-2.16,1.85,7.74,7.74,0,0,1-1.49.68,5.05,5.05,0,0,1-1.64.29,2.41,2.41,0,0,1-2.19-2,2,2,0,0,1,1.16-2.24,1.86,1.86,0,0,1,.78-.13C161.05,104.21,159.84,104.17,160,104.18Z"/><path class="cls-33" d="M160.05,108.76a2.71,2.71,0,0,1-2.2-2.19,2.23,2.23,0,0,1,1.29-2.49,2.14,2.14,0,0,1,.86-.15h.14a6.39,6.39,0,0,0,3-.64,2.94,2.94,0,0,0,1.7-2,3,3,0,0,0-.28-1.54,4.24,4.24,0,0,0-.42-.72,2.41,2.41,0,0,0-.23-.27l-.08-.07a1.45,1.45,0,0,1-.25-.29.38.38,0,0,1,0-.39c0-.06.12-.15.33-.12a1.73,1.73,0,0,1,.44.14,4.59,4.59,0,0,1,.75.46,5,5,0,0,1,.71,7.36,7.93,7.93,0,0,1-2.22,1.91,8.37,8.37,0,0,1-1.54.7,5.32,5.32,0,0,1-1.72.3Zm0-4.33a1.82,1.82,0,0,0-.69.11,1.79,1.79,0,0,0-1,2,2.17,2.17,0,0,0,1.75,1.73l.19,0a4.74,4.74,0,0,0,1.57-.28,7.11,7.11,0,0,0,1.45-.66,7.23,7.23,0,0,0,2.1-1.8,4.78,4.78,0,0,0,.43-5.55,4.17,4.17,0,0,0-1-1.08,2.33,2.33,0,0,0-.38-.26l.09.12a4.27,4.27,0,0,1,.48.83,3.56,3.56,0,0,1,.33,1.82,3.4,3.4,0,0,1-1.94,2.32,6.71,6.71,0,0,1-2.87.69H160Z"/><path class="cls-33" d="M160.81,106.34h0a6.26,6.26,0,0,0,3.34-1.11,4.25,4.25,0,0,0,1.85-2.71,4.3,4.3,0,0,0-.21-2.14,4.24,4.24,0,0,0-1.51-1.85c-.13-.09.9.09,1.73,1.34a5,5,0,0,1-.43,5.84,7.41,7.41,0,0,1-2.16,1.86,8,8,0,0,1-1.49.68C161.46,108.41,160.53,106.33,160.81,106.34Z"/><path class="cls-34" d="M160.85,106.34h0Z"/><path class="cls-32" d="M149.48,102.74a8,8,0,0,1-3.15-1.53,4,4,0,0,1-1.64-2.63,3,3,0,0,1,.43-1.58,3.45,3.45,0,0,1,.5-.64,3.11,3.11,0,0,1,.28-.23,1.3,1.3,0,0,0,.31-.21c.21-.27-.34-.17-.44-.16A3.12,3.12,0,0,0,145,96a3.45,3.45,0,0,0-1.15.85c-1.41,1.56-1.11,4,0,5.9a10.12,10.12,0,0,0,2,2.42,9.93,9.93,0,0,0,1.43,1.08,6.08,6.08,0,0,0,1.6.73,1.91,1.91,0,0,0,2.32-1.37,2.42,2.42,0,0,0-1-2.53,2.17,2.17,0,0,0-.76-.34C148.46,102.49,149.67,102.78,149.48,102.74Z"/><path class="cls-33" d="M149.11,107.27h0l-.24,0a5.88,5.88,0,0,1-1.68-.76,10.8,10.8,0,0,1-3.52-3.6c-1.08-1.86-1.49-4.5,0-6.19a3.75,3.75,0,0,1,1.21-.9,3.29,3.29,0,0,1,.79-.25,1.6,1.6,0,0,1,.44,0,.38.38,0,0,1,.32.22.33.33,0,0,1-.07.37.86.86,0,0,1-.27.21l-.09,0a2,2,0,0,0-.24.21,2.77,2.77,0,0,0-.47.6,2.61,2.61,0,0,0-.4,1.44,3.88,3.88,0,0,0,1.54,2.43,7.78,7.78,0,0,0,2.92,1.45l.08,0h0a2.59,2.59,0,0,1,.85.38,2.71,2.71,0,0,1,1.09,2.82A2.12,2.12,0,0,1,149.11,107.27Zm-3.56-11.19a3.25,3.25,0,0,0-.4.15,3.2,3.2,0,0,0-1.08.8c-1.36,1.51-1,3.91,0,5.61A9.49,9.49,0,0,0,146,105a10.57,10.57,0,0,0,1.39,1.05,5.43,5.43,0,0,0,1.53.7l.19,0a1.69,1.69,0,0,0,1.86-1.24,2.15,2.15,0,0,0-.87-2.24,2,2,0,0,0-.67-.31h0l-.32-.08H149l-.06,0a8.36,8.36,0,0,1-2.79-1.46,4.46,4.46,0,0,1-1.74-2.82,3.12,3.12,0,0,1,.46-1.72,3.29,3.29,0,0,1,.54-.69Z"/><path class="cls-33" d="M148.59,104.67h0a7.69,7.69,0,0,1-3.22-2,5.34,5.34,0,0,1-1.62-3.19,3.77,3.77,0,0,1,.36-2A3.19,3.19,0,0,1,145.71,96c.13-.06-.9-.17-1.82.85-1.42,1.56-1.11,4,0,5.9a10.12,10.12,0,0,0,2,2.42,9.93,9.93,0,0,0,1.43,1.08C147.79,106.55,148.87,104.74,148.59,104.67Z"/><path class="cls-34" d="M148.55,104.66h0Z"/><path class="cls-32" d="M143.3,98.23a5.77,5.77,0,0,0,.26,2.84,8.94,8.94,0,0,0,1.59,2.69c.29.35.59.68.88,1a6.92,6.92,0,0,1-2.92-5.08A4.44,4.44,0,0,1,143.3,98.23Z"/><path class="cls-32" d="M166.48,101.39a5.07,5.07,0,0,1-2,5.06,5.83,5.83,0,0,1-1.16.67,7.22,7.22,0,0,0,3.14-4.26A5.54,5.54,0,0,0,166.48,101.39Z"/><path class="cls-35" d="M166.44,111.73a15,15,0,0,0-1.09-2.58,1.82,1.82,0,0,0-.14-.72,4.32,4.32,0,0,0-.5-.92l.37-.17s-.33-.72-.66-1.34a14.84,14.84,0,0,0-5.12-4.91,16.76,16.76,0,0,0-4-1.37h-.08l-.08,0a15.49,15.49,0,0,0-4.09.08,11.11,11.11,0,0,0-5.61,3.19c-.4.5-.81,1.1-.81,1.1l.33.28a3.07,3.07,0,0,0-.6.75,1.46,1.46,0,0,0-.22.66,11.73,11.73,0,0,0-1.39,2.18c-.39.26-.77.61-.79.94,0,.6.41,5.87,1,6.37s1.59,1.08,1.85,1a.51.51,0,0,0,.19-.13.8.8,0,0,0,1,.15,1,1,0,0,0,1.26-.48,7.57,7.57,0,0,0,0-3.08,19.59,19.59,0,0,0-.55-3.63.72.72,0,0,1,0-.14,1.09,1.09,0,0,0-.45-1.1.82.82,0,0,0-1,0v0a.44.44,0,0,0-.61,0c.07-.52.32-1.55.32-1.55a6.93,6.93,0,0,1,.34-.69c.12-.22.32-.5.43-.66a1,1,0,0,0,.67-.28l1.12-.94.73.17a12.32,12.32,0,0,1,3.7-2.26,7.81,7.81,0,0,1,3.22-.21,8.88,8.88,0,0,1,3.14,1.23,16.21,16.21,0,0,1,3.35,3.39l.74.07,1,1.27a1.36,1.36,0,0,0,.61.49c.09.19.25.53.35.79a7.72,7.72,0,0,1,.24.78s.12,1.09.13,1.62c-.34-.38-.6-.18-.6-.18v0a.88.88,0,0,0-1-.32c-.62.13-.57.93-.57.93l-.05.13a17.58,17.58,0,0,0-1,3.39,7.34,7.34,0,0,0-.39,3c.29.62.75,1,1.17.88a.84.84,0,0,0,1,.18.71.71,0,0,0,.16.18c.25.21,1.34,0,1.94-.34s1.65-5.35,1.7-5.95A2,2,0,0,0,166.44,111.73Zm-14.8-10.81a10.58,10.58,0,0,1,1.18-.15A10.58,10.58,0,0,0,151.64,100.92Zm1.26-.16h0Zm4.54.75a12.42,12.42,0,0,1,1.14.52A12.42,12.42,0,0,0,157.44,101.51Zm-.07,0,0,0Z"/><path class="cls-35" d="M161,103.71a12.88,12.88,0,0,0-5.8-2.88h-.08l-.08,0h0a10.93,10.93,0,0,0-6,1c-2.88,1.51-3.5,3-3.5,3a.89.89,0,0,0,.81-.26l1.12-.94.73.17a12.32,12.32,0,0,1,3.7-2.26,7.81,7.81,0,0,1,3.22-.21,8.88,8.88,0,0,1,3.14,1.23,16.21,16.21,0,0,1,3.35,3.39l.74.07,1,1.27a1.09,1.09,0,0,0,.77.52S163.67,106.11,161,103.71Z"/><path class="cls-32" d="M164.42,106a14.84,14.84,0,0,0-5.12-4.91,16.76,16.76,0,0,0-4-1.37h-.08l-.08,0a15.49,15.49,0,0,0-4.09.08,11.11,11.11,0,0,0-5.61,3.19c-.4.5-.81,1.1-.81,1.1l.91.76a9.94,9.94,0,0,1,3.64-3.06,10.59,10.59,0,0,1,6-.94,12.4,12.4,0,0,1,5.75,2.82,13.15,13.15,0,0,1,3.2,4.16l1-.46S164.75,106.62,164.42,106Z"/><path class="cls-35" d="M164.09,107.91h0a.13.13,0,0,1-.07-.08,13.2,13.2,0,0,0-3.17-4.11,12.23,12.23,0,0,0-5.67-2.79,10.51,10.51,0,0,0-5.91.94,10,10,0,0,0-3.6,3,.08.08,0,0,1-.08,0,.16.16,0,0,1-.09,0l-.91-.76a.12.12,0,0,1,0-.16s.42-.62.82-1.11A11.29,11.29,0,0,1,151,99.65a15.25,15.25,0,0,1,4.13-.07h.16a17.06,17.06,0,0,1,4,1.39,14.71,14.71,0,0,1,5.18,5c.33.61.66,1.34.67,1.34a.12.12,0,0,1-.05.15l-1,.46A.06.06,0,0,1,164.09,107.91Zm-8.93-7.21h0a12.56,12.56,0,0,1,5.81,2.86,13.88,13.88,0,0,1,3.18,4.08l.78-.36c-.11-.22-.36-.76-.62-1.23h0a14.51,14.51,0,0,0-5.05-4.86,17,17,0,0,0-4-1.36h-.15a15,15,0,0,0-4.06.07,11,11,0,0,0-5.54,3.16c-.31.38-.63.83-.75,1l.72.6a10.33,10.33,0,0,1,3.6-3,10.8,10.8,0,0,1,6-1Z"/><path class="cls-35" d="M145.31,104.28a11,11,0,0,1,3.46-2.86,11.76,11.76,0,0,1,5.17-1.08l0-.33a10.55,10.55,0,0,0-5.38,1.15,10.86,10.86,0,0,0-3.53,3Z"/><path class="cls-35" d="M147.23,103.3l.94.21a10.88,10.88,0,0,1,2.22-1.66,7.14,7.14,0,0,1,2.12-.73,6.69,6.69,0,0,0-2.59.6,8.91,8.91,0,0,0-1.66,1.13l-.48,0Z"/><path class="cls-32" d="M144.59,107.74a5.11,5.11,0,0,0-1-.16c-.38,0-1.6.69-1.63,1.29s.41,5.87,1,6.37,1.59,1.08,1.85,1,.23-.24.23-.24Z"/><path class="cls-33" d="M144.58,116.32a4.64,4.64,0,0,1-1.74-1c-.26-.23-.51-1.32-.73-3.22a31.63,31.63,0,0,1-.26-3.24c0-.68,1.3-1.39,1.73-1.39a4.43,4.43,0,0,1,1,.16.14.14,0,0,1,.1.12l.41,8.19c0,.07,0,.22-.29.36A.49.49,0,0,1,144.58,116.32Zm-.57-8.58a2,2,0,0,0-.4,0c-.34,0-1.5.67-1.53,1.19,0,.29.09,1.77.26,3.2.31,2.58.58,3,.65,3.07a3.58,3.58,0,0,0,1.72.93c.14-.07.17-.12.17-.13v0l-.4-8.11Zm.88,8.24Zm0,0Zm0,0Z"/><path class="cls-36" d="M144.59,107.74a.55.55,0,0,0-.56.52,42.48,42.48,0,0,0,0,4.48,12.78,12.78,0,0,0,.52,3.32c.19.21.34,0,.34,0Z"/><path class="cls-36" d="M142.65,112.86a5.46,5.46,0,0,0,.42,2.21,4.06,4.06,0,0,0,1.24.86,9.83,9.83,0,0,1-.34-1.8s-.11.8-.59.49S142.65,112.86,142.65,112.86Z"/><path class="cls-32" d="M145.2,107.75a.44.44,0,0,0-.61,0c-.38.27-.3,2.8-.23,4.43a15.57,15.57,0,0,0,.56,3.85.81.81,0,0,0,1.06.18Z"/><path class="cls-33" d="M145.42,116.43l-.07,0a.83.83,0,0,1-.53-.34,15.25,15.25,0,0,1-.58-3.91c-.1-2.52-.09-4.25.28-4.51a.55.55,0,0,1,.77,0,.11.11,0,0,1,0,.07l.78,8.45a.12.12,0,0,1,0,.1A.85.85,0,0,1,145.42,116.43Zm-.45-8.68a.37.37,0,0,0-.3.09c-.06,0-.21.29-.24,1.62,0,.84,0,1.84,0,2.71A15.52,15.52,0,0,0,145,116a.62.62,0,0,0,.36.22.7.7,0,0,0,.48,0l-.77-8.34A.33.33,0,0,0,145,107.75Z"/><path class="cls-37" d="M142.93,108.11a1.44,1.44,0,0,0-.74.71,1,1,0,0,1,.61-.18c.35,0-.15,2.57.36,2.82.9.43.75.26.75.26s-.07-2.28,0-2.84A3,3,0,0,1,144,108S143.39,108,142.93,108.11Z"/><path class="cls-36" d="M142.24,109.1s.49-.12.49.11a7.07,7.07,0,0,0,.27,2.67c.25.35,1.11.48,1.11.48a2.66,2.66,0,0,1-1.14-.18c-.39-.23-.51-1.07-.46-2.05S142.24,109.1,142.24,109.1Z"/><path class="cls-32" d="M143.77,108.16a.37.37,0,0,0-.29.31c0,.25.06,2.73.06,2.73l.22.08s-.14-2.35-.09-2.69A1.71,1.71,0,0,1,143.77,108.16Z"/><path class="cls-32" d="M142.75,107.94a11.39,11.39,0,0,1,1.39-2.19l.77.44s-.25,1-.32,1.55Z"/><path class="cls-33" d="M142.74,108.06a.16.16,0,0,1-.08-.06.11.11,0,0,1,0-.12,11.23,11.23,0,0,1,1.42-2.23.11.11,0,0,1,.13,0l.77.44a.14.14,0,0,1,.07.14s-.25,1-.32,1.54a.11.11,0,0,1-.09.09l-1.85.2Zm1.42-2.17a11,11,0,0,0-1.2,1.91l1.53-.16c.06-.45.23-1.15.29-1.4Z"/><path class="cls-33" d="M144.14,105.75a1.46,1.46,0,0,1,.22-.66,3.33,3.33,0,0,1,.71-.84l.7.47s-.34.46-.52.78a6.93,6.93,0,0,0-.34.69Z"/><path class="cls-36" d="M143.39,107.11a7.19,7.19,0,0,1,.79-1.17l.58.31a4.93,4.93,0,0,0-.22.7c-.07.33-.14.59-.14.59a5,5,0,0,1-.74.12s.61-.66.57-.89S143.73,106.8,143.39,107.11Z"/><path class="cls-32" d="M144.39,105.4a2.11,2.11,0,0,1,.72-1l.47.37a3.39,3.39,0,0,0-.75,1.21S144.89,105.14,144.39,105.4Z"/><path class="cls-32" d="M146.63,108.88a1.09,1.09,0,0,0-.45-1.1.83.83,0,0,0-1.31.67c0,.37.23,6.42.62,7.24s1.21.78,1.73,0S146.63,108.88,146.63,108.88Z"/><path class="cls-33" d="M146.18,116.4a1.09,1.09,0,0,1-.79-.67c-.42-.87-.66-7-.63-7.31a1.06,1.06,0,0,1,.54-.83,1,1,0,0,1,.93.09,1.19,1.19,0,0,1,.52,1.21c.13.72,1.1,6.16.57,6.91a1.21,1.21,0,0,1-1.14.6Zm-.4-8.64a.62.62,0,0,0-.36,0,.9.9,0,0,0-.43.67c0,.17,0,1.74.15,3.43a18.18,18.18,0,0,0,.46,3.75.83.83,0,0,0,.59.52h0a1,1,0,0,0,.92-.52c.41-.58-.3-5.08-.61-6.76v0s.11-.69-.38-1A.89.89,0,0,0,145.78,107.76Z"/><path class="cls-38" d="M145.43,114.44s.26,1,.56,1,.31-.47.31-.47.19.65.5.62.39-.42.39-.42a.89.89,0,0,1-.72.9C145.55,116.28,145.48,115,145.43,114.44Z"/><path class="cls-36" d="M145.47,114.83s-.31-3-.37-4.22a8.43,8.43,0,0,1,0-2.37c.15-.4.3-.46.53-.48a.45.45,0,0,1,.35.1.48.48,0,0,0-.64.43,1.85,1.85,0,0,0,0,.8l.43,0-.43.17.47.14-.46,0,.05.31.38.11-.42,0,.05.5.38,0-.32.19.4.15-.38,0,.39.23h-.39l.05.8.27-.09-.22.28.38.07-.38.19.46.27-.42,0v.33l.35,0-.32.27,0,.53.31.07-.31.16,0,.2.33.06-.32.31,0,.27.42-.12-.5.56S145.71,115.42,145.47,114.83Z"/><path class="cls-37" d="M146.09,108.06c-.32.1-.1,7.79.78,7.37S146.86,107.83,146.09,108.06Z"/><path class="cls-32" d="M164.66,111a4.59,4.59,0,0,1,1,.16c.37.13,1.48,1.19,1.44,1.78s-1.11,5.63-1.7,5.95-1.69.55-1.94.34-.19-.31-.19-.31Z"/><path class="cls-33" d="M163.64,119.37a.38.38,0,0,1-.25-.1c-.26-.22-.26-.37-.23-.43l1.38-7.91a.1.1,0,0,1,.11-.08,4.66,4.66,0,0,1,1,.16c.42.14,1.58,1.24,1.53,1.91,0,.3-.29,1.69-.65,3.1-.45,1.8-.82,2.78-1.11,2.93A3.74,3.74,0,0,1,163.64,119.37Zm-.26-.45a.53.53,0,0,0,.15.19,3,3,0,0,0,1.8-.37c.09,0,.4-.37,1-2.8a30.89,30.89,0,0,0,.64-3.06c0-.52-1-1.54-1.35-1.65a4.81,4.81,0,0,0-.87-.15l-1.37,7.83Zm0,0Zm0,0Zm0,0Z"/><path class="cls-36" d="M164.66,111a.7.7,0,0,1,.49.69,37.77,37.77,0,0,1-.58,4.38,11.39,11.39,0,0,1-.9,3.09c-.22.14-.33-.15-.33-.15Z"/><path class="cls-36" d="M166.08,116.45s-.37,1.83-.81,2.18a3.19,3.19,0,0,1-1.32.45,8.82,8.82,0,0,0,.55-1.66s0,.82.52.67S166.08,116.45,166.08,116.45Z"/><path class="cls-32" d="M164.06,110.78s.26-.2.6.18,0,2.84-.31,4.41a13.23,13.23,0,0,1-1,3.6.8.8,0,0,1-1.06-.15Z"/><path class="cls-33" d="M162.8,119.22a1,1,0,0,1-.61-.34.1.1,0,0,1,0-.1l1.79-8a.09.09,0,0,1,0-.06c.12-.09.43-.16.76.21s.13,2.07-.27,4.51a12.94,12.94,0,0,1-1,3.65.64.64,0,0,1-.56.17Zm-.4-.43a.77.77,0,0,0,.47.2.43.43,0,0,0,.37-.1,13.09,13.09,0,0,0,1-3.55c.14-.84.29-1.81.37-2.64.14-1.31,0-1.6,0-1.67-.2-.22-.34-.2-.4-.17Z"/><path class="cls-37" d="M166.24,111.85a1.93,1.93,0,0,1,.64.93,1.16,1.16,0,0,0-.58-.37c-.34-.08-.15,2.57-.68,2.65-.94.14-.78,0-.78,0s.35-2.21.39-2.76a3.6,3.6,0,0,0,0-.93S165.8,111.63,166.24,111.85Z"/><path class="cls-36" d="M166.8,113s-.46-.27-.49-.05-.17,2.15-.58,2.53-1.15.13-1.15.13a2.61,2.61,0,0,0,1.13.17c.41-.09.63-.88.7-1.86S166.8,113,166.8,113Z"/><path class="cls-32" d="M165.41,111.63a.46.46,0,0,1,.25.39c0,.26-.39,2.67-.39,2.67h-.22s.42-2.26.41-2.6A1.87,1.87,0,0,0,165.41,111.63Z"/><path class="cls-32" d="M166.44,111.74a14.83,14.83,0,0,0-1.09-2.59l-.82.19s.12,1.09.13,1.62Z"/><path class="cls-33" d="M166.44,111.86h0l-1.78-.78a.13.13,0,0,1-.08-.12c0-.52-.12-1.6-.12-1.61a.1.1,0,0,1,.08-.12l.81-.19a.12.12,0,0,1,.12,0,14.05,14.05,0,0,1,1.13,2.64.11.11,0,0,1,0,.11A.16.16,0,0,1,166.44,111.86Zm-1.66-1,1.47.65a14.71,14.71,0,0,0-.94-2.26l-.65.15C164.69,109.69,164.76,110.43,164.78,110.89Z"/><path class="cls-33" d="M165.35,109.15a1.82,1.82,0,0,0-.14-.72,4.62,4.62,0,0,0-.6-1.05l-.74.24s.28.56.42.94a7.72,7.72,0,0,1,.24.78Z"/><path class="cls-36" d="M165.91,110.72a9.68,9.68,0,0,0-.63-1.4l-.6.13a5.64,5.64,0,0,1,.13.75c0,.35.07.63.07.63a5.06,5.06,0,0,0,.7.34s-.52-.83-.45-1S165.62,110.31,165.91,110.72Z"/><path class="cls-32" d="M165.14,108.73a2.69,2.69,0,0,0-.59-1.2l-.5.21a4.48,4.48,0,0,1,.59,1.43S164.69,108.32,165.14,108.73Z"/><path class="cls-32" d="M162.53,111.43s-.05-.8.57-.93a1,1,0,0,1,1.2,1.06c0,.38-1,6.23-1.48,6.91s-1.28.38-1.7-.52S162.53,111.43,162.53,111.43Z"/><path class="cls-33" d="M162.06,119h0a1.56,1.56,0,0,1-1-1c-.43-.9,1.18-5.93,1.4-6.59,0-.14,0-.88.65-1a1,1,0,0,1,.92.21,1.31,1.31,0,0,1,.44,1c0,.31-1,6.24-1.5,7A.88.88,0,0,1,162.06,119Zm1.43-8.35a.88.88,0,0,0-.36,0c-.52.11-.48.82-.48.82s0,0,0,0c-.51,1.56-1.75,5.74-1.42,6.45a1.31,1.31,0,0,0,.85.8h0a.65.65,0,0,0,.65-.33,16.16,16.16,0,0,0,.9-3.52c.31-1.63.55-3.15.56-3.33a1.07,1.07,0,0,0-.34-.78A.66.66,0,0,0,163.49,110.6Z"/><path class="cls-38" d="M163,117.26s-.38.91-.67.79-.25-.55-.25-.55-.27.57-.56.44-.34-.53-.34-.53a1.12,1.12,0,0,0,.6,1.11C162.68,119,162.91,117.84,163,117.26Z"/><path class="cls-36" d="M162.94,117.63s.68-2.89.87-4a8.17,8.17,0,0,0,.29-2.32c-.09-.44-.24-.55-.46-.64a.4.4,0,0,0-.35,0,.59.59,0,0,1,.57.62,1.7,1.7,0,0,1-.06.8l-.42-.11.4.3h-.48l.45.18-.08.28h-.39l.4.17-.1.47-.37-.16.29.29-.41,0,.37.16-.41.1.37.12-.14.77-.25-.18.18.35-.38,0,.35.31-.49.11.42.1,0,.33-.35-.08.28.36-.09.52-.31,0,.28.25,0,.2-.33-.06.28.41-.07.26-.39-.25.42.71S162.64,118.13,162.94,117.63Z"/><path class="cls-37" d="M163.15,110.8c.31.2-.84,7.66-1.65,7S162.43,110.32,163.15,110.8Z"/><path class="cls-35" d="M164.39,107.34a14.9,14.9,0,0,0-3-3.91,14.1,14.1,0,0,0-4.94-2.69l0-.34a12.56,12.56,0,0,1,5.14,2.85,14.42,14.42,0,0,1,3.1,4Z"/><path class="cls-35" d="M162.63,105.77l-.95-.1a14.9,14.9,0,0,0-2-2.33,9,9,0,0,0-2-1.38,8.11,8.11,0,0,1,2.46,1.4,11.16,11.16,0,0,1,1.49,1.64l.47.19Z"/><path class="cls-33" d="M146.48,111c-.24,1.36-1.82,2.07-2.42,2.4a4.51,4.51,0,0,0,1,.32s-1,3.76-3.11,5a2.71,2.71,0,0,0,1.74.2c-.66,2.48.7,4.71-.65,7.06a3.06,3.06,0,0,0,2.24-1.43,7.08,7.08,0,0,1-.08,4.61,4.41,4.41,0,0,0,2.59-1.57c0,1.15,1.72,3.53,1.55,5.16a3.58,3.58,0,0,0,1.43-1.51c.83,2.12,1.79,2.58,2,5.5,1.59-1.38,3.06-2.15,4-5.49a11.72,11.72,0,0,0,1.11,1.4,5.36,5.36,0,0,0,1.59-3.47,3.42,3.42,0,0,1,1,2,6.77,6.77,0,0,0,2.14-4.76,2.55,2.55,0,0,0,1.85,1.17c-1.1-1.73,1-4,.36-6.8a2.09,2.09,0,0,0,1.45-.32,9.8,9.8,0,0,1-3.42-4.69c1.18.17,1.15.07,1.11.06a14,14,0,0,1-1.64-2.11c-.28-.53-7.9-5.78-7.9-5.78Z"/><path class="cls-32" d="M145.2,116.32a3.49,3.49,0,0,0,.35,1.76,6.78,6.78,0,0,0-1.12,2.54A11.72,11.72,0,0,1,145.2,116.32Z"/><path class="cls-32" d="M163.36,118.8a3.14,3.14,0,0,1-.48,1.65,8.21,8.21,0,0,1,.92,2.81A10.09,10.09,0,0,0,163.36,118.8Z"/><path class="cls-32" d="M146.15,121.71c0,.45-.07.89-.08,1.35a10.72,10.72,0,0,0,.15,1.69,17.16,17.16,0,0,1,.25,1.73,2.79,2.79,0,0,1-.27,1.32,3.89,3.89,0,0,0,.09-1.32c-.06-.57-.21-1.14-.3-1.71A6.84,6.84,0,0,1,146.15,121.71Z"/><path class="cls-32" d="M148.62,124.65a14.65,14.65,0,0,0,.06,1.48,11.52,11.52,0,0,0,.41,1.83,14.13,14.13,0,0,1,.84,3.28c-.15-.49-.31-1-.49-1.44-.24-.62-.49-1.23-.68-1.85A6.3,6.3,0,0,1,148.62,124.65Z"/><path class="cls-32" d="M151.36,125.52c-.06.47-.14.94-.17,1.42a7.53,7.53,0,0,0,.17,1.88,32,32,0,0,0,1.28,3.59,4.94,4.94,0,0,1,.31,1.73,9.39,9.39,0,0,0-.52-1.46c-.29-.61-.62-1.2-.88-1.81a7.09,7.09,0,0,1-.68-3.73A5.54,5.54,0,0,1,151.36,125.52Z"/><path class="cls-32" d="M161.94,123.66a6.94,6.94,0,0,1,0,3.14,5.53,5.53,0,0,1-1.2,2.71,8.86,8.86,0,0,0,1-2.84A12.67,12.67,0,0,0,162,125,12.53,12.53,0,0,0,161.94,123.66Z"/><path class="cls-32" d="M159.1,125.61a6.26,6.26,0,0,1-.06,2.92,6.82,6.82,0,0,1-1.14,2.56c.3-.86.6-1.72.82-2.61A15.35,15.35,0,0,0,159.1,125.61Z"/><path class="cls-32" d="M156.46,126.22a7.24,7.24,0,0,1,.19,3.39,9.27,9.27,0,0,1-1.48,3.42c-.29.44-.6.88-.93,1.29.38-1,.89-1.92,1.3-2.9a10.84,10.84,0,0,0,.91-3.48C156.49,127.37,156.46,126.79,156.46,126.22Z"/><path class="cls-34" d="M148.66,104.53h0Z"/><path class="cls-32" d="M161.8,108.45a15.62,15.62,0,0,0-1.85-3.84c-.21-.3-.19-.52.26-.76a.67.67,0,0,1,.88.2,12.86,12.86,0,0,1,1.88,3.78.63.63,0,0,1-.4.77C162.16,108.76,161.88,108.72,161.8,108.45Z"/><path class="cls-33" d="M162.07,108.94a.61.61,0,0,1-.5-.43,15,15,0,0,0-1.8-3.76.78.78,0,0,1-.18-.58,1,1,0,0,1,1-.64.94.94,0,0,1,.63.38,13,13,0,0,1,1.93,3.87.86.86,0,0,1-.53,1A1.28,1.28,0,0,1,162.07,108.94ZM160.62,104a.5.5,0,0,0-.29,0c-.23.13-.26.21-.27.23a.42.42,0,0,0,.08.18,15.53,15.53,0,0,1,1.89,3.91s0,0,.06,0a.67.67,0,0,0,.37-.08.4.4,0,0,0,.28-.48,12.39,12.39,0,0,0-1.84-3.69A.41.41,0,0,0,160.62,104Z"/><path class="cls-32" d="M147.4,106.52a12.12,12.12,0,0,1,2.12-3.29c.23-.24.23-.47-.2-.83a.65.65,0,0,0-.88,0,9.88,9.88,0,0,0-2.15,3.23.75.75,0,0,0,.34.87C147,106.74,147.3,106.77,147.4,106.52Z"/><path class="cls-33" d="M147.09,106.93h0a1.29,1.29,0,0,1-.58-.27,1,1,0,0,1-.44-1.18,10,10,0,0,1,2.2-3.31.73.73,0,0,1,.65-.2,1.06,1.06,0,0,1,.55.25,1.14,1.14,0,0,1,.44.67.62.62,0,0,1-.22.52,12.38,12.38,0,0,0-2.07,3.23A.46.46,0,0,1,147.09,106.93Zm1.81-4.47a.36.36,0,0,0-.29.09,9.74,9.74,0,0,0-2.09,3.15.49.49,0,0,0,.23.56,1,1,0,0,0,.36.18h0s.06,0,.07,0a12.54,12.54,0,0,1,2.16-3.37c.06-.06.1-.12.09-.15s0-.11-.25-.3A.52.52,0,0,0,148.9,102.46Z"/><path class="cls-32" d="M154.48,110.54a33.48,33.48,0,0,1,8,2.07c0-.15,0-.29,0-.44.22-5.6-4.15-11.12-7.66-11.59s-8.24,3.79-8.45,9.4c0,.14,0,.29,0,.43A32,32,0,0,1,154.48,110.54Z"/><path class="cls-33" d="M146.39,110.66a.27.27,0,0,1-.14-.07.25.25,0,0,1-.09-.2v-.45c.22-5.68,5.05-10.11,8.71-9.61s8.11,6.19,7.89,11.87c0,.15,0,.3,0,.45a.27.27,0,0,1-.11.18.23.23,0,0,1-.2,0,34.34,34.34,0,0,0-8-2.06,32,32,0,0,0-8-.12Zm8.46-9.84c-3.44-.47-8,3.76-8.2,9.19a.49.49,0,0,0,0,.12,32.51,32.51,0,0,1,7.85.16,34.87,34.87,0,0,1,7.79,2v-.12C162.49,106.72,158.3,101.29,154.85,100.82Z"/><path class="cls-33" d="M153.52,100.86c-2.19-.57-6.93,4.18-7.11,9.12,0,.14,0,.29,0,.43,1.06-.13,5.08.3,5.35-1.16-.42-.33-1.62-.76-1.95-1.66a4.24,4.24,0,0,1-.08-2C150,103.63,151.93,101.29,153.52,100.86Z"/><path class="cls-33" d="M156.22,101.23c2.22,0,6.54,6,6.35,11,0,.15,0,.29,0,.44-1-.42-5.06-1.09-5.22-2.61.45-.21,1.67-.31,2.06-1.11a4,4,0,0,0,.23-2A8.54,8.54,0,0,0,156.22,101.23Z"/><polygon class="cls-32" points="155.93 114.57 154.3 116.23 152.75 114.14 153.1 111.34 155.8 111.71 155.93 114.57"/><path d="M154.29,116.6l-1.79-2.41.39-3.12,3.14.43.14,3.19ZM153,114.09l1.31,1.76,1.37-1.39-.11-2.53-2.26-.31Z"/><path class="cls-32" d="M162.47,111.28a28.25,28.25,0,0,0-6.31-2l-.24-8.77c0-.41-.5-.74-1-.81s-1,.19-1.08.53l-.9,8.62a25.34,25.34,0,0,0-6.35.23s-.66,0-.62,1.28c0,1.06.59,1.19.59,1.19a25.81,25.81,0,0,1,7.93-.08,28.12,28.12,0,0,1,7.84,2.23s.54.06.64-1.11S162.47,111.28,162.47,111.28Z"/><path class="cls-33" d="M146.55,111.82h-.05s-.76-.21-.79-1.46.66-1.49.8-1.5a25.71,25.71,0,0,1,6.19-.26l.88-8.4a1.12,1.12,0,0,1,1.33-.72c.59.08,1.24.48,1.25,1.07l.24,8.55a29.4,29.4,0,0,1,6.15,2,1.54,1.54,0,0,1,.64,1.6c-.12,1.36-.81,1.32-.88,1.31h0l0,0a27.55,27.55,0,0,0-7.77-2.21,25.49,25.49,0,0,0-7.86.08Zm7.93-.59a28.11,28.11,0,0,1,7.85,2.23c.08,0,.32-.16.38-.9s-.28-1-.33-1.06a28.68,28.68,0,0,0-6.24-2l-.21,0-.25-9c0-.24-.37-.49-.79-.55s-.8.16-.83.34l-.93,8.82-.21,0a25.52,25.52,0,0,0-6.29.24h0s-.43,0-.4,1c0,.67.26.87.35.92A26,26,0,0,1,154.48,111.23Z"/><path class="cls-32" d="M152.5,114.2a4.57,4.57,0,0,0-.52,0,2.89,2.89,0,0,0-.91.36,2.37,2.37,0,0,0-.83.89,2.93,2.93,0,0,1,.4-1.47,2,2,0,0,1,.31-.39l-.06,0h0a2.24,2.24,0,0,0-1.63.29,4.06,4.06,0,0,1-.14-.94,3.32,3.32,0,0,0-1.43,1,5.51,5.51,0,0,1-.09-2.3h0a6,6,0,0,0,0,4,4.26,4.26,0,0,1,1-1.63,7.37,7.37,0,0,0,.31,1.29,2.16,2.16,0,0,1,.84-.88,5.35,5.35,0,0,0,0,2.79,3.76,3.76,0,0,1,2.54-2.26,3.69,3.69,0,0,0-.3.85,2.56,2.56,0,0,1,1.48-.27Z"/><path class="cls-32" d="M161,115.78a4.09,4.09,0,0,0-1.29-1.36,4,4,0,0,1-.2.89,2.69,2.69,0,0,0-1.6-.73h-.06a2.78,2.78,0,0,1,.28.47,3.37,3.37,0,0,1,.29,1.56,3.39,3.39,0,0,0-.76-1.1,4,4,0,0,0-.88-.6,3.38,3.38,0,0,0-.63-.23h0l-1,1.07a3.14,3.14,0,0,1,1.42.66,4.59,4.59,0,0,0-.24-.92,5,5,0,0,1,2.35,2.93,5.32,5.32,0,0,0,.26-2.75,3,3,0,0,1,.76,1.1,7.2,7.2,0,0,0,.4-1.19,5.3,5.3,0,0,1,.87,1.87,5.78,5.78,0,0,0,.36-3.66A5,5,0,0,1,161,115.78Z"/><path class="cls-32" d="M161,115.78a4.09,4.09,0,0,0-1.29-1.36,4,4,0,0,1-.2.89,2.8,2.8,0,0,0-1.66-.73,2.78,2.78,0,0,1,.28.47,3.37,3.37,0,0,1,.29,1.56,3.39,3.39,0,0,0-.76-1.1,4,4,0,0,0-.88-.6,3.38,3.38,0,0,0-.63-.23h0l-1,1.07a3.14,3.14,0,0,1,1.42.66,4.59,4.59,0,0,0-.24-.92,5,5,0,0,1,2.35,2.93,5.32,5.32,0,0,0,.26-2.75,3,3,0,0,1,.76,1.1,7.2,7.2,0,0,0,.4-1.19,5.3,5.3,0,0,1,.87,1.87,5.78,5.78,0,0,0,.36-3.66A5,5,0,0,1,161,115.78Z"/><path class="cls-39" d="M146.68,110.27a2.34,2.34,0,0,1,.23-1.23l-.34,0s-.66,0-.62,1.28c0,1.06.59,1.19.59,1.19l.46-.07A1.93,1.93,0,0,1,146.68,110.27Z"/><path class="cls-39" d="M162.47,111.28l-.4-.18a2.31,2.31,0,0,1,.16,1.19,1.89,1.89,0,0,1-.38,1.23l.46.19s.54.06.64-1.11S162.47,111.28,162.47,111.28Z"/><polygon class="cls-33" points="154.41 112.53 154.29 111.6 154.61 111.64 154.41 112.53"/><polygon class="cls-33" points="154.85 112.59 154.73 111.66 155.05 111.7 154.85 112.59"/><polygon class="cls-33" points="155.27 112.65 155.15 111.71 155.47 111.76 155.27 112.65"/><polygon class="cls-33" points="154.02 112.48 154.21 111.58 153.88 111.54 154.02 112.48"/><polygon class="cls-33" points="153.6 112.42 153.78 111.53 153.47 111.48 153.6 112.42"/><polygon class="cls-33" points="154.55 113.9 154.31 116.05 154.23 113.86 154.55 113.9"/><polygon class="cls-33" points="152.97 108.62 154.14 109.23 152.86 109.09 152.97 108.62"/><polygon class="cls-33" points="156.16 109.54 154.89 109.33 156.1 109.05 156.16 109.54"/><path class="cls-33" d="M148.26,111.23c-.55-.3-.89-1.15-.09-2.35-.63.06-1,.11-1.6.21,0,0-.66,0-.62,1.28,0,1.06.59,1.19.59,1.19.57-.09,1.15-.17,1.75-.23C148.29,111.29,148.28,111.24,148.26,111.23Z"/><polygon class="cls-33" points="152.94 108.48 151.67 108.12 152.9 107.85 152.94 108.48"/><polygon class="cls-33" points="153.03 107.78 151.79 107.45 152.99 107.15 153.03 107.78"/><polygon class="cls-33" points="153.13 107.08 151.91 106.77 153.07 106.45 153.13 107.08"/><polygon class="cls-33" points="153.23 106.37 152.03 106.1 153.15 105.74 153.23 106.37"/><polygon class="cls-33" points="153.32 105.67 152.16 105.42 153.23 105.04 153.32 105.67"/><polygon class="cls-33" points="153.42 104.96 152.28 104.75 153.31 104.34 153.42 104.96"/><polygon class="cls-33" points="153.52 104.26 152.41 104.08 153.39 103.63 153.52 104.26"/><polygon class="cls-33" points="153.62 103.56 152.53 103.4 153.47 102.93 153.62 103.56"/><polygon class="cls-33" points="153.72 102.85 152.65 102.73 153.55 102.23 153.72 102.85"/><polygon class="cls-33" points="153.82 102.14 152.78 102.05 153.63 101.53 153.82 102.14"/><polygon class="cls-33" points="153.92 101.44 152.9 101.38 153.71 100.83 153.92 101.44"/><polygon class="cls-33" points="156.3 108.32 157.5 108.92 156.21 108.93 156.3 108.32"/><polygon class="cls-33" points="156.27 107.6 157.43 108.22 156.17 108.21 156.27 107.6"/><polygon class="cls-33" points="156.24 106.88 157.36 107.52 156.13 107.48 156.24 106.88"/><polygon class="cls-33" points="156.21 106.16 157.29 106.81 156.09 106.76 156.21 106.16"/><polygon class="cls-33" points="156.18 105.44 157.22 106.11 156.04 106.04 156.18 105.44"/><polygon class="cls-33" points="156.16 104.72 157.15 105.41 156 105.31 156.16 104.72"/><polygon class="cls-33" points="156.13 104.01 157.07 104.71 155.96 104.59 156.13 104.01"/><polygon class="cls-33" points="156.1 103.29 157 104.01 155.91 103.87 156.1 103.29"/><polygon class="cls-33" points="156.08 102.57 156.93 103.31 155.87 103.14 156.08 102.57"/><polygon class="cls-33" points="156.05 101.86 156.86 102.61 155.82 102.42 156.05 101.86"/><polygon class="cls-33" points="156.03 101.14 156.79 101.91 155.78 101.69 156.03 101.14"/><path class="cls-33" d="M146.77,104.69a6.62,6.62,0,0,0-.48.9.75.75,0,0,0,.34.87c.39.28.67.31.77.06a8.39,8.39,0,0,1,.52-1A1.21,1.21,0,0,1,146.77,104.69Z"/><path class="cls-33" d="M160.64,112.91c.57-.15,1-.89.27-2.29.62.22,1,.38,1.57.64,0,0,.65.19.52,1.43-.11,1-.68,1-.68,1-.56-.26-1.13-.49-1.71-.71C160.61,113,160.62,112.92,160.64,112.91Z"/><path class="cls-33" d="M162.61,106.85a6.68,6.68,0,0,1,.4,1,.63.63,0,0,1-.4.77c-.4.17-.68.12-.76-.15a9.67,9.67,0,0,0-.44-1.17C162,107.42,162.49,107.24,162.61,106.85Z"/><path class="cls-32" d="M151.29,101.77a13.2,13.2,0,0,0-1.95,2.07,13,13,0,0,0-1.57,2.77c-.2.47-.35,1-.52,1.43a9.44,9.44,0,0,1,2.85-5.38A6.48,6.48,0,0,1,151.29,101.77Z"/><path class="cls-32" d="M161.91,110.11a20.26,20.26,0,0,0-.84-2.79,16.56,16.56,0,0,0-1.55-3c-.27-.43-.58-.84-.88-1.25a11.47,11.47,0,0,1,3.05,5.58A10.79,10.79,0,0,1,161.91,110.11Z"/><path class="cls-32" d="M146.53,109.33a5.09,5.09,0,0,0,.08,1.86,1.11,1.11,0,0,1-.39-1A1.26,1.26,0,0,1,146.53,109.33Z"/><path class="cls-32" d="M162.48,111.53a1.46,1.46,0,0,1,.23,1c0,.31-.14.74-.45.83A5.71,5.71,0,0,0,162.48,111.53Z"/><path class="cls-32" d="M152.16,112.78c.48,0,.31-.47.21-.56-.42-.39-1.18-.2-1.8-.33a6.66,6.66,0,0,1-.9-.26,1.52,1.52,0,0,0,.71.73A3.54,3.54,0,0,0,152.16,112.78Z"/><path class="cls-32" d="M156.65,113.39c-.48-.17-.27-.55-.17-.61.45-.27,1.19.13,1.81.16a5.51,5.51,0,0,0,.91,0,1.21,1.21,0,0,1-.76.53A3.41,3.41,0,0,1,156.65,113.39Z"/><path class="cls-32" d="M162.28,123.31c.41.77.55,1.55.93,2.34-.16-.92-.08-1.82-.3-2.74a8.91,8.91,0,0,0-1.13-2.57,6.82,6.82,0,0,0,.5-4c-.34,2.24-1.16,3.3-1.86,3.54a4.84,4.84,0,0,1-.25-1.72,3.65,3.65,0,0,0-.41,2.36c0,1.34.68,1.86.53,4.1a20,20,0,0,1-1.48-3.59,5.63,5.63,0,0,0-2.25-3.59c-1.05-.68-1.79-.68-1.92.08-.16,1,1,.78,1.87,1.43a3.63,3.63,0,0,1,1.4,3.19c-.54-1.78-1.54-2.62-2.41-2.8a2.68,2.68,0,0,1,.68,2.11,2.39,2.39,0,0,0-2-1.73,1.89,1.89,0,0,0-2.1,1.18,2.27,2.27,0,0,1,.84-1.91c-.89-.06-1.94.5-2.61,2.12a2.92,2.92,0,0,1,1.64-2.78c.95-.4,2,.09,1.95-.91-.07-.79-.8-1-1.89-.6a4.33,4.33,0,0,0-2.5,2.94A16.75,16.75,0,0,1,147.8,123c0-2.26.69-2.6.83-3.91a4,4,0,0,0-.23-2.46,4.64,4.64,0,0,1-.37,1.64c-.68-.43-1.62-1.72-1.78-4a7.05,7.05,0,0,0,.39,4.1,7.07,7.07,0,0,0-1.31,2.24c-.29.84-.27,1.77-.5,2.64.43-.68.63-1.43,1.09-2.08a5.52,5.52,0,0,1,1.39-1.34,9.58,9.58,0,0,0-.3,6.34c.71-1.23,1.64-3,2.57-3.47a15,15,0,0,0,.34,5.54c.68-4.21,2.9-5.76,2.9-5.76a9.35,9.35,0,0,0-.88,3.41c-.33,4.24,1,4.45,1.67,7.72a10.79,10.79,0,0,0,2.24-5.71,10.06,10.06,0,0,0-.49-5.08s2,2,2.43,6.49a14.31,14.31,0,0,0,.76-5.39c.88.75,1.66,2.72,2.28,4.13a9.52,9.52,0,0,0,.18-6.35A7.12,7.12,0,0,1,162.28,123.31Zm-11.11-.88-.54,1c-.14.25-.26.51-.42.74a3.11,3.11,0,0,1,.4-1.9c.16-.3.35-.58.53-.87s.26-.54.39-.82A2.47,2.47,0,0,1,151.17,122.43Zm3.29,4.35c-.1.74-.16,1.47-.21,2.22s-.06,1.32-.16,2a8.24,8.24,0,0,1-.9-3.74,17.25,17.25,0,0,1,.21-2.28c.11-.71.19-1.44.27-2.16a18.79,18.79,0,0,1,.25-2,9,9,0,0,1,.76,3.76A18.14,18.14,0,0,1,154.46,126.78Zm3.38-1.6a9,9,0,0,1-.36-.85c-.16-.37-.32-.73-.47-1.11a2.73,2.73,0,0,1-.22-2c.11.31.2.61.33.91s.32.67.46,1A3.53,3.53,0,0,1,157.84,125.18Z"/><ellipse class="cls-33" cx="154.65" cy="106.97" rx="0.32" ry="0.43" transform="translate(11.85 229.32) rotate(-75.26)"/><path class="cls-33" d="M155,109.92c0,.14-.18.23-.4.2s-.38-.17-.37-.31.18-.23.39-.2S155,109.78,155,109.92Z"/><path class="cls-33" d="M154.75,113c0,.12-.15.19-.33.17s-.32-.14-.31-.26.15-.19.33-.17S154.76,112.92,154.75,113Z"/><path class="cls-33" d="M151.88,109.75c0,.09-.13.15-.28.13s-.27-.11-.27-.2.13-.16.28-.14S151.88,109.65,151.88,109.75Z"/><ellipse class="cls-33" cx="149.24" cy="109.72" rx="0.15" ry="0.25" transform="translate(12.86 235.06) rotate(-78.91)"/><path class="cls-33" d="M157.17,110.47c0,.1.11.19.26.21s.28,0,.28-.14-.11-.18-.26-.2S157.17,110.38,157.17,110.47Z"/><ellipse class="cls-33" cx="159.78" cy="111.15" rx="0.15" ry="0.25" transform="translate(19.97 246.57) rotate(-78.91)"/><ellipse class="cls-33" cx="154.74" cy="104.68" rx="0.25" ry="0.35" transform="translate(15.16 228.86) rotate(-75.74)"/><ellipse class="cls-33" cx="154.82" cy="102.51" rx="0.18" ry="0.25" transform="translate(17.96 227.99) rotate(-76.03)"/><path class="cls-34" d="M155.07,100.72c0,.07-.08.12-.19.11s-.18-.09-.17-.16.08-.13.19-.12S155.08,100.64,155.07,100.72Z"/><path class="cls-32" d="M154.88,100.89c-.19,0-.28-.22-.28-.2a.17.17,0,0,0,0,.12.34.34,0,0,0,.32.31.27.27,0,0,0,.35-.22.23.23,0,0,0,0-.14A.36.36,0,0,1,154.88,100.89Z"/><path class="cls-33" d="M155.26,106.92a.77.77,0,0,1-.67,1.32,1,1,0,0,1-.75-.6.7.7,0,0,1,.2-.86.8.8,0,0,0,.6,1h0C155.09,107.81,155.34,107.35,155.26,106.92Z"/><path class="cls-33" d="M155.11,109.87a.67.67,0,0,1-.59,1.12c-.55-.08-1-.88-.5-1.25a.7.7,0,0,0,.55.93A.58.58,0,0,0,155.11,109.87Z"/><path class="cls-33" d="M152,109.72a.51.51,0,0,1-.45.88c-.41-.06-.79-.73-.37-1a.53.53,0,0,0,.43.66A.44.44,0,0,0,152,109.72Z"/><path class="cls-33" d="M149.57,109.94a.42.42,0,0,1,0,.49.5.5,0,0,1-.63.09c-.34-.2-.47-.89,0-.94a.47.47,0,0,0,.1.63A.38.38,0,0,0,149.57,109.94Z"/><path class="cls-33" d="M157,110.4a.52.52,0,0,0,.35.66c.31.07.51-.23.46-.53.41.37,0,.92-.43.87a.66.66,0,0,1-.54-.44A.47.47,0,0,1,157,110.4Z"/><path class="cls-33" d="M159.44,111.28c0,.27.28.53.55.43a.42.42,0,0,0,.15-.59c.46.17.28.82-.08.92a.55.55,0,0,1-.61-.26A.44.44,0,0,1,159.44,111.28Z"/><path class="cls-33" d="M154.94,113a.64.64,0,0,1-.57,1.08c-.52-.09-.93-.85-.46-1.2a.67.67,0,0,0,.52.88A.56.56,0,0,0,154.94,113Z"/><path class="cls-33" d="M155.24,104.69a.65.65,0,0,1,.14.74.63.63,0,0,1-.69.35.8.8,0,0,1-.6-.46.59.59,0,0,1,.15-.75.64.64,0,0,0,.49.8h0C155.1,105.41,155.3,105.05,155.24,104.69Z"/><path class="cls-33" d="M155.19,102.49a.46.46,0,0,1-.4.8c-.38-.05-.74-.67-.33-.89a.47.47,0,0,0,.33.56C155.07,103,155.22,102.74,155.19,102.49Z"/><path class="cls-33" d="M155.18,100.76a.37.37,0,0,1,.12.44.4.4,0,0,1-.44.24c-.32,0-.63-.59-.26-.75,0,.21.13.46.36.42A.31.31,0,0,0,155.18,100.76Z"/><path class="cls-33" d="M164.71,107.51l.37-.17s-.33-.72-.66-1.34a14.84,14.84,0,0,0-5.12-4.91,16.76,16.76,0,0,0-4-1.37h-.08l-.08,0a15.49,15.49,0,0,0-4.09.08,11.11,11.11,0,0,0-5.61,3.19c-.4.5-.81,1.1-.81,1.1l.33.28c-.15.15.61.66.72.5a1,1,0,0,0,.67-.28l1.12-.94.73.17a12.32,12.32,0,0,1,3.7-2.26,7.81,7.81,0,0,1,3.22-.21,8.88,8.88,0,0,1,3.14,1.23,16.21,16.21,0,0,1,3.35,3.39l.74.07,1,1.27a1.36,1.36,0,0,0,.61.49C164,108,164.45,107.68,164.71,107.51Zm-13.07-6.59a10.58,10.58,0,0,1,1.18-.15A10.58,10.58,0,0,0,151.64,100.92Zm1.26-.16h0Zm4.54.75a12.42,12.42,0,0,1,1.14.52A12.42,12.42,0,0,0,157.44,101.51Zm-.07,0,0,0Z"/><path class="cls-32" d="M164.42,106a14.84,14.84,0,0,0-5.12-4.91,16.76,16.76,0,0,0-4-1.37h-.08l-.08,0a15.49,15.49,0,0,0-4.09.08,11.11,11.11,0,0,0-5.61,3.19c-.4.5-.81,1.1-.81,1.1l.91.76a9.94,9.94,0,0,1,3.64-3.06,10.59,10.59,0,0,1,6-.94,12.4,12.4,0,0,1,5.75,2.82,13.15,13.15,0,0,1,3.2,4.16l1-.46S164.75,106.62,164.42,106Z"/><path class="cls-33" d="M164.09,107.91h0a.13.13,0,0,1-.07-.08,13.2,13.2,0,0,0-3.17-4.11,12.23,12.23,0,0,0-5.67-2.79,10.51,10.51,0,0,0-5.91.94,10,10,0,0,0-3.6,3,.08.08,0,0,1-.08,0,.16.16,0,0,1-.09,0l-.91-.76a.12.12,0,0,1,0-.16s.42-.62.82-1.11A11.29,11.29,0,0,1,151,99.65a15.25,15.25,0,0,1,4.13-.07h.16a17.06,17.06,0,0,1,4,1.39,14.71,14.71,0,0,1,5.18,5c.33.61.66,1.34.67,1.34a.12.12,0,0,1-.05.15l-1,.46A.06.06,0,0,1,164.09,107.91Zm-8.93-7.21h0a12.56,12.56,0,0,1,5.81,2.86,13.88,13.88,0,0,1,3.18,4.08l.78-.36c-.11-.22-.36-.76-.62-1.23h0a14.51,14.51,0,0,0-5.05-4.86,17,17,0,0,0-4-1.36h-.15a15,15,0,0,0-4.06.07,11,11,0,0,0-5.54,3.16c-.31.38-.63.83-.75,1l.72.6a10.33,10.33,0,0,1,3.6-3,10.8,10.8,0,0,1,6-1Z"/><path class="cls-36" d="M145.31,104.28a11,11,0,0,1,3.46-2.86,11.76,11.76,0,0,1,5.17-1.08l0-.33a10.55,10.55,0,0,0-5.38,1.15,10.86,10.86,0,0,0-3.53,3Z"/><path class="cls-36" d="M147.23,103.3l.94.21a10.88,10.88,0,0,1,2.22-1.66,7.14,7.14,0,0,1,2.12-.73,6.69,6.69,0,0,0-2.59.6,8.91,8.91,0,0,0-1.66,1.13l-.48,0Z"/><path class="cls-36" d="M164.39,107.34a14.9,14.9,0,0,0-3-3.91,14.1,14.1,0,0,0-4.94-2.69l0-.34a12.56,12.56,0,0,1,5.14,2.85,14.42,14.42,0,0,1,3.1,4Z"/><path class="cls-36" d="M162.63,105.77l-.95-.1a14.9,14.9,0,0,0-2-2.33,9,9,0,0,0-2-1.38,8.11,8.11,0,0,1,2.46,1.4,11.16,11.16,0,0,1,1.49,1.64l.47.19Z"/></g><path class="cls-30" d="M127.09,120.47l1.41-4.71s14-4,22.29-2.35,29.71,7.77,29.71,7.77C175.56,120.47,141.21,108.94,127.09,120.47Z"/></g></g><g id="BrazoI"><path id="Bazo_I-2" data-name="Bazo I" class="cls-5" d="M222.08,173.9s7.86-1,13.9.44c5.26,1.28,8.68,5.08,10.2,4.84,1.55-9.79,2.32-38.06.38-41.32s-8.08-13.3-8.08-13.3-27.25,3.65-22.68,16.32c6.17,11.48,4.9,8.72,6.62,12.49S227.71,164.28,222.08,173.9Z"/><g class="cls-40"><path class="cls-6" d="M213,139.58l6.72,1s7.93,16.35,7.73,19.69-1.53,10.94-.92,11.08,16-.89,18.25,8.61c-6.16-1.08-25.48-4.34-25.48-4.34l.31-13.7Z"/></g></g><path class="cls-5" d="M212.4,137.74l-.2,2.1h.85l0,0C212.45,139.4,212.4,137.74,212.4,137.74Z"/><path class="cls-5" d="M226.82,109.8,210.24,93.12l-2.11.82,1.66-5.79c-.19-.58-1-.16-1.66-.24l-1.76.24,1.18-1.69c.18-.48.42-.95.16-1.44l-3.47-1-1.36-4c-1.47.44-7.12,1.69-15.55,11.71-9.87,11.72,2.37,22,2.37,22l1.8,1.91,2.68-1.27,21.13,23.31,2.42,1.54,20.65-14.41C238.24,124.27,228.92,112.36,226.82,109.8Z"/><path class="cls-6" d="M215.31,137.6l2.46-4.38-3,2.46L197,113l1.4-3.46-4.11,1.67,1.22-3.58-6.35-5.15,2.38,13.11,20.9,22.18s0,1.66.62,2.07l0,0c.6.38,2.46-.05,2.46-.05l-.08.26,2.3-.9,2.91-4.44Z"/><path class="cls-6" d="M208.13,87.91a.7.7,0,0,1-.57-.33,1.2,1.2,0,0,1,0-1.12l-3,3.19Z"/><path class="cls-6" d="M210.29,93.75l16.53,16c-5.3-6.46-14.34-16.21-15.32-16.6-1.36-.54-1.84-2.92-1.68-4.56a1.41,1.41,0,0,0,0-.49L206.3,95.1Z"/><path class="cls-6" d="M207.71,85a1.42,1.42,0,0,0-.35-.41,12.42,12.42,0,0,0-2.71-1.19l-1.39-3.54a2.81,2.81,0,0,0-.38.1l.81,4.83Z"/><path class="cls-4" d="M241.93,133.33l0,0c.14.44.27.89.4,1.36A7.76,7.76,0,0,0,241.93,133.33Z"/><path class="cls-4" d="M244.88,177.29c.88.42,1.36.71,1.36.71s-.37-.36-1-.92A1.62,1.62,0,0,1,244.88,177.29Z"/><path class="cls-6" d="M206.37,90.07a.77.77,0,0,1-.61-.31,1.22,1.22,0,0,1-.11-1.11L202.94,92Z"/><path class="cls-6" d="M205.67,87.2a1.73,1.73,0,0,0-.38-.39,13.47,13.47,0,0,0-2.82-1l-1.82-4.47-.37.12,1.37,5.79Z"/><g id="Chaqueta_I" data-name="Chaqueta I"><path class="cls-22" d="M171.41,196.94l-5.28,2.12s-2.63,4.94-5.66,0,3-106.71,3.43-111.41,6.18-9.08,7.56-13.81a6.2,6.2,0,0,0-.36-4.45l-5.58-4.87,7.11-4.35s8.26,3.18,8.4,6.12c.29,6,4.36,4.11,4.21,7.87-.11,2.59-6.27,1.94-6.48,5.88C176.88,116.05,171.41,196.94,171.41,196.94Z"/><path class="cls-23" d="M184.26,76.57s1-.92-1.29-3c-.68-.64-1.85-1.29-2.18-1.88-.74-1.35-.66-3.33-2-4.37-2-1.5-5.06,5.54-5.06,5.54s-2,2.4-3.46,7.83a77.44,77.44,0,0,0-1.69,12.23c-1.39,27.16-6.63,101.24-6.63,101.24s-1.16,9.88.84,5.06,16.11-86,16.11-86Z"/><path class="cls-5" d="M178.09,69.05c-1.33.07-3.24,4.6-6.26,9.3-1.5,4.5-7.46,89.66-9.16,116.46-.3,4.58-1.26,6.72-.46,7.25s2.9-.9,6.63-2.17c4.85-1.64,19.1-8.9,22.19-10.6,5.47-3,1.76-35.11,2.47-36.53s1.33-3.2.58-4.42,2.61-31.58,2.61-31.58-10.84-11.82-5-24.35,11.58-12.53,11.58-12.53l-19.41-4.53s-1.5-1.11-3.23-2.35S179.41,69,178.09,69.05Z"/><polygon class="cls-6" points="180.62 73 186.21 81.53 166.13 141.86 187.79 81.53 180.62 73"/><g class="cls-41"><polygon class="cls-6" points="194.62 155.53 182.17 157.65 191.17 154.09 174.38 147.06 192.34 152.28 179.09 140 191.68 147.76 190.62 102.43 207.09 120.18 196.09 150.53 194.62 155.53"/><path class="cls-6" d="M194,153.93c-.4-2.27-.78-2.79-1.38-.55-.8,3-1,29.42-2.27,31.15-2.82,3.76-29.91,18.76-29.91,18.76l18.15-6.82,10.53-4.92s5.26-4.18,5.61-8.37C195.55,174,194.3,155.42,194,153.93Z"/></g><path class="cls-23" d="M169.86,77.45s3.47-6.89,2.76-9.18A11.89,11.89,0,0,0,169.86,64l-2.13,4.49s1,2,1.76,3.84S169.86,77.45,169.86,77.45Z"/></g><g id="Cabeza"><path class="cls-7" d="M155.46,31.53A32.18,32.18,0,0,0,150,32a16.48,16.48,0,0,0-6.1,30.22c1.71,3.14,4.84,8.19,8.06,9.73,4.79,2.3,6.66,5.29,10.15,5.34s10.38-11.11,11.31-13.92c.6-1.85,1.26-14.77,1.26-14.77A16.51,16.51,0,0,0,160.44,32,33.42,33.42,0,0,0,155.46,31.53Z"/><path class="cls-15" d="M162.06,77.5c-2.16,0-3.69-1.12-5.62-2.5a30,30,0,0,0-4.63-2.86c-3.3-1.58-6.51-6.78-8.15-9.78a16.74,16.74,0,0,1,6.25-30.65,32.8,32.8,0,0,1,5.56-.43,33.77,33.77,0,0,1,4.66.4l.34.05a16.77,16.77,0,0,1,14.41,16.83c0,.54-.67,13-1.28,14.85C172.72,66.1,165.77,77.55,162.06,77.5Zm-6.6-45.72a31.8,31.8,0,0,0-5.47.43A16.23,16.23,0,0,0,144,62l.06,0,0,.05c1.6,2.94,4.76,8.09,8,9.63a29.64,29.64,0,0,1,4.71,2.9c1.86,1.33,3.33,2.38,5.33,2.41,3.21,0,10.11-10.82,11.07-13.75.58-1.79,1.24-14.57,1.25-14.7a16.26,16.26,0,0,0-14-16.32l-.35,0A31.08,31.08,0,0,0,155.46,31.78Z"/><path class="cls-32" d="M160.84,60.06s0-1.61-3.35-2.37a15.06,15.06,0,0,0-5.43-.39l.32,1.57"/><path class="cls-42" d="M160.59,60.07s-.1-1.44-3.15-2.13a16.46,16.46,0,0,0-5.08-.43l.27,1.31-.49.1-.37-1.82.25-.05a15.54,15.54,0,0,1,5.53.4c3.48.79,3.54,2.53,3.54,2.61Z"/><path class="cls-10" d="M171.44,51.59s-3.12,3.91-3.56,5.83a49.66,49.66,0,0,0-.34,7.48l-1.11-8.82Z"/><path class="cls-43" d="M168.24,57.85s2.83-3.64,5.25-4l.54,1.37"/><path class="cls-6" d="M161,55.72s-6.46-3.28-10-2c0,0-.33.59.52.61C153.63,53.59,161,55.72,161,55.72Z"/><path class="cls-6" d="M174.61,49.76c-2.65-.33-7.19,5.5-7.19,5.5s4-3.42,4.78-3.89,2.28-1.23,2.28-1.23Z"/><path class="cls-10" d="M146,54.21s2.81,12.19,9.92,14.05c-.48,1.29-8-.11-8-.11s-4.3-8.4-3.08-10.94S146,54.21,146,54.21Z"/><path class="cls-44" d="M169.21,68l1.28.74s2.51-3.76,2.81-5.18.49-2.95.49-2.95"/><path class="cls-6" d="M140.84,36.72a26.78,26.78,0,0,1,4,7.29c1.15,3.71.65,7.55,2.41,7.41,0,0-3.16,9,1.78,12.87.64.25,1,2.45,1.92,2.67.67.15,1.37.3,2.06.43,2.27.43,4.37.71,4.37.71a22.56,22.56,0,0,0,3.4-.88c2.19-.71,7.22-2.82,8.49-.68l1.26,2.15A31,31,0,0,1,168,74.37c-.36.64-.76,1.39-1.14,2.1-.16.3-.48.91-.78,1.45s-.47.83-.56,1a4.21,4.21,0,0,0-.46.95c-.13.36.26.75.26.86,0,.33-1.6.44-2.34.45a14.48,14.48,0,0,1-4.23-.84c-4.18-1.37-9.65-4.44-12-9.19-4.15-8.22-3-18-4.92-18.89-1.34-.61-3.09,4.9-3.09,4.9A15,15,0,0,1,136,45.43,14.39,14.39,0,0,1,140.84,36.72Z"/><path class="cls-10" d="M142.92,53.13s-3.34-3.34-4.43-1c-.5,1.08-.38,3.27.46,5.26,1,2.37,3.88,4.53,4.89,4.11"/><path class="cls-15" d="M143.52,61.83c-1.41,0-3.92-2.19-4.8-4.31-.83-2-1-4.26-.46-5.46a1.54,1.54,0,0,1,1.15-1c1.53-.26,3.6,1.78,3.69,1.87l-.36.35c-.54-.54-2.19-1.92-3.24-1.73a1.09,1.09,0,0,0-.79.69,7.29,7.29,0,0,0,.47,5.06c1,2.29,3.73,4.32,4.57,4l.19.46A1.16,1.16,0,0,1,143.52,61.83Z"/><path class="cls-7" d="M165.71,53.77s2.84,12.42,2.41,12.69-4.63-.74-4.63-.74a1,1,0,0,1,.25-1.22"/><path class="cls-15" d="M167.76,66.75a27.11,27.11,0,0,1-4.33-.79l-.11,0,0-.1a1.26,1.26,0,0,1,.32-1.53l.31.4a.72.72,0,0,0-.22.81,24.89,24.89,0,0,0,4.23.75c.05-1-1.45-8.08-2.45-12.44l.49-.11c2.89,12.6,2.47,12.86,2.3,13A1.15,1.15,0,0,1,167.76,66.75Z"/><g class="cls-45"><circle class="cls-42" cx="158.66" cy="58.79" r="2.09"/></g><g class="cls-46"><ellipse class="cls-42" cx="172.39" cy="55.18" rx="1.71" ry="1.47" transform="translate(114.72 226.76) rotate(-89.17)"/></g></g></g></g></svg>