<svg id="Capa_1" data-name="Capa 1" xmlns="http://www.w3.org/2000/svg" viewBox="0 0 100 100"><defs><style>.cls-1{fill:#7a11f5;}.cls-2{fill:#f5eefc;}</style></defs><path class="cls-1" d="M50,14.38c8.51,0,17,.13,25.52-.05A9.22,9.22,0,0,1,85.13,24a45.85,45.85,0,0,0,1.52,15.24,17.26,17.26,0,0,0,3,5.94,6.87,6.87,0,0,0,4.15,2.35c1,.18,1.27.59,1.13,1.49a2.25,2.25,0,0,0,0,.26,7.72,7.72,0,0,1-.09,2.6c-.34.85-1.52.6-2.28.95a10.36,10.36,0,0,0-5.15,5.88c-1.92,4.66-2.29,9.57-2.35,14.54a28.65,28.65,0,0,1-.2,5.23,8.65,8.65,0,0,1-8.38,7.16q-26.45.06-52.88,0c-5.11,0-8.82-4.3-8.65-9.71a50.21,50.21,0,0,0-1.2-13.83,16.63,16.63,0,0,0-3.08-6.77,6.47,6.47,0,0,0-5-2.78c-.44,0-.64-.17-.62-.62s0-.7,0-1a8.05,8.05,0,0,1,.08-2.74c.34-.93,1.59-.6,2.39-1,2.82-1.35,4.33-3.75,5.36-6.53a38.46,38.46,0,0,0,1.93-10.27c.27-3.06-.27-6.15.4-9.17a8.64,8.64,0,0,1,8.61-6.82H50Zm7.31,34.89c0-.35.2-.37.36-.43a8.85,8.85,0,0,0,5.82-8.37A9.29,9.29,0,0,0,57.6,32a15.93,15.93,0,0,0-5.48-1c-4.78,0-9.56,0-14.34,0-1,0-1.15.28-1.14,1.18q0,18.09,0,36.17c0,1.16.42,1.37,1.45,1.36,4.73-.05,9.47,0,14.2,0A20,20,0,0,0,57,69.08c5.36-1.27,8.47-5.23,8.39-10.67C65.3,53.72,62.32,50.33,57.33,49.27Z"/><path class="cls-2" d="M57.33,49.27c5,1.06,8,4.45,8,9.14.08,5.44-3,9.4-8.39,10.67a20,20,0,0,1-4.69.55c-4.73,0-9.47,0-14.2,0-1,0-1.46-.2-1.45-1.36q0-18.09,0-36.17c0-.9.19-1.19,1.14-1.18,4.78,0,9.56,0,14.34,0a15.93,15.93,0,0,1,5.48,1,9.29,9.29,0,0,1,5.91,8.47,8.85,8.85,0,0,1-5.82,8.37C57.53,48.9,57.34,48.92,57.33,49.27ZM42.8,58.35V63.6c0,.48-.07,1,.68,1,3.46-.09,6.93.3,10.36-.27s5.17-2.68,5.23-5.74c.07-3.41-1.42-5.24-4.9-6.07S47,52.2,43.45,52.06c-.76,0-.64.57-.64,1C42.8,54.84,42.8,56.6,42.8,58.35Zm0-16.63c0,1.53,0,3.06,0,4.6,0,.82.28,1.07,1.07,1,1.13-.05,2.28,0,3.42,0,2,0,4.12.16,6.11-.55,3-1.06,4.15-2.92,3.85-6.29-.2-2.35-2.06-4-4.89-4.3s-5.77-.07-8.66-.16c-.72,0-.9.3-.89.95C42.82,38.56,42.81,40.14,42.81,41.72Z"/><path class="cls-1" d="M42.8,58.35c0-1.75,0-3.51,0-5.26,0-.46-.12-1.05.64-1,3.57.14,7.18-.39,10.72.45s5,2.66,4.9,6.07c-.06,3.06-1.91,5.18-5.23,5.74s-6.9.18-10.36.27c-.75,0-.67-.51-.68-1Z"/><path class="cls-1" d="M42.81,41.72c0-1.58,0-3.16,0-4.74,0-.65.17-1,.89-.95,2.89.09,5.78-.17,8.66.16s4.69,2,4.89,4.3c.3,3.37-.85,5.23-3.85,6.29-2,.71-4.06.53-6.11.55-1.14,0-2.29,0-3.42,0-.79,0-1.1-.21-1.07-1C42.84,44.78,42.81,43.25,42.81,41.72Z"/></svg>