<svg id="Capa_1" data-name="Capa 1" xmlns="http://www.w3.org/2000/svg" viewBox="0 0 100 100"><defs><style>.cls-1{fill:#1a0a34;}.cls-2{fill:#f7f8f9;}.cls-3{fill:#1e0f38;}.cls-4{fill:#05d8fe;}.cls-5{fill:#f5f8f9;}</style></defs><path class="cls-1" d="M75.58,51.87V86.75c0,5.33-2.91,8.25-8.21,8.25H34c-5.08,0-8.07-3-8.07-8,0-16.74,0-29.83,0-46.57,0-.83.16-1.66-.91-2.09-.53-.21-.56-.87-.56-1.44,0-1.71,0-3.41,0-5.12A1.86,1.86,0,0,1,25,30.29c1.27-1.22,1.28-2.42,0-3.6a1.83,1.83,0,0,1-.58-1.46c0-1.7,0-3.41,0-5.11,0-.43-.09-1,.3-1.19,1.61-.85,1.24-2.34,1.13-3.63C25.27,8.06,28.65,4.78,36.15,5c10.46.33,20.94.08,31.41.09,5,0,8,3,8,8.06Q75.6,32.51,75.58,51.87Zm-46.77,1v33.8c0,3.84,1.59,5.44,5.41,5.44q16.35,0,32.7,0c4.26,0,5.74-1.46,5.74-5.66V15c0-.36,0-.73,0-1.09s-.06-.73-.57-.73c-2.87,0-5.88-.57-8,2.28a5.6,5.6,0,0,1-4.67,2.1H42a5,5,0,0,1-4.13-1.62c-2-2.54-4.55-2.9-7.48-2.82-1.42,0-1.65.44-1.65,1.74C28.83,27.49,28.81,40.16,28.81,52.83ZM72.54,11.67c-.67-2.5-2-3.63-4.43-3.64Q50.77,8,33.41,8A4.41,4.41,0,0,0,29.88,9.6c-.44.51-1,1.13-.77,1.76s1.09.33,1.63.29c3.14-.24,5.88.35,8,3a4.33,4.33,0,0,0,3.64,1.38h16.8a4.35,4.35,0,0,0,3.63-1.39c2-2.6,4.7-3.27,7.79-3C71.2,11.72,71.85,11.67,72.54,11.67Z"/><path class="cls-2" d="M28.81,52.83c0-12.67,0-25.34,0-38,0-1.3.23-1.7,1.65-1.74,2.93-.08,5.5.28,7.48,2.82A5,5,0,0,0,42,17.52H59.39a5.6,5.6,0,0,0,4.67-2.1c2.15-2.85,5.16-2.23,8-2.28.51,0,.57.33.57.73s0,.73,0,1.09V86.41c0,4.2-1.48,5.66-5.74,5.66q-16.35,0-32.7,0c-3.82,0-5.41-1.6-5.41-5.44ZM45.62,78.9c-.14-.82-.55-1.4-1.4-1.42A1.36,1.36,0,0,0,42.72,79a1.33,1.33,0,0,0,1.37,1.4C45,80.38,45.5,79.78,45.62,78.9ZM50,77.43c-.75.16-1.4.56-1.38,1.52a1.33,1.33,0,0,0,1.37,1.4,1.35,1.35,0,0,0,1.49-1.47C51.43,78.05,50.89,77.58,50,77.43Zm6,2.95c.79-.17,1.36-.62,1.34-1.46a1.43,1.43,0,1,0-2.86.17A1.44,1.44,0,0,0,55.94,80.38Z"/><path class="cls-2" d="M72.54,11.67c-.69,0-1.34.05-2,0-3.09-.26-5.75.41-7.79,3a4.35,4.35,0,0,1-3.63,1.39H42.34a4.33,4.33,0,0,1-3.64-1.38c-2.08-2.68-4.82-3.27-8-3-.54,0-1.37.39-1.63-.29s.33-1.25.77-1.76A4.41,4.41,0,0,1,33.41,8q17.36,0,34.7,0C70.52,8,71.87,9.17,72.54,11.67Zm-19.6.66c-.21-1.29-.91-2.14-2.27-2.09a2,2,0,0,0-2.1,2.23,2,2,0,0,0,2.22,2.09C52.15,14.53,52.81,13.66,52.94,12.33ZM44.8,13.87a1.44,1.44,0,0,0,1.51-1.31A1.34,1.34,0,0,0,45,11a1.36,1.36,0,0,0-1.51,1.45C43.44,13.28,44,13.7,44.8,13.87Zm13.26-1.56c-.16-.67-.51-1.3-1.37-1.34a1.35,1.35,0,0,0-1.54,1.41,1.33,1.33,0,0,0,1.5,1.45C57.48,13.81,57.92,13.24,58.06,12.31Z"/><path class="cls-3" d="M45.62,78.9c-.12.88-.59,1.48-1.53,1.45A1.33,1.33,0,0,1,42.72,79a1.36,1.36,0,0,1,1.5-1.47C45.07,77.5,45.48,78.08,45.62,78.9Z"/><path class="cls-3" d="M50,77.43c.94.15,1.48.62,1.48,1.45a1.35,1.35,0,0,1-1.49,1.47A1.33,1.33,0,0,1,48.57,79C48.55,78,49.2,77.59,50,77.43Z"/><path class="cls-3" d="M55.94,80.38a1.44,1.44,0,0,1-1.52-1.29,1.43,1.43,0,1,1,2.86-.17C57.3,79.76,56.73,80.21,55.94,80.38Z"/><path class="cls-3" d="M52.94,12.33c-.13,1.33-.79,2.2-2.15,2.23a2,2,0,0,1-2.22-2.09,2,2,0,0,1,2.1-2.23C52,10.19,52.73,11,52.94,12.33Z"/><path class="cls-3" d="M44.8,13.87c-.79-.17-1.36-.59-1.35-1.45A1.36,1.36,0,0,1,45,11a1.34,1.34,0,0,1,1.35,1.59A1.44,1.44,0,0,1,44.8,13.87Z"/><path class="cls-3" d="M58.06,12.31c-.14.93-.58,1.5-1.41,1.52a1.33,1.33,0,0,1-1.5-1.45A1.35,1.35,0,0,1,56.69,11C57.55,11,57.9,11.64,58.06,12.31Z"/><path class="cls-4" d="M63.56,35.42a15.71,15.71,0,0,1-.49,4.15c-.18.71,0,1,.69,1.17a15.37,15.37,0,0,1,6.06,3.18c1.29,1.16,2.22,2.51,1.76,4.37A5.36,5.36,0,0,1,69.8,51a16.37,16.37,0,0,1-6.11,3.27c-.58.18-.67.38-.55,1a15.12,15.12,0,0,1,.07,7.53c-.82,2.86-2.87,4-5.71,3.12a15.34,15.34,0,0,1-6-3.73c-.53-.49-.8-.46-1.32,0C48,64,45.72,65.66,42.78,66.05a3.74,3.74,0,0,1-4.09-2.18,9.91,9.91,0,0,1-.8-5.29,16.57,16.57,0,0,1,.53-3.36c.18-.59-.06-.75-.55-.91a15.53,15.53,0,0,1-6.32-3.42c-2.43-2.32-2.42-4.74.06-7a15.59,15.59,0,0,1,6.15-3.21c.61-.18.81-.37.65-1.07a15.67,15.67,0,0,1-.26-7.11c.72-3.08,2.76-4.31,5.8-3.42a15.46,15.46,0,0,1,6.14,3.74c.53.5.83.46,1.33,0a16.29,16.29,0,0,1,5.71-3.64,6.05,6.05,0,0,1,2.22-.4,3.7,3.7,0,0,1,3.5,2.46A9.8,9.8,0,0,1,63.56,35.42ZM50.74,54.09h0c1.11,0,2.22,0,3.32,0a.86.86,0,0,0,.83-.5c1.17-1.82,2.24-3.69,3.23-5.6a1.13,1.13,0,0,0,0-1.15Q56.63,44,54.9,41.33a1.09,1.09,0,0,0-1-.56q-3.2-.12-6.39,0a1,1,0,0,0-.92.51A58,58,0,0,0,43.33,47a.94.94,0,0,0,0,1,57.49,57.49,0,0,0,3.33,5.74.83.83,0,0,0,.78.44C48.53,54.08,49.64,54.09,50.74,54.09ZM38.83,42.22A16,16,0,0,0,33,45.1c-1.82,1.55-1.85,3-.07,4.59a15.15,15.15,0,0,0,5.59,3c.51.17.65-.07.78-.5a40.18,40.18,0,0,1,1.64-4.23A.91.91,0,0,0,41,47.1a39.65,39.65,0,0,1-1.75-4.46C39.15,42.42,39.13,42.15,38.83,42.22Zm.85,17.63A9.79,9.79,0,0,0,39.89,62c.51,2.08,1.52,2.7,3.58,2.13a14.56,14.56,0,0,0,5.75-3.52c.39-.34.11-.55-.1-.78a38.85,38.85,0,0,1-2.79-3.47,1.28,1.28,0,0,0-1-.57c-1.5-.19-3-.39-4.48-.66-.49-.09-.6.06-.69.46A18.51,18.51,0,0,0,39.68,59.85Zm22.15-.56a17.36,17.36,0,0,0-.42-3.74c-.08-.4-.2-.68-.74-.54a29.41,29.41,0,0,1-4.48.7,1.06,1.06,0,0,0-.89.45,36,36,0,0,1-2.91,3.71c-.2.22-.32.39,0,.65a14.08,14.08,0,0,0,5.87,3.65c1.7.45,2.66-.12,3.22-1.79A9,9,0,0,0,61.83,59.29ZM39.69,35.37a17.78,17.78,0,0,0,.5,4c.1.47.26.64.75.51a30.89,30.89,0,0,1,4.48-.69.94.94,0,0,0,.75-.39,37.18,37.18,0,0,1,3-3.73c.22-.24.26-.42,0-.66a14.21,14.21,0,0,0-6.24-3.7,2.16,2.16,0,0,0-2.88,1.66A9.11,9.11,0,0,0,39.69,35.37Zm22.09.43a10.47,10.47,0,0,0-.35-3.21c-.51-1.79-1.5-2.34-3.3-1.84a14.64,14.64,0,0,0-5.8,3.64c-.31.29-.17.48.05.72a37.14,37.14,0,0,1,2.89,3.61,1,1,0,0,0,.8.46,29.41,29.41,0,0,1,4.48.7c.49.11.66,0,.76-.53A23.21,23.21,0,0,0,61.78,35.8Zm8.1,11.85a3.19,3.19,0,0,0-1.46-2.59,16.23,16.23,0,0,0-5.52-2.74c-.44-.14-.55,0-.66.37A41.78,41.78,0,0,1,60.56,47a.8.8,0,0,0,0,.74,35.4,35.4,0,0,1,1.82,4.53c.09.29.2.45.56.33a15.11,15.11,0,0,0,5.94-3.22A2.92,2.92,0,0,0,69.88,47.65Zm-10.53,2c-.8,1.36-1.54,2.62-2.3,3.88-.17.29,0,.37.21.32,1.06-.18,2.11-.39,3.16-.57.28-.05.31-.17.22-.42A22.9,22.9,0,0,0,59.35,49.61Zm-17.21,0A25.75,25.75,0,0,0,41,52.73c-.14.4,0,.58.39.65,1,.15,2.1.33,3.26.52Zm2.38-8.52a19.11,19.11,0,0,0-3.42.53c-.24,0-.23.19-.17.38a21.5,21.5,0,0,0,1.22,3.2Zm14.85,4.2c.44-1.19.81-2.16,1.16-3.14.07-.21.15-.46-.21-.54a22.17,22.17,0,0,0-3.38-.53ZM48.3,56c.82,1,1.49,1.77,2.17,2.56.12.14.27.39.49.17A20.38,20.38,0,0,0,53.17,56Zm4.88-17.17L51,36.22c-.1-.12-.24-.21-.37-.07a25.69,25.69,0,0,0-2.24,2.7Z"/><path class="cls-5" d="M50.74,54.09c-1.1,0-2.21,0-3.31,0a.83.83,0,0,1-.78-.44,57.49,57.49,0,0,1-3.33-5.74.94.94,0,0,1,0-1,58,58,0,0,1,3.28-5.67,1,1,0,0,1,.92-.51q3.19-.12,6.39,0a1.09,1.09,0,0,1,1,.56q1.73,2.69,3.2,5.51a1.13,1.13,0,0,1,0,1.15c-1,1.91-2.06,3.78-3.23,5.6a.86.86,0,0,1-.83.5c-1.1,0-2.21,0-3.32,0Zm-.06-3a3.69,3.69,0,0,0,3.78-3.64,3.74,3.74,0,0,0-3.68-3.85A3.81,3.81,0,0,0,47,47.39,3.75,3.75,0,0,0,50.68,51.13Z"/><path class="cls-5" d="M38.83,42.22c.3-.07.32.2.39.42A39.65,39.65,0,0,0,41,47.1a.91.91,0,0,1-.07.82,40.18,40.18,0,0,0-1.64,4.23c-.13.43-.27.67-.78.5a15.15,15.15,0,0,1-5.59-3c-1.78-1.6-1.75-3,.07-4.59A16,16,0,0,1,38.83,42.22Z"/><path class="cls-5" d="M39.68,59.85a18.51,18.51,0,0,1,.49-4.3c.09-.4.2-.55.69-.46,1.48.27,3,.47,4.48.66a1.28,1.28,0,0,1,1,.57,38.85,38.85,0,0,0,2.79,3.47c.21.23.49.44.1.78a14.56,14.56,0,0,1-5.75,3.52c-2.06.57-3.07,0-3.58-2.13A9.79,9.79,0,0,1,39.68,59.85Z"/><path class="cls-5" d="M61.83,59.29a9,9,0,0,1-.38,3.09c-.56,1.67-1.52,2.24-3.22,1.79a14.08,14.08,0,0,1-5.87-3.65c-.29-.26-.17-.43,0-.65a36,36,0,0,0,2.91-3.71,1.06,1.06,0,0,1,.89-.45,29.41,29.41,0,0,0,4.48-.7c.54-.14.66.14.74.54A17.36,17.36,0,0,1,61.83,59.29Z"/><path class="cls-5" d="M39.69,35.37a9.11,9.11,0,0,1,.37-3,2.16,2.16,0,0,1,2.88-1.66,14.21,14.21,0,0,1,6.24,3.7c.26.24.22.42,0,.66a37.18,37.18,0,0,0-3,3.73.94.94,0,0,1-.75.39,30.89,30.89,0,0,0-4.48.69c-.49.13-.65,0-.75-.51A17.78,17.78,0,0,1,39.69,35.37Z"/><path class="cls-5" d="M61.78,35.8a23.21,23.21,0,0,1-.47,3.55c-.1.49-.27.64-.76.53a29.41,29.41,0,0,0-4.48-.7,1,1,0,0,1-.8-.46,37.14,37.14,0,0,0-2.89-3.61c-.22-.24-.36-.43-.05-.72a14.64,14.64,0,0,1,5.8-3.64c1.8-.5,2.79.05,3.3,1.84A10.47,10.47,0,0,1,61.78,35.8Z"/><path class="cls-5" d="M69.88,47.65a2.92,2.92,0,0,1-1,1.73A15.11,15.11,0,0,1,62.9,52.6c-.36.12-.47,0-.56-.33a35.4,35.4,0,0,0-1.82-4.53.8.8,0,0,1,0-.74,41.78,41.78,0,0,0,1.68-4.31c.11-.36.22-.51.66-.37a16.23,16.23,0,0,1,5.52,2.74A3.19,3.19,0,0,1,69.88,47.65Z"/><path class="cls-5" d="M59.35,49.61a22.9,22.9,0,0,1,1.29,3.21c.09.25.06.37-.22.42-1.05.18-2.1.39-3.16.57-.26,0-.38,0-.21-.32C57.81,52.23,58.55,51,59.35,49.61Z"/><path class="cls-5" d="M42.14,49.65l2.47,4.25c-1.16-.19-2.21-.37-3.26-.52-.42-.07-.53-.25-.39-.65A25.75,25.75,0,0,1,42.14,49.65Z"/><path class="cls-5" d="M44.52,41.13l-2.37,4.11A21.5,21.5,0,0,1,40.93,42c-.06-.19-.07-.34.17-.38A19.11,19.11,0,0,1,44.52,41.13Z"/><path class="cls-5" d="M59.37,45.33l-2.43-4.21a22.17,22.17,0,0,1,3.38.53c.36.08.28.33.21.54C60.18,43.17,59.81,44.14,59.37,45.33Z"/><path class="cls-5" d="M48.3,56h4.87A20.38,20.38,0,0,1,51,58.75c-.22.22-.37,0-.49-.17C49.79,57.79,49.12,57,48.3,56Z"/><path class="cls-5" d="M53.18,38.85H48.37a25.69,25.69,0,0,1,2.24-2.7c.13-.14.27,0,.37.07Z"/><path class="cls-4" d="M50.68,51.13A3.75,3.75,0,0,1,47,47.39a3.81,3.81,0,0,1,3.81-3.75,3.74,3.74,0,0,1,3.68,3.85A3.69,3.69,0,0,1,50.68,51.13Z"/></svg>