<svg id="Capa_1" data-name="Capa 1" xmlns="http://www.w3.org/2000/svg" viewBox="0 0 100 100"><defs><style>.cls-1{fill:#00759c;}</style></defs><path class="cls-1" d="M5,54.92V45.08c.5,0,.32-.46.35-.72a42.24,42.24,0,0,1,5.16-15.92c7.58-13.21,18.88-21,34-23.1.2,0,.57.11.54-.34h9.84c0,.5.46.32.72.35a42.24,42.24,0,0,1,15.92,5.16c13.21,7.58,21,18.88,23.1,34,0,.2-.11.57.34.54v9.84c-.5,0-.32.46-.35.72a42.24,42.24,0,0,1-5.16,15.92c-7.58,13.21-18.88,21-34,23.1-.2,0-.57-.11-.54.34H45.08c0-.5-.46-.32-.72-.35a42.24,42.24,0,0,1-15.92-5.16c-13.21-7.58-21-18.88-23.1-34C5.31,55.26,5.45,54.89,5,54.92ZM50.07,8.17a41.83,41.83,0,1,0,41.76,41.9A41.92,41.92,0,0,0,50.07,8.17Z"/><path class="cls-1" d="M40.53,70.85c-.24-.62-.47-1.22-.68-1.82Q33.63,51.45,27.41,33.86c-.38-1.08-.38-1.08.74-1.09s2.11,0,3.16,0c.55,0,.73-.18.71-.71,0-.73,0-1.46,0-2.19s-.25-.78-.84-.78c-3.77,0-7.55,0-11.33,0H18.64C24.85,20.32,33,14.87,43.33,13a37,37,0,0,1,32.23,9.56l-1.22.16a7.1,7.1,0,0,0-6.28,6.62,3.59,3.59,0,0,0,.65,2.41c.91,1.33,1.84,2.64,2.75,4a20.51,20.51,0,0,1,3.08,16.84c-1,4.47-2.79,8.68-4.23,13-.59,1.77-1.24,3.53-1.87,5.32A1.46,1.46,0,0,1,68,70Q61.59,51.91,55.19,33.81c-.36-1-.36-1,.7-1,1.23,0,2.46,0,3.69,0,.48,0,.69-.14.67-.64,0-.79,0-1.59,0-2.38,0-.49-.19-.68-.67-.65s-.94,0-1.41,0c-6.71,0-13.42,0-20.12,0-.79,0-1.13.17-1,1s-.34,1.93.16,2.46,1.67.14,2.53.2,1.85-.31,2.49.15.67,1.51,1,2.3c1.59,4.47,3.16,8.94,4.76,13.4a2.12,2.12,0,0,1,0,1.53q-3.51,10-7,20A1.43,1.43,0,0,1,40.53,70.85Z"/><path class="cls-1" d="M50.12,55l1.36,3.83c3.1,8.77,6.19,17.55,9.33,26.31.27.75.12,1-.62,1.16a38,38,0,0,1-21-.2c-.6-.17-.72-.35-.5-.94Q44.25,70.38,49.8,55.64C49.87,55.45,50,55.27,50.12,55Z"/><path class="cls-1" d="M68,83.18c-.24-.32,0-.62,0-.91Q74.59,64,81.12,45.74A29.06,29.06,0,0,0,82.9,32.66.75.75,0,0,1,83,32a21.09,21.09,0,0,1,2,4.09c4.31,11.48,3.47,22.58-2.67,33.2a36.58,36.58,0,0,1-13,13,4.83,4.83,0,0,0-1.38.9Z"/><path class="cls-1" d="M32.16,83.06c-18.41-9.67-23.94-32-16.82-47.47C15.73,36.18,32,82,32.16,83.06Z"/><path class="cls-1" d="M68,83.19v0Z"/></svg>