<svg id="Capa_1" data-name="Capa 1" xmlns="http://www.w3.org/2000/svg" viewBox="0 0 100 100"><defs><style>.cls-1{fill:#035ec0;}.cls-2{fill:#017afe;}.cls-3{fill:#f6f7f9;}</style></defs><path class="cls-1" d="M48.81,74.53c-10.12-.12-21-1.89-31-7.32a29.19,29.19,0,0,1-9-7.24c-5-6.24-5.06-13.66,0-19.9,4.06-5,9.51-8,15.42-10.23,11-4.11,22.34-5,33.93-4A62.39,62.39,0,0,1,80.9,32.08a30.56,30.56,0,0,1,10.31,8c5.07,6.28,5.06,13.83-.09,20-4.37,5.27-10.23,8.29-16.53,10.53C66.62,73.44,58.35,74.51,48.81,74.53Zm1.53-3.91A62.85,62.85,0,0,0,71.9,67.56C78,65.63,83.66,62.8,88.07,57.9a11.18,11.18,0,0,0,1.47-13.63C86.8,39.76,82.59,37,78,34.82a57.88,57.88,0,0,0-21.43-5.34c-10.7-.69-21.3.08-31.45,4a33.69,33.69,0,0,0-13.3,8.75,11.09,11.09,0,0,0-1.34,13.48c2.77,4.57,7,7.41,11.72,9.52A63.69,63.69,0,0,0,50.34,70.62Z"/><path class="cls-2" d="M50.34,70.62a63.69,63.69,0,0,1-28.15-5.37c-4.71-2.11-9-5-11.72-9.52a11.09,11.09,0,0,1,1.34-13.48,33.69,33.69,0,0,1,13.3-8.75c10.15-3.94,20.75-4.71,31.45-4A57.88,57.88,0,0,1,78,34.82c4.6,2.19,8.81,4.94,11.55,9.45A11.18,11.18,0,0,1,88.07,57.9c-4.41,4.9-10,7.73-16.17,9.66A62.85,62.85,0,0,1,50.34,70.62ZM61.4,62.69c2,.78,2.4-.66,2.55-2.52.06-.74.3-1.46.41-2.2.13-.94.53-1.38,1.58-1.33a33.74,33.74,0,0,0,5.22-.17c4.43-.46,7.16-3,8.48-7.06,1.77-5.48-1-9.33-6.73-9.48-2.87-.08-5.74,0-8.6,0-1.1,0-1.46.33-1.66,1.42C61.48,47.6,60.21,53.88,59,60.17,58.51,62.68,58.53,62.69,61.4,62.69ZM30.18,40v0c-1.5,0-3,.06-4.5,0-1.08-.06-1.48.28-1.69,1.39-1.14,6.19-2.4,12.36-3.59,18.54-.55,2.88-.51,2.78,2.54,2.92,1.51.06,2.14-.43,2.27-1.88.08-.92.34-1.84.46-2.76s.53-1.55,1.69-1.45a24.71,24.71,0,0,0,3.75,0c5.48-.35,8.86-3,10.09-7.86S40,40.42,35.05,40C33.44,39.83,31.8,40,30.18,40Zm20.58,3.66h1.13c2.54.06,3,.52,2.6,3.05-.32,2.16-.77,4.29-1.18,6.43-.77,3.95-.78,3.93,3.29,3.56.65-.06,1.08-.23,1.19-.9.62-3.75,1.74-7.41,2-11.21.14-2.44-.88-3.69-3.26-4.27a19.07,19.07,0,0,0-4.65-.39c-3.15,0-3.15,0-2.59-3.09.52-2.92.52-2.81-2.43-3-1.6-.09-2.1.46-2.37,2C43.38,41.74,42.18,47.65,41,53.58c-.59,3.07-.57,3,2.52,3.11,1.57.07,2-.58,2.25-1.92.58-3.31,1.32-6.59,1.87-9.91.18-1.08.63-1.35,1.59-1.26A14.79,14.79,0,0,0,50.76,43.61Z"/><path class="cls-3" d="M61.4,62.69c-2.87,0-2.89,0-2.41-2.52,1.22-6.29,2.49-12.57,3.66-18.87.2-1.09.56-1.45,1.66-1.42,2.86.08,5.73,0,8.6,0,5.75.15,8.5,4,6.73,9.48-1.32,4.09-4,6.6-8.48,7.06a33.74,33.74,0,0,1-5.22.17c-1,0-1.45.39-1.58,1.33-.11.74-.35,1.46-.41,2.2C63.8,62,63.35,63.47,61.4,62.69Zm4-9.69c1.21,0,2.32,0,3.43,0,4.08-.1,6.26-2.46,6.12-6.55a2.49,2.49,0,0,0-2.28-2.71c-1.54-.2-3.1-.12-4.65-.19-.77,0-.92.51-1,1.07C66.43,47.35,65.92,50.09,65.37,53Z"/><path class="cls-3" d="M30.18,40c1.62,0,3.26-.12,4.87,0,5,.45,7.37,3.93,6.15,8.8s-4.61,7.51-10.09,7.86a24.71,24.71,0,0,1-3.75,0c-1.16-.1-1.55.43-1.69,1.45s-.38,1.84-.46,2.76c-.13,1.45-.76,1.94-2.27,1.88-3.05-.14-3.09,0-2.54-2.92,1.19-6.18,2.45-12.35,3.59-18.54.21-1.11.61-1.45,1.69-1.39,1.5.09,3,0,4.5,0Zm1.42,3.6a5.89,5.89,0,0,1-.94,0c-1.55-.22-2.44.21-2.52,2a24.54,24.54,0,0,1-.75,4c-.72,3.57-.72,3.56,3,3.41,2.35-.09,4.27-.84,5.23-3.19C37.39,45.57,36.14,43.62,31.6,43.55Z"/><path class="cls-3" d="M50.76,43.61a14.79,14.79,0,0,1-1.49,0c-1-.09-1.41.18-1.59,1.26-.55,3.32-1.29,6.6-1.87,9.91-.24,1.34-.68,2-2.25,1.92-3.09-.15-3.11,0-2.52-3.11,1.14-5.93,2.34-11.84,3.41-17.78.27-1.5.77-2,2.37-2,3,.15,3,0,2.43,3-.56,3.09-.56,3.1,2.59,3.09a19.07,19.07,0,0,1,4.65.39c2.38.58,3.4,1.83,3.26,4.27-.22,3.8-1.34,7.46-2,11.21-.11.67-.54.84-1.19.9-4.07.37-4.06.39-3.29-3.56.41-2.14.86-4.27,1.18-6.43.38-2.53-.06-3-2.6-3.05H50.76Z"/><path class="cls-2" d="M65.37,53c.55-2.91,1.06-5.65,1.59-8.38.11-.56.26-1.1,1-1.07,1.55.07,3.11,0,4.65.19a2.49,2.49,0,0,1,2.28,2.71c.14,4.09-2,6.45-6.12,6.55C67.69,53,66.58,53,65.37,53Z"/><path class="cls-2" d="M31.6,43.55c4.54.07,5.79,2,4,6.25-1,2.35-2.88,3.1-5.23,3.19-3.75.15-3.75.16-3-3.41a24.54,24.54,0,0,0,.75-4c.08-1.79,1-2.22,2.52-2A5.89,5.89,0,0,0,31.6,43.55Z"/></svg>