<?xml version="1.0" encoding="UTF-8" standalone="no"?>
<!-- Created with Inkscape (http://www.inkscape.org/) -->

<svg
   width="68.956871mm"
   height="68.979927mm"
   viewBox="0 0 68.956871 68.979928"
   version="1.1"
   id="svg5"
   sodipodi:docname="net_github.svg"
   inkscape:version="1.1.2 (b8e25be833, 2022-02-05)"
   xmlns:inkscape="http://www.inkscape.org/namespaces/inkscape"
   xmlns:sodipodi="http://sodipodi.sourceforge.net/DTD/sodipodi-0.dtd"
   xmlns="http://www.w3.org/2000/svg"
   xmlns:svg="http://www.w3.org/2000/svg">
  <sodipodi:namedview
     id="namedview7"
     pagecolor="#ffffff"
     bordercolor="#999999"
     borderopacity="1"
     inkscape:pageshadow="0"
     inkscape:pageopacity="0"
     inkscape:pagecheckerboard="0"
     inkscape:document-units="mm"
     showgrid="false"
     inkscape:snap-page="false"
     inkscape:zoom="0.37014941"
     inkscape:cx="-495.74576"
     inkscape:cy="629.47554"
     inkscape:window-width="1920"
     inkscape:window-height="1017"
     inkscape:window-x="-8"
     inkscape:window-y="-8"
     inkscape:window-maximized="1"
     inkscape:current-layer="layer1"
     fit-margin-top="0.6"
     fit-margin-left="0.6"
     fit-margin-right="0.6"
     fit-margin-bottom="0.6"
     lock-margins="true" />
  <defs
     id="defs2" />
  <g
     inkscape:label="Capa 1"
     inkscape:groupmode="layer"
     id="layer1"
     transform="translate(-15.115283,0.19084956)">
    <path
       style="fill:#dfefd4;stroke-width:0.264583;fill-opacity:1"
       d="m 28.935267,67.763769 c -4.72157,-1.01408 -9.21532,-4.5205 -11.34067,-8.84898 -1.8951,-3.85955 -1.87931,-3.65281 -1.87931,-24.60625 0,-20.95345 -0.0158,-20.74671 1.87931,-24.6062496 2.15313,-4.385069 6.64177,-7.852869 11.47296,-8.86371896 2.7365,-0.57256 38.27392,-0.57256 41.01042,0 6.31654,1.32162996 11.64313,6.64820896 12.96475,12.96475856 0.57257,2.7365 0.57257,38.27392 0,41.01041 -1.32162,6.31655 -6.64821,11.64313 -12.96475,12.96476 -2.65847,0.55623 -38.54408,0.54338 -41.14271,-0.0147 z m 41.85051,-7.30393 c 2.10228,-0.98551 3.76289,-2.61131 4.78232,-4.68206 l 0.85988,-1.74666 v -19.71702 -19.71702 l -0.7039,-1.50155 c -0.98551,-2.10228 -2.61131,-3.7628996 -4.68206,-4.7823196 l -1.74667,-0.85988 h -19.72258 -19.72258 l -1.74666,0.85988 c -2.07076,1.01942 -3.69655,2.6800396 -4.68207,4.7823196 l -0.7039,1.50155 -0.0712,19.35743 c -0.0703,19.11351 -0.0641,19.37618 0.48523,20.84449 1.02205,2.73166 2.95183,4.7118 5.69596,5.84461 l 1.56288,0.64518 19.44687,-0.0625 19.44688,-0.0625 z m -24.91718,-9.62941 c -4.72156,-1.01407 -9.21532,-4.52049 -11.34067,-8.84898 -6.31945,-12.87019 4.64784,-27.13228 18.61672,-24.20954 4.8312,1.01084 9.31983,4.47864 11.47296,8.86371 6.34158,12.91524 -4.73205,27.2053 -18.74901,24.19481 z m 7.98385,-7.30571 c 2.1008,-0.98231 3.76233,-2.60839 4.78232,-4.68027 0.80528,-1.63576 0.85988,-1.92376 0.85988,-4.53591 0,-2.61216 -0.0546,-2.90016 -0.85988,-4.53592 -1.01943,-2.07075 -2.68004,-3.69655 -4.78232,-4.68206 -1.32709,-0.62211 -1.82434,-0.7039 -4.27968,-0.7039 -2.45534,0 -2.95258,0.0818 -4.27967,0.7039 -2.10101,0.98492 -3.7628,2.61138 -4.78233,4.68066 -0.74069,1.50336 -0.87212,2.07627 -0.94825,4.13347 -0.0722,1.95187 0.0164,2.66775 0.48523,3.91812 1.03881,2.77068 2.94361,4.73677 5.71318,5.89703 1.35485,0.56759 1.89746,0.64491 4.07642,0.58086 2.06699,-0.0608 2.78031,-0.19862 4.0151,-0.77598 z m 11.08247,-23.1934 c -0.99368,-0.53291 -1.8684,-1.91686 -1.8684,-2.95612 0,-1.03925 0.87472,-2.4232 1.8684,-2.95612 0.49581,-0.2659 1.20284,-0.48346 1.57118,-0.48346 1.63481,0 3.43959,1.80477 3.43959,3.43958 0,1.63481 -1.80478,3.43959 -3.43959,3.43959 -0.36834,0 -1.07537,-0.21756 -1.57118,-0.48347 z"
       id="path1267" />
  </g>
</svg>
