<?xml version="1.0" encoding="UTF-8" standalone="no"?>
<!-- Created with Inkscape (http://www.inkscape.org/) -->

<svg
   width="69.033142mm"
   height="68.862251mm"
   viewBox="0 0 69.033142 68.862252"
   version="1.1"
   id="svg5"
   sodipodi:docname="net_codepen.svg"
   inkscape:version="1.1.2 (b8e25be833, 2022-02-05)"
   xmlns:inkscape="http://www.inkscape.org/namespaces/inkscape"
   xmlns:sodipodi="http://sodipodi.sourceforge.net/DTD/sodipodi-0.dtd"
   xmlns="http://www.w3.org/2000/svg"
   xmlns:svg="http://www.w3.org/2000/svg">
  <sodipodi:namedview
     id="namedview7"
     pagecolor="#ffffff"
     bordercolor="#999999"
     borderopacity="1"
     inkscape:pageshadow="0"
     inkscape:pageopacity="0"
     inkscape:pagecheckerboard="0"
     inkscape:document-units="mm"
     showgrid="false"
     inkscape:snap-page="false"
     inkscape:zoom="0.37014941"
     inkscape:cx="-998.24555"
     inkscape:cy="599.75781"
     inkscape:window-width="1920"
     inkscape:window-height="1017"
     inkscape:window-x="-8"
     inkscape:window-y="-8"
     inkscape:window-maximized="1"
     inkscape:current-layer="layer1"
     fit-margin-top="0.6"
     fit-margin-left="0.6"
     fit-margin-right="0.6"
     fit-margin-bottom="0.6"
     lock-margins="true" />
  <defs
     id="defs2" />
  <g
     inkscape:label="Capa 1"
     inkscape:groupmode="layer"
     id="layer1"
     transform="translate(-7.4784329,-7.728584)">
    <path
       style="fill:#dfefd4;stroke-width:0.264583;fill-opacity:1"
       d="M 40.275204,75.40571 C 39.693114,75.07075 32.404794,70.25247 24.078926,64.69841 12.952064,57.27586 8.8333222,54.39193 8.5346562,53.81437 c -0.609355,-1.17836 -0.607805,-22.14453 0.0017,-23.323231 0.301644,-0.58332 4.5437568,-3.54512 16.2674968,-11.3578 8.722691,-5.8128 16.159071,-10.64392 16.525281,-10.73583 0.36621,-0.0919 0.96546,-0.0919 1.33167,0 0.36621,0.0919 7.80259,4.92303 16.52528,10.73583 11.72374,7.81268 15.96586,10.77448 16.2675,11.3578 0.60955,1.178741 0.61108,22.144881 0.002,23.323281 -0.29899,0.57817 -4.47963,3.50191 -15.82206,11.06519 -8.47864,5.65366 -15.7908,10.47336 -16.24925,10.71043 -1.12494,0.58173 -1.85252,0.53858 -3.1088,-0.18433 z m -1.19063,-14.59546 v -6.74417 l -6.32521,-4.22219 -6.325215,-4.22219 -4.853431,3.29334 c -2.669388,1.81133 -4.853433,3.41258 -4.853433,3.55832 0,0.20275 21.990659,15.08041 22.291149,15.08095 0.0364,6e-5 0.0661,-3.03476 0.0661,-6.74406 z m 17.79323,-1.15077 c 5.78446,-3.8544 10.51719,-7.09627 10.51719,-7.20416 0,-0.10789 -2.21513,-1.68872 -4.9225,-3.51294 l -4.92251,-3.31678 -6.32229,4.22024 -6.32228,4.22024 v 6.7746 6.77461 l 0.7276,-0.47391 c 0.40018,-0.26065 5.46034,-3.62751 11.24479,-7.4819 z M 47.023224,45.6842 c 2.76426,-1.84216 5.02594,-3.43056 5.02594,-3.52978 0,-0.0992 -2.26219,-1.68795 -5.02709,-3.53053 l -5.02708,-3.35015 -5.03364,3.35452 c -2.76851,1.84498 -5.00093,3.45235 -4.96094,3.57194 0.056,0.16748 9.63077,6.74018 9.92958,6.81626 0.037,0.009 2.32896,-1.49009 5.09323,-3.33226 z M 18.275799,44.1388 c 1.54427,-1.01865 2.807764,-1.91161 2.807764,-1.98438 0,-0.10989 -3.199423,-2.28072 -6.374965,-4.32546 l -0.759438,-0.489 v 4.81446 4.81447 l 0.759438,-0.489 c 0.417691,-0.26896 2.022931,-1.32244 3.567201,-2.34109 z m 51.708815,-4.36346 -0.0761,-2.37909 -3.49973,2.31294 c -1.92485,1.27212 -3.49973,2.37247 -3.49973,2.44523 0,0.0728 1.57488,1.17312 3.49973,2.44524 l 3.49973,2.31294 0.0761,-2.37909 c 0.0418,-1.3085 0.0418,-3.44967 0,-4.75817 z M 39.084574,23.468169 v -6.77461 l -0.7276,0.47391 c -7.32272,4.76947 -21.756391,14.550381 -21.70211,14.706331 0.03983,0.11444 2.257715,1.69342 4.928629,3.50886 l 4.856207,3.30079 6.322434,-4.22034 6.32244,-4.220341 z M 62.698644,35.1875 c 2.58299,-1.74664 4.69635,-3.25545 4.69635,-3.35292 0,-0.13278 -15.90066,-10.849481 -21.76198,-14.667111 l -0.7276,-0.47391 v 6.77454 6.77454 l 6.28385,4.202991 c 3.45612,2.31164 6.40292,4.13877 6.54844,4.06028 0.14552,-0.0785 2.37794,-1.57178 4.96094,-3.31841 z"
       id="path1132" />
  </g>
</svg>
